# Blender 3.4.1
# www.blender.org
o Cube
v -0.308900 -0.004039 0.397792
v -0.465921 1.195961 0.600000
v -0.308900 -0.004039 -0.397792
v -0.465921 1.195961 -0.600000
v 0.308900 -0.004039 0.397792
v 0.465921 1.195961 0.600000
v 0.308900 -0.004039 -0.397792
v 0.465921 1.195961 -0.600000
v -0.395501 1.171218 0.509315
v -0.395501 1.171218 -0.509315
v 0.395501 1.171218 -0.509315
v 0.395501 1.171218 0.509315
v -0.230682 0.272456 0.297065
v -0.230682 0.272456 -0.297065
v 0.230682 0.272456 -0.297065
v 0.230682 0.272456 0.297065
vn -0.9915 -0.1297 -0.0000
vn -0.0000 -0.1662 -0.9861
vn 0.9915 -0.1297 -0.0000
vn -0.0000 -0.1662 0.9861
vn -0.3315 0.9435 -0.0000
vn -0.9836 0.1804 -0.0000
vn 0.3315 0.9435 -0.0000
vn -0.0000 0.9647 -0.2632
vn -0.0000 0.9647 0.2632
vn -0.0000 1.0000 -0.0000
vn 0.9836 0.1804 -0.0000
vn -0.0000 0.2298 -0.9732
vn -0.0000 0.2298 0.9732
vt 0.493355 0.006605
vt 0.256689 0.006728
vt 0.289038 0.114464
vt 0.493355 0.119002
vt 0.256689 0.119125
vt 0.483216 0.114257
vt 0.493355 0.006646
vt 0.256688 0.006605
vt 0.267904 0.114257
vt 0.256688 0.119002
vt 0.493355 0.119043
vt 0.488477 0.115602
vt 0.493355 0.006728
vt 0.256689 0.006687
vt 0.280688 0.113870
vt 0.256689 0.119084
vt 0.493355 0.119125
vt 0.465281 0.114464
vt 0.493355 0.006687
vt 0.256688 0.006646
vt 0.272042 0.115602
vt 0.256688 0.119043
vt 0.493355 0.119084
vt 0.458129 0.113870
vt 0.493292 0.119005
vt 0.483216 0.114257
vt 0.289038 0.114464
vt 0.256738 0.119012
vt 0.493271 0.119012
vt 0.267904 0.114257
vt 0.488477 0.115602
vt 0.256735 0.118949
vt 0.493067 0.118949
vt 0.458129 0.113870
vt 0.256885 0.118919
vt 0.272042 0.115602
vt 0.493028 0.118919
vt 0.280688 0.113870
vt 0.465281 0.114464
vt 0.256790 0.119005
vt 0.351135 0.007458
vt 0.256738 0.006690
vt 0.493292 0.006777
vt 0.351135 0.008208
vt 0.493271 0.006690
vt 0.256735 0.006734
vt 0.381308 0.008208
vt 0.256982 0.006877
vt 0.493067 0.006734
vt 0.493028 0.006877
vt 0.381308 0.007458
vt 0.256790 0.006777
s 0
f 2/4/1 3/8/1 1/1/1
f 4/11/2 7/20/2 3/7/2
f 8/23/3 5/14/3 7/19/3
f 6/17/4 1/2/4 5/13/4
f 8/24/5 12/38/5 6/15/5
f 11/35/6 16/50/6 12/37/6
f 2/6/7 10/30/7 4/9/7
f 6/18/8 9/27/8 2/3/8
f 4/12/9 11/36/9 8/21/9
f 14/44/10 16/51/10 15/47/10
f 9/28/11 14/45/11 10/29/11
f 12/40/12 13/43/12 9/25/12
f 10/32/13 15/49/13 11/33/13
f 2/4/1 4/10/1 3/8/1
f 4/11/2 8/22/2 7/20/2
f 8/23/3 6/16/3 5/14/3
f 6/17/4 2/5/4 1/2/4
f 8/24/5 11/34/5 12/38/5
f 11/35/6 15/48/6 16/50/6
f 2/6/7 9/26/7 10/30/7
f 6/18/8 12/39/8 9/27/8
f 4/12/9 10/31/9 11/36/9
f 14/44/10 13/41/10 16/51/10
f 9/28/11 13/42/11 14/45/11
f 12/40/12 16/52/12 13/43/12
f 10/32/13 14/46/13 15/49/13
