# Blender v3.4.1 OBJ File: 'restaurant.blend'
# www.blender.org
mtllib door_A_Cube_260.mtl
o door_A_Cube.260
v 1.600000 0.000000 -0.100000
v 1.600000 -0.000000 0.100000
v 0.000000 0.000000 -0.100000
v 0.000000 -0.000000 0.100000
v 1.600000 2.800000 -0.100000
v 1.600000 2.800000 0.100000
v 0.000000 2.800000 -0.100000
v 0.000000 2.800000 0.100000
v 0.100000 2.700000 -0.100000
v 1.500000 2.700000 -0.100000
v 1.500000 0.100000 -0.100000
v 0.100000 0.100000 -0.100000
v 0.100000 0.100000 0.100000
v 1.500000 0.100000 0.100000
v 1.500000 2.700000 0.100000
v 0.100000 2.700000 0.100000
v 0.178231 1.000000 0.262767
v 1.421745 1.000000 0.262767
v 0.178231 0.956539 0.280769
v 1.421745 0.956539 0.280769
v 0.178231 0.938537 0.324230
v 1.421745 0.938537 0.324230
v 0.178231 0.956539 0.367691
v 1.421745 0.956539 0.367691
v 0.178231 1.000000 0.385693
v 1.421745 1.000000 0.385693
v 0.178231 1.043461 0.367691
v 1.421745 1.043461 0.367691
v 0.178231 1.061463 0.324230
v 1.421745 1.061463 0.324230
v 0.178231 1.043461 0.280769
v 1.421745 1.043461 0.280769
v 0.258921 0.965787 0.345572
v 0.258921 1.047920 0.345572
v 0.258921 1.078370 0.089978
v 0.258921 1.160503 0.089978
v 0.341054 0.965787 0.345572
v 0.341054 1.047920 0.345572
v 0.341054 1.078370 0.089978
v 0.341054 1.160503 0.089978
v 1.258921 0.965787 0.345572
v 1.258921 1.047920 0.345572
v 1.258921 1.078370 0.089978
v 1.258921 1.160503 0.089978
v 1.341054 0.965787 0.345572
v 1.341054 1.047920 0.345572
v 1.341054 1.078370 0.089978
v 1.341054 1.160503 0.089978
v 0.154404 1.000000 0.324230
v 1.445571 1.000000 0.324230
v 1.470000 0.130000 0.150000
v 0.130000 0.130000 0.150000
v 0.130000 2.670000 0.150000
v 1.470000 2.670000 0.150000
v 1.470000 2.670000 -0.150000
v 0.130000 2.670000 -0.150000
v 0.130000 0.130000 -0.150000
v 1.470000 0.130000 -0.150000
v 0.430000 1.630000 0.050000
v 0.430000 1.630000 -0.050000
v 0.430000 2.370000 -0.050000
v 1.170000 2.370000 0.050000
v 1.170000 1.630000 0.050000
v 0.481519 1.681519 0.016667
v 0.481519 1.681519 -0.016667
v 0.481519 2.318481 -0.016667
v 0.481519 2.318481 0.016667
v 1.118481 2.318481 -0.016667
v 1.118481 2.318481 0.016667
v 1.118481 1.681519 -0.016667
v 1.118481 1.681519 0.016667
v 0.178231 1.000000 -0.262767
v 1.421745 1.000000 -0.262767
v 0.178231 0.956539 -0.280769
v 1.421745 0.956539 -0.280769
v 0.178231 0.938537 -0.324230
v 1.421745 0.938537 -0.324230
v 0.178231 0.956539 -0.367691
v 1.421745 0.956539 -0.367691
v 0.178231 1.000000 -0.385693
v 1.421745 1.000000 -0.385693
v 0.178231 1.043461 -0.367691
v 1.421745 1.043461 -0.367691
v 0.178231 1.061463 -0.324230
v 1.421745 1.061463 -0.324230
v 0.178231 1.043461 -0.280769
v 1.421745 1.043461 -0.280769
v 0.258921 0.965787 -0.345572
v 0.258921 1.047920 -0.345572
v 0.258921 1.078370 -0.089978
v 0.258921 1.160503 -0.089978
v 0.341054 0.965787 -0.345572
v 0.341054 1.047920 -0.345572
v 0.341054 1.078370 -0.089978
v 0.341054 1.160503 -0.089978
v 1.258921 0.965787 -0.345572
v 1.258921 1.047920 -0.345572
v 1.258921 1.078370 -0.089978
v 1.258921 1.160503 -0.089978
v 1.341054 0.965787 -0.345572
v 1.341054 1.047920 -0.345572
v 1.341054 1.078370 -0.089978
v 1.341054 1.160503 -0.089978
v 0.154404 1.000000 -0.324230
v 1.445571 1.000000 -0.324230
v 1.198192 1.489043 0.150000
v 0.401809 1.489043 0.150000
v 0.430000 2.370000 0.050000
v 0.396490 2.403511 0.150000
v 1.203511 2.403511 0.150000
v 1.203510 2.403511 -0.150000
v 1.170000 2.370000 -0.050000
v 0.396489 2.403511 -0.150000
v 0.401808 1.489043 -0.150000
v 1.198191 1.489043 -0.150000
v 1.170000 1.630000 -0.050000
vt 0.411221 0.900188
vt 0.411221 0.815435
vt 0.411221 0.815435
vt 0.459651 0.947063
vt 0.411221 0.947063
vt 0.459651 0.947063
vt 0.411221 0.799810
vt 0.459651 0.799810
vt 0.459651 0.799810
vt 0.459651 0.815435
vt 0.459651 0.900188
vt 0.459651 0.815435
vt 0.289248 0.552837
vt 0.330716 0.553745
vt 0.331624 0.552837
vt 0.331624 0.647161
vt 0.330716 0.569370
vt 0.331624 0.568462
vt 0.459651 0.915813
vt 0.414248 0.912786
vt 0.411221 0.915813
vt 0.459651 0.831060
vt 0.456624 0.912786
vt 0.411221 0.831060
vt 0.456624 0.834087
vt 0.414248 0.834087
vt 0.459651 0.831060
vt 0.414248 0.834087
vt 0.411221 0.831060
vt 0.459651 0.915813
vt 0.456624 0.834087
vt 0.411221 0.915813
vt 0.456624 0.912786
vt 0.414248 0.912786
vt 0.331624 0.552837
vt 0.290156 0.553745
vt 0.289248 0.552837
vt 0.289248 0.694036
vt 0.330716 0.693128
vt 0.331624 0.694036
vt 0.289248 0.568462
vt 0.290156 0.646253
vt 0.289248 0.647161
vt 0.298222 0.653812
vt 0.330716 0.661878
vt 0.290156 0.661878
vt 0.289248 0.647161
vt 0.290156 0.569370
vt 0.289248 0.568462
vt 0.331624 0.568462
vt 0.330716 0.646253
vt 0.331624 0.647161
vt 0.331624 0.694036
vt 0.290156 0.693128
vt 0.289248 0.694036
vt 0.450667 0.889880
vt 0.404831 0.881447
vt 0.404831 0.889880
vt 0.450667 0.881447
vt 0.404831 0.877954
vt 0.450667 0.877954
vt 0.404831 0.881447
vt 0.450667 0.881447
vt 0.404831 0.889880
vt 0.450667 0.889880
vt 0.404831 0.945187
vt 0.450667 0.945187
vt 0.404831 0.948680
vt 0.450667 0.948680
vt 0.404831 0.898312
vt 0.450667 0.898312
vt 0.407804 0.866598
vt 0.407804 0.873836
vt 0.407804 0.850662
vt 0.447694 0.873836
vt 0.447694 0.866598
vt 0.447694 0.850662
vt 0.410834 0.873836
vt 0.410834 0.866598
vt 0.410834 0.850662
vt 0.444665 0.866598
vt 0.444665 0.873836
vt 0.444665 0.850662
vt 0.407804 0.921022
vt 0.410834 0.897848
vt 0.410834 0.921022
vt 0.444665 0.921022
vt 0.447694 0.897848
vt 0.447694 0.921022
vt 0.404831 0.889880
vt 0.404831 0.882186
vt 0.404831 0.878999
vt 0.404831 0.897574
vt 0.404831 0.900761
vt 0.450667 0.882073
vt 0.450667 0.889880
vt 0.450667 0.897687
vt 0.450667 0.900921
vt 0.450667 0.878839
vt 0.298383 0.626132
vt 0.290156 0.584995
vt 0.322489 0.626132
vt 0.322650 0.653812
vt 0.330716 0.584995
vt 0.322489 0.626132
vt 0.290156 0.584995
vt 0.298383 0.626132
vt 0.446635 0.880399
vt 0.427036 0.914448
vt 0.424236 0.880399
vt 0.330716 0.661878
vt 0.330716 0.584995
vt 0.446635 0.902798
vt 0.443835 0.867573
vt 0.290156 0.661878
vt 0.298222 0.653812
vt 0.424236 0.902798
vt 0.427036 0.867573
vt 0.427036 0.884373
vt 0.322650 0.653812
vt 0.427036 0.868748
vt 0.443835 0.868748
vt 0.443835 0.867573
vt 0.446635 0.902798
vt 0.446635 0.880399
vt 0.424236 0.902798
vt 0.427036 0.867573
vt 0.424236 0.880399
vt 0.427036 0.868748
vt 0.443835 0.868748
vt 0.216273 0.033729
vt 0.033731 0.216271
vt 0.216273 0.216271
vt 0.033731 0.216271
vt 0.216273 0.033729
vt 0.216273 0.216271
vt 0.404831 0.881447
vt 0.450667 0.889880
vt 0.404831 0.889880
vt 0.404831 0.877954
vt 0.450667 0.881447
vt 0.404831 0.881447
vt 0.450667 0.877954
vt 0.404831 0.889880
vt 0.450667 0.881447
vt 0.404831 0.945187
vt 0.450667 0.889880
vt 0.404831 0.948680
vt 0.450667 0.945187
vt 0.404831 0.898312
vt 0.450667 0.948680
vt 0.450667 0.898312
vt 0.407804 0.873836
vt 0.407804 0.866598
vt 0.407804 0.850662
vt 0.447694 0.873836
vt 0.447694 0.866598
vt 0.447694 0.889772
vt 0.410834 0.873836
vt 0.410834 0.866598
vt 0.410834 0.889772
vt 0.444665 0.873836
vt 0.444665 0.866598
vt 0.444665 0.850662
vt 0.410834 0.897848
vt 0.407804 0.921022
vt 0.410834 0.921022
vt 0.447694 0.897848
vt 0.444665 0.921022
vt 0.447694 0.921022
vt 0.404831 0.889880
vt 0.404831 0.882186
vt 0.404831 0.878999
vt 0.404831 0.897574
vt 0.404831 0.900761
vt 0.450667 0.882073
vt 0.450667 0.889880
vt 0.450667 0.897687
vt 0.450667 0.900921
vt 0.450667 0.878839
vt 0.321635 0.646024
vt 0.298383 0.641757
vt 0.322489 0.641757
vt 0.299236 0.621548
vt 0.299236 0.599149
vt 0.299236 0.621548
vt 0.321635 0.599149
vt 0.322650 0.622562
vt 0.321635 0.621548
vt 0.299236 0.605923
vt 0.321635 0.605923
vt 0.321635 0.605923
vt 0.299236 0.605923
vt 0.322650 0.606937
vt 0.321635 0.605923
vt 0.298222 0.622562
vt 0.299236 0.599149
vt 0.298383 0.594882
vt 0.321635 0.599149
vt 0.322650 0.622562
vt 0.322489 0.594882
vt 0.322489 0.641757
vt 0.299236 0.646024
vt 0.321635 0.646024
vt 0.427036 0.914448
vt 0.411221 0.900188
vt 0.411221 0.947063
vt 0.411221 0.799810
vt 0.459651 0.900188
vt 0.290156 0.553745
vt 0.330716 0.646253
vt 0.330716 0.553745
vt 0.290156 0.693128
vt 0.290156 0.569370
vt 0.290156 0.646253
vt 0.330716 0.569370
vt 0.330716 0.693128
vt 0.407804 0.889772
vt 0.447694 0.889772
vt 0.410834 0.889772
vt 0.444665 0.889772
vt 0.407804 0.897848
vt 0.444665 0.897848
vt 0.443835 0.914448
vt 0.443835 0.884373
vt 0.443835 0.884373
vt 0.427036 0.884373
vt 0.033731 0.033729
vt 0.033731 0.033729
vt 0.407804 0.889772
vt 0.447694 0.850662
vt 0.410834 0.850662
vt 0.444665 0.889772
vt 0.407804 0.897848
vt 0.444665 0.897848
vt 0.299236 0.646024
vt 0.299236 0.599149
vt 0.322489 0.594882
vt 0.299236 0.605923
vt 0.298222 0.606937
vt 0.299236 0.621548
vt 0.321635 0.621548
vt 0.298383 0.641757
vt 0.443835 0.914448
vn -1.0000 0.0000 0.0000
vn 0.0000 1.0000 0.0000
vn 0.0000 -1.0000 -0.0000
vn 1.0000 0.0000 0.0000
vn 0.0000 -0.8575 -0.5145
vn 0.8575 -0.0000 0.5145
vn 0.0000 0.0000 -1.0000
vn -0.0000 -0.0000 1.0000
vn 0.0000 -0.8575 0.5145
vn 0.0000 0.8575 0.5145
vn -0.8575 -0.0000 0.5145
vn -0.8575 0.0000 -0.5145
vn 0.8575 0.0000 -0.5145
vn 0.0000 0.8575 -0.5145
vn 0.0000 -0.7071 -0.7071
vn 0.0000 -0.9239 -0.3827
vn 0.0000 -0.9239 0.3827
vn 0.0000 -0.3827 0.9239
vn 0.0000 0.3827 0.9239
vn 0.0000 0.9239 0.3827
vn 0.0000 0.9239 -0.3827
vn 0.0000 0.3827 -0.9239
vn 0.0000 -0.9152 -0.4031
vn 0.0000 0.9152 0.4031
vn -0.9324 -0.0000 -0.3615
vn -0.9324 -0.2556 -0.2556
vn -0.9324 -0.3615 -0.0000
vn -0.9324 -0.2556 0.2556
vn -0.9324 -0.0000 0.3615
vn -0.9324 0.2556 0.2556
vn -0.9324 0.3615 -0.0000
vn -0.9324 0.2556 -0.2556
vn 0.9324 -0.2556 -0.2556
vn 0.9324 -0.0000 -0.3614
vn 0.9324 0.2556 -0.2556
vn 0.9324 0.3614 -0.0000
vn 0.9324 0.2556 0.2556
vn 0.9324 -0.0000 0.3614
vn 0.9324 -0.2556 0.2556
vn 0.9324 -0.3614 -0.0000
vn 0.0000 0.5669 0.8238
vn 0.0000 0.5432 0.8396
vn -0.8615 -0.0000 0.5078
vn -0.5432 -0.0000 0.8396
vn -0.8949 0.0041 0.4463
vn 0.8615 -0.0000 0.5078
vn 0.5432 -0.0000 0.8396
vn 0.0000 -0.8615 0.5078
vn 0.0000 -0.5432 0.8396
vn -0.5432 0.0000 -0.8396
vn -0.8615 0.0000 -0.5078
vn -0.8949 0.0041 -0.4463
vn 0.8615 0.0000 -0.5078
vn 0.5432 0.0000 -0.8396
vn 0.8949 0.0041 -0.4463
vn 0.0000 -0.5432 -0.8396
vn 0.0000 -0.8615 -0.5078
vn 0.0000 -0.7071 0.7071
vn 0.0000 -0.3827 -0.9239
vn 0.0000 -0.9152 0.4031
vn 0.0000 0.9152 -0.4031
vn 0.0000 0.5786 0.8156
vn 0.9496 0.0006 0.3136
vn 0.8949 0.0041 0.4463
vn -0.9495 0.0006 0.3136
vn 0.0000 -0.9482 0.3177
vn 0.0000 -0.9482 -0.3177
vn 0.9495 0.0006 -0.3136
vn 0.9604 0.0056 -0.2786
vn -0.9496 0.0006 -0.3136
vn -0.9604 0.0056 -0.2786
vn 0.0000 0.5786 -0.8156
vn 0.0000 0.5669 -0.8238
vn 0.0000 0.5432 -0.8396
vn 0.9604 0.0056 0.2786
vn -0.9604 0.0056 0.2786
usemtl restaurant.093
s 1
f 8/1/1 3/2/1 4/3/1
f 5/4/2 8/5/2 6/6/2
f 4/7/3 1/8/3 2/9/3
f 1/10/4 6/11/4 2/12/4
f 12/13/5 58/14/5 11/15/5
f 15/16/6 51/17/6 14/18/6
f 5/19/7 9/20/7 7/21/7
f 1/22/7 10/23/7 5/19/7
f 3/24/7 11/25/7 1/22/7
f 7/21/7 12/26/7 3/24/7
f 2/27/8 13/28/8 4/29/8
f 6/30/8 14/31/8 2/27/8
f 8/32/8 15/33/8 6/30/8
f 4/29/8 16/34/8 8/32/8
f 14/35/9 52/36/9 13/37/9
f 16/38/10 54/39/10 15/40/10
f 13/41/11 53/42/11 16/43/11
f 109/44/8 54/45/8 53/46/8
f 9/47/12 57/48/12 12/49/12
f 11/50/13 55/51/13 10/52/13
f 10/53/14 56/54/14 9/55/14
f 18/56/7 19/57/15 17/58/7
f 20/59/15 21/60/16 19/57/15
f 22/61/17 23/62/17 21/60/17
f 24/63/18 25/64/8 23/62/18
f 26/65/8 27/66/19 25/64/8
f 28/67/20 29/68/20 27/66/20
f 30/69/21 31/70/21 29/68/21
f 32/71/22 17/58/7 31/70/22
f 34/72/1 35/73/1 33/74/1
f 47/75/4 46/76/4 45/77/4
f 39/78/4 38/79/4 37/80/4
f 42/81/1 43/82/1 41/83/1
f 39/78/23 33/74/23 35/73/23
f 36/84/24 38/85/24 40/86/24
f 47/75/23 41/83/23 43/82/23
f 44/87/24 46/88/24 48/89/24
f 17/58/25 19/57/26 49/90/1
f 19/57/26 21/60/27 49/91/1
f 21/60/27 23/62/28 49/92/1
f 23/62/28 25/64/29 49/91/1
f 25/64/29 27/66/30 49/90/1
f 27/66/30 29/68/31 49/93/1
f 29/68/31 31/70/32 49/94/1
f 31/70/32 17/58/25 49/93/1
f 20/59/33 18/56/34 50/95/4
f 18/56/34 32/71/35 50/96/4
f 32/71/35 30/69/36 50/97/4
f 30/69/36 28/67/37 50/98/4
f 28/67/37 26/65/38 50/97/4
f 26/65/38 24/63/39 50/96/4
f 24/63/39 22/61/40 50/95/4
f 22/61/40 20/59/33 50/99/4
f 107/100/8 53/46/8 52/101/8
f 106/102/8 54/45/8 110/103/8
f 107/100/8 51/104/8 106/102/8
f 115/105/7 57/106/7 114/107/7
f 63/108/41 64/109/42 59/110/41
f 115/105/7 55/111/7 58/112/7
f 62/113/43 71/114/44 63/108/45
f 114/107/7 56/115/7 113/116/7
f 108/117/46 64/118/47 67/119/47
f 111/120/7 56/115/7 55/111/7
f 62/113/48 67/121/49 69/122/49
f 70/123/50 112/124/51 116/125/52
f 61/126/53 65/127/54 60/128/55
f 66/129/56 112/124/57 68/130/56
f 70/131/7 66/132/7 68/133/7
f 67/134/8 71/135/8 69/136/8
f 74/137/58 73/138/8 72/139/8
f 76/140/17 75/141/58 74/137/58
f 78/142/16 77/143/16 76/140/16
f 80/144/7 79/145/59 78/142/59
f 82/146/22 81/147/7 80/144/7
f 84/148/21 83/149/21 82/146/21
f 86/150/20 85/151/20 84/148/20
f 72/139/8 87/152/19 86/150/19
f 90/153/1 89/154/1 88/155/1
f 102/156/4 101/157/4 103/158/4
f 94/159/4 93/160/4 95/161/4
f 98/162/1 97/163/1 96/164/1
f 88/155/60 94/159/60 90/153/60
f 93/165/61 91/166/61 95/167/61
f 96/164/60 102/156/60 98/162/60
f 101/168/61 99/169/61 103/170/61
f 72/139/29 104/171/1 74/137/28
f 74/137/28 104/172/1 76/140/27
f 76/140/27 104/173/1 78/142/26
f 78/142/26 104/172/1 80/144/25
f 80/144/25 104/171/1 82/146/32
f 82/146/32 104/174/1 84/148/31
f 84/148/31 104/175/1 86/150/30
f 86/150/30 104/174/1 72/139/29
f 75/141/39 105/176/4 73/138/38
f 73/138/38 105/177/4 87/152/37
f 87/152/37 105/178/4 85/151/36
f 85/151/36 105/179/4 83/149/35
f 83/149/35 105/178/4 81/147/34
f 81/147/34 105/177/4 79/145/33
f 79/145/33 105/176/4 77/143/40
f 77/143/40 105/180/4 75/141/39
f 63/181/41 107/182/62 106/183/62
f 109/184/63 59/185/64 108/186/46
f 63/187/45 110/188/65 62/189/43
f 109/190/66 62/191/48 110/192/66
f 61/193/57 111/194/67 112/195/57
f 113/196/68 60/197/55 114/198/69
f 116/199/52 111/200/70 115/201/71
f 115/202/72 60/203/73 116/204/73
f 65/205/74 116/125/73 60/128/73
f 8/1/1 7/206/1 3/2/1
f 5/4/2 7/207/2 8/5/2
f 4/7/3 3/208/3 1/8/3
f 1/10/4 5/209/4 6/11/4
f 12/13/5 57/210/5 58/14/5
f 15/16/6 54/211/6 51/17/6
f 5/19/7 10/23/7 9/20/7
f 1/22/7 11/25/7 10/23/7
f 3/24/7 12/26/7 11/25/7
f 7/21/7 9/20/7 12/26/7
f 2/27/8 14/31/8 13/28/8
f 6/30/8 15/33/8 14/31/8
f 8/32/8 16/34/8 15/33/8
f 4/29/8 13/28/8 16/34/8
f 14/35/9 51/212/9 52/36/9
f 16/38/10 53/213/10 54/39/10
f 13/41/11 52/214/11 53/42/11
f 109/44/8 110/103/8 54/45/8
f 9/47/12 56/215/12 57/48/12
f 11/50/13 58/216/13 55/51/13
f 10/53/14 55/217/14 56/54/14
f 18/56/7 20/59/15 19/57/15
f 20/59/15 22/61/16 21/60/16
f 22/61/17 24/63/17 23/62/17
f 24/63/18 26/65/8 25/64/8
f 26/65/8 28/67/19 27/66/19
f 28/67/20 30/69/20 29/68/20
f 30/69/21 32/71/21 31/70/21
f 32/71/22 18/56/7 17/58/7
f 34/72/1 36/218/1 35/73/1
f 47/75/4 48/219/4 46/76/4
f 39/78/4 40/220/4 38/79/4
f 42/81/1 44/221/1 43/82/1
f 39/78/23 37/80/23 33/74/23
f 36/84/24 34/222/24 38/85/24
f 47/75/23 45/77/23 41/83/23
f 44/87/24 42/223/24 46/88/24
f 107/100/8 109/44/8 53/46/8
f 106/102/8 51/104/8 54/45/8
f 107/100/8 52/101/8 51/104/8
f 115/105/7 58/112/7 57/106/7
f 63/108/41 71/224/42 64/109/42
f 115/105/7 111/120/7 55/111/7
f 62/113/43 69/225/44 71/114/44
f 114/107/7 57/106/7 56/115/7
f 108/117/46 59/110/64 64/118/47
f 111/120/7 113/116/7 56/115/7
f 62/113/48 108/117/48 67/121/49
f 70/123/50 68/226/50 112/124/51
f 61/126/53 66/227/54 65/127/54
f 66/129/56 61/126/57 112/124/57
f 70/131/7 65/228/7 66/132/7
f 67/134/8 64/229/8 71/135/8
f 74/137/58 75/141/58 73/138/8
f 76/140/17 77/143/17 75/141/58
f 78/142/16 79/145/16 77/143/16
f 80/144/7 81/147/7 79/145/59
f 82/146/22 83/149/22 81/147/7
f 84/148/21 85/151/21 83/149/21
f 86/150/20 87/152/20 85/151/20
f 72/139/8 73/138/8 87/152/19
f 90/153/1 91/230/1 89/154/1
f 102/156/4 100/231/4 101/157/4
f 94/159/4 92/232/4 93/160/4
f 98/162/1 99/233/1 97/163/1
f 88/155/60 92/232/60 94/159/60
f 93/165/61 89/234/61 91/166/61
f 96/164/60 100/231/60 102/156/60
f 101/168/61 97/235/61 99/169/61
f 63/181/41 59/236/41 107/182/62
f 109/184/63 107/237/75 59/185/64
f 63/187/45 106/238/76 110/188/65
f 109/190/66 108/239/48 62/191/48
f 61/193/57 113/240/67 111/194/67
f 113/196/68 61/241/53 60/197/55
f 116/199/52 112/242/51 111/200/70
f 115/202/72 114/243/72 60/203/73
f 65/205/74 70/244/74 116/125/73
