# Blender v3.4.1 OBJ File: 'restaurant.blend'
# www.blender.org
mtllib extractorhood_Cube_279.mtl
o extractorhood_Cube.279
v -0.818143 2.000000 0.181857
v -1.000000 2.500000 0.000000
v 0.818143 2.000000 0.181857
v 1.000000 2.500000 0.000000
v -0.500000 3.000000 0.000000
v 0.500000 3.000000 0.000000
v -0.252152 2.368651 1.355329
v -0.184503 2.301002 1.355329
v -0.184503 2.205331 1.355329
v -0.252152 2.137681 1.355329
v -0.347823 2.137681 1.355329
v -0.415473 2.205331 1.355329
v -0.415473 2.301002 1.355329
v -0.347823 2.368651 1.355329
v -0.258624 2.353026 1.570997
v -0.252152 2.368651 1.550997
v -0.200128 2.294530 1.570997
v -0.184503 2.301002 1.550997
v -0.200128 2.211803 1.570997
v -0.184503 2.205331 1.550997
v -0.258624 2.153307 1.570997
v -0.252152 2.137681 1.550997
v -0.341351 2.153306 1.570997
v -0.347823 2.137681 1.550997
v -0.399848 2.211803 1.570997
v -0.415473 2.205331 1.550997
v -0.399848 2.294530 1.570997
v -0.415473 2.301002 1.550997
v -0.341351 2.353026 1.570997
v -0.347823 2.368651 1.550997
v -0.275646 2.323459 1.608867
v -0.324329 2.323459 1.608867
v -0.324329 2.182874 1.608867
v -0.275646 2.182874 1.608867
v -0.652161 2.368651 1.355329
v -0.584512 2.301002 1.355329
v -0.584512 2.205331 1.355329
v -0.652161 2.137681 1.355329
v -0.747832 2.137681 1.355329
v -0.815482 2.205331 1.355329
v -0.815482 2.301002 1.355329
v -0.747832 2.368651 1.355329
v -0.658634 2.353026 1.570997
v -0.652161 2.368651 1.550997
v -0.600137 2.294530 1.570997
v -0.584512 2.301002 1.550997
v -0.600137 2.211803 1.570997
v -0.584512 2.205331 1.550997
v -0.658634 2.153307 1.570997
v -0.652161 2.137681 1.550997
v -0.741360 2.153306 1.570997
v -0.747832 2.137681 1.550997
v -0.799857 2.211803 1.570997
v -0.815482 2.205331 1.550997
v -0.799857 2.294530 1.570997
v -0.815482 2.301002 1.550997
v -0.741360 2.353026 1.570997
v -0.747832 2.368651 1.550997
v -0.675655 2.323459 1.608867
v -0.724338 2.323459 1.608867
v -0.724338 2.182874 1.608867
v -0.675655 2.182874 1.608867
v -0.350996 4.000000 0.150001
v 0.350996 4.000000 0.150001
v -1.000000 2.200000 0.000000
v -1.000000 2.300000 0.000000
v -0.900000 2.250000 0.000000
v 1.000000 2.200000 0.000000
v 1.000000 2.300000 0.000000
v 0.900000 2.250000 0.000000
v -0.778610 2.100000 0.209310
v 0.778610 2.100000 0.209310
v -1.000000 2.030000 0.000000
v -0.970000 2.000000 0.030000
v 1.000000 2.030000 0.000000
v 0.970000 2.000000 0.030000
v -0.800778 2.000000 1.300976
v -1.000000 2.500000 1.466372
v -0.966292 2.500000 1.500000
v 0.800778 2.000000 1.300976
v 0.966292 2.500000 1.500000
v 1.000000 2.500000 1.466372
v -0.466564 3.000000 1.000000
v -0.500000 3.000000 0.966633
v 0.500000 3.000000 0.966633
v 0.466564 3.000000 1.000000
v -0.349004 4.000000 0.850001
v 0.349004 4.000000 0.850001
v -0.966043 2.300000 1.500000
v -1.000000 2.300000 1.466136
v -1.000000 2.200000 1.465714
v -0.965546 2.200000 1.500000
v -0.900000 2.250000 1.365687
v -0.865562 2.250000 1.400000
v 0.965546 2.200000 1.500000
v 1.000000 2.200000 1.465714
v 1.000000 2.300000 1.466136
v 0.966043 2.300000 1.500000
v 0.865562 2.250000 1.400000
v 0.900000 2.250000 1.365687
v -0.761296 2.100000 1.273588
v 0.761296 2.100000 1.273588
v -0.952609 2.000000 1.452747
v -0.965488 2.030000 1.500000
v -1.000000 2.030000 1.465690
v 1.000000 2.030000 1.465690
v 0.965488 2.030000 1.500000
v 0.952609 2.000000 1.452747
v -0.500000 4.000000 0.000001
v 0.500000 4.000000 0.000001
v 0.500000 4.000000 0.966764
v 0.466696 4.000000 1.000001
v -0.466696 4.000000 1.000001
v -0.500000 4.000000 0.966764
vt 0.469677 0.852656
vt 0.469677 0.843697
vt 0.469677 0.843697
vt 0.401881 0.799010
vt 0.468558 0.799010
vt 0.462896 0.799010
vt 0.395100 0.843697
vt 0.395100 0.852656
vt 0.395100 0.843697
vt 0.395100 0.868281
vt 0.413744 0.906301
vt 0.413744 0.906301
vt 0.415609 0.935467
vt 0.449168 0.935467
vt 0.449168 0.935466
vt 0.451033 0.906301
vt 0.469677 0.868281
vt 0.413744 0.875051
vt 0.413744 0.919842
vt 0.413744 0.875051
vt 0.468420 0.852656
vt 0.396366 0.843697
vt 0.468411 0.843697
vt 0.165533 0.873054
vt 0.167593 0.868258
vt 0.165533 0.868258
vt 0.169050 0.837184
vt 0.167593 0.817531
vt 0.169050 0.832388
vt 0.167593 0.822327
vt 0.165533 0.817531
vt 0.165533 0.822327
vt 0.164077 0.832388
vt 0.164077 0.837184
vt 0.164077 0.853400
vt 0.164077 0.858196
vt 0.167593 0.873054
vt 0.169050 0.853400
vt 0.169050 0.858196
vt 0.169050 0.920012
vt 0.167454 0.933037
vt 0.168713 0.920189
vt 0.169050 0.899000
vt 0.168713 0.902020
vt 0.167454 0.889173
vt 0.167593 0.884143
vt 0.165673 0.889173
vt 0.165533 0.884143
vt 0.164413 0.902020
vt 0.164077 0.899000
vt 0.164413 0.920189
vt 0.164077 0.920012
vt 0.165533 0.934870
vt 0.165673 0.933037
vt 0.167593 0.934870
vt 0.167087 0.929570
vt 0.165673 0.901787
vt 0.166039 0.867444
vt 0.166039 0.898320
vt 0.167454 0.901787
vt 0.167087 0.867444
vt 0.167454 0.857923
vt 0.166039 0.929570
vt 0.167087 0.898694
vt 0.165673 0.857923
vt 0.156920 0.873054
vt 0.158980 0.868258
vt 0.156920 0.868258
vt 0.160437 0.837184
vt 0.158980 0.817531
vt 0.160437 0.832388
vt 0.158980 0.822327
vt 0.156920 0.817531
vt 0.156920 0.822327
vt 0.155463 0.832388
vt 0.155463 0.837184
vt 0.155463 0.853400
vt 0.155463 0.858196
vt 0.158980 0.873054
vt 0.160437 0.853400
vt 0.160437 0.858196
vt 0.158980 0.934870
vt 0.160100 0.920189
vt 0.160437 0.920012
vt 0.160437 0.899000
vt 0.160100 0.902020
vt 0.158980 0.884143
vt 0.158841 0.889173
vt 0.156920 0.884143
vt 0.157059 0.889173
vt 0.155800 0.902020
vt 0.155463 0.899000
vt 0.155800 0.920189
vt 0.155463 0.920012
vt 0.156920 0.934870
vt 0.157059 0.933037
vt 0.158841 0.933037
vt 0.157426 0.929570
vt 0.158474 0.929570
vt 0.157059 0.901787
vt 0.157426 0.867444
vt 0.157426 0.898320
vt 0.158841 0.901787
vt 0.158474 0.867444
vt 0.158841 0.857923
vt 0.158474 0.898694
vt 0.157059 0.857923
vt 0.396366 0.812447
vt 0.464664 0.810208
vt 0.468411 0.812447
vt 0.449786 0.875051
vt 0.414986 0.919842
vt 0.414991 0.875051
vt 0.451033 0.875051
vt 0.451033 0.919842
vt 0.451033 0.919842
vt 0.451033 0.875051
vt 0.402529 0.783385
vt 0.460776 0.787864
vt 0.462248 0.783385
vt 0.451033 0.906301
vt 0.469677 0.868281
vt 0.468420 0.868281
vt 0.414991 0.906301
vt 0.396357 0.868281
vt 0.395100 0.812447
vt 0.398829 0.810208
vt 0.395100 0.812447
vt 0.395100 0.831604
vt 0.395100 0.839218
vt 0.395100 0.831604
vt 0.336422 0.787864
vt 0.279001 0.787864
vt 0.278355 0.787864
vt 0.469677 0.839218
vt 0.469677 0.831604
vt 0.469677 0.831604
vt 0.398829 0.841458
vt 0.465948 0.857083
vt 0.395100 0.854843
vt 0.398829 0.857083
vt 0.398829 0.872708
vt 0.395100 0.870468
vt 0.395100 0.870468
vt 0.400113 0.872708
vt 0.468392 0.870468
vt 0.464664 0.872708
vt 0.461422 0.787864
vt 0.462896 0.783385
vt 0.468392 0.839218
vt 0.396387 0.831604
vt 0.468390 0.831604
vt 0.469677 0.812447
vt 0.465948 0.810208
vt 0.465948 0.810208
vt 0.465948 0.872708
vt 0.469677 0.870468
vt 0.465948 0.872708
vt 0.396218 0.830260
vt 0.403355 0.787864
vt 0.401881 0.783385
vt 0.467910 0.799010
vt 0.462248 0.799010
vt 0.396867 0.799010
vt 0.402529 0.799010
vt 0.467910 0.830260
vt 0.396867 0.830260
vt 0.468558 0.830260
vt 0.404001 0.787864
vt 0.451033 0.937551
vt 0.468420 0.899531
vt 0.469677 0.899531
vt 0.413744 0.937551
vt 0.396357 0.899531
vt 0.414991 0.937551
vt 0.449791 0.951092
vt 0.451033 0.951092
vt 0.414986 0.951092
vt 0.465948 0.841458
vt 0.464664 0.841458
vt 0.398829 0.841458
vt 0.465948 0.903958
vt 0.468392 0.901718
vt 0.469677 0.901718
vt 0.398829 0.903958
vt 0.396384 0.901718
vt 0.400113 0.903958
vt 0.469677 0.874947
vt 0.468420 0.883906
vt 0.468411 0.874947
vt 0.395100 0.874947
vt 0.396357 0.883906
vt 0.395100 0.883906
vt 0.396867 0.861510
vt 0.396387 0.862854
vt 0.395100 0.862854
vt 0.468390 0.862854
vt 0.467910 0.861510
vt 0.469677 0.862854
vt 0.396384 0.870468
vt 0.396218 0.799010
vt 0.413744 0.935467
vt 0.449020 0.935467
vt 0.449791 0.935467
vt 0.451033 0.935467
vt 0.415609 0.935467
vt 0.413744 0.935467
vt 0.414986 0.935467
vt 0.415757 0.935467
vt 0.451033 0.935467
vt 0.469677 0.852656
vt 0.395100 0.852656
vt 0.395100 0.868281
vt 0.413744 0.919842
vt 0.396357 0.852656
vt 0.167087 0.898320
vt 0.166039 0.898694
vt 0.158474 0.898320
vt 0.157426 0.898694
vt 0.400113 0.810208
vt 0.449791 0.919842
vt 0.449786 0.906301
vt 0.398829 0.810208
vt 0.395100 0.839218
vt 0.335776 0.787864
vt 0.469677 0.839218
vt 0.465948 0.841458
vt 0.469677 0.854843
vt 0.398829 0.872708
vt 0.396384 0.839218
vt 0.469677 0.812447
vt 0.469677 0.870468
vt 0.449786 0.937551
vt 0.395100 0.899531
vt 0.413744 0.951092
vt 0.400113 0.841458
vt 0.464664 0.903958
vt 0.395100 0.901718
vt 0.469677 0.883906
vt 0.396366 0.874947
vn 1.0000 0.0000 0.0000
vn 0.0000 -1.0000 -0.0000
vn 0.4444 -0.8959 0.0001
vn -1.0000 -0.0000 0.0000
vn -0.7071 0.7071 0.0000
vn -0.6020 0.7787 0.1768
vn -0.0000 1.0000 0.0000
vn 0.0000 0.0000 -1.0000
vn 0.0000 0.0000 1.0000
vn -0.3626 0.8755 0.3194
vn 0.8755 -0.3626 0.3194
vn 0.7071 -0.7071 0.0000
vn 0.3626 -0.8755 0.3194
vn -0.3626 -0.8755 0.3194
vn -0.7071 -0.7071 0.0000
vn -0.8755 -0.3626 0.3194
vn -0.8755 0.3626 0.3194
vn 0.3626 0.8755 0.3194
vn 0.7071 0.7071 0.0000
vn 0.8755 0.3626 0.3194
vn 0.2177 0.7337 0.6436
vn 0.7055 0.2922 0.6457
vn 0.7055 -0.2922 0.6457
vn 0.2177 -0.7337 0.6436
vn -0.2177 -0.7337 0.6436
vn -0.7055 -0.2922 0.6457
vn -0.7055 0.2922 0.6457
vn -0.2177 0.7338 0.6436
vn 0.0000 0.7882 0.6154
vn -0.9121 0.0000 0.4100
vn 0.9121 0.0000 0.4100
vn 0.0000 -0.7882 0.6154
vn -0.2177 0.7337 0.6436
vn 0.2177 0.7338 0.6436
vn -0.1551 -0.9371 0.3128
vn 0.0962 -0.9256 0.3661
vn 0.1551 -0.9371 0.3128
vn 0.0000 -0.2642 -0.9645
vn 0.6020 0.7787 0.1768
vn 0.5384 0.8008 0.2625
vn 0.2620 0.8007 0.5388
vn -0.1763 0.7785 0.6023
vn -0.2620 0.8007 0.5388
vn -0.4472 -0.8944 -0.0000
vn -0.3657 -0.9257 0.0967
vn -0.3125 -0.9371 0.1554
vn -0.3657 0.9256 0.0971
vn -0.4472 0.8944 0.0000
vn -0.3128 0.9370 0.1556
vn -0.0966 0.9255 0.3662
vn 0.1550 0.9369 0.3134
vn 0.0966 0.9255 0.3662
vn -0.9288 -0.3703 -0.0151
vn -0.9311 -0.3645 -0.0145
vn -0.9312 -0.3642 -0.0144
vn 0.4472 -0.8944 -0.0000
vn 0.3657 -0.9257 0.0967
vn 0.3657 0.9256 0.0971
vn 0.4472 0.8944 0.0000
vn -0.4444 -0.8959 0.0001
vn -0.4885 -0.8506 0.1945
vn 0.0000 -0.2647 0.9643
vn 0.2318 -0.9437 0.2360
vn -0.2318 -0.9437 0.2360
vn -0.1903 -0.8514 0.4887
vn 0.0000 -0.7071 -0.7071
vn 0.4885 -0.8506 0.1945
vn 0.9288 -0.3703 -0.0151
vn 0.9311 -0.3645 -0.0145
vn 0.9286 -0.3708 -0.0151
vn 0.7064 -0.0001 0.7078
vn -0.7064 -0.0001 0.7078
vn 0.3128 0.9370 0.1556
vn -0.1550 0.9369 0.3134
vn 0.7062 -0.0009 0.7081
vn 0.7062 -0.0008 0.7080
vn 0.7061 -0.0009 0.7081
vn -0.7062 -0.0009 0.7081
vn -0.7062 -0.0008 0.7080
vn -0.7063 -0.0008 0.7079
vn 0.1903 -0.8514 0.4887
vn -0.7053 -0.0001 0.7089
vn -0.7051 -0.0002 0.7091
vn -0.7050 -0.0002 0.7092
vn 0.7051 -0.0002 0.7091
vn 0.7053 -0.0001 0.7089
vn 0.7050 -0.0002 0.7092
vn -0.5384 0.8008 0.2625
vn -0.0962 -0.9256 0.3661
vn 0.1763 0.7785 0.6023
vn -0.9286 -0.3708 -0.0151
vn 0.3125 -0.9371 0.1554
vn 0.9312 -0.3642 -0.0144
vn 0.7063 -0.0008 0.7079
vn -0.7061 -0.0009 0.7081
vn -0.7054 -0.0001 0.7088
vn 0.7054 -0.0001 0.7088
usemtl restaurant.090
s 1
f 4/1/1 97/2/1 69/3/1
f 1/4/2 76/5/3 3/6/2
f 90/7/4 2/8/4 66/9/4
f 2/10/5 84/11/6 5/12/5
f 63/13/7 88/14/7 64/15/7
f 2/10/8 6/16/8 4/17/8
f 84/18/4 109/19/4 5/20/4
f 81/21/9 89/22/9 98/23/9
f 30/24/10 7/25/7 14/26/7
f 20/27/11 10/28/12 9/29/12
f 22/30/13 11/31/2 10/28/2
f 24/32/14 12/33/15 11/31/15
f 26/34/16 13/35/4 12/33/4
f 28/36/17 14/26/5 13/35/5
f 16/37/18 8/38/19 7/25/19
f 18/39/20 9/29/1 8/38/1
f 18/40/20 15/41/21 17/42/22
f 20/43/11 17/42/22 19/44/23
f 20/43/11 21/45/24 22/46/13
f 22/46/13 23/47/25 24/48/14
f 24/48/14 25/49/26 26/50/16
f 26/50/16 27/51/27 28/52/17
f 30/53/10 27/51/27 29/54/28
f 30/53/10 15/41/21 16/55/18
f 29/54/9 25/49/9 23/47/9
f 29/54/28 31/56/29 15/41/21
f 29/57/30 33/58/30 32/59/30
f 15/60/31 34/61/31 21/62/31
f 32/63/9 34/64/9 31/56/9
f 15/41/9 19/44/9 17/42/9
f 21/62/24 33/58/32 23/65/25
f 58/66/10 35/67/7 42/68/7
f 48/69/11 38/70/12 37/71/12
f 50/72/13 39/73/2 38/70/2
f 52/74/14 40/75/15 39/73/15
f 54/76/16 41/77/4 40/75/4
f 56/78/17 42/68/5 41/77/5
f 44/79/18 36/80/19 35/67/19
f 46/81/20 37/71/1 36/80/1
f 44/82/18 45/83/22 46/84/20
f 48/85/11 45/83/22 47/86/23
f 50/87/13 47/86/23 49/88/24
f 52/89/14 49/88/24 51/90/25
f 52/89/14 53/91/26 54/92/16
f 54/92/16 55/93/27 56/94/17
f 58/95/10 55/93/27 57/96/33
f 58/95/10 43/97/34 44/82/18
f 57/96/9 53/91/9 51/90/9
f 43/97/34 60/98/29 59/99/29
f 57/100/30 61/101/30 60/102/30
f 43/103/31 62/104/31 49/105/31
f 60/98/9 62/106/9 59/99/9
f 43/97/9 47/86/9 45/83/9
f 49/105/24 61/101/32 51/107/25
f 89/108/35 99/109/36 98/110/37
f 86/111/9 113/112/9 83/113/9
f 85/114/1 110/115/1 111/116/1
f 5/20/8 110/115/8 6/117/8
f 77/118/38 102/119/38 80/120/38
f 4/17/19 85/121/39 82/122/40
f 2/8/8 69/3/8 66/9/8
f 81/123/41 83/124/42 79/125/43
f 66/126/44 93/127/45 90/128/46
f 105/129/4 65/130/4 73/131/4
f 72/132/2 101/133/2 71/134/2
f 68/135/1 106/136/1 75/137/1
f 69/3/8 67/138/8 66/9/8
f 70/139/8 65/140/8 67/141/8
f 93/142/47 65/143/48 91/144/49
f 94/145/50 95/146/51 99/147/52
f 80/120/53 72/148/54 3/149/55
f 95/150/9 104/151/9 107/152/9
f 65/130/8 75/137/8 73/131/8
f 69/153/56 100/154/57 70/155/56
f 100/156/58 68/157/59 70/158/59
f 74/159/60 105/129/61 73/131/15
f 3/149/62 71/160/62 1/161/62
f 3/6/2 108/162/63 80/163/2
f 80/163/2 103/164/64 77/165/2
f 108/166/63 104/151/65 103/167/64
f 74/159/66 75/137/66 76/168/66
f 76/168/3 106/136/67 108/166/63
f 77/118/68 71/160/69 101/169/70
f 85/170/39 81/171/41 82/172/40
f 84/173/6 79/174/43 83/175/42
f 112/176/71 85/121/71 111/177/71
f 113/178/72 84/11/72 83/124/72
f 100/179/57 98/23/37 99/180/36
f 93/181/45 89/22/35 90/7/46
f 100/182/58 95/183/51 96/184/73
f 93/185/47 92/186/74 94/187/50
f 97/188/75 81/189/76 98/190/77
f 90/191/78 79/192/79 78/193/80
f 103/194/64 104/195/65 105/196/61
f 107/197/81 108/198/63 106/199/67
f 92/200/82 105/196/83 104/195/84
f 106/199/85 95/146/86 107/197/87
f 1/4/2 103/164/64 74/201/60
f 64/15/7 109/202/7 63/13/7
f 88/203/7 112/204/7 111/205/7
f 87/206/7 114/207/7 113/208/7
f 63/13/7 114/207/7 87/206/7
f 87/209/7 112/204/7 88/203/7
f 64/15/7 111/205/7 110/210/7
f 4/1/1 82/211/1 97/2/1
f 1/4/2 74/201/60 76/5/3
f 90/7/4 78/212/4 2/8/4
f 2/10/5 78/213/88 84/11/6
f 63/13/7 87/209/7 88/14/7
f 2/10/8 5/12/8 6/16/8
f 84/18/4 114/214/4 109/19/4
f 81/21/9 79/215/9 89/22/9
f 30/24/10 16/37/18 7/25/7
f 20/27/11 22/30/13 10/28/12
f 22/30/13 24/32/14 11/31/2
f 24/32/14 26/34/16 12/33/15
f 26/34/16 28/36/17 13/35/4
f 28/36/17 30/24/10 14/26/5
f 16/37/18 18/39/20 8/38/19
f 18/39/20 20/27/11 9/29/1
f 18/40/20 16/55/18 15/41/21
f 20/43/11 18/40/20 17/42/22
f 20/43/11 19/44/23 21/45/24
f 22/46/13 21/45/24 23/47/25
f 24/48/14 23/47/25 25/49/26
f 26/50/16 25/49/26 27/51/27
f 30/53/10 28/52/17 27/51/27
f 30/53/10 29/54/28 15/41/21
f 29/54/9 27/51/9 25/49/9
f 29/54/28 32/63/29 31/56/29
f 29/57/30 23/65/30 33/58/30
f 15/60/31 31/216/31 34/61/31
f 32/63/9 33/217/9 34/64/9
f 15/41/9 21/45/9 19/44/9
f 21/62/24 34/61/32 33/58/32
f 58/66/10 44/79/18 35/67/7
f 48/69/11 50/72/13 38/70/12
f 50/72/13 52/74/14 39/73/2
f 52/74/14 54/76/16 40/75/15
f 54/76/16 56/78/17 41/77/4
f 56/78/17 58/66/10 42/68/5
f 44/79/18 46/81/20 36/80/19
f 46/81/20 48/69/11 37/71/1
f 44/82/18 43/97/34 45/83/22
f 48/85/11 46/84/20 45/83/22
f 50/87/13 48/85/11 47/86/23
f 52/89/14 50/87/13 49/88/24
f 52/89/14 51/90/25 53/91/26
f 54/92/16 53/91/26 55/93/27
f 58/95/10 56/94/17 55/93/27
f 58/95/10 57/96/33 43/97/34
f 57/96/9 55/93/9 53/91/9
f 43/97/34 57/96/33 60/98/29
f 57/100/30 51/107/30 61/101/30
f 43/103/31 59/218/31 62/104/31
f 60/98/9 61/219/9 62/106/9
f 43/97/9 49/88/9 47/86/9
f 49/105/24 62/104/32 61/101/32
f 89/108/35 94/220/89 99/109/36
f 86/111/9 112/221/9 113/112/9
f 85/114/1 6/117/1 110/115/1
f 5/20/8 109/19/8 110/115/8
f 77/118/38 101/169/38 102/119/38
f 4/17/19 6/16/19 85/121/39
f 2/8/8 4/1/8 69/3/8
f 81/123/41 86/222/90 83/124/42
f 66/126/44 67/223/44 93/127/45
f 105/129/4 91/224/4 65/130/4
f 72/132/2 102/225/2 101/133/2
f 68/135/1 96/226/1 106/136/1
f 69/3/8 70/227/8 67/138/8
f 70/139/8 68/228/8 65/140/8
f 93/142/47 67/229/48 65/143/48
f 94/145/50 92/200/74 95/146/51
f 80/120/53 102/119/91 72/148/54
f 95/150/9 92/230/9 104/151/9
f 65/130/8 68/135/8 75/137/8
f 69/153/56 97/231/92 100/154/57
f 100/156/58 96/232/73 68/157/59
f 74/159/60 103/167/64 105/129/61
f 3/149/62 72/148/62 71/160/62
f 3/6/2 76/5/3 108/162/63
f 80/163/2 108/162/63 103/164/64
f 108/166/63 107/152/81 104/151/65
f 74/159/66 73/131/66 75/137/66
f 76/168/3 75/137/12 106/136/67
f 77/118/68 1/161/93 71/160/69
f 85/170/39 86/233/90 81/171/41
f 84/173/6 78/234/88 79/174/43
f 112/176/71 86/222/71 85/121/71
f 113/178/72 114/235/72 84/11/72
f 100/179/57 97/2/92 98/23/37
f 93/181/45 94/236/89 89/22/35
f 100/182/58 99/237/52 95/183/51
f 93/185/47 91/238/49 92/186/74
f 97/188/75 82/239/94 81/189/76
f 90/191/78 89/240/95 79/192/79
f 92/200/82 91/144/96 105/196/83
f 106/199/85 96/232/97 95/146/86
f 1/4/2 77/165/2 103/164/64
f 64/15/7 110/210/7 109/202/7
f 63/13/7 109/202/7 114/207/7
f 87/209/7 113/208/7 112/204/7
f 64/15/7 88/14/7 111/205/7
