# Blender v3.4.1 OBJ File: 'restaurant.blend'
# www.blender.org
mtllib floor_kitchen_small_Plane_008.mtl
o floor_kitchen_small_Plane.008
v -1.000000 -0.000000 1.000000
v 1.000000 -0.000000 1.000000
v -1.000000 0.000000 -1.000000
v 1.000000 0.000000 -1.000000
v 0.000000 -0.000000 1.000000
v 0.000000 0.000000 -1.000000
v -1.000000 0.000000 0.000000
v 1.000000 0.000000 0.000000
v 0.000000 0.000000 0.000000
v 0.000000 0.500000 0.000000
v -0.987500 0.500000 0.987500
v -1.000000 0.475000 1.000000
v 0.987500 0.500000 0.987500
v 1.000000 0.475000 1.000000
v -0.987500 0.500000 -0.987500
v -1.000000 0.475000 -1.000000
v 0.987500 0.500000 -0.987500
v 1.000000 0.475000 -1.000000
v 0.000000 0.475000 1.000000
v 0.000000 0.500000 0.987500
v 0.000000 0.475000 -1.000000
v 0.000000 0.500000 -0.987500
v -1.000000 0.475000 0.000000
v -0.987500 0.500000 0.000000
v 1.000000 0.475000 0.000000
v 0.987500 0.500000 0.000000
vt 0.187500 0.792512
vt 0.224661 0.792512
vt 0.187500 0.792512
vt 0.525339 0.812276
vt 0.525339 0.843772
vt 0.525339 0.843772
vt 0.599661 0.812277
vt 0.599661 0.843772
vt 0.599661 0.843772
vt 0.224661 0.812276
vt 0.187500 0.843772
vt 0.224661 0.843772
vt 0.150339 0.812277
vt 0.187500 0.843772
vt 0.150339 0.843772
vt 0.599196 0.865194
vt 0.562500 0.865194
vt 0.562500 0.865194
vt 0.224196 0.865194
vt 0.187500 0.865194
vt 0.187500 0.865194
vt 0.525339 0.792512
vt 0.562500 0.792512
vt 0.525339 0.792512
vt 0.562500 0.812276
vt 0.562500 0.843772
vt 0.150339 0.812277
vt 0.150339 0.843772
vt 0.150339 0.792512
vt 0.187500 0.792512
vt 0.150339 0.792512
vt 0.224661 0.812277
vt 0.224661 0.843772
vt 0.525804 0.865194
vt 0.525804 0.865194
vt 0.599661 0.792512
vt 0.562500 0.792512
vt 0.562500 0.812277
vt 0.562500 0.843772
vt 0.150339 0.883301
vt 0.150804 0.884959
vt 0.150804 0.884959
vt 0.562500 0.883301
vt 0.599196 0.884959
vt 0.562500 0.884959
vt 0.224661 0.883301
vt 0.224196 0.884959
vt 0.224196 0.884959
vt 0.562500 0.883301
vt 0.525804 0.884959
vt 0.562500 0.884959
vt 0.187500 0.883301
vt 0.187500 0.884959
vt 0.187500 0.883301
vt 0.187500 0.884959
vt 0.525339 0.883301
vt 0.525804 0.884959
vt 0.599661 0.883301
vt 0.599196 0.884959
vt 0.187500 0.865194
vt 0.150804 0.865194
vt 0.150804 0.865194
vt 0.224661 0.792512
vt 0.525339 0.812277
vt 0.599661 0.812277
vt 0.187500 0.812276
vt 0.187500 0.812277
vt 0.599196 0.865194
vt 0.224196 0.865194
vt 0.562500 0.792512
vt 0.562500 0.865194
vt 0.599661 0.792512
vt 0.150339 0.883301
vt 0.599661 0.883301
vt 0.224661 0.883301
vt 0.525339 0.883301
vn 0.0000 -1.0000 -0.0000
vn -1.0000 -0.0000 0.0000
vn 1.0000 -0.0000 0.0000
vn 0.0000 0.0000 -1.0000
vn 0.0000 -0.0000 1.0000
vn 0.0000 1.0000 0.0000
vn -0.8944 0.4472 0.0000
vn 0.0000 0.4472 0.8944
vn 0.8944 0.4472 0.0000
vn 0.0000 0.4472 -0.8944
usemtl restaurant.142
s 1
f 6/1/1 8/2/1 9/3/1
f 3/4/2 23/5/2 16/6/2
f 2/7/3 25/8/3 14/9/3
f 4/10/4 21/11/4 18/12/4
f 1/13/5 19/14/5 12/15/5
f 13/16/6 10/17/6 20/18/6
f 26/19/6 22/20/6 10/21/6
f 3/22/1 9/23/1 7/24/1
f 6/25/4 16/6/4 21/26/4
f 7/27/2 12/15/2 23/28/2
f 7/29/1 5/30/1 1/31/1
f 8/32/3 18/12/3 25/33/3
f 10/17/6 15/34/6 24/35/6
f 9/23/1 2/36/1 5/37/1
f 5/38/5 14/9/5 19/39/5
f 23/40/7 11/41/7 24/42/7
f 19/43/8 13/44/8 20/45/8
f 25/46/9 17/47/9 26/48/9
f 21/49/10 15/50/10 22/51/10
f 11/41/8 19/52/8 20/53/8
f 17/47/10 21/54/10 22/55/10
f 15/50/7 23/56/7 24/57/7
f 13/44/9 25/58/9 26/59/9
f 20/60/6 24/61/6 11/62/6
f 6/1/1 4/63/1 8/2/1
f 3/4/2 7/64/2 23/5/2
f 2/7/3 8/65/3 25/8/3
f 4/10/4 6/66/4 21/11/4
f 1/13/5 5/67/5 19/14/5
f 13/16/6 26/68/6 10/17/6
f 26/19/6 17/69/6 22/20/6
f 3/22/1 6/70/1 9/23/1
f 6/25/4 3/4/4 16/6/4
f 7/27/2 1/13/2 12/15/2
f 7/29/1 9/3/1 5/30/1
f 8/32/3 4/10/3 18/12/3
f 10/17/6 22/71/6 15/34/6
f 9/23/1 8/72/1 2/36/1
f 5/38/5 2/7/5 14/9/5
f 23/40/7 12/73/7 11/41/7
f 19/43/8 14/74/8 13/44/8
f 25/46/9 18/75/9 17/47/9
f 21/49/10 16/76/10 15/50/10
f 11/41/8 12/73/8 19/52/8
f 17/47/10 18/75/10 21/54/10
f 15/50/7 16/76/7 23/56/7
f 13/44/9 14/74/9 25/58/9
f 20/60/6 10/21/6 24/61/6
