# Blender v3.4.1 OBJ File: 'restaurant.blend'
# www.blender.org
mtllib food_ingredient_bun_bottom_Cube_013.mtl
o food_ingredient_bun_bottom_Cube.013
v -0.201304 0.000000 -0.104231
v -0.214176 0.000000 0.000000
v -0.201304 -0.000000 0.104231
v -0.246650 0.073602 -0.246650
v -0.222729 0.022377 -0.222729
v 0.104232 0.000000 -0.201305
v 0.000001 0.000000 -0.214177
v -0.104230 0.000000 -0.201305
v 0.246650 0.073602 -0.246650
v 0.222729 0.022377 -0.222729
v 0.201306 -0.000000 0.104231
v 0.214178 0.000000 0.000000
v 0.201306 0.000000 -0.104231
v 0.246650 0.073602 0.246650
v 0.222729 0.022377 0.222729
v -0.104230 -0.000000 0.201305
v 0.000001 -0.000000 0.214177
v 0.104232 -0.000000 0.201305
v -0.222729 0.022377 0.222729
v -0.246650 0.073602 0.246650
v 0.000001 0.000000 0.000000
v 0.122906 0.022377 0.283390
v 0.135077 0.073602 0.315745
v 0.000000 0.022377 0.303920
v 0.000000 0.073602 0.338880
v -0.122906 0.022377 0.283390
v -0.135077 0.073602 0.315745
v 0.283390 0.022377 -0.122906
v 0.315745 0.073602 -0.135077
v 0.303920 0.022377 0.000000
v 0.338881 0.073602 0.000000
v 0.283390 0.022377 0.122906
v 0.315745 0.073602 0.135077
v -0.122906 0.022377 -0.283390
v -0.135077 0.073602 -0.315745
v 0.000000 0.022377 -0.303920
v 0.000000 0.073602 -0.338880
v 0.122906 0.022377 -0.283390
v 0.135077 0.073602 -0.315745
v -0.283390 0.022377 0.122906
v -0.315745 0.073602 0.135077
v -0.303920 0.022377 0.000000
v -0.338880 0.073602 0.000000
v -0.283390 0.022377 -0.122906
v -0.315745 0.073602 -0.135077
v 0.000000 0.200000 0.000000
v -0.252056 0.170146 0.252056
v -0.252056 0.170146 -0.252056
v 0.252056 0.170146 -0.252056
v 0.252056 0.170146 0.252056
v 0.137857 0.170100 0.323107
v 0.000000 0.170059 0.346878
v -0.137857 0.170100 0.323107
v 0.323107 0.170100 -0.137857
v 0.346878 0.170059 0.000000
v 0.323107 0.170100 0.137857
v -0.137857 0.170100 -0.323107
v 0.000000 0.170059 -0.346878
v 0.137857 0.170100 -0.323107
v -0.323107 0.170100 0.137857
v -0.346878 0.170059 0.000000
v -0.323107 0.170100 -0.137857
v 0.237947 0.200000 0.237947
v 0.131092 0.200000 0.304270
v 0.000000 0.200000 0.326743
v -0.131092 0.200000 0.304270
v -0.237947 0.200000 0.237947
v 0.237947 0.200000 -0.237947
v 0.304270 0.200000 -0.131092
v 0.326743 0.200000 0.000000
v 0.304270 0.200000 0.131092
v -0.237947 0.200000 -0.237947
v -0.131092 0.200000 -0.304270
v 0.000000 0.200000 -0.326743
v 0.131092 0.200000 -0.304270
v -0.304270 0.200000 0.131092
v -0.326743 0.200000 0.000000
v -0.304270 0.200000 -0.131092
vt 0.452966 0.562583
vt 0.439231 0.627000
vt 0.439231 0.562583
vt 0.461879 0.530155
vt 0.459701 0.526634
vt 0.449830 0.526634
vt 0.459701 0.526634
vt 0.461879 0.530155
vt 0.449830 0.526634
vt 0.439231 0.526634
vt 0.418761 0.526634
vt 0.428632 0.526634
vt 0.418761 0.526634
vt 0.416583 0.530155
vt 0.428632 0.526634
vt 0.439231 0.526634
vt 0.416583 0.530155
vt 0.461009 0.526634
vt 0.439231 0.526634
vt 0.417453 0.526634
vt 0.451728 0.545780
vt 0.439231 0.545780
vt 0.471337 0.562583
vt 0.474503 0.627000
vt 0.473690 0.562583
vt 0.426733 0.545780
vt 0.451728 0.530155
vt 0.461879 0.545780
vt 0.471337 0.562583
vt 0.425496 0.562583
vt 0.416583 0.545780
vt 0.426733 0.530155
vt 0.468047 0.545780
vt 0.470135 0.545780
vt 0.425496 0.562583
vt 0.439231 0.627000
vt 0.439231 0.562583
vt 0.468047 0.545780
vt 0.472086 0.627003
vt 0.464311 0.562583
vt 0.468047 0.530155
vt 0.461879 0.545780
vt 0.453249 0.627003
vt 0.464861 0.627007
vt 0.452966 0.562583
vt 0.468047 0.530155
vt 0.426733 0.545780
vt 0.439231 0.545780
vt 0.407125 0.562583
vt 0.403959 0.627000
vt 0.404772 0.562583
vt 0.451728 0.545780
vt 0.453249 0.627003
vt 0.464311 0.562583
vt 0.426733 0.530155
vt 0.416583 0.545780
vt 0.472086 0.627003
vt 0.464861 0.627007
vt 0.407125 0.562583
vt 0.451728 0.530155
vt 0.410415 0.545780
vt 0.408327 0.545780
vt 0.410415 0.545780
vt 0.425213 0.627003
vt 0.414150 0.562583
vt 0.410415 0.530155
vt 0.425213 0.627003
vt 0.414150 0.562583
vt 0.413601 0.627007
vt 0.406376 0.627003
vt 0.410415 0.530155
vt 0.463426 0.693706
vt 0.453249 0.635747
vt 0.464861 0.635750
vt 0.452561 0.693706
vt 0.439231 0.635744
vt 0.425901 0.693706
vt 0.439231 0.693706
vt 0.415035 0.693706
vt 0.425213 0.635747
vt 0.463426 0.693706
vt 0.472086 0.635747
vt 0.464861 0.635750
vt 0.470170 0.693706
vt 0.474503 0.635744
vt 0.470170 0.693706
vt 0.472455 0.693706
vt 0.472086 0.635747
vt 0.415035 0.693706
vt 0.425213 0.635747
vt 0.413601 0.635750
vt 0.425901 0.693706
vt 0.439231 0.635744
vt 0.452561 0.693706
vt 0.439231 0.693706
vt 0.453249 0.635747
vt 0.406376 0.635747
vt 0.413601 0.635750
vt 0.408291 0.693706
vt 0.403959 0.635744
vt 0.408291 0.693706
vt 0.406006 0.693706
vt 0.406376 0.635747
vt 0.406376 0.627003
vt 0.437335 0.727596
vt 0.450665 0.665806
vt 0.461530 0.665806
vt 0.437335 0.665806
vt 0.424005 0.665806
vt 0.413139 0.665806
vt 0.468274 0.665806
vt 0.461530 0.665806
vt 0.470560 0.665806
vt 0.468274 0.665806
vt 0.424005 0.665806
vt 0.413139 0.665806
vt 0.437335 0.665806
vt 0.450665 0.665806
vt 0.406395 0.665806
vt 0.404110 0.665806
vt 0.406395 0.665806
vt 0.439231 0.530155
vt 0.470135 0.530155
vt 0.439231 0.530155
vt 0.413601 0.627007
vt 0.408327 0.530155
vn 0.3345 -0.3211 0.8860
vn -0.0000 0.2436 0.9699
vn -0.0000 -0.3250 0.9457
vn 0.4321 -0.7916 -0.4321
vn 0.1357 -0.9890 -0.0587
vn 0.0587 -0.9890 -0.1357
vn 0.1357 -0.9890 0.0587
vn 0.4321 -0.7916 0.4321
vn 0.0587 -0.9890 0.1357
vn 0.0000 -1.0000 -0.0000
vn -0.1357 -0.9890 0.0587
vn -0.0587 -0.9890 0.1357
vn -0.1357 -0.9890 -0.0587
vn -0.4321 -0.7916 -0.4321
vn -0.0587 -0.9890 -0.1357
vn 0.0000 -0.9909 -0.1343
vn -0.4321 -0.7916 0.4321
vn 0.1343 -0.9909 -0.0000
vn 0.0000 -0.9909 0.1343
vn -0.1343 -0.9909 -0.0000
vn 0.2088 -0.7958 0.5685
vn -0.0000 -0.8033 0.5955
vn 0.8860 -0.3211 -0.3345
vn 0.9699 0.2436 0.0000
vn 0.9457 -0.3250 -0.0000
vn -0.2088 -0.7958 0.5685
vn 0.8860 -0.3211 0.3345
vn -0.3345 -0.3211 0.8860
vn 0.5685 -0.7958 -0.2088
vn 0.5955 -0.8033 -0.0000
vn -0.3345 -0.3211 -0.8860
vn 0.0000 0.2436 -0.9699
vn -0.0000 -0.3250 -0.9457
vn 0.5685 -0.7958 0.2088
vn 0.9071 0.2424 0.3441
vn 0.6711 -0.3152 0.6711
vn 0.3441 0.2424 0.9071
vn 0.6862 0.2415 0.6862
vn 0.3345 -0.3211 -0.8860
vn -0.2088 -0.7958 -0.5685
vn -0.0000 -0.8033 -0.5955
vn -0.8860 -0.3211 0.3345
vn -0.9699 0.2436 0.0000
vn -0.9457 -0.3250 -0.0000
vn 0.2088 -0.7958 -0.5685
vn 0.3441 0.2424 -0.9071
vn 0.6711 -0.3152 -0.6711
vn 0.9071 0.2424 -0.3441
vn 0.6862 0.2415 -0.6862
vn -0.8860 -0.3211 -0.3345
vn -0.5685 -0.7958 0.2088
vn -0.5955 -0.8033 -0.0000
vn -0.5685 -0.7958 -0.2088
vn -0.3441 0.2424 0.9071
vn -0.6711 -0.3152 0.6711
vn -0.3441 0.2424 -0.9071
vn -0.6711 -0.3152 -0.6711
vn -0.6862 0.2415 -0.6862
vn -0.9071 0.2424 -0.3441
vn 0.5877 0.5560 0.5877
vn 0.2961 0.5564 0.7764
vn -0.2961 0.5564 0.7764
vn 0.0000 0.5580 0.8298
vn -0.5877 0.5560 0.5877
vn 0.5877 0.5560 -0.5877
vn 0.7764 0.5564 -0.2961
vn 0.7764 0.5564 0.2961
vn 0.8298 0.5580 0.0000
vn -0.5877 0.5560 -0.5877
vn -0.2961 0.5564 -0.7764
vn 0.2961 0.5564 -0.7764
vn 0.0000 0.5580 -0.8298
vn -0.9071 0.2424 0.3441
vn -0.6862 0.2415 0.6862
vn -0.7764 0.5564 0.2961
vn -0.7764 0.5564 -0.2961
vn -0.8298 0.5580 0.0000
vn 0.0000 1.0000 0.0000
usemtl restaurant.131
s 1
f 23/1/1 52/2/2 25/3/3
f 10/4/4 13/5/5 6/6/6
f 11/7/7 15/8/8 18/9/9
f 21/10/10 11/7/7 18/9/9
f 3/11/11 21/10/10 16/12/12
f 1/13/13 5/14/14 8/15/15
f 8/15/15 7/16/16 21/10/10
f 7/16/16 6/6/6 21/10/10
f 19/17/17 3/11/11 16/12/12
f 21/10/10 13/5/5 12/18/18
f 21/10/10 12/18/18 11/7/7
f 21/10/10 18/9/9 17/19/19
f 21/10/10 17/19/19 16/12/12
f 2/20/20 21/10/10 3/11/11
f 1/13/13 21/10/10 2/20/20
f 22/21/21 25/3/3 24/22/22
f 29/23/23 55/24/24 31/25/25
f 25/3/3 26/26/26 24/22/22
f 15/8/8 22/27/21 18/9/9
f 15/28/8 23/1/1 22/21/21
f 55/24/24 33/29/27 31/25/25
f 27/30/28 19/31/17 26/26/26
f 16/12/12 26/32/26 19/17/17
f 17/19/19 26/32/26 16/12/12
f 22/27/21 17/19/19 18/9/9
f 28/33/29 31/25/25 30/34/30
f 35/35/31 58/36/32 37/37/33
f 31/25/25 32/38/34 30/34/30
f 56/39/35 14/40/36 33/29/27
f 10/4/4 28/41/29 13/5/5
f 10/42/4 29/23/23 28/33/29
f 51/43/37 14/40/36 50/44/38
f 58/36/32 39/45/39 37/37/33
f 33/29/27 15/28/8 32/38/34
f 11/7/7 32/46/34 15/8/8
f 12/18/18 32/46/34 11/7/7
f 28/41/29 12/18/18 13/5/5
f 34/47/40 37/37/33 36/48/41
f 41/49/42 61/50/43 43/51/44
f 37/37/33 38/52/45 36/48/41
f 59/53/46 9/54/47 39/45/39
f 5/14/14 34/55/40 8/15/15
f 5/56/14 35/35/31 34/47/40
f 54/57/48 9/54/47 49/58/49
f 61/50/43 45/59/50 43/51/44
f 39/45/39 10/42/4 38/52/45
f 6/6/6 38/60/45 10/4/4
f 7/16/16 38/60/45 6/6/6
f 34/55/40 7/16/16 8/15/15
f 40/61/51 43/51/44 42/62/52
f 43/51/44 44/63/53 42/62/52
f 53/64/54 20/65/55 27/30/28
f 19/17/17 40/66/51 3/11/11
f 19/31/17 41/49/42 40/61/51
f 57/67/56 4/68/57 48/69/58
f 62/70/59 4/68/57 45/59/50
f 45/59/50 5/56/14 44/63/53
f 1/13/13 44/71/53 5/14/14
f 2/20/20 44/71/53 1/13/13
f 40/66/51 2/20/20 3/11/11
f 52/2/2 27/30/28 25/3/3
f 63/72/60 51/73/37 50/74/38
f 64/75/61 52/76/2 51/73/37
f 66/77/62 52/76/2 65/78/63
f 67/79/64 53/80/54 66/77/62
f 68/81/65 54/82/48 49/83/49
f 69/84/66 55/85/24 54/82/48
f 71/86/67 55/85/24 70/87/68
f 63/72/60 56/88/35 71/86/67
f 72/89/69 57/90/56 48/91/58
f 73/92/70 58/93/32 57/90/56
f 75/94/71 58/93/32 74/95/72
f 68/81/65 59/96/46 75/94/71
f 67/79/64 60/97/73 47/98/74
f 76/99/75 61/100/43 60/97/73
f 78/101/76 61/100/43 77/102/77
f 72/89/69 62/103/59 78/101/76
f 20/65/55 60/104/73 41/49/42
f 13/5/5 21/10/10 6/6/6
f 21/10/10 1/13/13 8/15/15
f 46/105/78 64/106/78 63/107/78
f 46/105/78 65/108/78 64/106/78
f 46/105/78 66/109/78 65/108/78
f 46/105/78 67/110/78 66/109/78
f 46/105/78 69/111/78 68/112/78
f 46/105/78 70/113/78 69/111/78
f 46/105/78 71/114/78 70/113/78
f 46/105/78 63/107/78 71/114/78
f 46/105/78 73/115/78 72/116/78
f 46/105/78 74/117/78 73/115/78
f 46/105/78 75/118/78 74/117/78
f 46/105/78 68/112/78 75/118/78
f 46/105/78 76/119/78 67/110/78
f 46/105/78 77/120/78 76/119/78
f 46/105/78 78/121/78 77/120/78
f 46/105/78 72/116/78 78/121/78
f 23/1/1 51/43/37 52/2/2
f 22/21/21 23/1/1 25/3/3
f 29/23/23 54/57/48 55/24/24
f 25/3/3 27/30/28 26/26/26
f 15/28/8 14/40/36 23/1/1
f 55/24/24 56/39/35 33/29/27
f 27/30/28 20/65/55 19/31/17
f 17/19/19 24/122/22 26/32/26
f 22/27/21 24/122/22 17/19/19
f 28/33/29 29/23/23 31/25/25
f 35/35/31 57/67/56 58/36/32
f 31/25/25 33/29/27 32/38/34
f 56/39/35 50/44/38 14/40/36
f 10/42/4 9/54/47 29/23/23
f 51/43/37 23/1/1 14/40/36
f 58/36/32 59/53/46 39/45/39
f 33/29/27 14/40/36 15/28/8
f 12/18/18 30/123/30 32/46/34
f 28/41/29 30/123/30 12/18/18
f 34/47/40 35/35/31 37/37/33
f 41/49/42 60/104/73 61/50/43
f 37/37/33 39/45/39 38/52/45
f 59/53/46 49/58/49 9/54/47
f 5/56/14 4/68/57 35/35/31
f 54/57/48 29/23/23 9/54/47
f 61/50/43 62/70/59 45/59/50
f 39/45/39 9/54/47 10/42/4
f 7/16/16 36/124/41 38/60/45
f 34/55/40 36/124/41 7/16/16
f 40/61/51 41/49/42 43/51/44
f 43/51/44 45/59/50 44/63/53
f 53/64/54 47/125/74 20/65/55
f 19/31/17 20/65/55 41/49/42
f 57/67/56 35/35/31 4/68/57
f 62/70/59 48/69/58 4/68/57
f 45/59/50 4/68/57 5/56/14
f 2/20/20 42/126/52 44/71/53
f 40/66/51 42/126/52 2/20/20
f 52/2/2 53/64/54 27/30/28
f 63/72/60 64/75/61 51/73/37
f 64/75/61 65/78/63 52/76/2
f 66/77/62 53/80/54 52/76/2
f 67/79/64 47/98/74 53/80/54
f 68/81/65 69/84/66 54/82/48
f 69/84/66 70/87/68 55/85/24
f 71/86/67 56/88/35 55/85/24
f 63/72/60 50/74/38 56/88/35
f 72/89/69 73/92/70 57/90/56
f 73/92/70 74/95/72 58/93/32
f 75/94/71 59/96/46 58/93/32
f 68/81/65 49/83/49 59/96/46
f 67/79/64 76/99/75 60/97/73
f 76/99/75 77/102/77 61/100/43
f 78/101/76 62/103/59 61/100/43
f 72/89/69 48/91/58 62/103/59
f 20/65/55 47/125/74 60/104/73
