# Blender v3.4.1 OBJ File: 'restaurant.blend'
# www.blender.org
mtllib food_ingredient_onion_Sphere_022.mtl
o food_ingredient_onion_Sphere.022
v 0.000000 0.591536 -0.256868
v 0.000000 0.480757 -0.346455
v 0.000000 0.235939 -0.346455
v 0.000000 0.052655 -0.143506
v 0.045790 0.665436 -0.110545
v 0.098299 0.591536 -0.237315
v 0.132583 0.480757 -0.320083
v 0.143506 0.360277 -0.346455
v 0.132583 0.235939 -0.320083
v 0.101474 0.127104 -0.244981
v 0.054918 0.052655 -0.132583
v 0.084608 0.665436 -0.084607
v 0.181633 0.591536 -0.181633
v 0.244981 0.480757 -0.244981
v 0.265165 0.360277 -0.265165
v 0.244981 0.235939 -0.244981
v 0.187500 0.127105 -0.187500
v 0.101474 0.052655 -0.101474
v 0.110546 0.665435 -0.045789
v 0.237315 0.591536 -0.098299
v 0.320083 0.480757 -0.132582
v 0.346455 0.360278 -0.143506
v 0.320083 0.235940 -0.132582
v 0.244981 0.127105 -0.101474
v 0.132583 0.052655 -0.054917
v 0.119654 0.665435 0.000000
v 0.256868 0.591536 0.000000
v 0.346455 0.480757 0.000000
v 0.375000 0.360277 0.000000
v 0.346455 0.235940 0.000000
v 0.265165 0.127105 0.000000
v 0.143506 0.052655 0.000000
v 0.110545 0.665435 0.045789
v 0.237315 0.591536 0.098299
v 0.320083 0.480757 0.132583
v 0.346455 0.360278 0.143506
v 0.320083 0.235940 0.132583
v 0.244981 0.127105 0.101474
v 0.132583 0.052655 0.054918
v 0.084608 0.665436 0.084607
v 0.181633 0.591536 0.181633
v 0.244981 0.480757 0.244981
v 0.265165 0.360277 0.265165
v 0.244981 0.235939 0.244981
v 0.187500 0.127105 0.187500
v 0.101474 0.052655 0.101474
v 0.045790 0.665436 0.110545
v 0.098299 0.591536 0.237315
v 0.132582 0.480757 0.320083
v 0.143506 0.360277 0.346455
v 0.132582 0.235939 0.320083
v 0.101474 0.127104 0.244981
v 0.054917 0.052655 0.132583
v 0.027308 0.706752 -0.065919
v 0.000001 0.665436 0.119653
v 0.000000 0.591536 0.256868
v 0.000000 0.480757 0.346455
v 0.000000 0.360277 0.375000
v 0.000000 0.235939 0.346455
v 0.000000 0.127105 0.265165
v 0.000000 0.052655 0.143506
v -0.045789 0.665437 0.110545
v -0.098299 0.591536 0.237315
v -0.132583 0.480757 0.320083
v -0.143506 0.360277 0.346455
v -0.132583 0.235939 0.320083
v -0.101474 0.127104 0.244981
v -0.054918 0.052655 0.132583
v -0.084607 0.665437 0.084607
v -0.181633 0.591536 0.181633
v -0.244981 0.480757 0.244980
v -0.265165 0.360277 0.265165
v -0.244981 0.235939 0.244980
v -0.187500 0.127105 0.187500
v -0.101474 0.052655 0.101474
v 0.000000 -0.011334 -0.000000
v -0.110544 0.665436 0.045789
v -0.237315 0.591536 0.098299
v -0.320083 0.480757 0.132582
v -0.346455 0.360278 0.143506
v -0.320083 0.235940 0.132582
v -0.244981 0.127105 0.101474
v -0.132583 0.052655 0.054917
v -0.119652 0.665436 0.000000
v -0.256868 0.591536 0.000000
v -0.346455 0.480757 0.000000
v -0.375000 0.360277 0.000000
v -0.346455 0.235940 0.000000
v -0.265165 0.127105 0.000000
v -0.143506 0.052655 0.000000
v -0.110544 0.665436 -0.045789
v -0.237315 0.591536 -0.098299
v -0.320082 0.480757 -0.132583
v -0.346455 0.360278 -0.143506
v -0.320082 0.235940 -0.132583
v -0.244980 0.127105 -0.101474
v -0.132583 0.052655 -0.054918
v -0.084607 0.665437 -0.084607
v -0.181633 0.591536 -0.181633
v -0.244980 0.480757 -0.244981
v -0.265165 0.360277 -0.265165
v -0.244980 0.235939 -0.244981
v -0.187500 0.127105 -0.187500
v -0.101474 0.052655 -0.101474
v -0.045788 0.665437 -0.110545
v -0.098299 0.591536 -0.237315
v -0.132582 0.480757 -0.320082
v -0.143506 0.360277 -0.346455
v -0.132582 0.235939 -0.320082
v -0.101474 0.127104 -0.244981
v -0.054917 0.052655 -0.132583
v 0.000001 0.665436 -0.119653
v 0.000000 0.360277 -0.375000
v 0.000000 0.127105 -0.265165
v 0.050456 0.706752 -0.050452
v 0.065923 0.706752 -0.027305
v 0.071354 0.706752 0.000000
v 0.065923 0.706752 0.027305
v 0.050456 0.706752 0.050452
v 0.027308 0.706752 0.065919
v 0.000004 0.706752 0.071351
v -0.027301 0.706752 0.065919
v -0.050449 0.706752 0.050452
v -0.065916 0.706752 0.027305
v -0.071347 0.706752 0.000000
v -0.065916 0.706752 -0.027305
v -0.050449 0.706752 -0.050452
v -0.027301 0.706752 -0.065919
v 0.000004 0.706752 -0.071351
v 0.020741 0.768434 -0.050064
v 0.038321 0.768434 -0.038317
v 0.050068 0.768434 -0.020737
v 0.054193 0.768434 0.000000
v 0.050068 0.768434 0.020737
v 0.038321 0.768434 0.038317
v 0.020741 0.768434 0.050064
v 0.000004 0.768434 0.054188
v -0.020733 0.768434 0.050064
v -0.038313 0.768434 0.038317
v -0.050059 0.768434 0.020737
v -0.054184 0.768434 0.000000
v -0.050059 0.768434 -0.020737
v -0.038313 0.768434 -0.038317
v -0.020733 0.768434 -0.050064
v 0.000004 0.768434 -0.054188
v 0.000004 0.851064 0.000000
v 0.017162 0.836212 -0.025678
v -0.006021 0.836212 -0.030289
v -0.025674 0.836212 -0.017158
v -0.030285 0.836212 0.006025
v -0.017153 0.836212 0.025678
v 0.006029 0.836212 0.030289
v 0.025682 0.836212 0.017158
v 0.030294 0.836212 -0.006025
vt 0.694608 0.681389
vt 0.688637 0.634089
vt 0.690174 0.643149
vt 0.683623 0.520392
vt 0.683623 0.526750
vt 0.689080 0.558000
vt 0.683623 0.576212
vt 0.693706 0.569355
vt 0.683623 0.550981
vt 0.683623 0.600538
vt 0.697883 0.619817
vt 0.683623 0.588567
vt 0.683623 0.650139
vt 0.693391 0.674046
vt 0.683623 0.642796
vt 0.683623 0.545815
vt 0.696797 0.607462
vt 0.696797 0.631788
vt 0.709972 0.619817
vt 0.688173 0.681389
vt 0.701671 0.674046
vt 0.702254 0.564190
vt 0.693706 0.558000
vt 0.707966 0.607462
vt 0.707966 0.631788
vt 0.692031 0.681389
vt 0.686337 0.643149
vt 0.688637 0.643149
vt 0.702254 0.569355
vt 0.702254 0.545815
vt 0.696797 0.558000
vt 0.693706 0.526750
vt 0.709972 0.588567
vt 0.715428 0.607462
vt 0.707966 0.576212
vt 0.707966 0.600538
vt 0.707204 0.674046
vt 0.715428 0.631788
vt 0.679074 0.681389
vt 0.678611 0.634089
vt 0.680911 0.643149
vt 0.707966 0.569355
vt 0.702254 0.550981
vt 0.718049 0.619817
vt 0.701671 0.642796
vt 0.709147 0.674046
vt 0.718049 0.631788
vt 0.683623 0.681389
vt 0.683624 0.643149
vt 0.697883 0.558000
vt 0.718049 0.607462
vt 0.709972 0.569355
vt 0.720885 0.619817
vt 0.709972 0.564190
vt 0.697883 0.526750
vt 0.696797 0.558000
vt 0.718049 0.576212
vt 0.707966 0.569355
vt 0.709972 0.550981
vt 0.718049 0.600538
vt 0.718049 0.619817
vt 0.720885 0.588567
vt 0.695513 0.650139
vt 0.707204 0.674046
vt 0.709147 0.642796
vt 0.709972 0.545815
vt 0.715428 0.607462
vt 0.715428 0.631788
vt 0.694608 0.681389
vt 0.688637 0.643149
vt 0.692031 0.681389
vt 0.701671 0.674046
vt 0.702254 0.564190
vt 0.693706 0.558000
vt 0.709972 0.619817
vt 0.707966 0.607462
vt 0.707966 0.631788
vt 0.675217 0.681389
vt 0.677074 0.643149
vt 0.678611 0.643149
vt 0.702254 0.569355
vt 0.693706 0.526750
vt 0.693706 0.564190
vt 0.689080 0.558000
vt 0.707966 0.576212
vt 0.697883 0.619817
vt 0.696797 0.607462
vt 0.707966 0.600538
vt 0.693391 0.674046
vt 0.696797 0.631788
vt 0.679074 0.681389
vt 0.678611 0.643149
vt 0.675217 0.681389
vt 0.702254 0.550981
vt 0.693706 0.569355
vt 0.709972 0.588567
vt 0.701671 0.642796
vt 0.688173 0.681389
vt 0.675217 0.650139
vt 0.677074 0.643149
vt 0.672639 0.681389
vt 0.683623 0.558000
vt 0.683623 0.569355
vt 0.683623 0.619817
vt 0.683623 0.681389
vt 0.683623 0.674046
vt 0.683623 0.564190
vt 0.683623 0.607462
vt 0.683623 0.631788
vt 0.683623 0.576212
vt 0.673540 0.569355
vt 0.683623 0.550981
vt 0.683623 0.600538
vt 0.669364 0.619817
vt 0.683623 0.588567
vt 0.683623 0.642796
vt 0.673856 0.674046
vt 0.683623 0.545815
vt 0.678166 0.558000
vt 0.683623 0.526750
vt 0.670450 0.607462
vt 0.670450 0.631788
vt 0.676534 0.643149
vt 0.671734 0.681389
vt 0.664993 0.564190
vt 0.673540 0.558000
vt 0.657275 0.619817
vt 0.659281 0.607462
vt 0.665576 0.674046
vt 0.659281 0.631788
vt 0.683623 0.650139
vt 0.680911 0.643149
vt 0.664993 0.569355
vt 0.657275 0.588567
vt 0.651819 0.607462
vt 0.659281 0.576212
vt 0.659281 0.600538
vt 0.660043 0.674046
vt 0.651819 0.631788
vt 0.690713 0.634089
vt 0.690174 0.643149
vt 0.673540 0.526750
vt 0.670450 0.558000
vt 0.659281 0.569355
vt 0.664993 0.550981
vt 0.649198 0.619817
vt 0.665576 0.642796
vt 0.664993 0.545815
vt 0.669364 0.558000
vt 0.649198 0.607462
vt 0.657275 0.569355
vt 0.649198 0.631788
vt 0.646362 0.619817
vt 0.658100 0.674046
vt 0.657275 0.564190
vt 0.672639 0.681389
vt 0.676534 0.634089
vt 0.649198 0.600538
vt 0.649198 0.619817
vt 0.646362 0.588567
vt 0.671734 0.650139
vt 0.660043 0.674046
vt 0.658100 0.642796
vt 0.669364 0.526750
vt 0.659281 0.564190
vt 0.670450 0.558000
vt 0.649198 0.576212
vt 0.651819 0.607462
vt 0.651819 0.631788
vt 0.695513 0.681389
vt 0.690713 0.643149
vt 0.657275 0.550981
vt 0.659281 0.569355
vt 0.664993 0.564190
vt 0.673540 0.558000
vt 0.657275 0.619817
vt 0.659281 0.607462
vt 0.665576 0.674046
vt 0.659281 0.631788
vt 0.683624 0.643149
vt 0.664993 0.569355
vt 0.659281 0.600538
vt 0.673856 0.674046
vt 0.670450 0.631788
vt 0.683624 0.634089
vt 0.673540 0.526750
vt 0.678166 0.558000
vt 0.664993 0.550981
vt 0.670450 0.607462
vt 0.673540 0.569355
vt 0.669364 0.619817
vt 0.657275 0.588567
vt 0.675217 0.650139
vt 0.665576 0.642796
vt 0.673540 0.564190
vt 0.659281 0.576212
vt 0.683623 0.558000
vt 0.683623 0.569355
vt 0.683623 0.619817
vt 0.683623 0.674046
vt 0.683623 0.564190
vt 0.683623 0.607462
vt 0.683623 0.631788
vt 0.692031 0.650139
vt 0.686337 0.643149
vt 0.686337 0.638619
vt 0.683624 0.644748
vt 0.685684 0.644748
vt 0.690713 0.638619
vt 0.688598 0.644748
vt 0.689008 0.644748
vt 0.686337 0.638619
vt 0.683624 0.644748
vt 0.683624 0.638619
vt 0.678611 0.638619
vt 0.678650 0.644748
vt 0.677074 0.638619
vt 0.688637 0.638619
vt 0.690174 0.638619
vt 0.678611 0.638619
vt 0.678650 0.644748
vt 0.679817 0.644748
vt 0.688637 0.638619
vt 0.685684 0.644748
vt 0.680911 0.638619
vt 0.679817 0.644748
vt 0.688598 0.644748
vt 0.687431 0.644748
vt 0.687431 0.644748
vt 0.676534 0.638619
vt 0.677074 0.638619
vt 0.680911 0.638619
vt 0.681563 0.644748
vt 0.681563 0.644748
vt 0.683624 0.638619
vt 0.690174 0.638619
vt 0.678240 0.644748
vt 0.681072 0.651483
vt 0.686175 0.651483
vt 0.680614 0.651483
vt 0.686634 0.651483
vt 0.681919 0.651483
vt 0.685329 0.651483
vt 0.683025 0.651483
vt 0.684223 0.651483
vt 0.683624 0.682733
vt 0.685329 0.682733
vt 0.683025 0.682733
vt 0.681072 0.682733
vt 0.680614 0.682733
vt 0.681919 0.682733
vt 0.684223 0.682733
vt 0.686175 0.682733
vt 0.686634 0.682733
vt 0.692031 0.650139
vt 0.693706 0.564190
vt 0.707966 0.564190
vt 0.707966 0.564190
vt 0.702254 0.545815
vt 0.678611 0.634089
vt 0.673540 0.564190
vt 0.683624 0.634089
vt 0.659281 0.564190
vt 0.657275 0.545815
vt 0.664993 0.545815
vt 0.688637 0.634089
vn 0.5138 0.8311 -0.2128
vn 0.5885 0.5544 -0.5885
vn 0.7689 0.5544 -0.3185
vn 0.0000 -1.0000 -0.0000
vn -0.0000 -0.8817 -0.4719
vn 0.1806 -0.8817 -0.4360
vn -0.0000 -0.4107 -0.9118
vn 0.2626 -0.7274 -0.6339
vn -0.0000 -0.7274 -0.6862
vn -0.0000 0.4301 -0.9028
vn 0.3827 0.0034 -0.9239
vn -0.0000 0.0034 -1.0000
vn 0.0000 0.8311 -0.5561
vn 0.2497 0.7578 -0.6028
vn -0.0000 0.7578 -0.6525
vn 0.3489 -0.4106 -0.8424
vn 0.3455 0.4301 -0.8341
vn 0.7071 0.0034 -0.7071
vn 0.2128 0.8311 -0.5138
vn 0.4614 0.7578 -0.4614
vn 0.4852 -0.7274 -0.4852
vn 0.3337 -0.8817 -0.3337
vn 0.6447 -0.4107 -0.6447
vn 0.6384 0.4301 -0.6384
vn 0.3933 0.8311 -0.3932
vn 0.3185 0.5544 -0.7689
vn 0.4360 -0.8817 -0.1806
vn 0.8424 -0.4106 -0.3489
vn 0.6028 0.7578 -0.2497
vn 0.8341 0.4301 -0.3455
vn -0.2128 0.8311 -0.5138
vn -0.5885 0.5545 -0.5885
vn -0.3185 0.5545 -0.7689
vn 0.6339 -0.7274 -0.2626
vn 0.9239 0.0034 -0.3827
vn 0.6525 0.7578 0.0000
vn 0.9028 0.4301 0.0000
vn 0.0000 0.5545 -0.8322
vn 0.4719 -0.8817 -0.0000
vn 0.9118 -0.4107 -0.0000
vn 0.6862 -0.7274 -0.0000
vn 1.0000 0.0034 -0.0000
vn 0.4360 -0.8817 0.1806
vn 0.6339 -0.7274 0.2626
vn 0.9239 0.0034 0.3827
vn 0.5561 0.8311 0.0000
vn 0.6028 0.7578 0.2497
vn 0.8424 -0.4106 0.3489
vn 0.8341 0.4301 0.3455
vn 0.5138 0.8311 0.2128
vn 0.5885 0.5544 0.5885
vn 0.3933 0.8311 0.3932
vn 0.4614 0.7578 0.4614
vn 0.4852 -0.7274 0.4852
vn 0.3337 -0.8817 0.3337
vn 0.7071 0.0034 0.7071
vn 0.6447 -0.4107 0.6447
vn 0.6384 0.4301 0.6384
vn -0.3932 0.8311 -0.3932
vn -0.7689 0.5545 -0.3185
vn 0.2626 -0.7274 0.6339
vn 0.1806 -0.8817 0.4360
vn 0.3827 0.0034 0.9239
vn 0.3489 -0.4107 0.8424
vn 0.2497 0.7578 0.6028
vn 0.3455 0.4301 0.8341
vn -0.2128 0.8311 0.5138
vn -0.5885 0.5545 0.5885
vn -0.3932 0.8311 0.3932
vn 0.2128 0.8311 0.5138
vn -0.7689 0.5545 0.3185
vn -0.5138 0.8311 0.2128
vn 0.0000 -0.8817 0.4719
vn 0.0000 -0.7274 0.6862
vn -0.0000 0.0034 1.0000
vn 0.0000 0.8311 0.5561
vn 0.0000 0.7578 0.6525
vn 0.0000 -0.4107 0.9118
vn 0.0000 0.4301 0.9028
vn -0.2626 -0.7274 0.6339
vn -0.3827 0.0034 0.9239
vn -0.2497 0.7578 0.6028
vn -0.1806 -0.8817 0.4360
vn -0.3489 -0.4106 0.8424
vn -0.3455 0.4301 0.8341
vn -0.8322 0.5545 -0.0000
vn -0.5561 0.8311 -0.0000
vn -0.4852 -0.7274 0.4852
vn -0.3337 -0.8817 0.3337
vn -0.7071 0.0034 0.7071
vn -0.6447 -0.4107 0.6447
vn -0.4614 0.7578 0.4614
vn -0.6384 0.4301 0.6384
vn -0.3185 0.5545 0.7689
vn -0.8424 -0.4106 0.3489
vn -0.6028 0.7578 0.2497
vn -0.8341 0.4301 0.3455
vn 0.8322 0.5544 0.0000
vn 0.7689 0.5544 0.3185
vn -0.4360 -0.8817 0.1806
vn -0.6339 -0.7274 0.2626
vn -0.9239 0.0034 0.3827
vn -0.4719 -0.8817 -0.0000
vn -0.9118 -0.4107 -0.0000
vn -0.6862 -0.7274 -0.0000
vn -0.9028 0.4301 -0.0000
vn -1.0000 0.0034 -0.0000
vn -0.6525 0.7578 -0.0000
vn -0.5138 0.8311 -0.2128
vn -0.9239 0.0034 -0.3827
vn -0.6028 0.7578 -0.2497
vn -0.6339 -0.7274 -0.2626
vn -0.4360 -0.8817 -0.1806
vn -0.8424 -0.4107 -0.3489
vn -0.8341 0.4301 -0.3455
vn -0.4852 -0.7274 -0.4852
vn -0.3337 -0.8817 -0.3337
vn -0.7071 0.0034 -0.7071
vn -0.6447 -0.4107 -0.6447
vn -0.4614 0.7578 -0.4614
vn -0.6384 0.4301 -0.6384
vn 0.0000 0.5545 0.8322
vn -0.2497 0.7578 -0.6028
vn -0.3455 0.4301 -0.8341
vn -0.1806 -0.8817 -0.4360
vn -0.3489 -0.4107 -0.8424
vn -0.2626 -0.7274 -0.6339
vn -0.3827 0.0034 -0.9239
vn 0.3185 0.5544 0.7689
vn 0.0045 0.2996 -0.9540
vn 0.3610 0.2996 -0.8831
vn 0.8797 0.2996 -0.3692
vn 0.9541 0.2996 0.0044
vn -0.0044 0.2996 0.9540
vn -0.8797 0.2996 0.3692
vn -0.8831 0.2996 -0.3610
vn -0.6715 0.2996 -0.6777
vn 0.3692 0.2996 0.8797
vn -0.6778 0.2996 0.6715
vn 0.8831 0.2996 0.3610
vn 0.6715 0.2996 0.6778
vn 0.6778 0.2996 -0.6715
vn -0.3692 0.2996 -0.8797
vn -0.3610 0.2996 0.8831
vn -0.9540 0.2996 -0.0044
vn -0.6414 0.6364 -0.4285
vn 0.6414 0.6364 0.4286
vn -0.7565 0.6364 0.1505
vn 0.7565 0.6364 -0.1505
vn -0.4285 0.6364 0.6414
vn 0.4285 0.6364 -0.6414
vn -0.1505 0.6364 -0.7565
vn 0.1505 0.6364 0.7565
vn -0.0000 1.0000 0.0000
usemtl restaurant.064
s 1
f 19/1/1 115/2/2 116/3/3
f 76/4/4 4/5/5 11/6/6
f 3/7/7 10/8/8 114/9/9
f 2/10/10 8/11/11 113/12/12
f 112/13/13 6/14/14 1/15/15
f 114/16/9 11/6/6 4/5/5
f 3/7/7 8/11/11 9/17/16
f 2/10/10 6/14/14 7/18/17
f 7/18/17 15/19/18 8/11/11
f 5/20/19 13/21/20 6/14/14
f 11/6/6 17/22/21 18/23/22
f 9/17/16 15/19/18 16/24/23
f 7/18/17 13/21/20 14/25/24
f 12/26/25 54/27/26 115/28/2
f 76/4/4 11/6/6 18/23/22
f 9/17/16 17/29/21 10/8/8
f 17/30/21 25/31/27 18/32/22
f 15/33/18 23/34/28 16/35/23
f 14/36/24 20/37/29 21/38/30
f 105/39/31 127/40/32 128/41/33
f 76/4/4 18/32/22 25/31/27
f 16/35/23 24/42/34 17/43/21
f 14/36/24 22/44/35 15/33/18
f 13/45/20 19/1/1 20/37/29
f 21/38/30 27/46/36 28/47/37
f 112/48/13 128/41/33 129/49/38
f 76/4/4 25/31/27 32/50/39
f 24/42/34 30/51/40 31/52/41
f 22/44/35 28/47/37 29/53/42
f 19/1/1 27/46/36 20/37/29
f 25/31/27 31/54/41 32/50/39
f 23/34/28 29/53/42 30/51/40
f 76/4/4 32/55/39 39/56/43
f 30/57/40 38/58/44 31/59/41
f 28/60/37 36/61/45 29/62/42
f 26/63/46 34/64/47 27/65/36
f 31/66/41 39/56/43 32/55/39
f 29/62/42 37/67/48 30/57/40
f 28/60/37 34/64/47 35/68/49
f 33/69/50 119/70/51 40/71/52
f 34/64/47 40/71/52 41/72/53
f 39/56/43 45/73/54 46/74/55
f 37/67/48 43/75/56 44/76/57
f 35/68/49 41/72/53 42/77/58
f 98/78/59 126/79/60 127/80/32
f 76/4/4 39/56/43 46/74/55
f 38/58/44 44/76/57 45/81/54
f 36/61/45 42/77/58 43/75/56
f 46/82/55 52/83/61 53/84/62
f 44/85/57 50/86/63 51/87/64
f 42/88/58 48/89/65 49/90/66
f 62/91/67 123/92/68 69/93/69
f 76/4/4 46/82/55 53/84/62
f 45/94/54 51/87/64 52/95/61
f 42/88/58 50/86/63 43/96/56
f 41/97/53 47/98/70 48/89/65
f 69/99/69 124/100/71 77/101/72
f 76/4/4 53/84/62 61/102/73
f 51/87/64 60/103/74 52/95/61
f 49/90/66 58/104/75 50/86/63
f 48/89/65 55/105/76 56/106/77
f 53/84/62 60/107/74 61/102/73
f 51/87/64 58/104/75 59/108/78
f 49/90/66 56/106/77 57/109/79
f 59/110/78 67/111/80 60/112/74
f 57/113/79 65/114/81 58/115/75
f 56/116/77 62/91/67 63/117/82
f 60/118/74 68/119/83 61/120/73
f 59/110/78 65/114/81 66/121/84
f 57/113/79 63/117/82 64/122/85
f 77/101/72 125/123/86 84/124/87
f 76/4/4 61/120/73 68/119/83
f 68/119/83 74/125/88 75/126/89
f 66/121/84 72/127/90 73/128/91
f 64/122/85 70/129/92 71/130/93
f 55/131/76 122/132/94 62/91/67
f 76/4/4 68/119/83 75/126/89
f 66/121/84 74/133/88 67/111/80
f 64/122/85 72/127/90 65/114/81
f 62/91/67 70/129/92 63/117/82
f 72/134/90 81/135/95 73/136/91
f 71/137/93 78/138/96 79/139/97
f 33/69/50 117/140/98 118/141/99
f 76/4/4 75/142/89 83/143/100
f 73/136/91 82/144/101 74/145/88
f 71/137/93 80/146/102 72/134/90
f 70/147/92 77/101/72 78/138/96
f 74/148/88 83/143/100 75/142/89
f 76/4/4 83/143/100 90/149/103
f 82/144/101 88/150/104 89/151/105
f 80/146/102 86/152/106 87/153/107
f 78/138/96 84/124/87 85/154/108
f 83/143/100 89/155/105 90/149/103
f 81/135/95 87/153/107 88/150/104
f 79/139/97 85/154/108 86/152/106
f 91/156/109 125/157/86 126/79/60
f 86/158/106 94/159/110 87/160/107
f 84/161/87 92/162/111 85/163/108
f 90/164/103 96/165/112 97/166/113
f 88/167/104 94/159/110 95/168/114
f 86/158/106 92/162/111 93/169/115
f 26/170/46 116/3/3 117/171/98
f 76/4/4 90/164/103 97/166/113
f 89/172/105 95/168/114 96/173/112
f 97/166/113 103/174/116 104/175/117
f 95/168/114 101/176/118 102/177/119
f 93/169/115 99/178/120 100/179/121
f 47/98/70 121/180/122 55/105/76
f 76/4/4 97/166/113 104/175/117
f 95/168/114 103/181/116 96/173/112
f 93/169/115 101/176/118 94/159/110
f 91/156/109 99/178/120 92/162/111
f 100/182/121 106/183/123 107/184/124
f 5/20/19 129/185/38 54/27/26
f 76/4/4 104/186/117 111/187/125
f 103/188/116 109/189/126 110/190/127
f 100/182/121 108/191/128 101/192/118
f 98/193/59 106/183/123 99/194/120
f 104/186/117 110/195/127 111/187/125
f 102/196/119 108/191/128 109/189/126
f 76/4/4 111/187/125 4/197/5
f 109/189/126 114/198/9 110/190/127
f 107/184/124 113/199/12 108/191/128
f 105/39/31 1/200/15 106/183/123
f 111/187/125 114/201/9 4/197/5
f 108/191/128 3/202/7 109/189/126
f 107/184/124 1/200/15 2/203/10
f 40/204/52 120/205/129 47/98/70
f 54/206/26 145/207/130 130/208/131
f 117/209/98 132/210/132 133/211/133
f 120/212/129 137/213/134 121/214/122
f 123/215/68 140/216/135 124/217/71
f 115/218/2 132/210/132 116/219/3
f 127/220/32 142/221/136 143/222/137
f 119/223/51 136/224/138 120/212/129
f 122/225/94 139/226/139 123/215/68
f 119/223/51 134/227/140 135/228/141
f 115/218/2 130/208/131 131/229/142
f 125/230/86 142/221/136 126/231/60
f 128/232/33 143/222/137 144/233/143
f 121/214/122 138/234/144 122/225/94
f 129/235/38 144/233/143 145/207/130
f 117/209/98 134/227/140 118/236/99
f 125/230/86 140/216/135 141/237/145
f 143/222/137 142/221/136 149/238/146
f 135/228/141 134/227/140 153/239/147
f 142/221/136 150/240/148 149/238/146
f 134/227/140 154/241/149 153/239/147
f 141/237/145 140/216/135 150/240/148
f 133/211/133 132/210/132 154/241/149
f 140/216/135 151/242/150 150/240/148
f 131/229/142 154/241/149 132/210/132
f 139/226/139 138/234/144 151/242/150
f 145/207/130 147/243/151 130/208/131
f 131/229/142 130/208/131 147/243/151
f 137/213/134 151/242/150 138/234/144
f 145/207/130 144/233/143 148/244/152
f 137/213/134 136/224/138 152/245/153
f 144/233/143 149/238/146 148/244/152
f 136/224/138 153/239/147 152/245/153
f 146/246/154 147/247/151 148/248/152
f 146/246/154 148/248/152 149/249/146
f 146/246/154 149/249/146 150/250/148
f 146/246/154 150/250/148 151/251/150
f 146/246/154 151/251/150 152/252/153
f 146/246/154 152/252/153 153/253/147
f 146/246/154 153/253/147 154/254/149
f 146/246/154 154/254/149 147/247/151
f 19/1/1 12/255/25 115/2/2
f 3/7/7 9/17/16 10/8/8
f 2/10/10 7/18/17 8/11/11
f 112/13/13 5/20/19 6/14/14
f 114/16/9 10/256/8 11/6/6
f 3/7/7 113/12/12 8/11/11
f 2/10/10 1/15/15 6/14/14
f 7/18/17 14/25/24 15/19/18
f 5/20/19 12/26/25 13/21/20
f 11/6/6 10/256/8 17/22/21
f 9/17/16 8/11/11 15/19/18
f 7/18/17 6/14/14 13/21/20
f 12/26/25 5/20/19 54/27/26
f 9/17/16 16/24/23 17/29/21
f 17/30/21 24/257/34 25/31/27
f 15/33/18 22/44/35 23/34/28
f 14/36/24 13/45/20 20/37/29
f 105/39/31 98/193/59 127/40/32
f 16/35/23 23/34/28 24/42/34
f 14/36/24 21/38/30 22/44/35
f 13/45/20 12/255/25 19/1/1
f 21/38/30 20/37/29 27/46/36
f 112/48/13 105/39/31 128/41/33
f 24/42/34 23/34/28 30/51/40
f 22/44/35 21/38/30 28/47/37
f 19/1/1 26/170/46 27/46/36
f 25/31/27 24/257/34 31/54/41
f 23/34/28 22/44/35 29/53/42
f 30/57/40 37/67/48 38/58/44
f 28/60/37 35/68/49 36/61/45
f 26/63/46 33/69/50 34/64/47
f 31/66/41 38/258/44 39/56/43
f 29/62/42 36/61/45 37/67/48
f 28/60/37 27/65/36 34/64/47
f 33/69/50 118/141/99 119/70/51
f 34/64/47 33/69/50 40/71/52
f 39/56/43 38/258/44 45/73/54
f 37/67/48 36/61/45 43/75/56
f 35/68/49 34/64/47 41/72/53
f 98/78/59 91/156/109 126/79/60
f 38/58/44 37/67/48 44/76/57
f 36/61/45 35/68/49 42/77/58
f 46/82/55 45/259/54 52/83/61
f 44/85/57 43/96/56 50/86/63
f 42/88/58 41/97/53 48/89/65
f 62/91/67 122/132/94 123/92/68
f 45/94/54 44/85/57 51/87/64
f 42/88/58 49/90/66 50/86/63
f 41/97/53 40/204/52 47/98/70
f 69/99/69 123/260/68 124/100/71
f 51/87/64 59/108/78 60/103/74
f 49/90/66 57/109/79 58/104/75
f 48/89/65 47/98/70 55/105/76
f 53/84/62 52/83/61 60/107/74
f 51/87/64 50/86/63 58/104/75
f 49/90/66 48/89/65 56/106/77
f 59/110/78 66/121/84 67/111/80
f 57/113/79 64/122/85 65/114/81
f 56/116/77 55/131/76 62/91/67
f 60/118/74 67/261/80 68/119/83
f 59/110/78 58/115/75 65/114/81
f 57/113/79 56/116/77 63/117/82
f 77/101/72 124/100/71 125/123/86
f 68/119/83 67/261/80 74/125/88
f 66/121/84 65/114/81 72/127/90
f 64/122/85 63/117/82 70/129/92
f 55/131/76 121/262/122 122/132/94
f 66/121/84 73/128/91 74/133/88
f 64/122/85 71/130/93 72/127/90
f 62/91/67 69/93/69 70/129/92
f 72/134/90 80/146/102 81/135/95
f 71/137/93 70/147/92 78/138/96
f 33/69/50 26/63/46 117/140/98
f 73/136/91 81/135/95 82/144/101
f 71/137/93 79/139/97 80/146/102
f 70/147/92 69/99/69 77/101/72
f 74/148/88 82/263/101 83/143/100
f 82/144/101 81/135/95 88/150/104
f 80/146/102 79/139/97 86/152/106
f 78/138/96 77/101/72 84/124/87
f 83/143/100 82/263/101 89/155/105
f 81/135/95 80/146/102 87/153/107
f 79/139/97 78/138/96 85/154/108
f 91/156/109 84/161/87 125/157/86
f 86/158/106 93/169/115 94/159/110
f 84/161/87 91/156/109 92/162/111
f 90/164/103 89/264/105 96/165/112
f 88/167/104 87/160/107 94/159/110
f 86/158/106 85/163/108 92/162/111
f 26/170/46 19/1/1 116/3/3
f 89/172/105 88/167/104 95/168/114
f 97/166/113 96/165/112 103/174/116
f 95/168/114 94/159/110 101/176/118
f 93/169/115 92/162/111 99/178/120
f 47/98/70 120/205/129 121/180/122
f 95/168/114 102/177/119 103/181/116
f 93/169/115 100/179/121 101/176/118
f 91/156/109 98/78/59 99/178/120
f 100/182/121 99/194/120 106/183/123
f 5/20/19 112/13/13 129/185/38
f 103/188/116 102/196/119 109/189/126
f 100/182/121 107/184/124 108/191/128
f 98/193/59 105/39/31 106/183/123
f 104/186/117 103/265/116 110/195/127
f 102/196/119 101/192/118 108/191/128
f 109/189/126 3/202/7 114/198/9
f 107/184/124 2/203/10 113/199/12
f 105/39/31 112/48/13 1/200/15
f 111/187/125 110/195/127 114/201/9
f 108/191/128 113/199/12 3/202/7
f 107/184/124 106/183/123 1/200/15
f 40/204/52 119/266/51 120/205/129
f 54/206/26 129/235/38 145/207/130
f 117/209/98 116/219/3 132/210/132
f 120/212/129 136/224/138 137/213/134
f 123/215/68 139/226/139 140/216/135
f 115/218/2 131/229/142 132/210/132
f 127/220/32 126/231/60 142/221/136
f 119/223/51 135/228/141 136/224/138
f 122/225/94 138/234/144 139/226/139
f 119/223/51 118/236/99 134/227/140
f 115/218/2 54/206/26 130/208/131
f 125/230/86 141/237/145 142/221/136
f 128/232/33 127/220/32 143/222/137
f 121/214/122 137/213/134 138/234/144
f 129/235/38 128/232/33 144/233/143
f 117/209/98 133/211/133 134/227/140
f 125/230/86 124/217/71 140/216/135
f 142/221/136 141/237/145 150/240/148
f 134/227/140 133/211/133 154/241/149
f 140/216/135 139/226/139 151/242/150
f 131/229/142 147/243/151 154/241/149
f 145/207/130 148/244/152 147/243/151
f 137/213/134 152/245/153 151/242/150
f 144/233/143 143/222/137 149/238/146
f 136/224/138 135/228/141 153/239/147
