# Blender v3.4.1 OBJ File: 'restaurant.blend'
# www.blender.org
mtllib food_ingredient_potato_Cube_18442.mtl
o food_ingredient_potato_Cube.18442
v -0.215024 -0.322475 0.205958
v -0.172159 0.323869 0.151411
v -0.215024 -0.322475 -0.205958
v -0.172159 0.323869 -0.151411
v 0.165123 -0.318681 0.207396
v 0.097712 0.322532 0.152738
v 0.165123 -0.318681 -0.207396
v 0.097712 0.322532 -0.152738
v -0.242579 -0.345028 -0.119886
v -0.242579 -0.345028 0.119886
v -0.255576 0.109524 0.229452
v -0.204330 0.264932 0.180518
v -0.185449 0.343281 0.087652
v -0.185449 0.343281 -0.087652
v -0.281026 -0.062927 -0.263555
v -0.254376 -0.249066 -0.242392
v 0.086778 -0.343023 -0.237220
v -0.132777 -0.344936 -0.236114
v -0.114967 0.343925 -0.172364
v 0.040918 0.343507 -0.173391
v 0.166510 -0.059384 -0.265384
v 0.181803 -0.243068 -0.243516
v 0.201870 -0.341421 0.120962
v 0.201870 -0.341421 -0.120962
v 0.124256 0.341997 -0.088656
v 0.124256 0.341997 0.088656
v 0.166510 -0.059384 0.265384
v 0.181803 -0.243068 0.243516
v -0.132777 -0.344936 0.236114
v 0.086778 -0.343023 0.237220
v 0.040918 0.343507 0.173391
v -0.114967 0.343925 0.172364
v -0.254376 -0.249066 0.242392
v -0.281026 -0.062927 0.263555
v -0.204330 0.264932 -0.180518
v -0.255576 0.109524 -0.229452
v 0.110700 0.262983 -0.181646
v 0.131936 0.110328 -0.230964
v 0.110700 0.262983 0.181646
v 0.131936 0.110328 0.230963
v -0.308500 0.107873 0.122577
v -0.243681 0.269613 0.097341
v -0.308500 0.107873 -0.122577
v -0.243681 0.269613 -0.097341
v -0.168213 0.108961 -0.295643
v -0.134815 0.270619 -0.230963
v 0.035421 0.109510 -0.296590
v 0.033262 0.269865 -0.231733
v 0.195724 0.108540 -0.123637
v 0.161079 0.266852 -0.098109
v 0.195724 0.108540 0.123637
v 0.161079 0.266852 0.098109
v 0.035421 0.109510 0.296590
v 0.033262 0.269866 0.231733
v -0.168213 0.108961 0.295643
v -0.134815 0.270619 0.230963
v -0.132180 -0.393539 -0.126148
v 0.107240 -0.392575 -0.126748
v -0.132180 -0.393538 0.126148
v 0.107240 -0.392575 0.126748
v 0.058958 0.386461 -0.092253
v -0.108558 0.386425 -0.091607
v 0.058958 0.386461 0.092253
v -0.108558 0.386425 0.091607
v 0.078020 -0.251920 0.311747
v 0.056786 -0.060322 0.340000
v -0.152772 -0.255088 0.310979
v -0.175942 -0.062492 0.338924
v 0.250901 -0.247995 -0.131672
v 0.240013 -0.059716 -0.142277
v 0.250902 -0.247995 0.131672
v 0.240013 -0.059716 0.142277
v -0.152772 -0.255088 -0.310979
v -0.175942 -0.062492 -0.338924
v 0.078020 -0.251920 -0.311747
v 0.056786 -0.060322 -0.340000
v -0.319478 -0.255294 0.130910
v -0.349099 -0.063497 0.140891
v -0.319478 -0.255294 -0.130910
v -0.349099 -0.063497 -0.140891
vt 0.796345 0.675554
vt 0.792314 0.688106
vt 0.796345 0.695920
vt 0.795038 0.667244
vt 0.787827 0.636198
vt 0.791491 0.636372
vt 0.787067 0.554144
vt 0.792391 0.564993
vt 0.792391 0.544627
vt 0.787827 0.636198
vt 0.795038 0.667244
vt 0.791491 0.636372
vt 0.797266 0.673495
vt 0.820335 0.687813
vt 0.822733 0.636268
vt 0.820335 0.687813
vt 0.792314 0.667740
vt 0.797266 0.673495
vt 0.801225 0.695988
vt 0.811486 0.688133
vt 0.799851 0.688213
vt 0.785016 0.618022
vt 0.789729 0.618082
vt 0.797539 0.615947
vt 0.799992 0.565002
vt 0.814585 0.574867
vt 0.815191 0.565205
vt 0.818317 0.636458
vt 0.811636 0.616005
vt 0.799851 0.667847
vt 0.811636 0.636371
vt 0.811486 0.688133
vt 0.812016 0.695944
vt 0.816847 0.687403
vt 0.817786 0.695783
vt 0.817786 0.695783
vt 0.785016 0.618022
vt 0.789729 0.618082
vt 0.813115 0.597992
vt 0.820711 0.618458
vt 0.826553 0.575284
vt 0.823159 0.565375
vt 0.823159 0.565375
vt 0.822733 0.636268
vt 0.816847 0.687403
vt 0.818317 0.636458
vt 0.815948 0.693719
vt 0.800033 0.559847
vt 0.815948 0.693719
vt 0.801225 0.675622
vt 0.812016 0.695944
vt 0.797004 0.597762
vt 0.825799 0.598057
vt 0.820711 0.598092
vt 0.814585 0.574867
vt 0.799992 0.565002
vt 0.815191 0.565205
vt 0.797539 0.636313
vt 0.816608 0.559950
vt 0.816608 0.559950
vt 0.797004 0.618128
vt 0.813115 0.618358
vt 0.825799 0.618423
vt 0.794298 0.567385
vt 0.800033 0.559847
vt 0.820615 0.567787
vt 0.820615 0.567787
vt 0.801669 0.700496
vt 0.813265 0.700499
vt 0.801669 0.700496
vt 0.794298 0.547019
vt 0.813265 0.700499
vt 0.798608 0.574532
vt 0.821769 0.555441
vt 0.791574 0.554804
vt 0.798608 0.574532
vt 0.821769 0.575807
vt 0.826553 0.554918
vt 0.791574 0.575170
vt 0.787067 0.574510
vn -0.6360 0.7541 -0.1638
vn -0.8429 0.5027 0.1918
vn -0.6360 0.7541 0.1638
vn -0.6724 0.4940 0.5512
vn -0.9238 0.3175 0.2141
vn -0.7271 0.3270 0.6037
vn -0.8831 -0.4045 0.2377
vn -0.5873 -0.7899 -0.1766
vn -0.5873 -0.7899 0.1766
vn -0.9238 0.3175 -0.2141
vn -0.6724 0.4940 -0.5512
vn -0.7271 0.3270 -0.6037
vn -0.5633 0.6837 0.4639
vn 0.9070 0.3420 0.2458
vn 0.9296 0.2624 -0.2589
vn 0.9070 0.3420 -0.2458
vn -0.8429 0.5027 -0.1918
vn -0.5633 0.6837 -0.4639
vn -0.2140 0.7686 -0.6028
vn 0.2560 0.4748 -0.8420
vn -0.2700 0.5168 -0.8124
vn -0.9669 0.0350 -0.2527
vn -0.7463 0.0252 -0.6651
vn -0.3092 0.3259 -0.8934
vn -0.1850 -0.7900 -0.5846
vn 0.2773 -0.3560 -0.8924
vn 0.2244 -0.7499 -0.6224
vn 0.6919 0.2922 -0.6602
vn 0.2643 0.3148 -0.9116
vn -0.2700 0.5168 0.8124
vn 0.2643 0.3148 0.9116
vn 0.2560 0.4748 0.8420
vn 0.2289 0.7243 -0.6503
vn 0.6694 0.3756 -0.6410
vn 0.7349 0.6431 0.2152
vn 0.7349 0.6431 -0.2152
vn -0.9669 0.0350 0.2527
vn -0.7463 0.0252 0.6651
vn 0.2811 0.0788 -0.9564
vn 0.7138 0.1240 -0.6893
vn 0.9428 -0.2120 -0.2574
vn 0.6973 -0.6865 0.2060
vn 0.6973 -0.6865 -0.2060
vn 0.9296 0.2624 0.2589
vn 0.6694 0.3756 0.6410
vn 0.6919 0.2922 0.6602
vn 0.5930 0.5610 -0.5776
vn -0.1962 -0.9604 -0.1981
vn 0.5930 0.5610 0.5776
vn -0.2140 0.7686 0.6028
vn 0.2289 0.7243 0.6503
vn -0.3098 0.0379 -0.9501
vn 0.9502 0.1519 0.2721
vn 0.7138 0.1240 0.6893
vn 0.2773 -0.3560 0.8924
vn -0.1850 -0.7900 0.5846
vn 0.2244 -0.7499 0.6224
vn -0.3092 0.3259 0.8934
vn 0.2463 -0.9452 0.2143
vn 0.2463 -0.9452 -0.2143
vn -0.3098 0.0379 0.9501
vn 0.2811 0.0788 0.9564
vn 0.9502 0.1519 -0.2721
vn -0.5139 -0.7069 -0.4860
vn -0.1962 -0.9604 0.1981
vn 0.5721 -0.5934 -0.5662
vn 0.5721 -0.5934 0.5662
vn -0.2349 0.9472 0.2183
vn 0.2870 0.9269 -0.2418
vn -0.2349 0.9472 -0.2183
vn -0.5139 -0.7069 0.4860
vn 0.2870 0.9269 0.2418
vn -0.2611 -0.4080 0.8749
vn 0.6978 -0.2327 0.6774
vn -0.6793 -0.3767 0.6298
vn -0.2611 -0.4080 -0.8749
vn 0.6978 -0.2327 -0.6774
vn 0.9428 -0.2120 0.2574
vn -0.6793 -0.3767 -0.6298
vn -0.8831 -0.4045 -0.2377
usemtl restaurant.132
s 1
f 14/1/1 42/2/2 13/3/3
f 12/4/4 41/5/5 11/6/6
f 77/7/7 9/8/8 10/9/9
f 43/10/10 35/11/11 36/12/12
f 2/13/13 42/2/2 12/4/4
f 52/14/14 49/15/15 50/16/16
f 44/17/17 4/18/18 35/11/11
f 19/19/19 48/20/20 46/21/21
f 80/22/22 36/12/12 15/23/23
f 35/11/11 45/24/24 36/12/12
f 18/25/25 75/26/26 17/27/27
f 48/20/20 38/28/28 47/29/29
f 4/18/18 46/21/21 35/11/11
f 56/30/30 53/31/31 54/32/32
f 20/33/33 37/34/34 48/20/20
f 26/35/35 50/16/16 25/36/36
f 11/6/6 78/37/37 34/38/38
f 76/39/39 38/28/28 21/40/40
f 37/34/34 49/15/15 38/28/28
f 69/41/41 23/42/42 24/43/43
f 51/44/44 39/45/45 40/46/46
f 8/47/47 50/16/16 37/34/34
f 17/27/27 57/48/48 18/25/25
f 52/14/14 6/49/49 39/45/45
f 32/50/50 54/32/32 31/51/51
f 15/23/23 45/24/24 74/52/52
f 72/53/53 40/46/46 27/54/54
f 54/32/32 40/46/46 39/45/45
f 65/55/55 29/56/56 30/57/57
f 55/58/58 12/4/4 11/6/6
f 39/45/45 31/51/51 54/32/32
f 60/59/59 57/48/48 58/60/60
f 56/30/30 2/13/13 12/4/4
f 53/31/31 68/61/61 66/62/62
f 38/28/28 70/63/63 21/40/40
f 55/58/58 34/38/38 68/61/61
f 60/59/59 24/43/43 23/42/42
f 3/64/64 57/48/48 9/8/8
f 59/65/65 30/57/57 29/56/56
f 7/66/66 58/60/60 17/27/27
f 9/8/8 59/65/65 10/9/9
f 60/59/59 5/67/67 30/57/57
f 64/68/68 61/69/69 62/70/70
f 59/65/65 1/71/71 10/9/9
f 62/70/70 20/33/33 19/19/19
f 64/68/68 14/1/1 13/3/3
f 8/47/47 61/69/69 25/36/36
f 64/68/68 31/51/51 63/72/72
f 4/18/18 62/70/70 19/19/19
f 61/69/69 26/35/35 25/36/36
f 64/68/68 2/13/13 32/50/50
f 66/62/62 67/73/73 65/55/55
f 63/72/72 6/49/49 26/35/35
f 72/53/53 69/41/41 70/63/63
f 27/54/54 65/55/55 28/74/74
f 28/74/74 30/57/57 5/67/67
f 68/61/61 33/75/75 67/73/73
f 51/44/44 70/63/63 49/15/15
f 67/73/73 1/71/71 29/56/56
f 76/39/39 73/76/76 74/52/52
f 70/63/63 22/77/77 21/40/40
f 7/66/66 69/41/41 24/43/43
f 72/53/53 28/74/74 71/78/78
f 47/29/29 74/52/52 45/24/24
f 71/78/78 5/67/67 23/42/42
f 80/22/22 77/7/7 78/37/37
f 74/52/52 16/79/79 15/23/23
f 3/64/64 73/76/76 18/25/25
f 75/26/26 21/40/40 22/77/77
f 43/10/10 78/37/37 41/5/5
f 17/27/27 22/77/77 7/66/66
f 33/75/75 78/37/37 77/7/7
f 1/71/71 77/7/7 10/9/9
f 80/22/22 16/79/79 79/80/80
f 79/80/80 3/64/64 9/8/8
f 40/46/46 66/62/62 27/54/54
f 42/2/2 43/10/10 41/5/5
f 46/21/21 47/29/29 45/24/24
f 14/1/1 44/17/17 42/2/2
f 12/4/4 42/2/2 41/5/5
f 77/7/7 79/80/80 9/8/8
f 43/10/10 44/17/17 35/11/11
f 2/13/13 13/3/3 42/2/2
f 52/14/14 51/44/44 49/15/15
f 44/17/17 14/1/1 4/18/18
f 19/19/19 20/33/33 48/20/20
f 80/22/22 43/10/10 36/12/12
f 35/11/11 46/21/21 45/24/24
f 18/25/25 73/76/76 75/26/26
f 48/20/20 37/34/34 38/28/28
f 4/18/18 19/19/19 46/21/21
f 56/30/30 55/58/58 53/31/31
f 20/33/33 8/47/47 37/34/34
f 26/35/35 52/14/14 50/16/16
f 11/6/6 41/5/5 78/37/37
f 76/39/39 47/29/29 38/28/28
f 37/34/34 50/16/16 49/15/15
f 69/41/41 71/78/78 23/42/42
f 51/44/44 52/14/14 39/45/45
f 8/47/47 25/36/36 50/16/16
f 17/27/27 58/60/60 57/48/48
f 52/14/14 26/35/35 6/49/49
f 32/50/50 56/30/30 54/32/32
f 15/23/23 36/12/12 45/24/24
f 72/53/53 51/44/44 40/46/46
f 54/32/32 53/31/31 40/46/46
f 65/55/55 67/73/73 29/56/56
f 55/58/58 56/30/30 12/4/4
f 39/45/45 6/49/49 31/51/51
f 60/59/59 59/65/65 57/48/48
f 56/30/30 32/50/50 2/13/13
f 53/31/31 55/58/58 68/61/61
f 38/28/28 49/15/15 70/63/63
f 55/58/58 11/6/6 34/38/38
f 60/59/59 58/60/60 24/43/43
f 3/64/64 18/25/25 57/48/48
f 59/65/65 60/59/59 30/57/57
f 7/66/66 24/43/43 58/60/60
f 9/8/8 57/48/48 59/65/65
f 60/59/59 23/42/42 5/67/67
f 64/68/68 63/72/72 61/69/69
f 59/65/65 29/56/56 1/71/71
f 62/70/70 61/69/69 20/33/33
f 64/68/68 62/70/70 14/1/1
f 8/47/47 20/33/33 61/69/69
f 64/68/68 32/50/50 31/51/51
f 4/18/18 14/1/1 62/70/70
f 61/69/69 63/72/72 26/35/35
f 64/68/68 13/3/3 2/13/13
f 66/62/62 68/61/61 67/73/73
f 63/72/72 31/51/51 6/49/49
f 72/53/53 71/78/78 69/41/41
f 27/54/54 66/62/62 65/55/55
f 28/74/74 65/55/55 30/57/57
f 68/61/61 34/38/38 33/75/75
f 51/44/44 72/53/53 70/63/63
f 67/73/73 33/75/75 1/71/71
f 76/39/39 75/26/26 73/76/76
f 70/63/63 69/41/41 22/77/77
f 7/66/66 22/77/77 69/41/41
f 72/53/53 27/54/54 28/74/74
f 47/29/29 76/39/39 74/52/52
f 71/78/78 28/74/74 5/67/67
f 80/22/22 79/80/80 77/7/7
f 74/52/52 73/76/76 16/79/79
f 3/64/64 16/79/79 73/76/76
f 75/26/26 76/39/39 21/40/40
f 43/10/10 80/22/22 78/37/37
f 17/27/27 75/26/26 22/77/77
f 33/75/75 34/38/38 78/37/37
f 1/71/71 33/75/75 77/7/7
f 80/22/22 15/23/23 16/79/79
f 79/80/80 16/79/79 3/64/64
f 40/46/46 53/31/31 66/62/62
f 42/2/2 44/17/17 43/10/10
f 46/21/21 48/20/20 47/29/29
