# Blender v3.4.1 OBJ File: 'restaurant.blend'
# www.blender.org
mtllib food_ingredient_steak_pieces_Cube_030.mtl
o food_ingredient_steak_pieces_Cube.030
v 0.109725 0.026408 0.258571
v 0.115593 0.045528 0.278571
v 0.096473 0.051396 0.258571
v 0.162538 0.198486 0.278571
v 0.168406 0.217606 0.258571
v 0.143419 0.204354 0.258571
v 0.109725 0.026408 0.098571
v 0.096473 0.051396 0.098571
v 0.115593 0.045528 0.078571
v 0.168406 0.217606 0.098571
v 0.162538 0.198486 0.078571
v 0.143419 0.204354 0.098571
v 0.262683 -0.020537 0.258571
v 0.287671 -0.007285 0.258571
v 0.268551 -0.001417 0.278571
v 0.321364 0.170661 0.258571
v 0.315496 0.151541 0.278571
v 0.334616 0.145673 0.258571
v 0.262683 -0.020537 0.098571
v 0.268551 -0.001417 0.078571
v 0.287671 -0.007285 0.098571
v 0.321364 0.170661 0.098571
v 0.334616 0.145673 0.098571
v 0.315496 0.151541 0.078571
v -0.288737 -0.001466 0.222445
v -0.296288 0.018534 0.240965
v -0.307257 0.018534 0.214894
v -0.296288 0.178534 0.240965
v -0.288737 0.198534 0.222445
v -0.307257 0.178534 0.214894
v -0.228327 -0.001466 0.074288
v -0.246847 0.018534 0.066736
v -0.220776 0.018534 0.055768
v -0.228327 0.198534 0.074288
v -0.220776 0.178534 0.055768
v -0.246847 0.178534 0.066736
v -0.140580 -0.001466 0.282855
v -0.122060 0.018534 0.290406
v -0.148131 0.018534 0.301375
v -0.140580 0.198534 0.282855
v -0.148131 0.178534 0.301375
v -0.122060 0.178534 0.290406
v -0.080170 -0.001466 0.134698
v -0.072618 0.018534 0.116178
v -0.061650 0.018534 0.142249
v -0.080170 0.198534 0.134698
v -0.061650 0.178534 0.142249
v -0.072618 0.178534 0.116178
v -0.144456 -0.001466 0.058571
v -0.144457 0.018534 0.078571
v -0.164457 0.018534 0.058571
v -0.144456 0.178534 0.078571
v -0.144456 0.198534 0.058571
v -0.164456 0.178534 0.058571
v -0.144456 -0.001466 -0.101429
v -0.164457 0.018534 -0.101429
v -0.144456 0.018534 -0.121429
v -0.144456 0.198534 -0.101429
v -0.144456 0.178534 -0.121429
v -0.164456 0.178534 -0.101429
v 0.015544 -0.001466 0.058571
v 0.035544 0.018534 0.058571
v 0.015544 0.018534 0.078571
v 0.015544 0.198534 0.058571
v 0.015544 0.178534 0.078571
v 0.035544 0.178534 0.058571
v 0.015544 -0.001466 -0.101429
v 0.015544 0.018534 -0.121429
v 0.035544 0.018534 -0.101429
v 0.015544 0.198534 -0.101429
v 0.035544 0.178534 -0.101429
v 0.015544 0.178534 -0.121429
v -0.248552 -0.012332 -0.141429
v -0.251551 0.007441 -0.121429
v -0.271325 0.004442 -0.141429
v -0.275546 0.165632 -0.121429
v -0.278545 0.185406 -0.141429
v -0.295320 0.162633 -0.141429
v -0.248552 -0.012332 -0.301429
v -0.271325 0.004442 -0.301429
v -0.251551 0.007441 -0.321429
v -0.278545 0.185406 -0.301429
v -0.275546 0.165632 -0.321429
v -0.295320 0.162633 -0.301429
v -0.090361 0.011662 -0.141429
v -0.073587 0.034435 -0.141429
v -0.093361 0.031436 -0.121429
v -0.120355 0.209400 -0.141429
v -0.117355 0.189627 -0.121429
v -0.097582 0.192626 -0.141429
v -0.090361 0.011662 -0.301429
v -0.093361 0.031436 -0.321429
v -0.073587 0.034435 -0.301429
v -0.120355 0.209400 -0.301429
v -0.097582 0.192626 -0.301429
v -0.117355 0.189627 -0.321429
v 0.030641 0.182833 -0.041429
v 0.026049 0.202299 -0.021429
v 0.006583 0.197708 -0.041429
v -0.010683 0.358026 -0.021429
v -0.015275 0.377492 -0.041429
v -0.030149 0.353434 -0.041429
v 0.030641 0.182833 -0.201429
v 0.006583 0.197708 -0.201429
v 0.026049 0.202299 -0.221429
v -0.015275 0.377492 -0.201429
v -0.010683 0.358026 -0.221429
v -0.030149 0.353434 -0.201429
v 0.186367 0.219566 -0.041429
v 0.201241 0.243623 -0.041429
v 0.181776 0.239032 -0.021429
v 0.140452 0.414224 -0.041429
v 0.145043 0.394758 -0.021429
v 0.164509 0.399350 -0.041429
v 0.186367 0.219566 -0.201429
v 0.181776 0.239032 -0.221429
v 0.201242 0.243623 -0.201429
v 0.140452 0.414224 -0.201429
v 0.164509 0.399350 -0.201429
v 0.145043 0.394758 -0.221429
v 0.176082 -0.001466 0.034605
v 0.184404 0.018534 0.052791
v 0.157896 0.018534 0.042927
v 0.184404 0.178534 0.052791
v 0.176082 0.198534 0.034605
v 0.157896 0.178534 0.042927
v 0.109507 -0.001466 -0.110887
v 0.091321 0.018534 -0.102565
v 0.101185 0.018534 -0.129073
v 0.109507 0.198534 -0.110887
v 0.101185 0.178534 -0.129073
v 0.091321 0.178534 -0.102565
v 0.321574 -0.001466 -0.031970
v 0.339760 0.018534 -0.040292
v 0.329895 0.018534 -0.013784
v 0.321574 0.198534 -0.031970
v 0.329895 0.178534 -0.013784
v 0.339760 0.178534 -0.040292
v 0.254999 -0.001466 -0.177462
v 0.246677 0.018534 -0.195648
v 0.273185 0.018534 -0.185784
v 0.254999 0.198534 -0.177462
v 0.273185 0.178534 -0.185784
v 0.246677 0.178534 -0.195648
vt 0.714506 0.313895
vt 0.703886 0.381110
vt 0.699183 0.323644
vt 0.721124 0.408696
vt 0.716422 0.351230
vt 0.716422 0.351230
vt 0.704474 0.397931
vt 0.719797 0.388183
vt 0.719797 0.388183
vt 0.701970 0.420882
vt 0.697268 0.363416
vt 0.697268 0.363416
vt 0.703886 0.381110
vt 0.714506 0.313895
vt 0.699183 0.323644
vt 0.698595 0.306822
vt 0.699183 0.310793
vt 0.697268 0.350564
vt 0.703886 0.393961
vt 0.704474 0.397931
vt 0.701970 0.433733
vt 0.698595 0.306822
vt 0.697268 0.350564
vt 0.699183 0.310793
vt 0.703886 0.393961
vt 0.701970 0.433733
vt 0.713918 0.297073
vt 0.716422 0.338378
vt 0.714506 0.301044
vt 0.719209 0.384212
vt 0.721124 0.421547
vt 0.713918 0.297073
vt 0.714506 0.301044
vt 0.716422 0.338378
vt 0.721124 0.421547
vt 0.719209 0.384212
vt 0.701970 0.420882
vt 0.719209 0.371361
vt 0.719209 0.371361
vt 0.721124 0.408696
vt 0.672763 0.376966
vt 0.657921 0.318038
vt 0.672763 0.318038
vt 0.681427 0.415520
vt 0.675375 0.356591
vt 0.681427 0.356591
vt 0.679572 0.393971
vt 0.658678 0.393971
vt 0.673520 0.393971
vt 0.656823 0.415520
vt 0.662874 0.356591
vt 0.656823 0.356591
vt 0.665486 0.376966
vt 0.680328 0.318038
vt 0.665486 0.318038
vt 0.658678 0.301034
vt 0.657921 0.305187
vt 0.656823 0.343740
vt 0.657921 0.389817
vt 0.656823 0.428371
vt 0.664730 0.301034
vt 0.662874 0.343740
vt 0.665486 0.305187
vt 0.664730 0.393971
vt 0.665486 0.389817
vt 0.662874 0.428371
vt 0.673520 0.301034
vt 0.675375 0.343740
vt 0.672763 0.305187
vt 0.672763 0.389817
vt 0.675375 0.428371
vt 0.679572 0.301034
vt 0.680328 0.305187
vt 0.681427 0.343740
vt 0.681427 0.428371
vt 0.680328 0.389817
vt 0.657921 0.376966
vt 0.662874 0.415520
vt 0.680328 0.376966
vt 0.675375 0.415520
vt 0.689160 0.356591
vt 0.673132 0.415520
vt 0.673132 0.356591
vt 0.691164 0.376966
vt 0.691164 0.318038
vt 0.691164 0.318038
vt 0.673132 0.393971
vt 0.689160 0.393971
vt 0.689160 0.393971
vt 0.671128 0.376966
vt 0.671128 0.318038
vt 0.671128 0.318038
vt 0.673132 0.415520
vt 0.689160 0.356591
vt 0.673132 0.356591
vt 0.673132 0.301033
vt 0.673132 0.343740
vt 0.671128 0.305187
vt 0.673132 0.428371
vt 0.673132 0.393971
vt 0.671128 0.389817
vt 0.673132 0.301033
vt 0.671128 0.305187
vt 0.673132 0.343740
vt 0.673132 0.428371
vt 0.671128 0.389817
vt 0.689160 0.301033
vt 0.691164 0.305187
vt 0.689160 0.343740
vt 0.689160 0.428371
vt 0.691164 0.389817
vt 0.689160 0.301033
vt 0.689160 0.343740
vt 0.691164 0.305187
vt 0.691164 0.389817
vt 0.689160 0.428371
vt 0.671128 0.376966
vt 0.689160 0.415520
vt 0.691164 0.376966
vt 0.689160 0.415520
vt 0.678250 0.320717
vt 0.659999 0.374287
vt 0.662403 0.315735
vt 0.677827 0.418446
vt 0.680231 0.359893
vt 0.680231 0.359893
vt 0.659699 0.391245
vt 0.675546 0.396227
vt 0.675546 0.396227
vt 0.658018 0.412218
vt 0.660422 0.353665
vt 0.660422 0.353665
vt 0.659999 0.374287
vt 0.678250 0.320717
vt 0.662403 0.315735
vt 0.662703 0.298777
vt 0.662403 0.302883
vt 0.660422 0.340814
vt 0.659999 0.387138
vt 0.659699 0.391245
vt 0.658018 0.425069
vt 0.662703 0.298777
vt 0.660422 0.340814
vt 0.662403 0.302883
vt 0.659999 0.387138
vt 0.658018 0.425069
vt 0.678551 0.303760
vt 0.680231 0.347042
vt 0.678250 0.307866
vt 0.675847 0.392121
vt 0.677827 0.431297
vt 0.678551 0.303760
vt 0.678250 0.307866
vt 0.680231 0.347042
vt 0.677827 0.431297
vt 0.675847 0.392121
vt 0.658018 0.412218
vt 0.675847 0.379270
vt 0.677827 0.418446
vt 0.675847 0.379270
vt 0.702133 0.421869
vt 0.690213 0.356200
vt 0.705813 0.363828
vt 0.704083 0.461375
vt 0.707763 0.403334
vt 0.707763 0.403334
vt 0.686073 0.431134
vt 0.701673 0.438762
vt 0.701673 0.438762
vt 0.684583 0.451840
vt 0.688263 0.393799
vt 0.688263 0.393799
vt 0.690213 0.356200
vt 0.702133 0.421869
vt 0.705813 0.363828
vt 0.690673 0.339306
vt 0.690213 0.343349
vt 0.688263 0.380948
vt 0.686533 0.427092
vt 0.686073 0.431134
vt 0.684583 0.464692
vt 0.690673 0.339306
vt 0.688263 0.380948
vt 0.690213 0.343349
vt 0.686533 0.427092
vt 0.684583 0.464692
vt 0.706273 0.346934
vt 0.707763 0.390483
vt 0.705813 0.350976
vt 0.702133 0.434720
vt 0.704083 0.474227
vt 0.706273 0.346934
vt 0.705813 0.350976
vt 0.707763 0.390483
vt 0.704083 0.474227
vt 0.702133 0.434720
vt 0.686533 0.414241
vt 0.686533 0.414241
vt 0.684583 0.451840
vt 0.704083 0.461375
vt 0.720652 0.415520
vt 0.706076 0.356591
vt 0.720652 0.356591
vt 0.714970 0.376966
vt 0.721640 0.318038
vt 0.714970 0.318038
vt 0.713149 0.393971
vt 0.705243 0.393971
vt 0.719818 0.393971
vt 0.703421 0.376966
vt 0.696751 0.318038
vt 0.703421 0.318038
vt 0.697740 0.415520
vt 0.712315 0.356591
vt 0.697740 0.356591
vt 0.705243 0.301034
vt 0.706076 0.343740
vt 0.703421 0.305187
vt 0.706076 0.428371
vt 0.703421 0.389817
vt 0.698573 0.301034
vt 0.696751 0.305187
vt 0.697740 0.343740
vt 0.698573 0.393971
vt 0.697740 0.428371
vt 0.696751 0.389817
vt 0.719818 0.301034
vt 0.721640 0.305187
vt 0.720652 0.343740
vt 0.720652 0.428371
vt 0.721640 0.389817
vt 0.713149 0.301034
vt 0.712315 0.343740
vt 0.714970 0.305187
vt 0.714970 0.389817
vt 0.712315 0.428371
vt 0.706076 0.415520
vt 0.696751 0.376966
vt 0.712315 0.415520
vt 0.721640 0.376966
vn 0.2263 -0.4268 0.8756
vn -0.2263 0.4268 0.8756
vn -0.4268 -0.2263 0.8756
vn 0.9373 0.0697 -0.3416
vn 0.7368 -0.5834 0.3416
vn 0.7368 -0.5834 -0.3416
vn -0.0697 0.9373 -0.3416
vn 0.5834 0.7368 0.3416
vn 0.5834 0.7368 -0.3416
vn -0.7368 0.5834 0.3416
vn -0.9373 -0.0697 -0.3416
vn -0.9373 -0.0697 0.3416
vn -0.2263 0.4268 -0.8756
vn 0.2263 -0.4268 -0.8756
vn -0.4268 -0.2263 -0.8756
vn -0.5834 -0.7368 0.3416
vn -0.0697 0.9373 0.3416
vn -0.5834 -0.7368 -0.3416
vn -0.7368 0.5834 -0.3416
vn 0.0697 -0.9373 0.3416
vn 0.4268 0.2263 0.8756
vn 0.9373 0.0697 0.3416
vn 0.0697 -0.9373 -0.3416
vn 0.4268 0.2263 -0.8756
vn -0.0143 0.3416 0.9397
vn -0.6469 -0.3416 0.6818
vn -0.0143 -0.3416 0.9397
vn 0.9397 0.3416 0.0143
vn 0.6818 -0.3416 0.6469
vn 0.9397 -0.3416 0.0143
vn 0.4453 0.8756 -0.1873
vn -0.4453 0.8756 0.1873
vn 0.1873 0.8756 0.4453
vn -0.9397 0.3416 -0.0143
vn -0.6818 -0.3416 -0.6469
vn -0.9397 -0.3416 -0.0143
vn 0.0143 0.3416 -0.9397
vn 0.6469 -0.3416 -0.6818
vn 0.0143 -0.3416 -0.9397
vn -0.4453 -0.8756 0.1873
vn -0.6469 0.3416 0.6818
vn -0.1873 -0.8756 -0.4453
vn -0.1873 0.8756 -0.4453
vn -0.6818 0.3416 -0.6469
vn 0.1873 -0.8756 0.4453
vn 0.6818 0.3416 0.6469
vn 0.4453 -0.8756 -0.1873
vn 0.6469 0.3416 -0.6818
vn 0.3416 -0.3416 0.8756
vn -0.3416 0.3416 0.8756
vn -0.3416 -0.3416 0.8756
vn 0.8756 0.3416 -0.3416
vn 0.8756 -0.3416 0.3416
vn 0.8756 -0.3416 -0.3416
vn -0.3416 0.8756 -0.3416
vn 0.3416 0.8756 0.3416
vn 0.3416 0.8756 -0.3416
vn -0.8756 0.3416 0.3416
vn -0.8756 -0.3416 -0.3416
vn -0.8756 -0.3416 0.3416
vn -0.3416 0.3416 -0.8756
vn 0.3416 -0.3416 -0.8756
vn -0.3416 -0.3416 -0.8756
vn -0.3416 -0.8756 0.3416
vn -0.3416 0.8756 0.3416
vn -0.3416 -0.8756 -0.3416
vn -0.8756 0.3416 -0.3416
vn 0.3416 -0.8756 0.3416
vn 0.3416 0.3416 0.8756
vn 0.8756 0.3416 0.3416
vn 0.3416 -0.8756 -0.3416
vn 0.3416 0.3416 -0.8756
vn 0.3889 -0.2865 0.8756
vn -0.3889 0.2865 0.8756
vn -0.2865 -0.3890 0.8756
vn 0.8145 0.4690 -0.3416
vn 0.9169 -0.2064 0.3416
vn 0.9169 -0.2064 -0.3416
vn -0.4690 0.8145 -0.3416
vn 0.2064 0.9169 0.3416
vn 0.2064 0.9169 -0.3416
vn -0.9169 0.2064 0.3416
vn -0.8144 -0.4690 -0.3416
vn -0.8144 -0.4690 0.3416
vn -0.3889 0.2865 -0.8756
vn 0.3889 -0.2865 -0.8756
vn -0.2865 -0.3890 -0.8756
vn -0.2064 -0.9169 0.3416
vn -0.4690 0.8145 0.3416
vn -0.2064 -0.9169 -0.3416
vn -0.9169 0.2064 -0.3416
vn 0.4690 -0.8144 0.3416
vn 0.2865 0.3890 0.8756
vn 0.8145 0.4690 0.3416
vn 0.4690 -0.8144 -0.3416
vn 0.2865 0.3890 -0.8756
vn 0.2540 0.4109 0.8756
vn -0.2540 -0.4109 0.8756
vn 0.4109 -0.2540 0.8756
vn 0.7738 0.5335 -0.3416
vn 0.9306 -0.1315 0.3416
vn 0.9306 -0.1315 -0.3416
vn -0.5335 0.7738 -0.3416
vn 0.1315 0.9306 0.3416
vn 0.1315 0.9306 -0.3416
vn -0.9306 0.1314 0.3416
vn -0.7738 -0.5335 -0.3416
vn -0.7738 -0.5335 0.3416
vn -0.2540 -0.4109 -0.8756
vn 0.2540 0.4109 -0.8756
vn 0.4109 -0.2540 -0.8756
vn -0.1315 -0.9306 0.3416
vn -0.4109 0.2540 0.8756
vn -0.5335 0.7738 0.3416
vn -0.1315 -0.9306 -0.3416
vn -0.4109 0.2540 -0.8756
vn -0.9306 0.1314 -0.3416
vn 0.5335 -0.7738 0.3416
vn 0.7738 0.5335 0.3416
vn 0.5335 -0.7738 -0.3416
vn 0.6749 0.3416 0.6541
vn 0.0537 -0.3416 0.9383
vn 0.6749 -0.3416 0.6541
vn 0.6540 0.3416 -0.6749
vn 0.9383 -0.3416 -0.0537
vn 0.6540 -0.3416 -0.6749
vn 0.1685 0.8756 -0.4527
vn -0.1685 0.8756 0.4527
vn 0.4528 0.8756 0.1685
vn -0.6540 0.3416 0.6749
vn -0.9383 -0.3416 0.0537
vn -0.6540 -0.3416 0.6749
vn -0.6749 0.3416 -0.6540
vn -0.0537 -0.3416 -0.9383
vn -0.6749 -0.3416 -0.6540
vn -0.1685 -0.8756 0.4527
vn 0.0537 0.3416 0.9383
vn -0.4527 -0.8756 -0.1685
vn -0.4527 0.8756 -0.1685
vn -0.9383 0.3416 0.0537
vn 0.4528 -0.8756 0.1685
vn 0.9383 0.3416 -0.0537
vn 0.1685 -0.8756 -0.4527
vn -0.0537 0.3416 -0.9383
usemtl restaurant.073
s 1
f 15/1/1 4/2/2 2/3/3
f 23/4/4 14/5/5 21/6/6
f 10/7/7 16/8/8 22/9/9
f 6/10/10 8/11/11 3/12/12
f 11/13/13 20/14/14 9/15/15
f 1/16/16 2/17/3 3/18/12
f 4/19/2 5/20/17 6/21/10
f 7/22/18 8/23/11 9/24/15
f 10/7/7 11/25/13 12/26/19
f 13/27/20 14/28/5 15/29/1
f 16/8/8 17/30/21 18/31/22
f 19/32/23 20/33/14 21/34/6
f 22/9/9 23/35/4 24/36/24
f 1/16/16 8/23/11 7/22/18
f 2/3/3 6/10/10 3/12/12
f 10/7/7 6/21/10 5/20/17
f 9/15/15 12/37/19 11/13/13
f 7/22/18 20/33/14 19/32/23
f 22/9/9 11/25/13 10/7/7
f 21/6/6 24/38/24 23/4/4
f 19/32/23 14/28/5 13/27/20
f 16/8/8 23/35/4 22/9/9
f 17/39/21 14/5/5 18/40/22
f 1/16/16 15/29/1 2/17/3
f 16/8/8 4/19/2 17/30/21
f 19/32/23 1/16/16 7/22/18
f 41/41/25 26/42/26 39/43/27
f 47/44/28 38/45/29 45/46/30
f 46/47/31 29/48/32 40/49/33
f 30/50/34 32/51/35 27/52/36
f 35/53/37 44/54/38 33/55/39
f 25/56/40 26/57/26 27/58/36
f 28/59/41 29/48/32 30/60/34
f 31/61/42 32/62/35 33/63/39
f 34/64/43 35/65/37 36/66/44
f 37/67/45 38/68/29 39/69/27
f 40/49/33 41/70/25 42/71/46
f 43/72/47 44/73/38 45/74/30
f 46/47/31 47/75/28 48/76/48
f 31/61/42 27/58/36 32/62/35
f 28/77/41 27/52/36 26/42/26
f 34/64/43 30/60/34 29/48/32
f 33/55/39 36/78/44 35/53/37
f 43/72/47 33/63/39 44/73/38
f 46/47/31 35/65/37 34/64/43
f 45/46/30 48/79/48 47/44/28
f 43/72/47 38/68/29 37/67/45
f 46/47/31 42/71/46 47/75/28
f 39/43/27 42/80/46 41/41/25
f 37/67/45 26/57/26 25/56/40
f 40/49/33 28/59/41 41/70/25
f 43/72/47 25/56/40 31/61/42
f 63/81/49 52/82/50 50/83/51
f 71/84/52 62/85/53 69/86/54
f 58/87/55 64/88/56 70/89/57
f 54/90/58 56/91/59 51/92/60
f 59/93/61 68/94/62 57/95/63
f 49/96/64 50/97/51 51/98/60
f 52/99/50 53/100/65 54/101/58
f 55/102/66 56/103/59 57/104/63
f 58/87/55 59/105/61 60/106/67
f 61/107/68 62/108/53 63/109/49
f 64/88/56 65/110/69 66/111/70
f 67/112/71 68/113/62 69/114/54
f 70/89/57 71/115/52 72/116/72
f 49/96/64 56/103/59 55/102/66
f 50/83/51 54/90/58 51/92/60
f 58/87/55 54/101/58 53/100/65
f 57/95/63 60/117/67 59/93/61
f 55/102/66 68/113/62 67/112/71
f 70/89/57 59/105/61 58/87/55
f 69/86/54 72/118/72 71/84/52
f 67/112/71 62/108/53 61/107/68
f 64/88/56 71/115/52 70/89/57
f 63/81/49 66/119/70 65/120/69
f 49/96/64 63/109/49 50/97/51
f 53/100/65 65/110/69 64/88/56
f 67/112/71 49/96/64 55/102/66
f 87/121/73 76/122/74 74/123/75
f 95/124/76 86/125/77 93/126/78
f 82/127/79 88/128/80 94/129/81
f 78/130/82 80/131/83 75/132/84
f 83/133/85 92/134/86 81/135/87
f 73/136/88 74/137/75 75/138/84
f 76/139/74 77/140/89 78/141/82
f 79/142/90 80/143/83 81/144/87
f 82/127/79 83/145/85 84/146/91
f 85/147/92 86/148/77 87/149/73
f 88/128/80 89/150/93 90/151/94
f 91/152/95 92/153/86 93/154/78
f 94/129/81 95/155/76 96/156/96
f 73/136/88 80/143/83 79/142/90
f 76/122/74 75/132/84 74/123/75
f 82/127/79 78/141/82 77/140/89
f 83/133/85 80/131/83 84/157/91
f 79/142/90 92/153/86 91/152/95
f 94/129/81 83/145/85 82/127/79
f 95/124/76 92/134/86 96/158/96
f 91/152/95 86/148/77 85/147/92
f 88/128/80 95/155/76 94/129/81
f 87/121/73 90/159/94 89/160/93
f 73/136/88 87/149/73 74/137/75
f 88/128/80 76/139/74 89/150/93
f 91/152/95 73/136/88 79/142/90
f 113/161/97 98/162/98 111/163/99
f 119/164/100 110/165/101 117/166/102
f 106/167/103 112/168/104 118/169/105
f 102/170/106 104/171/107 99/172/108
f 105/173/109 120/174/110 116/175/111
f 97/176/112 98/177/98 99/178/108
f 100/179/113 101/180/114 102/181/106
f 103/182/115 104/183/107 105/184/109
f 106/167/103 107/185/116 108/186/117
f 109/187/118 110/188/101 111/189/99
f 112/168/104 113/190/97 114/191/119
f 115/192/120 116/193/111 117/194/102
f 118/169/105 119/195/100 120/196/110
f 97/176/112 104/183/107 103/182/115
f 100/197/113 99/172/108 98/162/98
f 106/167/103 102/181/106 101/180/114
f 107/198/116 104/171/107 108/199/117
f 115/192/120 105/184/109 116/193/111
f 106/167/103 120/196/110 107/185/116
f 119/164/100 116/175/111 120/174/110
f 115/192/120 110/188/101 109/187/118
f 112/168/104 119/195/100 118/169/105
f 113/161/97 110/165/101 114/200/119
f 109/187/118 98/177/98 97/176/112
f 101/180/114 113/190/97 112/168/104
f 115/192/120 97/176/112 103/182/115
f 137/201/121 122/202/122 135/203/123
f 143/204/124 134/205/125 141/206/126
f 142/207/127 125/208/128 136/209/129
f 126/210/130 128/211/131 123/212/132
f 131/213/133 140/214/134 129/215/135
f 121/216/136 122/217/122 123/218/132
f 124/219/137 125/208/128 126/220/130
f 127/221/138 128/222/131 129/223/135
f 130/224/139 131/225/133 132/226/140
f 133/227/141 134/228/125 135/229/123
f 136/209/129 137/230/121 138/231/142
f 139/232/143 140/233/134 141/234/126
f 142/207/127 143/235/124 144/236/144
f 121/216/136 128/222/131 127/221/138
f 124/237/137 123/212/132 122/202/122
f 125/208/128 132/226/140 126/220/130
f 129/215/135 132/238/140 131/213/133
f 127/221/138 140/233/134 139/232/143
f 130/224/139 144/236/144 131/225/133
f 141/206/126 144/239/144 143/204/124
f 139/232/143 134/228/125 133/227/141
f 142/207/127 138/231/142 143/235/124
f 135/203/123 138/240/142 137/201/121
f 121/216/136 135/229/123 122/217/122
f 125/208/128 137/230/121 136/209/129
f 139/232/143 121/216/136 127/221/138
f 15/1/1 17/39/21 4/2/2
f 23/4/4 18/40/22 14/5/5
f 10/7/7 5/20/17 16/8/8
f 6/10/10 12/37/19 8/11/11
f 11/13/13 24/38/24 20/14/14
f 1/16/16 3/18/12 8/23/11
f 2/3/3 4/2/2 6/10/10
f 10/7/7 12/26/19 6/21/10
f 9/15/15 8/11/11 12/37/19
f 7/22/18 9/24/15 20/33/14
f 22/9/9 24/36/24 11/25/13
f 21/6/6 20/14/14 24/38/24
f 19/32/23 21/34/6 14/28/5
f 16/8/8 18/31/22 23/35/4
f 17/39/21 15/1/1 14/5/5
f 1/16/16 13/27/20 15/29/1
f 16/8/8 5/20/17 4/19/2
f 19/32/23 13/27/20 1/16/16
f 41/41/25 28/77/41 26/42/26
f 47/44/28 42/80/46 38/45/29
f 46/47/31 34/64/43 29/48/32
f 30/50/34 36/78/44 32/51/35
f 35/53/37 48/79/48 44/54/38
f 31/61/42 25/56/40 27/58/36
f 28/77/41 30/50/34 27/52/36
f 34/64/43 36/66/44 30/60/34
f 33/55/39 32/51/35 36/78/44
f 43/72/47 31/61/42 33/63/39
f 46/47/31 48/76/48 35/65/37
f 45/46/30 44/54/38 48/79/48
f 43/72/47 45/74/30 38/68/29
f 46/47/31 40/49/33 42/71/46
f 39/43/27 38/45/29 42/80/46
f 37/67/45 39/69/27 26/57/26
f 40/49/33 29/48/32 28/59/41
f 43/72/47 37/67/45 25/56/40
f 63/81/49 65/120/69 52/82/50
f 71/84/52 66/119/70 62/85/53
f 58/87/55 53/100/65 64/88/56
f 54/90/58 60/117/67 56/91/59
f 59/93/61 72/118/72 68/94/62
f 49/96/64 51/98/60 56/103/59
f 50/83/51 52/82/50 54/90/58
f 58/87/55 60/106/67 54/101/58
f 57/95/63 56/91/59 60/117/67
f 55/102/66 57/104/63 68/113/62
f 70/89/57 72/116/72 59/105/61
f 69/86/54 68/94/62 72/118/72
f 67/112/71 69/114/54 62/108/53
f 64/88/56 66/111/70 71/115/52
f 63/81/49 62/85/53 66/119/70
f 49/96/64 61/107/68 63/109/49
f 53/100/65 52/99/50 65/110/69
f 67/112/71 61/107/68 49/96/64
f 87/121/73 89/160/93 76/122/74
f 95/124/76 90/159/94 86/125/77
f 82/127/79 77/140/89 88/128/80
f 78/130/82 84/157/91 80/131/83
f 83/133/85 96/158/96 92/134/86
f 73/136/88 75/138/84 80/143/83
f 76/122/74 78/130/82 75/132/84
f 82/127/79 84/146/91 78/141/82
f 83/133/85 81/135/87 80/131/83
f 79/142/90 81/144/87 92/153/86
f 94/129/81 96/156/96 83/145/85
f 95/124/76 93/126/78 92/134/86
f 91/152/95 93/154/78 86/148/77
f 88/128/80 90/151/94 95/155/76
f 87/121/73 86/125/77 90/159/94
f 73/136/88 85/147/92 87/149/73
f 88/128/80 77/140/89 76/139/74
f 91/152/95 85/147/92 73/136/88
f 113/161/97 100/197/113 98/162/98
f 119/164/100 114/200/119 110/165/101
f 106/167/103 101/180/114 112/168/104
f 102/170/106 108/199/117 104/171/107
f 105/173/109 107/198/116 120/174/110
f 97/176/112 99/178/108 104/183/107
f 100/197/113 102/170/106 99/172/108
f 106/167/103 108/186/117 102/181/106
f 107/198/116 105/173/109 104/171/107
f 115/192/120 103/182/115 105/184/109
f 106/167/103 118/169/105 120/196/110
f 119/164/100 117/166/102 116/175/111
f 115/192/120 117/194/102 110/188/101
f 112/168/104 114/191/119 119/195/100
f 113/161/97 111/163/99 110/165/101
f 109/187/118 111/189/99 98/177/98
f 101/180/114 100/179/113 113/190/97
f 115/192/120 109/187/118 97/176/112
f 137/201/121 124/237/137 122/202/122
f 143/204/124 138/240/142 134/205/125
f 142/207/127 130/224/139 125/208/128
f 126/210/130 132/238/140 128/211/131
f 131/213/133 144/239/144 140/214/134
f 121/216/136 123/218/132 128/222/131
f 124/237/137 126/210/130 123/212/132
f 125/208/128 130/224/139 132/226/140
f 129/215/135 128/211/131 132/238/140
f 127/221/138 129/223/135 140/233/134
f 130/224/139 142/207/127 144/236/144
f 141/206/126 140/214/134 144/239/144
f 139/232/143 141/234/126 134/228/125
f 142/207/127 136/209/129 138/231/142
f 135/203/123 134/205/125 138/240/142
f 121/216/136 133/227/141 135/229/123
f 125/208/128 124/219/137 137/230/121
f 139/232/143 133/227/141 121/216/136
