# Blender v3.4.1 OBJ File: 'restaurant.blend'
# www.blender.org
mtllib food_ingredient_cheese_chopped_Cube_011.mtl
o food_ingredient_cheese_chopped_Cube.011
v -0.089980 -0.000005 0.132292
v 0.282665 -0.000005 0.131245
v -0.089841 -0.000005 -0.132268
v 0.282514 -0.000005 -0.131570
v -0.089980 0.060003 0.132292
v 0.282665 0.060003 0.131245
v -0.089841 0.060003 -0.132268
v 0.282514 0.060003 -0.131570
v -0.099251 -0.000005 0.182455
v 0.291956 -0.000005 0.181562
v -0.099220 -0.000005 -0.182757
v 0.291908 -0.000005 -0.181983
v 0.325648 -0.000005 0.112797
v 0.313863 -0.000005 0.157538
v 0.325638 -0.000005 -0.113590
v 0.313829 -0.000005 -0.157224
v -0.132931 -0.000005 0.114350
v -0.121136 -0.000005 0.158304
v -0.132933 -0.000005 -0.114151
v -0.121127 -0.000005 -0.158036
v -0.099251 0.060003 0.182455
v -0.103651 0.040003 0.206262
v 0.296348 0.040003 0.205354
v 0.291956 0.060003 0.181562
v -0.103651 0.040003 -0.206612
v -0.099220 0.060003 -0.182757
v 0.291908 0.060003 -0.181983
v 0.296348 0.040003 -0.205815
v 0.346349 0.040003 0.103913
v 0.325648 0.060003 0.112797
v 0.313863 0.060003 0.157538
v 0.328802 0.040003 0.170128
v 0.346349 0.040003 -0.104955
v 0.325638 0.060003 -0.113590
v 0.328809 0.040003 -0.169496
v 0.313829 0.060003 -0.157224
v -0.132931 0.060003 0.114350
v -0.153651 0.040003 0.105695
v -0.136097 0.040003 0.170795
v -0.121136 0.060003 0.158304
v -0.132933 0.060003 -0.114151
v -0.153651 0.040003 -0.105440
v -0.121127 0.060003 -0.158036
v -0.136094 0.040003 -0.170364
v -0.672466 0.152981 -0.017475
v -0.672466 0.347010 -0.017475
v -0.672466 0.347010 -0.221171
v -0.672466 0.152981 -0.221171
v -0.355391 0.122102 0.259629
v -0.355391 0.334490 0.259629
v -0.537287 0.334490 0.327840
v -0.537287 0.122102 0.327840
v -0.480641 0.227395 -0.297063
v -0.480641 0.387854 -0.297063
v -0.343219 0.387854 -0.245530
v -0.343219 0.227395 -0.245530
v -0.672466 0.249995 0.021336
v -0.672466 0.109337 -0.119323
v -0.672466 0.390654 -0.119323
v -0.672466 0.249995 -0.259982
v -0.311586 0.228296 0.243202
v -0.446339 0.084379 0.293735
v -0.446339 0.372212 0.293735
v -0.581092 0.228296 0.344267
v -0.513736 0.307625 -0.309473
v -0.411930 0.198896 -0.271296
v -0.411930 0.417106 -0.280782
v -0.310124 0.307625 -0.233119
v -0.612466 0.249995 -0.014127
v -0.612466 0.322118 -0.042979
v -0.612466 0.354833 -0.119323
v -0.612466 0.322118 -0.195667
v -0.612466 0.249995 -0.224519
v -0.612466 0.177873 -0.195667
v -0.612466 0.145158 -0.119323
v -0.612466 0.177873 -0.042979
v -0.370942 0.228296 0.195300
v -0.403114 0.306290 0.207365
v -0.468809 0.333538 0.232000
v -0.534503 0.306290 0.256636
v -0.566675 0.228296 0.268701
v -0.534503 0.150302 0.256636
v -0.468809 0.123054 0.232000
v -0.403114 0.150302 0.207365
v -0.478537 0.248700 -0.243268
v -0.502844 0.307625 -0.252383
v -0.478537 0.366549 -0.243268
v -0.428906 0.387135 -0.224656
v -0.379274 0.366549 -0.206044
v -0.354967 0.307625 -0.196929
v -0.379274 0.248700 -0.206044
v -0.428906 0.228115 -0.224656
v -0.562466 0.249995 -0.119323
v -0.487533 0.228296 0.180555
v -0.443052 0.307625 -0.185790
v -0.587080 -0.000005 0.254617
v -0.625833 0.049995 0.362108
v -0.673360 0.049995 0.320604
v -0.596873 0.017559 0.327888
v -0.655153 0.017559 0.294230
v -0.674164 0.449995 0.320834
v -0.624813 0.449995 0.363043
v -0.587255 0.499995 0.251819
v -0.654852 0.482426 0.287647
v -0.596918 0.482424 0.328240
v -0.672539 0.049995 -0.316408
v -0.624994 0.049995 -0.358088
v -0.587208 -0.000005 -0.253838
v -0.654916 0.017565 -0.291703
v -0.596967 0.017566 -0.327469
v -0.587460 0.499995 -0.253883
v -0.623355 0.449995 -0.358947
v -0.671029 0.449995 -0.317531
v -0.597017 0.482440 -0.327890
v -0.654475 0.482441 -0.291968
v -0.183647 0.049995 0.206262
v -0.183647 0.449995 0.205354
v -0.183647 0.049995 -0.206611
v -0.183647 0.449995 -0.205815
v -0.183647 0.499995 0.103913
v -0.183647 0.482448 0.170128
v -0.183647 0.499995 -0.104955
v -0.183647 0.482456 -0.169496
v -0.183647 -0.000005 0.105695
v -0.183647 0.017549 0.170795
v -0.183647 -0.000005 -0.105440
v -0.183647 0.017552 -0.170364
v -0.143647 0.063667 0.132292
v -0.143647 0.436312 0.131245
v -0.143647 0.063806 -0.132268
v -0.143647 0.436161 -0.131570
vt 0.321530 0.393824
vt 0.353972 0.393824
vt 0.353183 0.393824
vt 0.353170 0.326227
vt 0.355830 0.326227
vt 0.356833 0.326227
vt 0.321530 0.326227
vt 0.317881 0.326227
vt 0.321542 0.326227
vt 0.320742 0.326227
vt 0.318883 0.326227
vt 0.317881 0.326227
vt 0.316122 0.345250
vt 0.353968 0.326227
vt 0.320745 0.326227
vt 0.354346 0.345250
vt 0.318884 0.326227
vt 0.353183 0.326227
vt 0.356834 0.326227
vt 0.355833 0.326227
vt 0.317613 0.345250
vt 0.357103 0.345250
vt 0.358593 0.345250
vt 0.358593 0.345250
vt 0.353972 0.326227
vt 0.357102 0.345250
vt 0.354346 0.345250
vt 0.316122 0.345250
vt 0.317613 0.345250
vt 0.320369 0.345250
vt 0.321542 0.393824
vt 0.318883 0.393824
vt 0.320742 0.393824
vt 0.320745 0.393824
vt 0.318884 0.393824
vt 0.356834 0.393824
vt 0.353170 0.393824
vt 0.356833 0.393824
vt 0.355830 0.393824
vt 0.317881 0.393824
vt 0.355833 0.393824
vt 0.353968 0.393824
vt 0.317881 0.393824
vt 0.354346 0.360875
vt 0.320742 0.378199
vt 0.320369 0.360875
vt 0.320745 0.378199
vt 0.354346 0.360875
vt 0.320369 0.360875
vt 0.356834 0.378199
vt 0.357102 0.360875
vt 0.358593 0.360875
vt 0.356833 0.378199
vt 0.358593 0.360875
vt 0.357103 0.360875
vt 0.353968 0.378199
vt 0.355830 0.378199
vt 0.353972 0.378199
vt 0.355833 0.378199
vt 0.317613 0.360875
vt 0.317881 0.378199
vt 0.316122 0.360875
vt 0.316122 0.360875
vt 0.317881 0.378199
vt 0.317613 0.360875
vt 0.318884 0.378199
vt 0.318883 0.378199
vt 0.283535 0.352224
vt 0.276013 0.330474
vt 0.291260 0.349020
vt 0.313574 0.411326
vt 0.276100 0.395701
vt 0.291260 0.373469
vt 0.273548 0.414081
vt 0.272174 0.411326
vt 0.271908 0.411326
vt 0.313574 0.411326
vt 0.300019 0.374798
vt 0.294183 0.377282
vt 0.279290 0.431198
vt 0.313574 0.429708
vt 0.313574 0.446823
vt 0.313574 0.346099
vt 0.300019 0.361168
vt 0.302830 0.367983
vt 0.283535 0.370265
vt 0.271976 0.330474
vt 0.272052 0.354847
vt 0.272052 0.351140
vt 0.288346 0.374798
vt 0.276224 0.395701
vt 0.294183 0.358747
vt 0.272046 0.330474
vt 0.272052 0.354847
vt 0.272052 0.363087
vt 0.298985 0.352224
vt 0.313574 0.346099
vt 0.302706 0.361244
vt 0.272052 0.371328
vt 0.271908 0.395701
vt 0.272052 0.375035
vt 0.298985 0.370265
vt 0.279814 0.361244
vt 0.272052 0.363087
vt 0.288346 0.361168
vt 0.276085 0.330474
vt 0.285535 0.367983
vt 0.272174 0.395701
vt 0.272052 0.371328
vt 0.313574 0.446823
vt 0.272052 0.347462
vt 0.277149 0.337964
vt 0.277149 0.347462
vt 0.272052 0.324453
vt 0.277149 0.325118
vt 0.277149 0.322339
vt 0.272052 0.324453
vt 0.272052 0.328160
vt 0.272052 0.347462
vt 0.277149 0.337964
vt 0.272052 0.340078
vt 0.277149 0.356961
vt 0.277149 0.347462
vt 0.272052 0.370472
vt 0.277149 0.369807
vt 0.277149 0.372586
vt 0.272052 0.370472
vt 0.272052 0.366765
vt 0.277149 0.356961
vt 0.298985 0.339015
vt 0.297664 0.345619
vt 0.302706 0.345619
vt 0.298985 0.323390
vt 0.289351 0.323309
vt 0.294932 0.320994
vt 0.291260 0.326594
vt 0.283771 0.320994
vt 0.283535 0.339015
vt 0.281038 0.345619
vt 0.283771 0.336619
vt 0.279814 0.345619
vt 0.291260 0.364645
vt 0.283771 0.370244
vt 0.283535 0.367849
vt 0.298985 0.367849
vt 0.289351 0.367930
vt 0.294932 0.354619
vt 0.286460 0.352358
vt 0.288525 0.362978
vt 0.288346 0.343548
vt 0.285535 0.352358
vt 0.288346 0.327923
vt 0.292741 0.327861
vt 0.288525 0.326113
vt 0.300019 0.327923
vt 0.294183 0.330407
vt 0.300019 0.343548
vt 0.299021 0.352358
vt 0.296957 0.341738
vt 0.302830 0.352358
vt 0.300019 0.376793
vt 0.292741 0.376854
vt 0.296957 0.378603
vt 0.294183 0.374372
vt 0.288525 0.378603
vt 0.277149 0.353589
vt 0.281396 0.347462
vt 0.277149 0.356368
vt 0.277149 0.353589
vt 0.277149 0.341336
vt 0.277149 0.338557
vt 0.277149 0.341336
vt 0.294932 0.352244
vt 0.287761 0.345619
vt 0.289351 0.354559
vt 0.283771 0.352244
vt 0.283771 0.338994
vt 0.289351 0.336680
vt 0.294932 0.338994
vt 0.288525 0.347353
vt 0.291539 0.352358
vt 0.288525 0.357363
vt 0.292741 0.359111
vt 0.296957 0.357363
vt 0.296957 0.347353
vt 0.292741 0.345604
vt 0.313574 0.327718
vt 0.278465 0.312094
vt 0.313574 0.330474
vt 0.278469 0.414081
vt 0.313574 0.426951
vt 0.276224 0.411326
vt 0.278461 0.414082
vt 0.313574 0.426951
vt 0.276013 0.314849
vt 0.278473 0.312094
vt 0.313574 0.330474
vt 0.276085 0.314849
vt 0.279273 0.431198
vt 0.279294 0.310602
vt 0.313574 0.326227
vt 0.273523 0.312094
vt 0.272046 0.314849
vt 0.273543 0.312094
vt 0.273580 0.414082
vt 0.276100 0.411326
vt 0.279305 0.310602
vt 0.313574 0.429708
vt 0.313574 0.327718
vt 0.313574 0.326227
vt 0.316971 0.347272
vt 0.313574 0.341852
vt 0.313574 0.343343
vt 0.316971 0.441401
vt 0.313574 0.445333
vt 0.313574 0.462448
vt 0.316971 0.347260
vt 0.313574 0.343343
vt 0.313574 0.341852
vt 0.316971 0.441414
vt 0.313574 0.462448
vt 0.313574 0.445333
vt 0.316971 0.362897
vt 0.316971 0.425776
vt 0.313574 0.442576
vt 0.313574 0.442576
vt 0.316971 0.425789
vt 0.320369 0.345250
vt 0.316971 0.362885
vt 0.313574 0.361724
vt 0.272052 0.340078
vt 0.277149 0.322339
vt 0.277149 0.372586
vt 0.294932 0.336619
vt 0.283535 0.323390
vt 0.283771 0.354619
vt 0.294932 0.370244
vt 0.288525 0.341738
vt 0.296957 0.326113
vt 0.296957 0.362978
vt 0.288346 0.376793
vt 0.271976 0.314849
vt 0.313574 0.361724
vn 0.0000 1.0000 0.0000
vn 0.1952 0.9058 0.3760
vn -0.0000 -1.0000 -0.0000
vn -0.8915 -0.4315 0.1378
vn -0.8923 -0.4402 -0.1005
vn -0.8916 -0.4312 -0.1383
vn -0.3832 -0.5051 -0.7734
vn 0.3311 -0.5097 -0.7940
vn 0.3851 -0.5045 -0.7728
vn -0.3778 -0.5048 0.7762
vn -0.7862 -0.4313 0.4425
vn -0.7987 -0.4301 0.4209
vn 0.8915 -0.4312 -0.1389
vn 0.7895 -0.4293 -0.4387
vn 0.8923 -0.4401 -0.1011
vn 0.8926 -0.4400 0.0984
vn 0.8921 -0.4309 0.1358
vn 0.8011 -0.4282 -0.4183
vn 0.3781 -0.5046 0.7762
vn 0.7860 -0.4319 0.4423
vn 0.3262 -0.5094 0.7963
vn -0.8922 -0.4404 0.1003
vn -0.7894 -0.4296 -0.4385
vn -0.8013 -0.4284 -0.4175
vn -0.3293 -0.5102 -0.7945
vn 0.7991 -0.4305 0.4197
vn -0.3932 0.8970 0.2022
vn -0.1955 0.9056 0.3764
vn -0.1989 0.9052 -0.3756
vn -0.3940 0.8970 -0.2005
vn 0.4160 0.9067 0.0690
vn 0.4163 0.9065 -0.0706
vn 0.3938 0.8970 -0.2009
vn -0.4159 0.9067 0.0700
vn 0.3940 0.8967 0.2017
vn 0.1999 0.9051 -0.3752
vn -0.4162 0.9066 -0.0703
vn 0.2384 0.7646 0.5988
vn -0.2379 0.7649 0.5986
vn 0.2418 0.7650 -0.5969
vn -0.2404 0.7654 -0.5970
vn 0.6268 0.6922 0.3576
vn 0.7086 0.7020 0.0710
vn 0.7084 0.7020 -0.0730
vn 0.6311 0.6896 -0.3552
vn -0.6274 0.6917 0.3577
vn -0.7082 0.7023 0.0725
vn -0.7083 0.7021 -0.0726
vn -0.6309 0.6899 -0.3550
vn 0.3563 0.0065 0.9344
vn -0.1839 -0.3638 0.9131
vn 0.3324 0.1122 0.9364
vn 0.5946 0.3254 0.7353
vn 0.0593 0.5180 0.8533
vn 0.3393 -0.0539 0.9391
vn -0.5455 0.8171 0.1866
vn -0.8488 0.3165 -0.4234
vn -0.8275 0.3686 0.4235
vn 0.5830 0.3208 -0.7464
vn 0.0353 -0.4195 -0.9071
vn 0.2984 -0.4948 -0.8162
vn -0.0759 0.9911 0.1094
vn 0.5140 0.7632 0.3915
vn 0.4753 0.8756 0.0868
vn 0.5881 -0.3231 -0.7414
vn 0.2971 0.0582 -0.9531
vn 0.2375 -0.0037 -0.9714
vn 0.3611 -0.0106 0.9325
vn -0.8484 -0.3274 0.4159
vn -1.0000 0.0026 -0.0019
vn -1.0000 0.0044 -0.0011
vn 0.3436 -0.1362 -0.9292
vn -0.1789 0.3410 -0.9229
vn 0.3319 0.0707 -0.9406
vn -0.8520 -0.3167 -0.4168
vn -1.0000 0.0004 0.0004
vn -0.9999 0.0032 -0.0096
vn 0.3164 0.0526 0.9472
vn 0.5916 -0.3249 0.7379
vn 0.2946 0.0024 0.9556
vn -1.0000 -0.0049 -0.0035
vn -1.0000 0.0062 -0.0045
vn 0.3234 -0.0366 0.9455
vn 0.3748 -0.0026 0.9271
vn -1.0000 -0.0009 -0.0037
vn 0.3689 0.0194 -0.9292
vn -0.1900 -0.3435 -0.9197
vn 0.3962 -0.0045 -0.9181
vn -0.9999 0.0070 -0.0074
vn 0.4757 0.8751 -0.0890
vn -0.5088 0.0000 -0.8609
vn -0.7045 -0.4953 -0.5082
vn -0.7049 0.0000 -0.7093
vn -0.5107 -0.6005 -0.6153
vn -0.7043 -0.7099 -0.0000
vn -0.5107 -0.6005 0.6153
vn -0.5126 -0.8586 -0.0000
vn -0.5088 0.0000 0.8609
vn -0.7045 -0.4953 0.5082
vn -0.7045 0.4953 0.5082
vn -0.7049 0.0000 0.7093
vn -0.5107 0.6005 0.6153
vn -0.7043 0.7099 0.0000
vn -0.5107 0.6005 -0.6153
vn -0.5126 0.8586 0.0000
vn -0.7045 0.4953 -0.5082
vn -0.3795 -0.6239 0.6832
vn -0.4352 -0.0000 0.9003
vn -0.6280 -0.0000 0.7782
vn 0.2429 -0.7194 0.6507
vn -0.2244 -0.5221 0.8228
vn 0.1795 -0.8618 0.4745
vn 0.7077 -0.5199 0.4783
vn 0.7363 -0.6188 0.2738
vn 0.9161 -0.0000 0.4009
vn 0.7363 0.6188 0.2738
vn 0.9823 0.0000 0.1874
vn 0.1795 0.8617 0.4745
vn 0.7077 0.5199 0.4783
vn -0.3795 0.6239 0.6832
vn 0.2429 0.7194 0.6507
vn -0.2244 0.5221 0.8228
vn 0.7363 0.6188 -0.2739
vn 0.9161 -0.0000 -0.4009
vn 0.7077 0.5199 -0.4784
vn 0.7197 -0.6390 -0.2716
vn 0.9823 -0.0000 -0.1874
vn 0.2361 -0.7332 -0.6377
vn 0.7077 -0.5199 -0.4784
vn -0.4352 -0.0000 -0.9003
vn -0.2244 -0.5221 -0.8228
vn -0.3795 0.6239 -0.6832
vn -0.6280 -0.0000 -0.7782
vn 0.2429 0.7194 -0.6507
vn -0.2244 0.5221 -0.8228
vn 0.1795 0.8617 -0.4745
vn -1.0000 0.0000 0.0000
vn 0.3490 -0.0000 0.9371
vn 0.3490 -0.0000 -0.9371
vn 0.5134 -0.7649 -0.3891
vn 0.0237 -0.8216 -0.5695
vn 0.0007 0.8439 0.5365
vn 0.0191 0.8259 -0.5635
vn 0.0304 -0.8382 0.5445
vn -0.0745 0.9909 -0.1121
vn -0.0735 -0.9909 -0.1129
vn 0.4755 -0.8752 -0.0887
vn -0.5491 -0.8107 0.2030
vn -0.5581 -0.8034 -0.2077
vn -0.6500 -0.0001 0.7600
vn -0.5684 0.7964 -0.2065
vn -0.0721 -0.9910 0.1129
vn 0.5138 0.7647 -0.3890
vn 0.5139 -0.7628 0.3924
vn 0.4753 -0.8754 0.0884
vn 0.9455 -0.2499 -0.2088
vn 0.9454 0.2503 -0.2086
vn 0.9454 -0.2499 0.2094
vn 0.9454 0.2506 0.2083
vn -0.3256 -0.5097 0.7964
usemtl restaurant.071
s 1
f 5/1/1 24/2/2 6/3/1
f 4/4/3 16/5/3 15/6/3
f 1/7/3 19/8/3 3/9/3
f 1/7/3 9/10/3 18/11/3
f 17/12/4 42/13/5 19/8/6
f 4/4/3 12/14/3 16/5/3
f 11/15/7 28/16/8 12/14/9
f 1/7/3 18/11/3 17/12/3
f 3/9/3 12/14/3 4/4/3
f 3/9/3 20/17/3 11/15/3
f 2/18/3 13/19/3 14/20/3
f 2/18/3 3/9/3 4/4/3
f 9/10/10 39/21/11 18/11/12
f 15/6/13 35/22/14 33/23/15
f 15/6/13 29/24/16 13/19/17
f 12/14/9 35/22/14 16/5/18
f 10/25/19 32/26/20 23/27/21
f 17/12/4 39/21/11 38/28/22
f 19/8/6 44/29/23 20/17/24
f 3/9/3 19/8/3 20/17/3
f 11/15/7 44/29/23 25/30/25
f 13/19/17 32/26/20 14/20/26
f 2/18/3 14/20/3 10/25/3
f 6/3/1 7/31/1 5/1/1
f 5/1/1 40/32/27 21/33/28
f 7/31/1 26/34/29 43/35/30
f 30/36/31 8/37/1 6/3/1
f 8/37/1 34/38/32 36/39/33
f 5/1/1 37/40/34 40/32/27
f 6/3/1 31/41/35 30/36/31
f 27/42/36 7/31/1 8/37/1
f 41/43/37 5/1/1 7/31/1
f 7/31/1 43/35/30 41/43/37
f 8/37/1 36/39/33 27/42/36
f 6/3/1 24/2/2 31/41/35
f 4/4/3 13/19/3 2/18/3
f 23/44/38 21/45/28 22/46/39
f 26/47/29 28/48/40 25/49/41
f 30/50/31 32/51/42 29/52/43
f 34/53/32 29/52/43 33/54/44
f 35/55/45 34/53/32 33/54/44
f 35/55/45 27/56/36 36/57/33
f 24/58/2 32/51/42 31/59/35
f 39/60/46 37/61/34 38/62/47
f 42/63/48 37/61/34 41/64/37
f 41/64/37 44/65/49 42/63/48
f 26/47/29 44/65/49 43/66/30
f 39/60/46 21/45/28 40/67/27
f 1/7/3 10/25/3 9/10/3
f 52/68/50 97/69/51 62/70/52
f 117/71/53 102/72/54 63/73/55
f 104/74/56 113/75/57 101/76/58
f 119/77/59 55/78/60 67/79/61
f 103/80/62 121/81/63 120/82/64
f 118/83/65 56/84/66 68/85/67
f 102/72/54 51/86/68 63/73/55
f 98/87/69 45/88/70 58/89/71
f 54/90/72 112/91/73 67/79/61
f 55/78/60 119/77/59 68/85/67
f 56/84/66 118/83/65 66/92/74
f 106/93/75 48/94/76 60/95/77
f 49/96/78 116/97/79 61/98/80
f 46/99/81 101/100/58 59/101/82
f 117/71/53 50/102/83 61/98/80
f 116/97/79 49/96/78 62/70/52
f 50/102/83 117/71/53 63/73/55
f 102/72/54 97/69/51 64/103/84
f 97/69/51 52/68/50 64/103/84
f 98/87/69 101/100/58 57/104/85
f 101/100/58 46/99/81 57/104/85
f 53/105/86 107/106/87 65/107/88
f 113/108/57 47/109/89 59/101/82
f 113/108/57 106/93/75 60/95/77
f 106/93/75 98/87/69 58/89/71
f 122/110/90 103/80/62 120/82/64
f 107/106/87 53/105/86 66/92/74
f 119/77/59 118/83/65 68/85/67
f 107/106/87 112/91/73 65/107/88
f 47/109/89 113/108/57 60/95/77
f 118/83/65 107/106/87 66/92/74
f 112/91/73 54/90/72 65/107/88
f 116/97/79 117/71/53 61/98/80
f 57/111/91 70/112/92 69/113/93
f 46/114/94 71/115/95 70/116/92
f 47/117/96 71/115/95 59/118/97
f 60/119/98 72/120/99 47/121/96
f 60/119/98 74/122/100 73/123/101
f 48/124/102 75/125/103 74/126/100
f 45/127/104 75/125/103 58/128/105
f 57/111/91 76/129/106 45/88/104
f 50/130/107 77/131/108 61/132/109
f 50/133/107 79/134/110 78/135/111
f 63/136/112 80/137/113 79/134/110
f 51/138/114 81/139/115 80/140/113
f 52/68/116 81/139/115 64/141/117
f 62/142/118 82/143/119 52/144/116
f 49/145/120 83/146/121 62/142/118
f 49/96/120 77/131/108 84/147/122
f 53/105/123 86/148/124 85/149/125
f 54/150/126 86/148/124 65/151/127
f 54/152/126 88/153/128 87/154/129
f 55/155/60 88/153/128 67/156/61
f 55/157/60 90/158/130 89/159/131
f 56/84/132 90/158/130 68/160/133
f 56/161/132 92/162/134 91/163/135
f 66/164/136 85/165/125 92/162/134
f 69/113/93 70/166/92 93/167/137
f 70/166/92 71/168/95 93/167/137
f 71/168/95 72/169/99 93/167/137
f 72/169/99 73/123/101 93/167/137
f 73/123/101 74/170/100 93/167/137
f 74/170/100 75/171/103 93/167/137
f 75/171/103 76/172/106 93/167/137
f 76/172/106 69/113/93 93/167/137
f 77/131/108 78/173/111 94/174/138
f 78/173/111 79/175/110 94/174/138
f 79/175/110 80/176/113 94/174/138
f 80/176/113 81/139/115 94/174/138
f 81/139/115 82/177/119 94/174/138
f 82/177/119 83/178/121 94/174/138
f 83/178/121 84/179/122 94/174/138
f 84/179/122 77/131/108 94/174/138
f 85/180/125 86/148/124 95/181/139
f 86/148/124 87/182/129 95/181/139
f 87/182/129 88/183/128 95/181/139
f 88/183/128 89/184/131 95/181/139
f 89/184/131 90/158/130 95/181/139
f 90/158/130 91/185/135 95/181/139
f 91/185/135 92/186/134 95/181/139
f 92/186/134 85/180/125 95/181/139
f 127/187/140 110/188/141 118/189/65
f 97/69/51 116/97/79 62/70/52
f 101/100/58 113/108/57 59/101/82
f 121/81/63 105/190/142 117/191/53
f 48/94/76 106/93/75 58/89/71
f 112/192/73 114/193/143 119/194/59
f 97/195/51 99/196/144 116/197/79
f 110/188/141 107/198/87 118/189/65
f 111/199/145 104/74/56 103/80/62
f 51/86/68 102/72/54 64/103/84
f 108/200/146 127/187/140 126/201/147
f 112/91/73 119/77/59 67/79/61
f 100/202/148 106/203/75 109/204/149
f 45/88/70 98/87/69 57/104/85
f 101/100/58 97/69/51 102/72/150
f 114/193/143 115/205/151 111/199/145
f 97/195/51 100/202/148 99/196/144
f 105/190/142 101/76/58 102/206/54
f 103/80/62 104/74/56 105/190/142
f 112/192/73 115/205/151 114/193/143
f 108/200/146 109/204/149 110/188/141
f 107/106/87 113/108/57 112/91/73
f 99/196/144 100/202/148 96/207/152
f 96/207/152 109/204/149 108/200/146
f 105/190/142 102/206/54 117/191/53
f 111/199/145 123/208/153 114/193/143
f 114/193/143 123/208/153 119/194/59
f 96/207/152 125/209/154 99/196/144
f 108/200/146 124/210/155 96/207/152
f 99/196/144 125/209/154 116/197/79
f 130/211/156 126/212/147 127/213/140
f 131/214/157 123/215/153 122/216/90
f 128/217/158 125/218/154 124/219/155
f 128/217/158 126/212/147 130/211/156
f 129/220/159 120/221/64 121/222/63
f 131/214/157 120/221/64 129/220/159
f 128/217/158 116/97/79 125/218/154
f 130/223/156 119/194/59 131/224/157
f 129/220/159 121/222/63 117/225/53
f 130/211/156 127/213/140 118/83/65
f 131/214/157 119/226/59 123/215/153
f 129/227/159 130/223/156 131/224/157
f 9/10/10 23/27/21 22/228/160
f 128/229/158 117/191/53 116/230/79
f 109/204/149 107/198/87 110/188/141
f 5/1/1 21/33/28 24/2/2
f 1/7/3 17/12/3 19/8/3
f 17/12/4 38/28/22 42/13/5
f 11/15/7 25/30/25 28/16/8
f 3/9/3 11/15/3 12/14/3
f 2/18/3 1/7/3 3/9/3
f 9/10/10 22/228/160 39/21/11
f 15/6/13 16/5/18 35/22/14
f 15/6/13 33/23/15 29/24/16
f 12/14/9 28/16/8 35/22/14
f 10/25/19 14/20/26 32/26/20
f 17/12/4 18/11/12 39/21/11
f 19/8/6 42/13/5 44/29/23
f 11/15/7 20/17/24 44/29/23
f 13/19/17 29/24/16 32/26/20
f 6/3/1 8/37/1 7/31/1
f 30/36/31 34/38/32 8/37/1
f 27/42/36 26/34/29 7/31/1
f 41/43/37 37/40/34 5/1/1
f 4/4/3 15/6/3 13/19/3
f 23/44/38 24/58/2 21/45/28
f 26/47/29 27/56/36 28/48/40
f 30/50/31 31/59/35 32/51/42
f 34/53/32 30/50/31 29/52/43
f 35/55/45 36/57/33 34/53/32
f 35/55/45 28/48/40 27/56/36
f 24/58/2 23/44/38 32/51/42
f 39/60/46 40/67/27 37/61/34
f 42/63/48 38/62/47 37/61/34
f 41/64/37 43/66/30 44/65/49
f 26/47/29 25/49/41 44/65/49
f 39/60/46 22/46/39 21/45/28
f 1/7/3 2/18/3 10/25/3
f 104/74/56 115/205/151 113/75/57
f 103/80/62 105/190/142 121/81/63
f 122/110/90 111/199/145 103/80/62
f 57/111/91 46/231/94 70/112/92
f 46/114/94 59/118/97 71/115/95
f 47/117/96 72/232/99 71/115/95
f 60/119/98 73/123/101 72/120/99
f 60/119/98 48/94/102 74/122/100
f 48/124/102 58/128/105 75/125/103
f 45/127/104 76/233/106 75/125/103
f 57/111/91 69/113/93 76/129/106
f 50/130/107 78/234/111 77/131/108
f 50/133/107 63/136/112 79/134/110
f 63/136/112 51/235/114 80/137/113
f 51/138/114 64/141/117 81/139/115
f 52/68/116 82/236/119 81/139/115
f 62/142/118 83/146/121 82/143/119
f 49/145/120 84/237/122 83/146/121
f 49/96/120 61/132/109 77/131/108
f 53/105/123 65/151/127 86/148/124
f 54/150/126 87/238/129 86/148/124
f 54/152/126 67/156/61 88/153/128
f 55/155/60 89/239/131 88/153/128
f 55/157/60 68/160/133 90/158/130
f 56/84/132 91/240/135 90/158/130
f 56/161/132 66/164/136 92/162/134
f 66/164/136 53/241/123 85/165/125
f 111/199/145 115/205/151 104/74/56
f 108/200/146 110/188/141 127/187/140
f 100/202/148 98/242/69 106/203/75
f 101/100/58 98/87/69 97/69/51
f 97/195/51 98/242/69 100/202/148
f 105/190/142 104/74/56 101/76/58
f 112/192/73 113/75/57 115/205/151
f 107/106/87 106/93/75 113/108/57
f 96/207/152 100/202/148 109/204/149
f 111/199/145 122/110/90 123/208/153
f 96/207/152 124/210/155 125/209/154
f 108/200/146 126/201/147 124/210/155
f 128/217/158 124/219/155 126/212/147
f 131/214/157 122/216/90 120/221/64
f 130/223/156 118/243/65 119/194/59
f 129/227/159 128/229/158 130/223/156
f 9/10/10 10/25/19 23/27/21
f 128/229/158 129/227/159 117/191/53
f 109/204/149 106/203/75 107/198/87
