# Blender v3.4.1 OBJ File: 'restaurant.blend'
# www.blender.org
mtllib food_ingredient_ham_Cylinder_853.mtl
o food_ingredient_ham_Cylinder.853
v -0.118796 -0.414631 0.111102
v 0.320468 -0.293607 0.078170
v 0.455170 -0.159091 -0.000456
v -0.119043 -0.414411 -0.111237
v 0.118673 -0.383123 -0.103009
v 0.320293 -0.293451 -0.079047
v -0.119125 -0.303050 -0.303678
v 0.118597 -0.280239 -0.280801
v 0.320235 -0.214707 -0.215123
v 0.455092 -0.116433 -0.116642
v -0.119018 -0.110389 -0.414656
v 0.118696 -0.102243 -0.383332
v 0.320311 -0.078475 -0.293597
v 0.455183 -0.000162 -0.159070
v -0.118752 0.111950 -0.414436
v 0.118942 0.103171 -0.383129
v 0.320499 0.078742 -0.293441
v -0.118398 0.304390 -0.303075
v 0.119269 0.280963 -0.280245
v 0.320750 0.214818 -0.214697
v 0.455370 0.116025 -0.116412
v -0.118050 0.415368 -0.110414
v 0.119590 0.383494 -0.102249
v 0.320996 0.293291 -0.078465
v 0.455551 0.158452 -0.000141
v -0.117802 0.415148 0.111925
v 0.119820 0.383290 0.103165
v 0.321171 0.293135 0.078752
v -0.117720 0.303787 0.304365
v 0.119895 0.280406 0.280957
v 0.321229 0.214391 0.214828
v 0.455629 0.115794 0.116046
v -0.117827 0.111126 0.415344
v 0.119796 0.102410 0.383488
v 0.321153 0.078159 0.293302
v 0.455538 -0.000477 0.158473
v -0.118093 -0.111213 0.415123
v 0.119550 -0.103004 0.383284
v 0.320965 -0.079058 0.293146
v -0.118448 -0.303653 0.303763
v 0.119223 -0.280796 0.280401
v 0.320714 -0.215134 0.214402
v 0.455351 -0.116664 0.115815
v 0.118902 -0.383326 0.102405
v -0.373089 -0.224426 0.225052
v -0.372827 -0.082017 0.307460
v -0.373511 -0.081408 -0.306590
v -0.373590 -0.223980 -0.224464
v -0.373530 -0.306389 -0.082055
v -0.372551 0.225089 0.225498
v -0.372611 0.307498 0.083088
v -0.372630 0.082517 0.307624
v -0.373346 -0.306552 0.082480
v -0.372795 0.307661 -0.081446
v -0.373052 0.225536 -0.224018
v -0.373314 0.083126 -0.306427
v 0.435063 -0.090892 -0.000365
v 0.435166 -0.066682 0.065981
v 0.435273 -0.000385 0.090322
v 0.435325 0.065961 0.066112
v 0.435281 0.090302 -0.000185
v 0.435178 0.066093 -0.066531
v 0.435071 -0.000205 -0.090872
v 0.435019 -0.066551 -0.066663
v 0.663831 0.063327 -0.057541
v 0.663678 -0.064352 -0.057667
v 0.663958 0.063213 0.056605
v 0.663805 -0.064465 0.056478
v 0.759829 0.097462 -0.062065
v 0.759594 -0.098708 -0.062259
v 0.759731 -0.098831 0.060786
v 0.759966 0.097340 0.060981
v 0.663732 -0.000493 -0.077423
v 0.663728 -0.075438 -0.000606
v 0.663903 -0.000646 0.076360
v 0.663908 0.074299 -0.000457
v 0.712860 -0.000485 -0.144494
v 0.740487 -0.066596 -0.000683
v 0.713181 -0.000771 0.143321
v 0.740645 0.065274 -0.000552
v 0.895217 -0.000789 -0.059141
v 0.895347 -0.000905 0.057560
v 0.782688 0.062142 -0.000602
v 0.783990 -0.000555 -0.159995
v 0.784345 -0.000872 0.158663
v 0.870008 -0.000816 -0.000762
v 0.782538 -0.063565 -0.000727
v 0.715471 -0.062469 -0.120935
v 0.715888 0.061206 0.119756
v 0.884326 -0.056624 -0.059184
v 0.884590 0.054956 0.057628
v 0.830579 -0.095864 -0.062336
v 0.830807 0.094447 -0.062147
v 0.715620 0.061445 -0.120812
v 0.715740 -0.062708 0.119633
v 0.884460 0.055072 -0.059074
v 0.884456 -0.056740 0.057517
v 0.830717 -0.095986 0.060710
v 0.830945 0.094325 0.060899
v 0.822753 0.059630 -0.000649
v 0.861858 -0.000664 -0.144181
v 0.783922 -0.065831 -0.150600
v 0.784078 0.064702 -0.150471
v 0.862178 -0.000949 0.142675
v 0.784412 0.064404 0.149268
v 0.784256 -0.066129 0.149139
v 0.852041 0.034155 -0.000707
v 0.851957 -0.035745 -0.000776
v 0.822609 -0.061150 -0.000769
v 0.857681 0.064117 0.112266
v 0.857274 -0.065720 -0.113762
v 0.857430 0.064342 -0.113633
v 0.857526 -0.065945 0.112137
v -0.273651 -0.388270 -0.104082
v -0.495754 0.000555 0.000517
v -0.273728 -0.283878 -0.284480
v -0.273628 -0.103273 -0.388514
v -0.273378 0.105153 -0.388307
v -0.273046 0.285551 -0.283915
v -0.272720 0.389585 -0.103310
v -0.272487 0.389378 0.105115
v -0.272411 0.284986 0.285514
v -0.272511 0.104380 0.389548
v -0.272761 -0.104045 0.389341
v -0.273093 -0.284443 0.284949
v -0.273419 -0.388477 0.104344
v -0.473371 -0.197097 -0.052654
v -0.473253 -0.197203 0.053296
v -0.473087 -0.144319 0.145104
v -0.472918 -0.052616 0.198170
v -0.472791 0.053334 0.198275
v -0.472741 0.145142 0.145391
v -0.472779 0.198208 0.053688
v -0.472898 0.198313 -0.052262
v -0.473063 0.145430 -0.144070
v -0.473232 0.053727 -0.197136
v -0.473359 -0.052223 -0.197241
v -0.473410 -0.144031 -0.144357
vt 0.729401 0.318928
vt 0.719299 0.296324
vt 0.719286 0.296350
vt 0.704182 0.281248
vt 0.686337 0.276024
vt 0.704165 0.281282
vt 0.686331 0.310362
vt 0.674744 0.359558
vt 0.686339 0.358362
vt 0.704159 0.298571
vt 0.719282 0.309582
vt 0.729395 0.326096
vt 0.729395 0.341721
vt 0.719287 0.363724
vt 0.729402 0.376884
vt 0.704167 0.359731
vt 0.704159 0.314196
vt 0.719282 0.325207
vt 0.719301 0.390143
vt 0.704185 0.394248
vt 0.719320 0.444259
vt 0.729416 0.396408
vt 0.686359 0.395724
vt 0.704210 0.455375
vt 0.719339 0.457446
vt 0.729430 0.403538
vt 0.686385 0.459311
vt 0.704234 0.472603
vt 0.686408 0.358223
vt 0.674784 0.313489
vt 0.686382 0.310261
vt 0.719352 0.457420
vt 0.686411 0.477960
vt 0.704251 0.472569
vt 0.729436 0.396370
vt 0.686430 0.477923
vt 0.704257 0.455281
vt 0.686356 0.275988
vt 0.674742 0.280417
vt 0.719356 0.444188
vt 0.686428 0.395585
vt 0.674809 0.359428
vt 0.719350 0.390046
vt 0.674835 0.456051
vt 0.686436 0.459210
vt 0.729429 0.376831
vt 0.704249 0.394120
vt 0.674762 0.394581
vt 0.704231 0.359603
vt 0.719336 0.363627
vt 0.674829 0.473592
vt 0.729415 0.341683
vt 0.704206 0.314102
vt 0.674787 0.456145
vt 0.719318 0.325136
vt 0.686382 0.294636
vt 0.674759 0.280382
vt 0.704206 0.298477
vt 0.719318 0.309511
vt 0.729415 0.326058
vt 0.667306 0.459861
vt 0.674812 0.473627
vt 0.667284 0.307949
vt 0.667265 0.294149
vt 0.667267 0.390880
vt 0.667287 0.446060
vt 0.674827 0.394451
vt 0.667325 0.445986
vt 0.667319 0.390778
vt 0.667320 0.459833
vt 0.667251 0.294177
vt 0.667304 0.363129
vt 0.674736 0.297959
vt 0.667247 0.308024
vt 0.674736 0.313584
vt 0.667253 0.363232
vt 0.667284 0.323574
vt 0.727913 0.356745
vt 0.729429 0.345581
vt 0.727909 0.345597
vt 0.729430 0.372288
vt 0.729436 0.365120
vt 0.727902 0.356768
vt 0.727910 0.360836
vt 0.729402 0.345634
vt 0.729416 0.365158
vt 0.727890 0.318853
vt 0.727894 0.345627
vt 0.727890 0.303228
vt 0.729401 0.287678
vt 0.729395 0.294846
vt 0.727901 0.303206
vt 0.727893 0.299139
vt 0.727901 0.318831
vt 0.729415 0.310433
vt 0.604782 0.575395
vt 0.564904 0.571563
vt 0.564904 0.575218
vt 0.564904 0.606468
vt 0.604782 0.616996
vt 0.564904 0.616996
vt 0.604782 0.575395
vt 0.564904 0.575218
vt 0.564904 0.644976
vt 0.564904 0.627523
vt 0.604782 0.616996
vt 0.564904 0.616996
vt 0.604782 0.658597
vt 0.564904 0.644976
vt 0.604782 0.658597
vt 0.564904 0.658773
vt 0.555326 0.563559
vt 0.564904 0.606468
vt 0.547183 0.605647
vt 0.550731 0.616996
vt 0.529141 0.637830
vt 0.534074 0.628344
vt 0.523159 0.635571
vt 0.529141 0.596162
vt 0.534074 0.605647
vt 0.524158 0.590608
vt 0.523159 0.614890
vt 0.535567 0.528302
vt 0.534074 0.599425
vt 0.528302 0.559290
vt 0.522160 0.590608
vt 0.524158 0.590608
vt 0.550731 0.616996
vt 0.547183 0.620531
vt 0.542966 0.554496
vt 0.555326 0.594809
vt 0.542679 0.589352
vt 0.528302 0.674701
vt 0.523159 0.635571
vt 0.523159 0.635571
vt 0.555817 0.559202
vt 0.555326 0.563559
vt 0.542679 0.558102
vt 0.555326 0.639182
vt 0.542679 0.644640
vt 0.523159 0.614890
vt 0.530153 0.528302
vt 0.526827 0.528302
vt 0.555326 0.670432
vt 0.555817 0.674790
vt 0.542679 0.675890
vt 0.555326 0.670432
vt 0.547183 0.605647
vt 0.555326 0.594809
vt 0.535567 0.507621
vt 0.530153 0.507621
vt 0.547183 0.620531
vt 0.542966 0.554496
vt 0.542966 0.560024
vt 0.535567 0.538876
vt 0.534074 0.609999
vt 0.555326 0.639182
vt 0.526827 0.507621
vt 0.535567 0.507621
vt 0.530153 0.507621
vt 0.530153 0.528302
vt 0.542679 0.644640
vt 0.542679 0.677634
vt 0.542679 0.675890
vt 0.534074 0.628344
vt 0.529141 0.637830
vt 0.542679 0.556357
vt 0.542679 0.558102
vt 0.534074 0.605647
vt 0.529141 0.596162
vt 0.542679 0.589352
vt 0.542966 0.538871
vt 0.535567 0.528302
vt 0.534074 0.599425
vt 0.534074 0.612719
vt 0.529141 0.564912
vt 0.529141 0.669080
vt 0.529141 0.669080
vt 0.529141 0.564912
vt 0.523159 0.614890
vt 0.542966 0.549450
vt 0.542966 0.538871
vt 0.659799 0.410236
vt 0.659785 0.321410
vt 0.659772 0.312524
vt 0.659774 0.385940
vt 0.659787 0.401349
vt 0.659811 0.401301
vt 0.659807 0.385874
vt 0.659808 0.410218
vt 0.659763 0.312542
vt 0.659797 0.368070
vt 0.659761 0.321459
vt 0.667247 0.323649
vt 0.659764 0.368136
vt 0.659785 0.337035
vt 0.686331 0.294737
vt 0.658085 0.377005
vt 0.659763 0.328167
vt 0.659772 0.328149
vt 0.659761 0.337084
vt 0.674784 0.297864
vt 0.729395 0.310471
vt 0.729415 0.294808
vt 0.604782 0.571606
vt 0.604782 0.606645
vt 0.604782 0.627347
vt 0.604782 0.627347
vt 0.604782 0.662385
vt 0.604782 0.606645
vn 0.7574 -0.6530 -0.0015
vn 0.5685 -0.7950 0.2117
vn 0.5680 -0.7946 -0.2145
vn 0.2738 -0.9294 0.2476
vn -0.0187 -0.9655 -0.2597
vn 0.2732 -0.9289 -0.2501
vn -0.0189 -0.7063 -0.7077
vn -0.4090 -0.2349 -0.8818
vn -0.0186 -0.2578 -0.9660
vn 0.2730 -0.6796 -0.6809
vn 0.5639 -0.5834 -0.5845
vn 0.7565 -0.4620 -0.4629
vn 0.5680 -0.2130 -0.7950
vn 0.7575 -0.0003 -0.6529
vn 0.2733 -0.2483 -0.9293
vn 0.5685 0.2132 -0.7946
vn 0.2739 0.2495 -0.9289
vn 0.5653 0.5832 -0.5833
vn 0.7576 0.4611 -0.4619
vn -0.0180 0.2598 -0.9655
vn 0.2747 0.6803 -0.6796
vn 0.5699 0.7937 -0.2129
vn 0.7590 0.6511 -0.0002
vn -0.0172 0.7077 -0.7063
vn 0.2754 0.9287 -0.2483
vn -0.0165 -0.2597 0.9655
vn -0.4081 -0.6457 0.6454
vn -0.0173 -0.7077 0.7063
vn 0.5704 0.7932 0.2132
vn -0.0164 0.9661 -0.2578
vn 0.2760 0.9282 0.2495
vn 0.7587 0.4602 0.4612
vn -0.0158 0.9655 0.2598
vn 0.2762 0.6789 0.6803
vn -0.0181 -0.9660 0.2578
vn -0.4090 -0.8813 -0.2367
vn 0.5666 0.5820 0.5832
vn -0.0159 0.2578 0.9661
vn -0.4075 -0.2366 0.8820
vn 0.5703 0.2116 0.7937
vn -0.4069 0.6453 0.6465
vn -0.0156 0.7063 0.7077
vn 0.7589 -0.0016 0.6512
vn 0.2759 0.2476 0.9287
vn -0.4086 0.2377 -0.8812
vn 0.2753 -0.2501 0.9282
vn 0.5698 -0.2145 0.7933
vn -0.4071 0.8819 0.2376
vn 0.7576 -0.4629 0.4602
vn 0.2746 -0.6809 0.6789
vn -0.4080 0.6467 -0.6444
vn 0.5652 -0.5846 0.5821
vn -0.4086 -0.8817 0.2359
vn -0.6936 0.6962 -0.1849
vn -0.4075 0.8825 -0.2349
vn -0.6940 -0.5089 0.5094
vn -0.6943 -0.6952 0.1865
vn -0.6942 0.1879 -0.6948
vn -0.6939 0.5104 -0.5079
vn -0.4071 0.2359 0.8824
vn -0.6934 0.5090 0.5100
vn -0.6935 0.1863 0.6960
vn -0.6934 0.6956 0.1877
vn -0.6945 -0.6950 -0.1864
vn -0.6937 -0.1862 0.6958
vn -0.4092 -0.6446 -0.6459
vn -0.6945 -0.5082 -0.5093
vn -0.6944 -0.1850 -0.6954
vn 0.9610 -0.1954 -0.1957
vn 0.9585 -0.0009 -0.2850
vn 0.9585 -0.2851 -0.0013
vn 0.9614 -0.1958 0.1932
vn 0.9592 -0.0014 0.2829
vn 0.9619 0.1931 0.1936
vn 0.9592 0.2828 -0.0008
vn 0.9615 0.1935 -0.1954
vn 0.9615 0.1935 -0.1953
vn 0.0522 -0.3339 -0.9412
vn 0.0457 0.0009 -0.9990
vn 0.0404 -0.2953 -0.9545
vn -0.0787 0.9883 -0.1306
vn 0.0340 0.9994 0.0010
vn 0.0931 0.9957 0.0009
vn 0.0530 0.3356 -0.9405
vn 0.0411 0.2971 -0.9540
vn -0.0784 0.9881 0.1327
vn -0.0807 -0.9881 0.1307
vn 0.0316 -0.9995 -0.0010
vn 0.0907 -0.9959 -0.0011
vn 0.0551 0.3338 0.9410
vn 0.0479 -0.0011 0.9989
vn 0.0432 0.2952 0.9544
vn 0.0543 -0.3358 0.9404
vn 0.0425 -0.2972 0.9539
vn -0.7565 -0.1927 -0.6250
vn -0.7864 0.0016 -0.6177
vn -0.5040 -0.6121 -0.6093
vn -0.0810 -0.9879 -0.1325
vn -0.1264 -0.9909 0.0457
vn -0.0763 -0.9971 -0.0009
vn 0.5951 -0.6230 0.5077
vn 0.2978 -0.9505 -0.0890
vn 0.8482 -0.5203 -0.0989
vn 0.5954 0.6216 -0.5090
vn 0.3003 0.9497 0.0883
vn 0.8497 0.5183 0.0970
vn 0.8495 0.5185 -0.0978
vn 0.3127 0.7954 -0.5192
vn 0.3001 0.9499 -0.0871
vn 0.6441 -0.0000 -0.7649
vn 0.9999 -0.0012 0.0161
vn 0.8484 -0.5205 0.0960
vn -0.0739 0.9973 0.0011
vn -0.1241 0.9912 -0.0455
vn 0.0530 0.8726 -0.4856
vn -0.0031 -0.6066 -0.7950
vn 0.6458 -0.0015 0.7635
vn 0.9998 -0.0012 -0.0184
vn -0.5636 0.0015 -0.8261
vn -0.5026 0.6145 -0.6081
vn -0.0016 0.6082 -0.7938
vn -0.5012 0.6133 0.6105
vn 0.0002 0.6066 0.7950
vn 0.6520 -0.5208 -0.5511
vn 0.8592 -0.0005 -0.5117
vn -0.7850 0.0003 0.6195
vn -0.5027 -0.6133 0.6092
vn -0.5617 -0.0001 0.8273
vn -0.0013 -0.6082 0.7938
vn -0.1240 0.9911 0.0477
vn 0.3139 0.7944 0.5201
vn 0.6545 0.5192 0.5496
vn -0.1265 -0.9908 -0.0474
vn 0.0509 -0.8717 -0.4873
vn 0.3108 -0.7951 -0.5208
vn 0.8603 -0.0015 0.5098
vn 0.3120 -0.7961 0.5185
vn 0.6532 -0.5219 0.5486
vn 0.6532 0.5203 -0.5500
vn -0.0048 -0.0010 1.0000
vn 0.5966 0.6206 0.5089
vn -0.0070 0.0010 -1.0000
vn 0.2980 -0.9506 0.0864
vn 0.5940 -0.6220 -0.5102
vn 0.0541 0.8716 0.4872
vn 0.0520 -0.8727 0.4855
vn -0.7546 0.1945 0.6267
vn -0.7560 0.1958 -0.6246
vn -0.7551 -0.1940 0.6263
vn -0.8951 0.4311 -0.1138
vn -0.8954 -0.3142 0.3155
vn -0.8957 -0.4294 0.1158
vn -0.8956 0.1167 -0.4292
vn -0.8954 0.3162 -0.3136
vn -0.8948 0.3154 0.3159
vn -0.8949 0.1158 0.4310
vn -0.8949 0.4308 0.1166
vn -0.8959 -0.4293 -0.1148
vn -0.8951 -0.1146 0.4308
vn -0.8959 -0.3138 -0.3145
vn -0.8958 -0.1139 -0.4295
vn -1.0000 0.0012 0.0011
vn 0.0587 0.0009 -0.9983
vn 0.0248 0.9391 -0.3427
vn 0.0256 0.9384 0.3445
vn 0.0233 -0.9392 0.3427
vn 0.0610 -0.0011 0.9981
vn 0.0226 -0.9385 -0.3446
usemtl restaurant.070
s 1
f 3/1/1 2/2/2 6/3/3
f 44/4/4 4/5/5 5/6/6
f 2/2/2 5/6/6 6/3/3
f 7/7/7 117/8/8 11/9/9
f 6/3/3 8/10/10 9/11/11
f 6/3/3 10/12/12 3/1/1
f 4/5/5 8/10/10 5/6/6
f 10/13/12 13/14/13 14/15/14
f 7/7/7 12/16/15 8/17/10
f 9/18/11 12/16/15 13/14/13
f 14/15/14 13/14/13 17/19/16
f 11/9/9 16/20/17 12/16/15
f 12/16/15 17/19/16 13/14/13
f 16/20/17 20/21/18 17/19/16
f 17/19/16 21/22/19 14/15/14
f 15/23/20 19/24/21 16/20/17
f 19/24/21 24/25/22 20/21/18
f 21/22/19 24/25/22 25/26/23
f 18/27/24 23/28/25 19/24/21
f 37/29/26 125/30/27 40/31/28
f 25/26/23 24/25/22 28/32/29
f 22/33/30 27/34/31 23/28/25
f 117/8/8 15/23/20 11/9/9
f 23/28/25 28/32/29 24/25/22
f 28/32/29 32/35/32 25/26/23
f 26/36/33 30/37/34 27/34/31
f 1/38/35 114/39/36 4/5/5
f 28/32/29 30/37/34 31/40/37
f 33/41/38 124/42/39 37/29/26
f 30/37/34 35/43/40 31/40/37
f 122/44/41 33/41/38 29/45/42
f 32/35/32 35/43/40 36/46/43
f 29/45/42 34/47/44 30/37/34
f 118/48/45 18/27/24 15/23/20
f 35/43/40 38/49/46 39/50/47
f 22/33/30 121/51/48 26/36/33
f 36/46/43 35/43/40 39/50/47
f 34/47/44 37/29/26 38/49/46
f 39/50/47 43/52/49 36/46/43
f 38/49/46 40/31/28 41/53/50
f 119/54/51 22/33/30 18/27/24
f 39/50/47 41/53/50 42/55/52
f 40/56/28 126/57/53 1/38/35
f 121/51/48 29/45/42 26/36/33
f 41/58/50 1/38/35 44/4/4
f 42/59/52 44/4/4 2/2/2
f 43/60/49 2/2/2 3/1/1
f 119/54/51 54/61/54 120/62/55
f 126/57/53 45/63/56 53/64/57
f 117/8/8 56/65/58 118/48/45
f 118/48/45 55/66/59 119/54/51
f 123/67/60 50/68/61 52/69/62
f 120/62/55 51/70/63 121/51/48
f 114/39/36 53/64/57 49/71/64
f 124/42/39 52/69/62 46/72/65
f 121/51/48 50/68/61 122/44/41
f 116/73/66 49/71/64 48/74/67
f 116/75/66 47/76/68 117/8/8
f 125/30/27 46/72/65 45/77/56
f 60/78/69 36/79/70 59/80/70
f 60/78/69 25/81/71 32/82/69
f 62/83/72 25/81/71 61/84/71
f 62/83/72 14/85/73 21/86/72
f 64/87/74 14/85/73 63/88/73
f 64/89/74 3/90/75 10/91/74
f 58/92/76 3/90/75 57/93/75
f 58/94/76 36/79/70 43/95/77
f 64/96/78 73/97/79 66/98/80
f 65/99/81 61/100/82 76/101/83
f 73/97/79 62/102/84 65/103/85
f 61/100/82 67/104/86 76/101/83
f 68/105/87 57/106/88 74/107/89
f 60/108/90 75/109/91 67/104/92
f 75/109/91 58/110/93 68/111/94
f 66/98/95 73/97/96 88/112/97
f 66/113/98 70/114/99 78/115/100
f 113/116/101 98/117/102 97/118/103
f 112/119/104 93/120/105 96/121/106
f 91/122/107 100/123/108 99/124/109
f 101/125/110 81/126/111 90/127/112
f 80/128/113 72/129/114 83/130/115
f 88/131/97 102/132/116 70/114/99
f 104/133/117 82/134/118 91/135/107
f 77/136/119 94/137/120 103/138/121
f 72/129/114 89/139/122 105/140/123
f 97/141/103 108/142/124 86/143/125
f 65/99/81 76/101/83 80/128/113
f 75/109/126 95/144/127 79/145/128
f 67/104/86 72/129/114 80/128/113
f 79/145/128 95/144/127 106/146/129
f 57/106/88 66/113/98 74/107/89
f 68/105/87 74/107/89 78/115/100
f 73/97/96 94/137/120 77/136/119
f 75/109/126 79/145/128 89/147/122
f 65/99/81 69/148/130 94/149/120
f 96/121/106 100/150/131 107/151/132
f 71/152/133 78/115/100 87/153/134
f 87/154/134 109/155/135 98/156/102
f 68/105/87 71/152/133 95/157/127
f 90/127/112 81/126/111 86/158/136
f 109/159/137 90/127/112 108/160/138
f 86/143/125 107/161/139 91/122/107
f 95/157/127 71/152/133 106/162/129
f 79/145/128 85/163/140 105/164/123
f 99/165/109 110/166/141 91/135/107
f 105/140/123 110/166/141 99/165/109
f 105/164/123 85/163/140 104/133/117
f 72/129/114 105/140/123 99/165/109
f 77/136/119 84/167/142 102/168/116
f 92/169/143 111/170/144 90/127/112
f 103/171/121 69/148/130 93/120/105
f 102/168/116 84/167/142 101/125/110
f 69/148/130 80/128/113 83/130/145
f 83/172/145 100/150/131 93/120/105
f 109/173/135 97/141/103 98/174/102
f 83/172/115 72/129/114 99/175/109
f 101/125/110 112/176/104 96/121/106
f 103/138/121 112/176/104 101/125/110
f 112/119/104 103/171/121 93/120/105
f 104/133/117 113/177/101 97/118/103
f 106/146/129 113/177/101 104/133/117
f 106/162/129 71/152/133 98/117/102
f 86/158/136 81/126/111 96/121/106
f 73/97/96 77/136/119 88/112/97
f 87/153/146 70/114/99 92/169/143
f 78/115/100 70/114/99 87/153/146
f 67/104/147 75/109/126 89/147/122
f 73/97/96 65/103/148 94/137/120
f 72/129/114 67/104/86 89/139/122
f 75/109/126 68/111/149 95/144/127
f 70/114/99 66/113/98 88/131/97
f 82/134/118 104/133/117 97/118/103
f 110/178/141 104/133/117 91/135/107
f 111/179/144 101/125/110 90/127/112
f 81/126/111 101/125/110 96/121/106
f 108/160/138 90/127/112 86/158/136
f 107/151/132 86/158/136 96/121/106
f 82/180/118 97/141/103 86/143/125
f 82/180/118 86/143/125 91/122/107
f 110/178/141 105/164/123 104/133/117
f 85/163/140 106/146/129 104/133/117
f 111/179/144 102/168/116 101/125/110
f 84/167/142 103/138/121 101/125/110
f 89/147/122 79/145/128 105/164/123
f 85/163/140 79/145/128 106/146/129
f 84/167/142 77/136/119 103/138/121
f 88/112/97 77/136/119 102/168/116
f 111/170/144 92/169/143 102/132/116
f 113/116/101 106/162/129 98/117/102
f 92/169/143 70/114/99 102/132/116
f 103/171/121 94/149/120 69/148/130
f 76/101/83 67/104/86 80/128/113
f 69/148/130 65/99/81 80/128/113
f 71/152/133 68/105/87 78/115/100
f 74/107/89 66/113/98 78/115/100
f 100/123/108 83/181/115 99/124/109
f 69/148/130 83/130/145 93/120/105
f 71/152/133 87/153/134 98/117/102
f 109/159/137 87/182/146 92/169/143
f 55/66/59 134/183/150 54/61/54
f 53/64/57 129/184/151 128/185/152
f 47/76/68 136/186/153 56/65/58
f 56/65/58 135/187/154 55/66/59
f 52/69/62 132/188/155 131/189/156
f 54/61/54 133/190/157 51/70/63
f 49/71/64 128/185/152 127/191/158
f 46/72/65 131/189/156 130/192/159
f 51/70/63 132/188/155 50/68/61
f 48/74/67 127/191/158 138/193/160
f 48/194/67 137/195/161 47/76/68
f 45/77/56 130/192/159 129/196/151
f 114/39/36 7/197/7 4/5/5
f 115/198/162 127/199/158 128/200/152
f 115/198/162 128/200/152 129/196/151
f 115/198/162 129/196/151 130/192/159
f 115/198/162 130/192/159 131/189/156
f 115/198/162 131/189/156 132/188/155
f 115/198/162 132/188/155 133/190/157
f 115/198/162 133/190/157 134/183/150
f 115/198/162 134/183/150 135/187/154
f 115/198/162 135/187/154 136/186/153
f 115/198/162 136/186/153 137/195/161
f 115/198/162 137/195/161 138/201/160
f 115/198/162 138/201/160 127/199/158
f 44/4/4 1/38/35 4/5/5
f 2/2/2 44/4/4 5/6/6
f 7/7/7 116/75/66 117/8/8
f 6/3/3 5/6/6 8/10/10
f 6/3/3 9/11/11 10/12/12
f 4/5/5 7/197/7 8/10/10
f 10/13/12 9/18/11 13/14/13
f 7/7/7 11/9/9 12/16/15
f 9/18/11 8/17/10 12/16/15
f 11/9/9 15/23/20 16/20/17
f 12/16/15 16/20/17 17/19/16
f 16/20/17 19/24/21 20/21/18
f 17/19/16 20/21/18 21/22/19
f 15/23/20 18/27/24 19/24/21
f 19/24/21 23/28/25 24/25/22
f 21/22/19 20/21/18 24/25/22
f 18/27/24 22/33/30 23/28/25
f 37/29/26 124/42/39 125/30/27
f 22/33/30 26/36/33 27/34/31
f 117/8/8 118/48/45 15/23/20
f 23/28/25 27/34/31 28/32/29
f 28/32/29 31/40/37 32/35/32
f 26/36/33 29/45/42 30/37/34
f 1/38/35 126/57/53 114/39/36
f 28/32/29 27/34/31 30/37/34
f 33/41/38 123/67/60 124/42/39
f 30/37/34 34/47/44 35/43/40
f 122/44/41 123/67/60 33/41/38
f 32/35/32 31/40/37 35/43/40
f 29/45/42 33/41/38 34/47/44
f 118/48/45 119/54/51 18/27/24
f 35/43/40 34/47/44 38/49/46
f 22/33/30 120/62/55 121/51/48
f 34/47/44 33/41/38 37/29/26
f 39/50/47 42/55/52 43/52/49
f 38/49/46 37/29/26 40/31/28
f 119/54/51 120/62/55 22/33/30
f 39/50/47 38/49/46 41/53/50
f 40/56/28 125/202/27 126/57/53
f 121/51/48 122/44/41 29/45/42
f 41/58/50 40/56/28 1/38/35
f 42/59/52 41/58/50 44/4/4
f 43/60/49 42/59/52 2/2/2
f 119/54/51 55/66/59 54/61/54
f 126/57/53 125/202/27 45/63/56
f 117/8/8 47/76/68 56/65/58
f 118/48/45 56/65/58 55/66/59
f 123/67/60 122/44/41 50/68/61
f 120/62/55 54/61/54 51/70/63
f 114/39/36 126/57/53 53/64/57
f 124/42/39 123/67/60 52/69/62
f 121/51/48 51/70/63 50/68/61
f 116/73/66 114/39/36 49/71/64
f 116/75/66 48/194/67 47/76/68
f 125/30/27 124/42/39 46/72/65
f 60/78/69 32/82/69 36/79/70
f 60/78/69 61/84/71 25/81/71
f 62/83/72 21/86/72 25/81/71
f 62/83/72 63/88/73 14/85/73
f 64/87/74 10/203/74 14/85/73
f 64/89/74 57/93/75 3/90/75
f 58/92/76 43/204/77 3/90/75
f 58/94/76 59/80/70 36/79/70
f 64/96/78 63/205/163 73/97/79
f 65/99/81 62/206/164 61/100/82
f 73/97/79 63/205/163 62/102/84
f 61/100/82 60/207/165 67/104/86
f 68/105/87 58/208/166 57/106/88
f 60/108/90 59/209/167 75/109/91
f 75/109/91 59/209/167 58/110/93
f 91/122/107 107/161/139 100/123/108
f 57/106/88 64/210/168 66/113/98
f 96/121/106 93/120/105 100/150/131
f 109/159/137 92/169/143 90/127/112
f 109/173/135 108/142/124 97/141/103
f 55/66/59 135/187/154 134/183/150
f 53/64/57 45/63/56 129/184/151
f 47/76/68 137/195/161 136/186/153
f 56/65/58 136/186/153 135/187/154
f 52/69/62 50/68/61 132/188/155
f 54/61/54 134/183/150 133/190/157
f 49/71/64 53/64/57 128/185/152
f 46/72/65 52/69/62 131/189/156
f 51/70/63 133/190/157 132/188/155
f 48/74/67 49/71/64 127/191/158
f 48/194/67 138/201/160 137/195/161
f 45/77/56 46/72/65 130/192/159
f 114/39/36 116/73/66 7/197/7
