# Blender v3.4.1 OBJ File: 'restaurant.blend'
# www.blender.org
mtllib food_ingredient_burger_trash_Cylinder_056.mtl
o food_ingredient_burger_trash_Cylinder.056
v 0.000000 0.000000 -0.292710
v 0.000000 0.056189 -0.350000
v 0.000000 0.016457 -0.333220
v 0.000000 0.200000 -0.292710
v 0.000000 0.143811 -0.350000
v 0.000000 0.183543 -0.333220
v 0.112015 0.000000 -0.270429
v 0.133939 0.056189 -0.323358
v 0.127518 0.016457 -0.307855
v 0.112015 0.200000 -0.270429
v 0.133939 0.143811 -0.323358
v 0.127518 0.183543 -0.307855
v 0.206977 0.000000 -0.206977
v 0.247487 0.056189 -0.247487
v 0.235622 0.016457 -0.235622
v 0.206977 0.200000 -0.206977
v 0.247487 0.143811 -0.247487
v 0.235622 0.183543 -0.235622
v 0.270429 0.000000 -0.112015
v 0.323358 0.056189 -0.133939
v 0.307855 0.016457 -0.127518
v 0.270429 0.200000 -0.112015
v 0.323358 0.143811 -0.133939
v 0.307855 0.183543 -0.127518
v 0.292710 0.000000 0.000000
v 0.350000 0.056189 0.000000
v 0.333220 0.016457 0.000000
v 0.292710 0.200000 0.000000
v 0.350000 0.143811 0.000000
v 0.333220 0.183543 0.000000
v 0.270429 -0.000000 0.112015
v 0.323358 0.056189 0.133939
v 0.307855 0.016457 0.127518
v 0.270429 0.200000 0.112015
v 0.323358 0.143811 0.133939
v 0.307855 0.183543 0.127518
v 0.206977 -0.000000 0.206977
v 0.247487 0.056189 0.247487
v 0.235622 0.016457 0.235622
v 0.206977 0.200000 0.206977
v 0.247487 0.143811 0.247487
v 0.235622 0.183543 0.235622
v 0.112015 -0.000000 0.270429
v 0.133939 0.056189 0.323358
v 0.127518 0.016457 0.307855
v 0.112015 0.200000 0.270429
v 0.133939 0.143811 0.323358
v 0.127518 0.183543 0.307855
v 0.000000 -0.000000 0.292710
v 0.000000 0.056189 0.350000
v 0.000000 0.016457 0.333220
v 0.000000 0.200000 0.292710
v 0.000000 0.143811 0.350000
v 0.000000 0.183543 0.333220
v -0.112015 -0.000000 0.270429
v -0.133939 0.056189 0.323358
v -0.127518 0.016457 0.307855
v -0.112015 0.200000 0.270429
v -0.133939 0.143811 0.323358
v -0.127518 0.183543 0.307855
v -0.206977 -0.000000 0.206977
v -0.247487 0.056189 0.247487
v -0.235622 0.016457 0.235622
v -0.206977 0.200000 0.206977
v -0.247487 0.143811 0.247487
v -0.235622 0.183543 0.235622
v -0.270429 -0.000000 0.112015
v -0.323358 0.056189 0.133939
v -0.307855 0.016457 0.127518
v -0.270429 0.200000 0.112015
v -0.323358 0.143811 0.133939
v -0.307855 0.183543 0.127518
v -0.292710 0.000000 0.000000
v -0.350000 0.056189 0.000000
v -0.333220 0.016457 0.000000
v -0.292710 0.200000 0.000000
v -0.350000 0.143811 0.000000
v -0.333220 0.183543 0.000000
v -0.270429 0.000000 -0.112015
v -0.323358 0.056189 -0.133939
v -0.307855 0.016457 -0.127518
v -0.270429 0.200000 -0.112015
v -0.323358 0.143811 -0.133939
v -0.307855 0.183543 -0.127518
v -0.206977 0.000000 -0.206977
v -0.247487 0.056189 -0.247487
v -0.235622 0.016457 -0.235622
v -0.206977 0.200000 -0.206977
v -0.247487 0.143811 -0.247487
v -0.235622 0.183543 -0.235622
v -0.112015 0.000000 -0.270429
v -0.133939 0.056189 -0.323358
v -0.127518 0.016457 -0.307855
v -0.112015 0.200000 -0.270429
v -0.133939 0.143811 -0.323358
v -0.127518 0.183543 -0.307855
v 0.000000 0.200000 0.206977
v 0.000000 0.200000 0.112015
v 0.000000 0.200000 0.000000
v 0.000000 0.200000 -0.112015
v 0.000000 0.200000 -0.206977
v 0.000000 -0.000000 0.206977
v 0.000000 -0.000000 0.112015
v 0.000000 0.000000 0.000000
v 0.000000 0.000000 -0.112015
v 0.000000 0.000000 -0.206977
vt 0.169739 0.915622
vt 0.183919 0.895450
vt 0.169739 0.895450
vt 0.210119 0.915622
vt 0.218150 0.895450
vt 0.210119 0.895450
vt 0.218150 0.915622
vt 0.220971 0.895450
vt 0.220971 0.915622
vt 0.218150 0.895450
vt 0.218150 0.915622
vt 0.210119 0.895450
vt 0.210119 0.915622
vt 0.198098 0.895450
vt 0.198098 0.915622
vt 0.183919 0.895450
vt 0.183919 0.915622
vt 0.169739 0.895450
vt 0.169739 0.915622
vt 0.157719 0.895450
vt 0.157719 0.915622
vt 0.149687 0.895450
vt 0.149687 0.915622
vt 0.146866 0.895450
vt 0.146866 0.915622
vt 0.149687 0.895450
vt 0.149687 0.915622
vt 0.157719 0.895450
vt 0.157719 0.915622
vt 0.198098 0.915622
vt 0.198098 0.895450
vt 0.183919 0.928557
vt 0.162007 0.928557
vt 0.172060 0.967594
vt 0.183919 0.915622
vt 0.183919 0.847267
vt 0.183919 0.837872
vt 0.195777 0.834083
vt 0.183919 0.834083
vt 0.183919 0.963805
vt 0.197418 0.963805
vt 0.183919 0.983324
vt 0.195777 0.987112
vt 0.197418 0.983324
vt 0.197418 0.847267
vt 0.197418 0.837872
vt 0.205830 0.834083
vt 0.208862 0.963805
vt 0.205830 0.987112
vt 0.208862 0.983324
vt 0.216509 0.847267
vt 0.208862 0.847267
vt 0.216509 0.837872
vt 0.208862 0.837872
vt 0.216509 0.963805
vt 0.216509 0.983324
vt 0.212547 0.987112
vt 0.219195 0.847267
vt 0.219195 0.837872
vt 0.212547 0.834083
vt 0.219195 0.963805
vt 0.219195 0.983324
vt 0.214906 0.987112
vt 0.212547 0.834083
vt 0.214906 0.834083
vt 0.216509 0.963805
vt 0.212547 0.987112
vt 0.216509 0.983324
vt 0.216509 0.847267
vt 0.216509 0.837872
vt 0.205830 0.834083
vt 0.208862 0.963805
vt 0.205830 0.987112
vt 0.208862 0.983324
vt 0.197418 0.847267
vt 0.208862 0.847267
vt 0.197418 0.837872
vt 0.208862 0.837872
vt 0.197418 0.963805
vt 0.197418 0.983324
vt 0.195777 0.987112
vt 0.183919 0.847267
vt 0.183919 0.837872
vt 0.195777 0.834083
vt 0.183919 0.963805
vt 0.183919 0.983324
vt 0.183919 0.987112
vt 0.172060 0.834083
vt 0.183919 0.834083
vt 0.170419 0.963805
vt 0.172060 0.987112
vt 0.170419 0.983324
vt 0.170419 0.847267
vt 0.170419 0.837872
vt 0.162007 0.834083
vt 0.158975 0.963805
vt 0.162007 0.987112
vt 0.158975 0.983324
vt 0.151328 0.847267
vt 0.158975 0.847267
vt 0.151328 0.837872
vt 0.158975 0.837872
vt 0.151328 0.963805
vt 0.151328 0.983324
vt 0.155290 0.987112
vt 0.148643 0.847267
vt 0.148643 0.837872
vt 0.155290 0.834083
vt 0.148643 0.963805
vt 0.148643 0.983324
vt 0.152931 0.987112
vt 0.155290 0.834083
vt 0.152931 0.834083
vt 0.151328 0.963805
vt 0.155290 0.987112
vt 0.151328 0.983324
vt 0.151328 0.847267
vt 0.151328 0.837872
vt 0.162007 0.834083
vt 0.158975 0.963805
vt 0.162007 0.987112
vt 0.158975 0.983324
vt 0.170419 0.847267
vt 0.158975 0.847267
vt 0.170419 0.837872
vt 0.158975 0.837872
vt 0.170419 0.963805
vt 0.170419 0.983324
vt 0.172060 0.987112
vt 0.172060 0.834083
vt 0.183919 0.987112
vt 0.183919 0.804441
vt 0.205830 0.804441
vt 0.195777 0.843478
vt 0.162007 0.928557
vt 0.183919 0.967594
vt 0.183919 0.928557
vt 0.155290 0.967594
vt 0.183919 0.889520
vt 0.183919 0.928557
vt 0.155290 0.967594
vt 0.183919 0.967594
vt 0.162007 0.889520
vt 0.183919 0.889520
vt 0.172060 0.967594
vt 0.162007 0.889520
vt 0.183919 0.889520
vt 0.205830 0.928557
vt 0.212547 0.967594
vt 0.214906 0.889520
vt 0.212547 0.967594
vt 0.214906 0.928557
vt 0.205830 0.889520
vt 0.183919 0.967594
vt 0.195777 0.967594
vt 0.195777 0.967594
vt 0.183919 0.967594
vt 0.212547 0.843478
vt 0.183919 0.765404
vt 0.183919 0.843478
vt 0.183919 0.804441
vt 0.212547 0.843478
vt 0.183919 0.843478
vt 0.205830 0.804441
vt 0.183919 0.804441
vt 0.195777 0.843478
vt 0.205830 0.765404
vt 0.183919 0.765404
vt 0.205830 0.765404
vt 0.183919 0.765404
vt 0.162007 0.804441
vt 0.155290 0.843478
vt 0.152931 0.765404
vt 0.155290 0.843478
vt 0.152931 0.804441
vt 0.162007 0.765404
vt 0.183919 0.843478
vt 0.172060 0.843478
vt 0.172060 0.843478
vt 0.183919 0.843478
vt 0.205830 0.889520
vt 0.205830 0.928557
vt 0.162007 0.804441
vt 0.162007 0.765404
vt 0.152931 0.889520
vt 0.152931 0.928557
vt 0.214906 0.765404
vt 0.214906 0.804441
vn -0.3754 0.1938 -0.9064
vn 0.0000 -0.1938 -0.9810
vn -0.3754 -0.1938 -0.9064
vn 0.6937 0.1938 -0.6937
vn 0.9064 -0.1938 -0.3754
vn 0.6937 -0.1938 -0.6937
vn 0.9064 0.1938 -0.3754
vn 0.9810 -0.1938 -0.0000
vn 0.9810 0.1938 0.0000
vn 0.9064 -0.1938 0.3754
vn 0.9064 0.1938 0.3754
vn 0.6937 -0.1938 0.6937
vn 0.6937 0.1938 0.6937
vn 0.3754 -0.1938 0.9064
vn 0.3754 0.1938 0.9064
vn -0.0000 -0.1938 0.9810
vn 0.0000 0.1938 0.9810
vn -0.3754 -0.1938 0.9064
vn -0.3754 0.1938 0.9064
vn -0.6937 -0.1938 0.6937
vn -0.6937 0.1938 0.6937
vn -0.9064 -0.1938 0.3754
vn -0.9064 0.1938 0.3754
vn -0.9810 -0.1938 -0.0000
vn -0.9810 0.1938 0.0000
vn -0.9064 -0.1938 -0.3754
vn -0.9064 0.1938 -0.3754
vn -0.6937 -0.1938 -0.6937
vn -0.6937 0.1938 -0.6937
vn 0.3754 0.1938 -0.9064
vn 0.3754 -0.1938 -0.9064
vn 0.0000 1.0000 0.0000
vn -0.1517 0.9767 0.1517
vn -0.0821 0.9767 0.1983
vn -0.0000 0.1938 -0.9810
vn -0.0000 -0.6889 -0.7249
vn 0.0821 -0.9767 -0.1983
vn 0.0000 -0.9767 -0.2146
vn -0.0000 0.3891 -0.9212
vn 0.3525 0.3891 -0.8511
vn -0.0000 0.9265 -0.3764
vn 0.0821 0.9767 -0.1983
vn 0.1440 0.9265 -0.3477
vn 0.3525 -0.3891 -0.8511
vn 0.1440 -0.9265 -0.3477
vn 0.1517 -0.9767 -0.1517
vn 0.6514 0.3890 -0.6514
vn 0.1517 0.9767 -0.1517
vn 0.2661 0.9265 -0.2661
vn 0.8511 -0.3891 -0.3525
vn 0.6514 -0.3890 -0.6514
vn 0.3477 -0.9265 -0.1440
vn 0.2661 -0.9265 -0.2661
vn 0.8511 0.3891 -0.3525
vn 0.3477 0.9265 -0.1440
vn 0.1983 0.9767 -0.0821
vn 0.7249 -0.6889 -0.0000
vn 0.1983 -0.9767 -0.0821
vn 0.9212 0.3891 0.0000
vn 0.3764 0.9265 0.0000
vn 0.2146 0.9767 0.0000
vn 0.1983 -0.9767 0.0821
vn 0.2146 -0.9767 -0.0000
vn 0.6697 0.6889 0.2774
vn 0.1983 0.9767 0.0821
vn 0.6697 -0.6889 0.2774
vn 0.1517 -0.9767 0.1517
vn 0.5126 0.6889 0.5126
vn 0.1517 0.9767 0.1517
vn 0.2774 -0.6889 0.6697
vn 0.5126 -0.6889 0.5126
vn 0.2774 0.6889 0.6697
vn 0.0821 0.9767 0.1983
vn 0.0000 -0.6889 0.7249
vn 0.0821 -0.9767 0.1983
vn 0.0000 0.6889 0.7249
vn 0.0000 0.9767 0.2146
vn -0.0821 -0.9767 0.1983
vn 0.0000 -0.9767 0.2146
vn -0.3525 0.3891 0.8511
vn -0.1440 0.9265 0.3477
vn -0.3525 -0.3891 0.8511
vn -0.1440 -0.9265 0.3477
vn -0.1517 -0.9767 0.1517
vn -0.6514 0.3890 0.6514
vn -0.2661 0.9265 0.2661
vn -0.8511 -0.3891 0.3525
vn -0.6514 -0.3890 0.6514
vn -0.3477 -0.9265 0.1440
vn -0.2661 -0.9265 0.2661
vn -0.8511 0.3891 0.3525
vn -0.3477 0.9265 0.1440
vn -0.1983 0.9767 0.0821
vn -0.7249 -0.6889 -0.0000
vn -0.1983 -0.9767 0.0821
vn -0.7249 0.6889 0.0000
vn -0.2146 0.9767 0.0000
vn -0.1983 -0.9767 -0.0821
vn -0.2146 -0.9767 -0.0000
vn -0.6697 0.6889 -0.2774
vn -0.1983 0.9767 -0.0821
vn -0.6697 -0.6889 -0.2774
vn -0.1517 -0.9767 -0.1517
vn -0.6514 0.3890 -0.6514
vn -0.1517 0.9767 -0.1517
vn -0.2661 0.9265 -0.2661
vn -0.2774 -0.6889 -0.6697
vn -0.5126 -0.6889 -0.5126
vn -0.3525 0.3891 -0.8511
vn -0.1440 0.9265 -0.3477
vn -0.0821 0.9767 -0.1983
vn -0.0821 -0.9767 -0.1983
vn 0.0000 0.9767 -0.2146
vn 0.0000 -1.0000 -0.0000
usemtl restaurant.092
s 1
f 95/1/1 2/2/2 92/3/3
f 17/4/4 20/5/5 14/6/6
f 23/7/7 26/8/8 20/5/5
f 29/9/9 32/10/10 26/8/8
f 35/11/11 38/12/12 32/10/10
f 41/13/13 44/14/14 38/12/12
f 47/15/15 50/16/16 44/14/14
f 53/17/17 56/18/18 50/16/16
f 59/19/19 62/20/20 56/18/18
f 65/21/21 68/22/22 62/20/20
f 71/23/23 74/24/24 68/22/22
f 77/25/25 80/26/26 74/24/24
f 83/27/27 86/28/28 80/26/26
f 89/29/29 92/3/3 86/28/28
f 11/30/30 14/6/6 8/31/31
f 97/32/32 64/33/33 58/34/34
f 5/35/35 8/31/31 2/2/2
f 8/31/31 3/36/36 2/2/2
f 3/37/36 7/38/37 1/39/38
f 11/30/30 6/40/39 12/41/40
f 6/42/41 10/43/42 12/44/43
f 14/6/6 9/45/44 8/31/31
f 9/46/45 13/47/46 7/38/37
f 17/4/4 12/41/40 18/48/47
f 12/44/43 16/49/48 18/50/49
f 14/6/6 21/51/50 15/52/51
f 21/53/52 13/47/46 15/54/53
f 17/4/4 24/55/54 23/7/7
f 24/56/55 16/49/48 22/57/56
f 20/5/5 27/58/57 21/51/50
f 27/59/57 19/60/58 21/53/52
f 23/7/7 30/61/59 29/9/9
f 30/62/60 22/57/56 28/63/61
f 32/10/10 27/58/57 26/8/8
f 27/59/57 31/64/62 25/65/63
f 35/11/11 30/61/59 36/66/64
f 30/62/60 34/67/65 36/68/64
f 38/12/12 33/69/66 32/10/10
f 33/70/66 37/71/67 31/64/62
f 41/13/13 36/66/64 42/72/68
f 36/68/64 40/73/69 42/74/68
f 38/12/12 45/75/70 39/76/71
f 45/77/70 37/71/67 39/78/71
f 41/13/13 48/79/72 47/15/15
f 48/80/72 40/73/69 46/81/73
f 44/14/14 51/82/74 45/75/70
f 51/83/74 43/84/75 45/77/70
f 47/15/15 54/85/76 53/17/17
f 54/86/76 46/81/73 52/87/77
f 56/18/18 51/82/74 50/16/16
f 51/83/74 55/88/78 49/89/79
f 59/19/19 54/85/76 60/90/80
f 54/86/76 58/91/34 60/92/81
f 62/20/20 57/93/82 56/18/18
f 57/94/83 61/95/84 55/88/78
f 65/21/21 60/90/80 66/96/85
f 60/92/81 64/97/33 66/98/86
f 62/20/20 69/99/87 63/100/88
f 69/101/89 61/95/84 63/102/90
f 65/21/21 72/103/91 71/23/23
f 72/104/92 64/97/33 70/105/93
f 68/22/22 75/106/94 69/99/87
f 75/107/94 67/108/95 69/101/89
f 71/23/23 78/109/96 77/25/25
f 78/110/96 70/105/93 76/111/97
f 80/26/26 75/106/94 74/24/24
f 75/107/94 79/112/98 73/113/99
f 83/27/27 78/109/96 84/114/100
f 78/110/96 82/115/101 84/116/100
f 86/28/28 81/117/102 80/26/26
f 81/118/102 85/119/103 79/112/98
f 89/29/29 84/114/100 90/120/104
f 84/116/100 88/121/105 90/122/106
f 86/28/28 93/123/107 87/124/108
f 93/125/107 85/119/103 87/126/108
f 89/29/29 96/127/109 95/1/1
f 96/128/110 88/121/105 94/129/111
f 92/3/3 3/36/36 93/123/107
f 3/37/36 91/130/112 93/125/107
f 95/1/1 6/40/39 5/35/35
f 6/42/41 94/129/111 4/131/113
f 102/132/114 37/133/67 43/134/75
f 88/135/105 100/136/32 101/137/32
f 82/138/101 99/139/32 100/136/32
f 99/140/32 70/141/93 98/142/32
f 98/142/32 64/143/33 97/144/32
f 94/145/111 88/146/105 101/147/32
f 16/148/48 100/136/32 22/149/56
f 22/149/56 99/139/32 28/150/61
f 99/140/32 34/151/65 28/152/61
f 98/142/32 40/153/69 34/151/65
f 97/32/32 52/154/77 46/155/73
f 10/156/42 4/157/113 101/147/32
f 19/158/58 104/159/114 105/160/114
f 104/161/114 31/162/62 103/163/114
f 13/164/46 105/160/114 106/165/114
f 7/166/37 13/167/46 106/168/114
f 103/163/114 37/169/67 102/170/114
f 85/171/103 105/160/114 79/172/98
f 79/172/98 104/159/114 73/173/99
f 104/161/114 67/174/95 73/175/99
f 103/163/114 61/176/84 67/174/95
f 102/132/114 49/177/79 55/178/78
f 91/179/112 1/180/38 106/168/114
f 4/157/113 94/145/111 101/147/32
f 16/181/48 10/156/42 101/147/32
f 40/182/69 97/32/32 46/155/73
f 52/154/77 97/32/32 58/34/34
f 49/177/79 102/132/114 43/134/75
f 61/183/84 102/132/114 55/178/78
f 85/184/103 91/179/112 106/168/114
f 1/180/38 7/166/37 106/168/114
f 95/1/1 5/35/35 2/2/2
f 17/4/4 23/7/7 20/5/5
f 23/7/7 29/9/9 26/8/8
f 29/9/9 35/11/11 32/10/10
f 35/11/11 41/13/13 38/12/12
f 41/13/13 47/15/15 44/14/14
f 47/15/15 53/17/17 50/16/16
f 53/17/17 59/19/19 56/18/18
f 59/19/19 65/21/21 62/20/20
f 65/21/21 71/23/23 68/22/22
f 71/23/23 77/25/25 74/24/24
f 77/25/25 83/27/27 80/26/26
f 83/27/27 89/29/29 86/28/28
f 89/29/29 95/1/1 92/3/3
f 11/30/30 17/4/4 14/6/6
f 5/35/35 11/30/30 8/31/31
f 8/31/31 9/45/44 3/36/36
f 3/37/36 9/46/45 7/38/37
f 11/30/30 5/35/35 6/40/39
f 6/42/41 4/131/113 10/43/42
f 14/6/6 15/52/51 9/45/44
f 9/46/45 15/54/53 13/47/46
f 17/4/4 11/30/30 12/41/40
f 12/44/43 10/43/42 16/49/48
f 14/6/6 20/5/5 21/51/50
f 21/53/52 19/60/58 13/47/46
f 17/4/4 18/48/47 24/55/54
f 24/56/55 18/50/49 16/49/48
f 20/5/5 26/8/8 27/58/57
f 27/59/57 25/65/63 19/60/58
f 23/7/7 24/55/54 30/61/59
f 30/62/60 24/56/55 22/57/56
f 32/10/10 33/69/66 27/58/57
f 27/59/57 33/70/66 31/64/62
f 35/11/11 29/9/9 30/61/59
f 30/62/60 28/63/61 34/67/65
f 38/12/12 39/76/71 33/69/66
f 33/70/66 39/78/71 37/71/67
f 41/13/13 35/11/11 36/66/64
f 36/68/64 34/67/65 40/73/69
f 38/12/12 44/14/14 45/75/70
f 45/77/70 43/84/75 37/71/67
f 41/13/13 42/72/68 48/79/72
f 48/80/72 42/74/68 40/73/69
f 44/14/14 50/16/16 51/82/74
f 51/83/74 49/89/79 43/84/75
f 47/15/15 48/79/72 54/85/76
f 54/86/76 48/80/72 46/81/73
f 56/18/18 57/93/82 51/82/74
f 51/83/74 57/94/83 55/88/78
f 59/19/19 53/17/17 54/85/76
f 54/86/76 52/87/77 58/91/34
f 62/20/20 63/100/88 57/93/82
f 57/94/83 63/102/90 61/95/84
f 65/21/21 59/19/19 60/90/80
f 60/92/81 58/91/34 64/97/33
f 62/20/20 68/22/22 69/99/87
f 69/101/89 67/108/95 61/95/84
f 65/21/21 66/96/85 72/103/91
f 72/104/92 66/98/86 64/97/33
f 68/22/22 74/24/24 75/106/94
f 75/107/94 73/113/99 67/108/95
f 71/23/23 72/103/91 78/109/96
f 78/110/96 72/104/92 70/105/93
f 80/26/26 81/117/102 75/106/94
f 75/107/94 81/118/102 79/112/98
f 83/27/27 77/25/25 78/109/96
f 78/110/96 76/111/97 82/115/101
f 86/28/28 87/124/108 81/117/102
f 81/118/102 87/126/108 85/119/103
f 89/29/29 83/27/27 84/114/100
f 84/116/100 82/115/101 88/121/105
f 86/28/28 92/3/3 93/123/107
f 93/125/107 91/130/112 85/119/103
f 89/29/29 90/120/104 96/127/109
f 96/128/110 90/122/106 88/121/105
f 92/3/3 2/2/2 3/36/36
f 3/37/36 1/39/38 91/130/112
f 95/1/1 96/127/109 6/40/39
f 6/42/41 96/128/110 94/129/111
f 88/135/105 82/138/101 100/136/32
f 82/138/101 76/185/97 99/139/32
f 99/140/32 76/186/97 70/141/93
f 98/142/32 70/141/93 64/143/33
f 16/148/48 101/137/32 100/136/32
f 22/149/56 100/136/32 99/139/32
f 99/140/32 98/142/32 34/151/65
f 98/142/32 97/144/32 40/153/69
f 19/158/58 25/187/63 104/159/114
f 104/161/114 25/188/63 31/162/62
f 13/164/46 19/158/58 105/160/114
f 103/163/114 31/162/62 37/169/67
f 85/171/103 106/165/114 105/160/114
f 79/172/98 105/160/114 104/159/114
f 104/161/114 103/163/114 67/174/95
f 103/163/114 102/170/114 61/176/84
