# Blender v3.4.1 OBJ File: 'restaurant.blend'
# www.blender.org
mtllib food_ingredient_lettuce_slice_Cube_005.mtl
o food_ingredient_lettuce_slice_Cube.005
v 0.000369 0.054091 -0.304705
v 0.000369 0.054091 0.305445
v 0.305442 0.054091 0.000370
v 0.000413 -0.014391 0.245330
v -0.304709 0.054091 0.000370
v 0.000413 -0.014391 -0.244503
v -0.244506 -0.014391 0.000413
v 0.245326 -0.014391 0.000413
v 0.295680 -0.022759 -0.127950
v 0.128535 -0.022804 -0.294840
v -0.294841 -0.022804 0.128537
v -0.127951 -0.022759 0.295682
v 0.128831 -0.022746 0.295691
v 0.295689 -0.022746 0.128834
v -0.321036 0.025440 -0.151577
v -0.151580 0.025440 -0.321034
v -0.132234 0.054046 -0.270057
v -0.270060 0.054046 -0.132231
v -0.127677 -0.022813 -0.294830
v -0.294832 -0.022813 -0.127674
v 0.322563 0.024228 0.151500
v 0.151497 0.024228 0.322566
v 0.131246 0.054206 0.270634
v 0.270631 0.054206 0.131249
v -0.150584 0.024264 0.322616
v -0.322098 0.024426 0.150483
v -0.269869 0.054217 0.131098
v -0.130487 0.054208 0.270630
v 0.150481 0.024427 -0.322097
v 0.322614 0.024264 -0.150583
v 0.270627 0.054208 -0.130484
v 0.131096 0.054217 -0.269866
v -0.057309 0.008685 0.403920
v 0.058408 0.008679 0.403859
v -0.402979 0.009063 -0.057270
v -0.402704 0.008809 0.058334
v 0.403860 0.008679 0.058407
v 0.403919 0.008685 -0.057309
v 0.058334 0.008809 -0.402704
v -0.057269 0.009062 -0.402980
v -0.055671 -0.033956 -0.369888
v 0.056831 -0.033938 -0.369800
v 0.371101 -0.033954 -0.055652
v 0.371020 -0.033935 0.056815
v 0.056816 -0.033935 0.371020
v -0.055652 -0.033954 0.371101
v -0.369801 -0.033938 0.056831
v -0.369887 -0.033956 -0.055672
v 0.198372 -0.022791 -0.295779
v 0.291191 -0.022766 -0.210575
v -0.210576 -0.022766 0.291192
v -0.295780 -0.022791 0.198373
v 0.291640 -0.022806 0.200443
v 0.200442 -0.022806 0.291642
v -0.241687 0.026455 -0.323834
v -0.323836 0.026455 -0.241685
v -0.295732 -0.022753 -0.209373
v -0.209375 -0.022753 -0.295729
v 0.233819 0.024361 0.320116
v 0.320113 0.024361 0.233821
v -0.324679 0.024474 0.232060
v -0.243613 0.024401 0.319779
v 0.319778 0.024401 -0.243612
v 0.232059 0.024474 -0.324677
vt 0.029436 0.419982
vt 0.040626 0.419973
vt 0.031684 0.419973
vt 0.049229 0.419982
vt 0.066763 0.420006
vt 0.069021 0.419982
vt 0.049229 0.419982
vt 0.039371 0.363002
vt 0.040626 0.394520
vt 0.068516 0.274054
vt 0.064857 0.278198
vt 0.073188 0.276427
vt 0.084014 0.276427
vt 0.070135 0.362752
vt 0.066763 0.394554
vt 0.040838 0.274054
vt 0.048967 0.278198
vt 0.045701 0.276414
vt 0.061218 0.274050
vt 0.064857 0.278198
vt 0.056546 0.276413
vt 0.045701 0.276413
vt 0.056529 0.276424
vt 0.039435 0.362752
vt 0.040739 0.394554
vt 0.040739 0.420007
vt 0.058968 0.362787
vt 0.052989 0.384928
vt 0.066763 0.420007
vt 0.057710 0.420008
vt 0.088906 0.274051
vt 0.080746 0.278198
vt 0.084013 0.276424
vt 0.028307 0.362787
vt 0.031696 0.394556
vt 0.073281 0.324955
vt 0.075410 0.359449
vt 0.070132 0.362744
vt 0.073276 0.324959
vt 0.075407 0.359448
vt 0.025213 0.324959
vt 0.023078 0.359475
vt 0.052892 0.324959
vt 0.052989 0.359475
vt 0.073169 0.276414
vt 0.083722 0.276422
vt 0.028376 0.363002
vt 0.025207 0.324955
vt 0.023060 0.359529
vt 0.059034 0.362744
vt 0.057720 0.394554
vt 0.031684 0.394520
vt 0.045593 0.324955
vt 0.045489 0.359529
vt 0.052891 0.324959
vt 0.052994 0.359448
vt 0.062209 0.327319
vt 0.057563 0.327332
vt 0.033400 0.388234
vt 0.039435 0.388205
vt 0.068097 0.327327
vt 0.068388 0.327329
vt 0.051168 0.276422
vt 0.077834 0.276414
vt 0.075407 0.384900
vt 0.068517 0.274054
vt 0.061219 0.274051
vt 0.040832 0.274050
vt 0.028307 0.388239
vt 0.028140 0.388249
vt 0.031696 0.420008
vt 0.030015 0.327322
vt 0.030076 0.327319
vt 0.035543 0.327327
vt 0.040904 0.327329
vt 0.070135 0.388205
vt 0.069951 0.388234
vt 0.028195 0.388669
vt 0.028376 0.388454
vt 0.069973 0.388225
vt 0.070132 0.388197
vt 0.045643 0.276426
vt 0.059034 0.388197
vt 0.064375 0.388225
vt 0.057720 0.420006
vt 0.068126 0.327319
vt 0.068389 0.327332
vt 0.062075 0.327322
vt 0.057544 0.327319
vt 0.064260 0.388250
vt 0.058968 0.388239
vt 0.039371 0.388454
vt 0.033524 0.388669
vt 0.088901 0.274054
vt 0.030018 0.327331
vt 0.030076 0.327318
vt 0.035621 0.327331
vt 0.040921 0.327318
vt 0.045487 0.384902
vt 0.052994 0.384900
vt 0.023060 0.384981
vt 0.023078 0.384928
vt 0.075410 0.384902
vt 0.045489 0.384981
vt 0.045593 0.299502
vt 0.052989 0.334023
vt 0.052892 0.299506
vt 0.075407 0.333995
vt 0.073281 0.299503
vt 0.075410 0.333997
vt 0.052994 0.333995
vt 0.045594 0.299503
vt 0.052891 0.299507
vt 0.025207 0.299503
vt 0.023078 0.334023
vt 0.023060 0.334076
vt 0.069973 0.337320
vt 0.062209 0.301867
vt 0.068126 0.301867
vt 0.028195 0.337765
vt 0.035621 0.301878
vt 0.030018 0.301878
vt 0.035543 0.301875
vt 0.028140 0.337344
vt 0.030015 0.301870
vt 0.068097 0.301875
vt 0.064260 0.337345
vt 0.069951 0.337329
vt 0.045594 0.324955
vt 0.045487 0.359449
vt 0.057710 0.394556
vt 0.077700 0.276417
vt 0.064375 0.362773
vt 0.069951 0.362781
vt 0.045640 0.276417
vt 0.083751 0.276414
vt 0.066763 0.394554
vt 0.028140 0.362797
vt 0.033400 0.362781
vt 0.051246 0.276426
vt 0.069973 0.362773
vt 0.064260 0.362797
vt 0.028195 0.363217
vt 0.033524 0.363217
vt 0.045489 0.334076
vt 0.073276 0.299507
vt 0.045487 0.333997
vt 0.025213 0.299506
vt 0.064375 0.337320
vt 0.033524 0.337765
vt 0.033400 0.337329
vt 0.062075 0.301870
vn -0.2313 0.9729 0.0013
vn -0.0630 0.9740 -0.2177
vn -0.2177 0.9740 -0.0630
vn 0.0000 0.9727 0.2322
vn 0.2239 0.9719 0.0731
vn 0.2322 0.9727 0.0000
vn 0.0013 0.9729 -0.2313
vn -0.0520 0.8907 -0.4517
vn -0.0024 -0.9883 -0.1526
vn 0.0000 -0.9972 -0.0753
vn -0.0254 -0.9972 -0.0702
vn -0.0702 -0.9972 -0.0254
vn 0.4517 0.8890 -0.0743
vn 0.2235 0.9722 -0.0697
vn 0.1530 -0.9882 -0.0026
vn 0.0756 -0.9971 0.0001
vn 0.0693 -0.9973 -0.0250
vn 0.0027 -0.9882 0.1530
vn 0.0001 -0.9971 0.0756
vn 0.0250 -0.9973 0.0691
vn 0.0691 -0.9973 0.0250
vn 0.0254 -0.9972 -0.0700
vn -0.0743 0.8890 0.4518
vn -0.0697 0.9722 0.2235
vn 0.0587 0.8888 -0.4546
vn 0.0814 0.9222 -0.3780
vn 0.0682 0.9730 -0.2206
vn -0.1526 -0.9883 0.0025
vn -0.0753 -0.9972 0.0000
vn -0.0700 -0.9972 0.0254
vn -0.4546 0.8888 0.0587
vn -0.2206 0.9730 0.0682
vn 0.7203 -0.5950 -0.3565
vn 0.7608 -0.5712 -0.3080
vn 0.7510 -0.5896 -0.2971
vn 0.7607 -0.5714 0.3080
vn 0.7197 -0.5950 0.3578
vn 0.7509 -0.5896 0.2976
vn -0.7203 -0.5934 0.3592
vn -0.7779 -0.5637 0.2778
vn -0.7514 -0.5887 0.2981
vn 0.2778 -0.5637 -0.7779
vn 0.3592 -0.5934 -0.7203
vn 0.2981 -0.5888 -0.7513
vn -0.0250 -0.9973 0.0693
vn 0.0002 -1.0000 0.0001
vn -0.7902 -0.5493 -0.2720
vn -0.7207 -0.5939 -0.3575
vn -0.7511 -0.5889 -0.2984
vn 0.0741 0.8888 0.4523
vn 0.0731 0.9719 0.2239
vn -0.4517 0.8907 -0.0520
vn -0.3575 -0.5939 -0.7207
vn -0.2720 -0.5493 -0.7902
vn -0.2984 -0.5889 -0.7511
vn 0.3578 -0.5949 0.7197
vn 0.3080 -0.5714 0.7606
vn 0.2976 -0.5896 0.7509
vn 0.2500 -0.6179 0.7455
vn 0.3995 -0.5928 0.6992
vn -0.1495 0.9575 0.2469
vn 0.7367 -0.6231 -0.2627
vn 0.6999 -0.5927 -0.3985
vn 0.0001 -1.0000 0.0002
vn -0.0009 -1.0000 -0.0009
vn 0.4523 0.8888 0.0741
vn 0.3779 0.9223 0.0808
vn -0.0026 -0.9882 0.1530
vn 0.0025 -0.9883 -0.1526
vn 0.1530 -0.9882 0.0027
vn -0.2632 0.9548 0.1384
vn -0.7686 -0.6071 0.2018
vn -0.7138 -0.5884 0.3798
vn -0.3080 -0.5712 0.7608
vn -0.2627 -0.6231 0.7367
vn -0.3985 -0.5927 0.6999
vn 0.2468 0.9575 -0.1495
vn -0.2349 0.9636 -0.1275
vn 0.2601 0.9535 0.1519
vn -0.0007 -1.0000 -0.0007
vn 0.1519 0.9535 0.2601
vn 0.7455 -0.6179 0.2500
vn 0.6993 -0.5928 0.3995
vn 0.2018 -0.6071 -0.7686
vn 0.3798 -0.5884 -0.7138
vn 0.1384 0.9548 -0.2632
vn -0.1275 0.9636 -0.2349
vn -0.1526 -0.9883 -0.0024
vn -0.7762 -0.5878 -0.2279
vn -0.7156 -0.5808 -0.3880
vn -0.2279 -0.5878 -0.7762
vn -0.3880 -0.5808 -0.7156
vn -0.0803 0.9222 0.3782
vn 0.0808 0.9223 0.3779
vn -0.3783 0.9226 -0.0757
vn -0.3780 0.9222 0.0814
vn 0.3782 0.9222 -0.0803
vn -0.0757 0.9226 -0.3783
vn -0.3565 -0.5950 0.7203
vn 0.6777 -0.6510 0.3418
vn -0.7053 -0.6239 -0.3367
vn -0.6953 -0.6471 0.3128
vn 0.3128 -0.6471 -0.6953
vn 0.6693 -0.6534 -0.3537
vn -0.2971 -0.5896 0.7510
vn 0.3418 -0.6510 0.6777
vn -0.3537 -0.6534 0.6693
vn -0.3367 -0.6239 -0.7053
usemtl restaurant.129
s 1
f 5/1/1 17/2/2 18/3/3
f 2/4/4 24/5/5 3/6/6
f 1/7/7 16/8/8 17/9/2
f 45/10/9 4/11/10 13/12/11
f 4/11/10 14/13/12 13/12/11
f 3/6/6 30/14/13 31/15/14
f 47/16/15 7/17/16 11/18/17
f 41/19/18 6/20/19 19/21/20
f 19/21/20 7/17/16 20/22/21
f 7/17/16 12/23/22 11/18/17
f 25/24/23 2/4/4 28/25/24
f 5/1/1 28/26/24 2/4/4
f 1/7/7 29/27/25 39/28/26
f 1/7/7 31/29/14 32/30/27
f 43/31/28 8/32/29 9/33/30
f 5/1/1 26/34/31 27/35/32
f 43/36/33 30/14/34 38/37/35
f 21/38/36 44/39/37 37/40/38
f 47/41/39 26/34/40 36/42/41
f 1/7/7 2/4/4 3/6/6
f 29/27/42 42/43/43 39/44/44
f 10/45/45 50/46/46 9/33/30
f 15/47/47 48/48/48 35/49/49
f 2/4/4 22/50/50 23/51/51
f 15/47/52 5/1/1 18/52/3
f 9/33/30 6/20/19 10/45/45
f 7/17/16 8/32/29 4/11/10
f 41/53/53 16/8/54 40/54/55
f 45/55/56 22/50/57 34/56/58
f 54/57/59 22/50/57 13/58/60
f 28/26/24 62/59/61 25/60/23
f 50/61/62 30/14/34 9/62/63
f 51/63/64 11/18/17 12/23/22
f 14/13/12 54/64/65 13/12/11
f 3/6/6 21/38/66 37/65/67
f 10/45/45 6/20/19 42/66/68
f 12/23/22 4/11/10 46/67/69
f 20/22/21 7/17/16 48/68/70
f 26/69/31 61/70/71 27/71/32
f 52/72/72 26/34/40 11/73/73
f 25/24/74 51/74/75 12/75/76
f 30/76/13 63/77/77 31/29/14
f 18/3/3 56/78/78 15/79/52
f 24/5/5 60/80/79 21/81/66
f 57/82/80 19/21/20 20/22/21
f 22/83/50 59/84/81 23/85/51
f 21/38/36 53/86/82 14/87/83
f 29/27/42 49/88/84 10/89/85
f 32/30/27 64/90/86 29/91/25
f 16/92/8 55/93/87 17/2/2
f 14/13/12 8/32/29 44/94/88
f 15/47/47 57/95/89 20/96/90
f 58/97/91 16/8/54 19/98/92
f 33/99/93 34/100/94 2/4/4
f 35/101/95 36/102/96 5/1/1
f 37/65/67 38/103/97 3/6/6
f 39/28/26 40/104/98 1/7/7
f 41/19/18 42/66/68 6/20/19
f 43/31/28 44/94/88 8/32/29
f 45/10/9 46/67/69 4/11/10
f 47/16/15 48/68/70 7/17/16
f 56/78/78 17/2/2 55/93/87
f 59/84/81 24/5/5 23/85/51
f 62/59/61 27/71/32 61/70/71
f 63/77/77 32/30/27 31/29/14
f 41/105/53 39/106/44 42/107/43
f 37/108/38 43/109/33 38/110/35
f 34/111/58 46/112/99 45/113/56
f 48/114/48 36/115/41 35/116/49
f 60/117/100 54/118/59 53/119/82
f 56/120/101 58/121/91 57/122/89
f 51/123/75 61/124/102 52/125/72
f 50/126/62 64/127/103 63/128/104
f 25/24/74 46/129/99 33/130/105
f 5/1/1 1/7/7 17/2/2
f 2/4/4 23/85/51 24/5/5
f 1/7/7 40/104/98 16/8/8
f 4/11/10 8/32/29 14/13/12
f 3/6/6 38/103/97 30/14/13
f 19/21/20 6/20/19 7/17/16
f 7/17/16 4/11/10 12/23/22
f 25/24/23 33/99/93 2/4/4
f 5/1/1 27/71/32 28/26/24
f 1/7/7 32/131/27 29/27/25
f 1/7/7 3/6/6 31/29/14
f 5/1/1 36/102/96 26/34/31
f 43/36/33 9/62/63 30/14/34
f 21/38/36 14/87/83 44/39/37
f 47/41/39 11/73/73 26/34/40
f 1/7/7 5/1/1 2/4/4
f 29/27/42 10/89/85 42/43/43
f 10/45/45 49/132/46 50/46/46
f 15/47/47 20/96/90 48/48/48
f 2/4/4 34/100/94 22/50/50
f 15/47/52 35/101/95 5/1/1
f 9/33/30 8/32/29 6/20/19
f 7/17/16 6/20/19 8/32/29
f 41/53/53 19/98/92 16/8/54
f 45/55/56 13/58/60 22/50/57
f 54/57/59 59/133/106 22/50/57
f 50/61/62 63/134/104 30/14/34
f 51/63/64 52/135/64 11/18/17
f 14/13/12 53/136/65 54/64/65
f 3/6/6 24/137/5 21/38/66
f 52/72/72 61/138/102 26/34/40
f 25/24/74 62/139/107 51/74/75
f 57/82/80 58/140/80 19/21/20
f 21/38/36 60/141/100 53/86/82
f 29/27/42 64/142/103 49/88/84
f 15/47/47 56/143/101 57/95/89
f 58/97/91 55/144/108 16/8/54
f 56/78/78 18/3/3 17/2/2
f 59/84/81 60/80/79 24/5/5
f 62/59/61 28/26/24 27/71/32
f 63/77/77 64/90/86 32/30/27
f 41/105/53 40/145/55 39/106/44
f 37/108/38 44/146/37 43/109/33
f 34/111/58 33/147/105 46/112/99
f 48/114/48 47/148/39 36/115/41
f 60/117/100 59/149/106 54/118/59
f 56/120/101 55/150/108 58/121/91
f 51/123/75 62/151/107 61/124/102
f 50/126/62 49/152/84 64/127/103
f 25/24/74 12/75/76 46/129/99
