# Blender v3.4.1 OBJ File: 'restaurant.blend'
# www.blender.org
mtllib fridge_A_door_top_Cube_617.mtl
o fridge_A_door_top_Cube.617
v -1.000000 1.574998 0.850000
v -0.956066 1.574998 0.956066
v -0.956066 1.521965 0.850000
v -1.000000 1.574998 0.582628
v -1.000000 2.250000 0.850000
v -0.956066 2.241261 0.956066
v -0.926777 2.426776 0.850000
v -1.000000 2.250000 0.582628
v -0.956066 2.241261 0.529595
v -0.926777 2.426776 0.582628
v -0.893151 2.393151 0.529595
v -0.750000 2.500000 0.582628
v -0.741261 2.456066 0.529595
v 0.750000 2.500000 0.582628
v -0.750000 2.500000 0.850000
v -0.741261 2.456066 0.956066
v 0.750000 2.500000 0.850000
v 0.741261 2.456066 0.956066
v 0.926777 2.426776 0.850000
v 0.893151 2.393151 0.956066
v 1.000000 2.250000 0.850000
v 0.926777 2.426776 0.582628
v 0.893151 2.393151 0.529595
v 1.000000 2.250000 0.582628
v 0.956066 2.241261 0.529595
v 1.000000 1.574998 0.582628
v 0.956066 1.574998 0.529595
v 0.956066 1.521965 0.582628
v 1.000000 1.574998 0.850000
v 0.956066 1.521965 0.850000
v 0.956066 1.574998 0.956066
v 0.850000 1.574998 1.000000
v 0.936603 1.531696 0.936603
v 0.956066 2.241261 0.956066
v 0.794045 2.294044 1.000000
v -0.794045 2.294044 1.000000
v -0.850000 1.574998 1.000000
v -0.893151 2.393151 0.956066
v -0.850000 1.521965 0.956066
v -0.850000 1.499998 0.850000
v -0.936603 1.531696 0.936603
v 0.850000 1.521965 0.956066
v 0.850000 1.499998 0.850000
v 0.850000 1.499998 0.582628
v 0.850000 1.521965 0.529595
v -0.850000 1.499998 0.582628
v -0.850000 1.521965 0.529595
v -0.956066 1.521965 0.582628
v -0.936603 1.531696 0.539327
v -0.956066 1.574998 0.529595
v -0.850000 1.574998 0.500000
v 0.850000 1.574998 0.500000
v -0.794045 2.294044 0.500000
v 0.794045 2.294044 0.500000
v 0.741261 2.456066 0.529595
v 0.936603 1.531696 0.539327
v -0.790051 1.862950 1.031595
v -0.754493 1.862950 1.057833
v -0.754493 1.898508 1.031595
v -0.535622 1.862950 1.057833
v -0.500064 1.862950 1.031595
v -0.535622 1.898508 1.031595
v -0.814190 1.874081 0.987979
v -0.775129 1.913142 0.987979
v -0.514986 1.913142 0.987979
v -0.475925 1.874080 0.987979
v -0.790051 1.637023 1.031595
v -0.754493 1.601466 1.031595
v -0.754493 1.637023 1.057833
v -0.500064 1.637023 1.031595
v -0.535622 1.637023 1.057833
v -0.535622 1.601466 1.031595
v -0.775129 1.586832 0.987979
v -0.814190 1.625893 0.987979
v -0.475925 1.625893 0.987979
v -0.514986 1.586832 0.987979
v -0.698153 1.671763 1.210430
v -0.698153 1.701365 1.240033
v -0.727755 1.701365 1.210430
v -0.727755 1.798651 1.210430
v -0.698153 1.798651 1.240033
v -0.698153 1.828254 1.210430
v -0.728624 1.700626 1.049287
v -0.698892 1.670894 1.049287
v -0.698892 1.829122 1.049287
v -0.728624 1.799390 1.049287
v -0.600128 1.670894 1.049287
v -0.570396 1.700626 1.049287
v -0.600128 1.829122 1.049287
v -0.570396 1.799390 1.049287
v -0.566434 1.698425 1.100456
v -0.601846 1.670373 1.115024
v -0.566434 1.801591 1.100456
v -0.601846 1.829643 1.115024
v -0.295812 1.796605 1.162659
v -0.277264 1.777401 1.162520
v -0.295976 1.777174 1.143206
v -0.295795 1.796500 1.198657
v -0.296065 1.776953 1.217992
v -0.277264 1.777401 1.198555
v -0.296065 1.723063 1.217992
v -0.295795 1.703516 1.198657
v -0.277264 1.722615 1.198555
v -0.295812 1.703411 1.162659
v -0.295976 1.722842 1.143206
v -0.277264 1.722615 1.162520
v 0.000000 1.933516 1.040231
v 0.154084 2.052705 1.040231
v -0.154084 2.052705 1.040231
v 0.000000 2.015204 1.040231
v 0.209906 2.089140 0.986899
v 0.000000 1.898986 0.986899
v 0.000000 2.038053 0.986899
v -0.209906 2.089140 0.986899
vt 0.283643 0.700797
vt 0.282521 0.650736
vt 0.283643 0.650736
vt 0.282521 0.637099
vt 0.284140 0.635618
vt 0.283643 0.637099
vt 0.282521 0.650736
vt 0.283643 0.648922
vt 0.282521 0.714733
vt 0.282521 0.664372
vt 0.282521 0.664372
vt 0.285250 0.719629
vt 0.283643 0.714434
vt 0.284391 0.734416
vt 0.282521 0.728369
vt 0.284391 0.734416
vt 0.283643 0.687161
vt 0.282521 0.637099
vt 0.282521 0.687460
vt 0.285250 0.705993
vt 0.282521 0.701096
vt 0.284391 0.707143
vt 0.288906 0.709647
vt 0.289129 0.708145
vt 0.288906 0.736920
vt 0.288906 0.736920
vt 0.327214 0.709647
vt 0.326991 0.708145
vt 0.327214 0.736920
vt 0.327214 0.736920
vt 0.326991 0.721781
vt 0.288906 0.723284
vt 0.289129 0.721781
vt 0.284391 0.720779
vt 0.330870 0.719629
vt 0.327214 0.723284
vt 0.331728 0.734416
vt 0.333599 0.714733
vt 0.331728 0.720779
vt 0.331728 0.734416
vt 0.333599 0.728369
vt 0.330870 0.705993
vt 0.333599 0.701096
vt 0.332477 0.700797
vt 0.331728 0.707143
vt 0.333599 0.637099
vt 0.332477 0.687161
vt 0.333599 0.687460
vt 0.333599 0.714733
vt 0.333599 0.664372
vt 0.333599 0.664372
vt 0.332477 0.621649
vt 0.332477 0.623463
vt 0.333599 0.623463
vt 0.333599 0.650736
vt 0.332477 0.648922
vt 0.333599 0.650736
vt 0.333599 0.637099
vt 0.331979 0.635618
vt 0.332477 0.635285
vt 0.332477 0.700797
vt 0.332477 0.650736
vt 0.329768 0.650736
vt 0.329768 0.637099
vt 0.332477 0.637099
vt 0.328339 0.716239
vt 0.332477 0.714434
vt 0.328339 0.702603
vt 0.286352 0.650736
vt 0.287781 0.716239
vt 0.286352 0.637099
vt 0.329768 0.635285
vt 0.286352 0.635285
vt 0.329768 0.634534
vt 0.286352 0.634534
vt 0.283643 0.635285
vt 0.332477 0.648922
vt 0.329768 0.648170
vt 0.286352 0.648170
vt 0.329768 0.648170
vt 0.286352 0.648170
vt 0.329768 0.620897
vt 0.331979 0.621981
vt 0.329768 0.621649
vt 0.286352 0.620897
vt 0.286352 0.621649
vt 0.284140 0.621981
vt 0.283643 0.648922
vt 0.283643 0.623463
vt 0.283643 0.621649
vt 0.282521 0.623463
vt 0.286352 0.623463
vt 0.286352 0.637099
vt 0.287781 0.688966
vt 0.329768 0.623463
vt 0.329768 0.637099
vt 0.287781 0.702603
vt 0.283643 0.700797
vt 0.328339 0.702603
vt 0.328339 0.688966
vt 0.416757 0.890097
vt 0.411167 0.915212
vt 0.411167 0.890097
vt 0.418282 0.932075
vt 0.417665 0.874472
vt 0.418282 0.873235
vt 0.416757 0.950415
vt 0.410640 0.952042
vt 0.411167 0.950415
vt 0.417284 0.837643
vt 0.411167 0.839270
vt 0.410640 0.837643
vt 0.410259 0.930837
vt 0.411167 0.930837
vt 0.411167 0.934790
vt 0.416757 0.930837
vt 0.417665 0.930837
vt 0.416757 0.934790
vt 0.410259 0.858847
vt 0.411167 0.854895
vt 0.411167 0.858847
vt 0.417665 0.858847
vt 0.416757 0.858847
vt 0.416757 0.854895
vt 0.410259 0.946462
vt 0.409643 0.947700
vt 0.417665 0.946462
vt 0.417284 0.952042
vt 0.410259 0.843222
vt 0.417665 0.843222
vt 0.418282 0.841985
vt 0.410259 0.890097
vt 0.410259 0.915212
vt 0.417665 0.915212
vt 0.417665 0.890097
vt 0.409643 0.873235
vt 0.409643 0.932075
vt 0.415066 0.878180
vt 0.412587 0.878238
vt 0.415110 0.878238
vt 0.411828 0.912793
vt 0.411850 0.923690
vt 0.411828 0.923772
vt 0.415970 0.881298
vt 0.422882 0.881852
vt 0.422882 0.881864
vt 0.412606 0.881625
vt 0.412606 0.878334
vt 0.415066 0.942760
vt 0.422882 0.939076
vt 0.422882 0.939087
vt 0.415970 0.912548
vt 0.422877 0.921302
vt 0.422877 0.915262
vt 0.423355 0.921327
vt 0.423355 0.915237
vt 0.423355 0.915237
vt 0.415869 0.923772
vt 0.415869 0.912793
vt 0.411850 0.881625
vt 0.411850 0.939315
vt 0.412606 0.939315
vt 0.412606 0.942605
vt 0.412587 0.942702
vt 0.415110 0.942702
vt 0.423355 0.936952
vt 0.422877 0.936927
vt 0.422875 0.936903
vt 0.423355 0.936952
vt 0.422875 0.884037
vt 0.423355 0.883987
vt 0.422877 0.884012
vt 0.423355 0.883987
vt 0.412606 0.923690
vt 0.411850 0.912875
vt 0.412606 0.912875
vt 0.415970 0.939641
vt 0.415869 0.939397
vt 0.422875 0.915287
vt 0.423355 0.921327
vt 0.422875 0.921278
vt 0.430436 0.938682
vt 0.434371 0.954198
vt 0.430436 0.950030
vt 0.426501 0.954198
vt 0.426501 0.922948
vt 0.430436 0.903593
vt 0.430436 0.907432
vt 0.434371 0.922948
vt 0.430436 0.919052
vt 0.430436 0.918780
vt 0.282521 0.701096
vt 0.282521 0.714733
vt 0.282521 0.728369
vt 0.283643 0.637099
vt 0.333599 0.728369
vt 0.332477 0.637099
vt 0.333599 0.701096
vt 0.287781 0.702603
vt 0.416757 0.915212
vt 0.416757 0.839270
vt 0.418282 0.947700
vt 0.409643 0.841985
vt 0.410259 0.874472
vt 0.415970 0.924016
vt 0.415869 0.881543
vt 0.411828 0.939397
vt 0.411828 0.881543
vt 0.425075 0.924731
vt 0.435797 0.924731
vn -0.6830 0.1338 0.7180
vn -0.9334 -0.3156 0.1705
vn -0.6823 -0.2626 0.6823
vn -0.4616 -0.7575 0.4616
vn -0.9001 -0.3081 -0.3081
vn -0.5234 -0.8458 0.1037
vn -0.9622 0.1914 0.1938
vn -0.5049 0.5049 0.7002
vn -0.6672 0.6672 -0.3312
vn -0.6929 0.6929 0.1994
vn -0.5289 0.1038 -0.8423
vn -0.9257 0.1841 -0.3305
vn -0.3916 0.3916 -0.8327
vn -0.1841 0.9257 -0.3305
vn -0.0997 0.5260 -0.8446
vn -0.1914 0.9622 0.1938
vn 0.1841 0.9257 -0.3305
vn 0.0997 0.5260 -0.8446
vn 0.1914 0.9622 0.1938
vn 0.1277 0.6797 0.7223
vn -0.1277 0.6797 0.7223
vn 0.5049 0.5049 0.7002
vn 0.6672 0.6672 -0.3312
vn 0.9622 0.1914 0.1938
vn 0.6929 0.6929 0.1994
vn 0.9257 0.1841 -0.3305
vn 0.3916 0.3916 -0.8327
vn 0.5289 0.1038 -0.8423
vn 0.9001 -0.3081 -0.3081
vn 0.9334 -0.3156 0.1705
vn 0.5325 -0.8179 -0.2178
vn 0.5575 -0.2208 -0.8003
vn 0.4616 -0.7575 0.4616
vn 0.5234 -0.8458 0.1037
vn 0.6830 0.1338 0.7180
vn 0.6823 -0.2626 0.6823
vn 0.1706 -0.3148 0.9337
vn 0.1246 0.1306 0.9836
vn -0.1706 -0.3148 0.9337
vn -0.1246 0.1306 0.9836
vn 0.1037 -0.8458 0.5234
vn -0.1037 -0.8458 0.5234
vn 0.0953 -0.9909 0.0953
vn -0.0953 -0.9909 0.0953
vn 0.0920 -0.9782 -0.1861
vn -0.0920 -0.9782 -0.1861
vn 0.4167 -0.6574 -0.6278
vn 0.0773 -0.7442 -0.6635
vn -0.0773 -0.7442 -0.6635
vn -0.4167 -0.6574 -0.6278
vn -0.5325 -0.8179 -0.2178
vn -0.5575 -0.2208 -0.8003
vn -0.1159 -0.2336 -0.9654
vn -0.0858 0.0899 -0.9923
vn 0.1159 -0.2336 -0.9654
vn 0.0858 0.0899 -0.9923
vn 0.2871 -0.2871 0.9139
vn -0.2871 0.2871 0.9139
vn -0.2871 -0.2871 0.9139
vn 0.7877 0.3301 0.5202
vn 0.7139 -0.2753 0.6439
vn 0.7877 -0.3302 0.5202
vn 0.2534 0.7622 0.5957
vn -0.3875 0.8030 0.4528
vn -0.2534 0.7622 0.5957
vn 0.3875 -0.8030 0.4528
vn -0.2534 -0.7622 0.5957
vn -0.3875 -0.8030 0.4528
vn -0.7139 0.2753 0.6439
vn 0.2871 0.2871 0.9139
vn 0.7139 0.2753 0.6439
vn -0.7139 -0.2753 0.6439
vn 0.2534 -0.7622 0.5957
vn -0.7877 0.3302 0.5202
vn 0.3875 0.8030 0.4528
vn -0.7877 -0.3302 0.5202
vn 0.1672 -0.9852 0.0381
vn -0.3858 -0.9226 0.0040
vn 0.3645 -0.9308 -0.0269
vn -0.9237 -0.3832 0.0067
vn -0.8746 0.3409 0.3447
vn -0.9237 0.3832 0.0067
vn 0.1841 -0.4122 -0.8923
vn 0.4180 -0.8511 -0.3177
vn 0.1855 -0.6270 -0.7566
vn 0.3930 -0.8527 0.3442
vn -0.3086 -0.3491 0.8848
vn -0.3127 -0.8792 0.3595
vn 0.1672 0.9852 0.0381
vn 0.3930 0.8527 0.3442
vn 0.4180 0.8511 -0.3177
vn 0.4300 0.3242 -0.8426
vn 0.4300 -0.3242 -0.8426
vn 0.8793 0.3363 -0.3371
vn 0.8792 -0.3367 0.3371
vn 0.8793 -0.3363 -0.3371
vn 0.9213 0.3789 -0.0876
vn 0.8892 -0.4544 -0.0532
vn 0.9213 -0.3789 -0.0876
vn -0.8746 -0.3409 0.3447
vn -0.3086 0.3491 0.8848
vn -0.3127 0.8792 0.3595
vn -0.3858 0.9226 0.0040
vn 0.3645 0.9308 -0.0269
vn 0.3797 0.3282 0.8649
vn 0.8792 0.3367 0.3371
vn 0.3797 -0.3282 0.8649
vn 0.1841 0.4122 -0.8923
vn 0.1855 0.6270 -0.7566
vn 0.8892 0.4544 -0.0531
vn 0.0000 0.0000 1.0000
vn -0.6489 -0.7276 0.2224
vn -0.5716 -0.7135 0.4051
vn -0.5446 -0.7040 0.4558
vn 0.5716 -0.7135 0.4051
vn 0.6489 -0.7276 0.2224
vn 0.5446 -0.7040 0.4558
vn 0.0000 0.9192 0.3938
vn 0.2183 0.8970 0.3843
vn -0.2183 0.8970 0.3843
vn -0.6588 -0.7272 0.1927
vn 0.6588 -0.7272 0.1927
usemtl restaurant.088
s 1
f 6/1/1 1/2/2 2/3/3
f 1/4/2 41/5/4 2/6/3
f 4/7/5 3/8/6 1/2/2
f 5/9/7 4/10/5 1/11/2
f 38/12/8 5/9/7 6/13/1
f 10/14/9 5/15/7 7/16/10
f 9/17/11 4/18/5 8/19/12
f 11/20/13 8/21/12 10/22/9
f 11/20/13 12/23/14 13/24/15
f 12/25/14 7/16/10 15/26/16
f 13/24/15 14/27/17 55/28/18
f 12/25/14 17/29/19 14/30/17
f 18/31/20 15/32/16 16/33/21
f 38/12/8 15/32/16 7/34/10
f 20/35/22 17/36/19 18/31/20
f 17/29/19 22/37/23 14/30/17
f 20/35/22 21/38/24 19/39/25
f 19/40/25 24/41/26 22/37/23
f 23/42/27 24/43/26 25/44/28
f 23/42/27 14/27/17 22/45/23
f 26/46/29 25/47/28 24/48/26
f 24/49/26 29/50/30 26/51/29
f 28/52/31 27/53/32 26/54/29
f 29/55/30 28/56/31 26/57/29
f 29/58/30 33/59/33 30/60/34
f 29/55/30 34/61/35 31/62/36
f 34/61/35 32/63/37 31/62/36
f 32/64/37 33/59/33 31/65/36
f 35/66/38 34/67/35 20/35/22
f 35/68/38 37/69/39 32/63/37
f 35/66/38 16/33/21 36/70/40
f 35/66/38 20/35/22 18/31/20
f 36/70/40 16/33/21 38/12/8
f 37/69/39 6/1/1 2/3/3
f 36/70/40 38/12/8 6/13/1
f 37/71/39 42/72/41 32/64/37
f 37/71/39 41/5/4 39/73/42
f 39/73/42 43/74/43 42/72/41
f 40/75/44 41/5/4 3/76/6
f 43/74/43 33/59/33 42/72/41
f 30/77/34 44/78/45 28/56/31
f 46/79/46 43/80/43 40/81/44
f 44/82/45 56/83/47 28/52/31
f 45/84/48 46/85/46 47/86/49
f 46/85/46 49/87/50 47/86/49
f 48/88/51 40/81/44 3/8/6
f 50/89/52 48/90/51 4/91/5
f 51/92/53 49/87/50 50/89/52
f 51/93/53 9/17/11 53/94/54
f 52/95/55 47/86/49 51/92/53
f 53/94/54 52/96/55 51/93/53
f 53/97/54 9/98/11 11/20/13
f 53/97/54 55/28/18 54/99/56
f 53/97/54 11/20/13 13/24/15
f 54/99/56 55/28/18 23/42/27
f 54/99/56 23/42/27 25/44/28
f 25/47/28 52/96/55 54/100/56
f 52/95/55 56/83/47 45/84/48
f 71/101/57 58/102/58 69/103/59
f 66/104/60 70/105/61 75/106/62
f 62/107/63 64/108/64 59/109/65
f 76/110/66 68/111/67 73/112/68
f 57/113/69 58/114/58 59/115/65
f 60/116/70 61/117/71 62/118/63
f 67/119/72 68/120/67 69/121/59
f 70/122/61 71/123/57 72/124/73
f 57/125/69 64/108/64 63/126/74
f 60/116/70 59/115/65 58/114/58
f 61/127/71 65/128/75 62/107/63
f 67/129/72 73/112/68 68/111/67
f 70/130/61 76/110/66 75/131/62
f 69/121/59 72/124/73 71/123/57
f 67/132/72 58/102/58 57/133/69
f 61/134/71 71/101/57 70/135/61
f 74/136/76 57/113/69 63/137/74
f 92/138/77 84/139/78 87/140/79
f 83/141/80 80/142/81 86/143/82
f 91/144/83 104/145/84 92/138/85
f 102/146/86 78/147/87 77/148/88
f 94/149/89 98/150/90 95/151/91
f 91/152/83 97/153/92 105/154/93
f 96/155/94 103/156/95 106/157/96
f 92/138/77 102/146/86 77/148/88
f 90/158/97 91/152/98 88/159/99
f 77/148/88 78/147/87 79/160/100
f 80/161/81 81/162/101 82/163/102
f 85/164/103 94/149/89 89/165/104
f 95/151/91 96/166/94 97/167/92
f 98/150/90 99/168/105 100/169/106
f 101/170/107 102/146/86 103/171/95
f 104/145/84 105/172/93 106/173/96
f 81/174/101 79/175/100 78/176/87
f 87/140/79 91/144/98 92/138/77
f 95/151/91 93/177/108 94/149/109
f 85/164/103 80/161/81 82/163/102
f 89/165/104 93/177/110 90/178/97
f 95/151/91 100/169/106 96/166/94
f 101/179/107 100/180/106 99/181/105
f 104/145/84 103/171/95 102/146/86
f 106/157/96 97/153/92 96/155/94
f 98/150/90 81/162/101 99/168/105
f 78/176/87 99/181/105 81/174/101
f 79/160/100 84/139/78 77/148/88
f 107/182/111 108/183/111 110/184/111
f 109/185/111 107/182/111 110/184/111
f 109/186/112 112/187/113 107/188/114
f 112/187/115 108/189/116 107/188/117
f 113/190/118 109/186/119 110/191/118
f 108/189/120 113/190/118 110/191/118
f 6/1/1 5/192/7 1/2/2
f 1/4/2 3/76/6 41/5/4
f 4/7/5 48/88/51 3/8/6
f 5/9/7 8/193/12 4/10/5
f 38/12/8 7/34/10 5/9/7
f 10/14/9 8/194/12 5/15/7
f 9/17/11 50/195/52 4/18/5
f 11/20/13 9/98/11 8/21/12
f 11/20/13 10/22/9 12/23/14
f 12/25/14 10/14/9 7/16/10
f 13/24/15 12/23/14 14/27/17
f 12/25/14 15/26/16 17/29/19
f 18/31/20 17/36/19 15/32/16
f 38/12/8 16/33/21 15/32/16
f 20/35/22 19/39/25 17/36/19
f 17/29/19 19/40/25 22/37/23
f 20/35/22 34/67/35 21/38/24
f 19/40/25 21/196/24 24/41/26
f 23/42/27 22/45/23 24/43/26
f 23/42/27 55/28/18 14/27/17
f 26/46/29 27/197/32 25/47/28
f 24/49/26 21/38/24 29/50/30
f 28/52/31 56/83/47 27/53/32
f 29/55/30 30/77/34 28/56/31
f 29/58/30 31/65/36 33/59/33
f 29/55/30 21/198/24 34/61/35
f 34/61/35 35/68/38 32/63/37
f 32/64/37 42/72/41 33/59/33
f 35/68/38 36/199/40 37/69/39
f 35/66/38 18/31/20 16/33/21
f 37/69/39 36/199/40 6/1/1
f 37/71/39 39/73/42 42/72/41
f 37/71/39 2/6/3 41/5/4
f 39/73/42 40/75/44 43/74/43
f 40/75/44 39/73/42 41/5/4
f 43/74/43 30/60/34 33/59/33
f 30/77/34 43/80/43 44/78/45
f 46/79/46 44/78/45 43/80/43
f 44/82/45 45/84/48 56/83/47
f 45/84/48 44/82/45 46/85/46
f 46/85/46 48/90/51 49/87/50
f 48/88/51 46/79/46 40/81/44
f 50/89/52 49/87/50 48/90/51
f 51/92/53 47/86/49 49/87/50
f 51/93/53 50/195/52 9/17/11
f 52/95/55 45/84/48 47/86/49
f 53/94/54 54/100/56 52/96/55
f 53/97/54 13/24/15 55/28/18
f 25/47/28 27/197/32 52/96/55
f 52/95/55 27/53/32 56/83/47
f 71/101/57 60/200/70 58/102/58
f 66/104/60 61/117/71 70/105/61
f 62/107/63 65/128/75 64/108/64
f 76/110/66 72/201/73 68/111/67
f 57/125/69 59/109/65 64/108/64
f 60/116/70 62/118/63 59/115/65
f 61/127/71 66/202/60 65/128/75
f 67/129/72 74/203/76 73/112/68
f 70/130/61 72/201/73 76/110/66
f 69/121/59 68/120/67 72/124/73
f 67/132/72 69/103/59 58/102/58
f 61/134/71 60/200/70 71/101/57
f 74/136/76 67/204/72 57/113/69
f 92/138/77 77/148/88 84/139/78
f 83/141/80 79/175/100 80/142/81
f 91/144/83 105/172/93 104/145/84
f 102/146/86 101/170/107 78/147/87
f 94/149/89 82/163/102 98/150/90
f 91/152/83 93/205/108 97/153/92
f 96/155/94 100/180/106 103/156/95
f 92/138/77 104/145/84 102/146/86
f 90/158/97 93/205/110 91/152/98
f 85/164/103 82/163/102 94/149/89
f 81/174/101 80/142/81 79/175/100
f 87/140/79 88/206/99 91/144/98
f 95/151/91 97/167/92 93/177/108
f 85/164/103 86/207/82 80/161/81
f 89/165/104 94/149/89 93/177/110
f 95/151/91 98/150/90 100/169/106
f 101/179/107 103/156/95 100/180/106
f 104/145/84 106/173/96 103/171/95
f 106/157/96 105/154/93 97/153/92
f 98/150/90 82/163/102 81/162/101
f 78/176/87 101/179/107 99/181/105
f 79/160/100 83/208/80 84/139/78
f 109/186/112 114/209/121 112/187/113
f 112/187/115 111/210/122 108/189/116
f 113/190/118 114/209/119 109/186/119
f 108/189/120 111/210/120 113/190/118
