# Blender v3.4.1 OBJ File: 'restaurant.blend'
# www.blender.org
mtllib fridge_A_Cube_616.mtl
o fridge_A_Cube.616
v -0.794045 0.205955 -1.000000
v -0.750000 0.000000 -0.850000
v -0.741261 0.043934 -0.956066
v -1.000000 0.250000 -0.850000
v -0.956066 0.258739 -0.956066
v -0.926777 0.073223 -0.850000
v -0.893151 0.106849 -0.956066
v 0.794045 0.205955 -1.000000
v 1.000000 0.250000 -0.850000
v 0.956066 0.258739 -0.956066
v 0.750000 0.000000 -0.850000
v 0.741261 0.043934 -0.956066
v 0.926777 0.073223 -0.850000
v 0.893151 0.106849 -0.956066
v -0.794045 2.294045 -1.000000
v -1.000000 2.250000 -0.850000
v -0.956066 2.241261 -0.956066
v -0.750000 2.500000 -0.850000
v -0.741261 2.456066 -0.956066
v -0.926777 2.426777 -0.850000
v -0.893151 2.393151 -0.956066
v 0.794045 2.294045 -1.000000
v 0.750000 2.500000 -0.850000
v 0.741261 2.456066 -0.956066
v 1.000000 2.250000 -0.850000
v 0.956066 2.241261 -0.956066
v 0.926777 2.426777 -0.850000
v 0.893151 2.393151 -0.956066
v -0.794045 0.205955 0.500000
v -1.000000 0.250000 0.432628
v -0.956066 0.258739 0.485661
v -0.750000 -0.000000 0.432628
v -0.741261 0.043934 0.485661
v -0.926777 0.073223 0.432628
v -0.893151 0.106849 0.485661
v 0.794045 0.205955 0.500000
v 0.750000 -0.000000 0.432628
v 0.741261 0.043934 0.485661
v 1.000000 0.250000 0.432628
v 0.956066 0.258739 0.485661
v 0.926777 0.073223 0.432628
v 0.893151 0.106849 0.485661
v -0.794045 2.294045 0.500000
v -0.750000 2.500000 0.432628
v -0.741261 2.456066 0.485661
v -1.000000 2.250000 0.432628
v -0.956066 2.241261 0.485661
v -0.926777 2.426777 0.432628
v -0.893151 2.393151 0.485661
v 0.794045 2.294045 0.500000
v 1.000000 2.250000 0.432628
v 0.956066 2.241261 0.485661
v 0.750000 2.500000 0.432628
v 0.741261 2.456066 0.485661
v 0.926777 2.426777 0.432628
v 0.893151 2.393151 0.485661
v -0.794045 1.500000 -1.000000
v 0.794045 1.500000 0.500000
v 0.794045 1.500000 -1.000000
v -1.000000 1.500000 -0.850000
v -0.956066 1.500000 -0.956066
v 1.000000 1.500000 -0.850000
v 0.956066 1.500000 -0.956066
v -0.956066 1.500000 0.485661
v -1.000000 1.500000 0.432628
v 0.956066 1.500000 0.485661
v 1.000000 1.500000 0.432628
v -0.794045 1.500000 0.500000
v -0.744045 1.450000 -0.892372
v -0.744045 1.550000 0.500000
v 0.744045 1.550000 0.500000
v 0.744045 1.450000 -0.892372
v 0.744045 2.244045 0.500000
v 0.744045 0.255955 -0.892372
v -0.744045 0.255955 -0.892372
v -0.744045 2.244045 0.500000
v -0.744045 2.244045 -0.892372
v -0.744045 0.255955 0.500000
v 0.744045 0.255955 0.500000
v 0.744045 2.244045 -0.892372
v 0.744045 1.450000 0.500000
v 0.744045 1.550000 -0.892372
v -0.744045 1.550000 -0.892372
v -0.744045 1.450000 0.500000
v -0.800000 0.900000 0.000000
v -0.800000 1.000000 0.000000
v -0.800000 0.900000 -0.100000
v -0.800000 1.000000 -0.100000
v 0.800000 0.900000 0.000000
v 0.800000 1.000000 0.000000
v 0.800000 0.900000 -0.100000
v 0.800000 1.000000 -0.100000
v -0.800000 0.900000 -0.300000
v -0.800000 1.000000 -0.300000
v -0.800000 0.900000 -0.400000
v -0.800000 1.000000 -0.400000
v 0.800000 0.900000 -0.300000
v 0.800000 1.000000 -0.300000
v 0.800000 0.900000 -0.400000
v 0.800000 1.000000 -0.400000
v -0.800000 0.900000 -0.600000
v -0.800000 1.000000 -0.600000
v -0.800000 0.900000 -0.700000
v -0.800000 1.000000 -0.700000
v 0.800000 0.900000 -0.600000
v 0.800000 1.000000 -0.600000
v 0.800000 0.900000 -0.700000
v 0.800000 1.000000 -0.700000
v -0.800000 0.900000 0.300000
v -0.800000 1.000000 0.300000
v -0.800000 0.900000 0.200000
v -0.800000 1.000000 0.200000
v 0.800000 0.900000 0.300000
v 0.800000 1.000000 0.300000
v 0.800000 0.900000 0.200000
v 0.800000 1.000000 0.200000
v -0.782584 0.250000 -0.300000
v -0.782584 0.300000 -0.350000
v -0.782584 0.250000 -0.400000
v 0.782584 0.250000 -0.300000
v 0.782584 0.300000 -0.350000
v 0.782584 0.250000 -0.400000
v -0.782584 0.250000 -0.600000
v -0.782584 0.300000 -0.650000
v -0.782584 0.250000 -0.700000
v 0.782584 0.250000 -0.600000
v 0.782584 0.300000 -0.650000
v 0.782584 0.250000 -0.700000
v -0.782584 0.250000 0.300000
v -0.782584 0.300000 0.250000
v -0.782584 0.250000 0.200000
v 0.782584 0.250000 0.300000
v 0.782584 0.300000 0.250000
v 0.782584 0.250000 0.200000
v -0.782584 0.250000 0.000000
v -0.782584 0.300000 -0.050000
v -0.782584 0.250000 -0.100000
v 0.782584 0.250000 0.000000
v 0.782584 0.300000 -0.050000
v 0.782584 0.250000 -0.100000
v -0.782584 1.549477 -0.300000
v -0.782584 1.599478 -0.350000
v -0.782584 1.549477 -0.400000
v 0.782584 1.549477 -0.300000
v 0.782584 1.599478 -0.350000
v 0.782584 1.549477 -0.400000
v -0.782584 1.549477 -0.600000
v -0.782584 1.599478 -0.650000
v -0.782584 1.549477 -0.700000
v 0.782584 1.549477 -0.600000
v 0.782584 1.599478 -0.650000
v 0.782584 1.549477 -0.700000
v -0.782584 1.549477 0.300000
v -0.782584 1.599478 0.250000
v -0.782584 1.549477 0.200000
v 0.782584 1.549477 0.300000
v 0.782584 1.599478 0.250000
v 0.782584 1.549477 0.200000
v -0.782584 1.549477 0.000000
v -0.782584 1.599478 -0.050000
v -0.782584 1.549477 -0.100000
v 0.782584 1.549477 0.000000
v 0.782584 1.599478 -0.050000
v 0.782584 1.549477 -0.100000
vt 0.410005 0.856654
vt 0.450867 0.852735
vt 0.410005 0.852735
vt 0.450867 0.856654
vt 0.410005 0.852735
vt 0.450867 0.852735
vt 0.450867 0.821485
vt 0.410005 0.821485
vt 0.410005 0.821485
vt 0.410005 0.887904
vt 0.450867 0.887904
vt 0.450867 0.887904
vt 0.410005 0.856654
vt 0.450867 0.852735
vt 0.410005 0.852735
vt 0.450867 0.856654
vt 0.410005 0.852735
vt 0.450867 0.852735
vt 0.450867 0.821485
vt 0.410005 0.821485
vt 0.410005 0.821485
vt 0.410005 0.887904
vt 0.450867 0.887904
vt 0.450867 0.887904
vt 0.410005 0.856654
vt 0.450867 0.852735
vt 0.410005 0.852735
vt 0.450867 0.856654
vt 0.410005 0.852735
vt 0.450867 0.852735
vt 0.450867 0.821485
vt 0.410005 0.821485
vt 0.410005 0.821485
vt 0.410005 0.887904
vt 0.450867 0.887904
vt 0.450867 0.887904
vt 0.410005 0.856654
vt 0.450867 0.852735
vt 0.410005 0.852735
vt 0.450867 0.856654
vt 0.410005 0.852735
vt 0.450867 0.852735
vt 0.450867 0.821485
vt 0.410005 0.821485
vt 0.410005 0.821485
vt 0.410005 0.887904
vt 0.450867 0.887904
vt 0.450867 0.887904
vt 0.449590 0.829220
vt 0.411282 0.827260
vt 0.411282 0.829220
vt 0.411282 0.844845
vt 0.449590 0.842885
vt 0.449590 0.844845
vt 0.449590 0.829220
vt 0.411282 0.827260
vt 0.411282 0.829220
vt 0.411282 0.844845
vt 0.449590 0.842885
vt 0.449590 0.844845
vt 0.449590 0.829220
vt 0.411282 0.827260
vt 0.411282 0.829220
vt 0.411282 0.844845
vt 0.449590 0.842885
vt 0.449590 0.844845
vt 0.449590 0.829220
vt 0.411282 0.827260
vt 0.411282 0.829220
vt 0.411282 0.844845
vt 0.449590 0.842885
vt 0.449590 0.844845
vt 0.449590 0.880149
vt 0.411282 0.878189
vt 0.411282 0.880149
vt 0.411282 0.895774
vt 0.449590 0.893814
vt 0.449590 0.895774
vt 0.449590 0.880149
vt 0.411282 0.878189
vt 0.411282 0.880149
vt 0.411282 0.895774
vt 0.449590 0.893814
vt 0.449590 0.895774
vt 0.449590 0.880149
vt 0.411282 0.878189
vt 0.411282 0.880149
vt 0.411282 0.895774
vt 0.449590 0.893814
vt 0.449590 0.895774
vt 0.449590 0.880149
vt 0.411282 0.878189
vt 0.411282 0.880149
vt 0.411282 0.895774
vt 0.449590 0.893814
vt 0.449590 0.895774
vt 0.450867 0.856654
vt 0.410005 0.856654
vt 0.450867 0.821485
vt 0.410005 0.887904
vt 0.450867 0.856654
vt 0.410005 0.856654
vt 0.450867 0.821485
vt 0.410005 0.887904
vt 0.450867 0.856654
vt 0.410005 0.856654
vt 0.450867 0.821485
vt 0.410005 0.887904
vt 0.450867 0.856654
vt 0.410005 0.856654
vt 0.450867 0.821485
vt 0.410005 0.887904
vt 0.449590 0.827260
vt 0.411282 0.842885
vt 0.449590 0.827260
vt 0.411282 0.842885
vt 0.449590 0.827260
vt 0.411282 0.842885
vt 0.449590 0.827260
vt 0.411282 0.842885
vt 0.449590 0.878189
vt 0.411282 0.893814
vt 0.449590 0.878189
vt 0.411282 0.893814
vt 0.449590 0.878189
vt 0.411282 0.893814
vt 0.449590 0.878189
vt 0.411282 0.893814
vt 0.331729 0.599369
vt 0.333599 0.605415
vt 0.331729 0.599369
vt 0.284391 0.599369
vt 0.282521 0.605415
vt 0.284391 0.599369
vt 0.327214 0.596864
vt 0.327214 0.596864
vt 0.327214 0.736920
vt 0.331729 0.734416
vt 0.327214 0.736920
vt 0.284391 0.734416
vt 0.282521 0.728369
vt 0.284391 0.734416
vt 0.333599 0.619052
vt 0.333599 0.675443
vt 0.333599 0.675443
vt 0.331729 0.734416
vt 0.333599 0.728369
vt 0.287781 0.603909
vt 0.289058 0.660097
vt 0.287781 0.661807
vt 0.288906 0.596864
vt 0.282521 0.714733
vt 0.282521 0.675443
vt 0.282521 0.675443
vt 0.288906 0.736920
vt 0.288906 0.736920
vt 0.287781 0.661807
vt 0.328339 0.702603
vt 0.328339 0.661807
vt 0.328339 0.590272
vt 0.326991 0.584730
vt 0.330870 0.586882
vt 0.327214 0.583228
vt 0.331729 0.585732
vt 0.328339 0.590272
vt 0.330870 0.586882
vt 0.326991 0.584730
vt 0.327214 0.583228
vt 0.332477 0.592078
vt 0.333599 0.591779
vt 0.332477 0.592078
vt 0.333599 0.591779
vt 0.331729 0.585732
vt 0.328339 0.716239
vt 0.326991 0.721781
vt 0.330870 0.719629
vt 0.327214 0.723284
vt 0.331729 0.720779
vt 0.328339 0.716239
vt 0.330870 0.719629
vt 0.326991 0.721781
vt 0.327214 0.723284
vt 0.332477 0.714434
vt 0.333599 0.714733
vt 0.332477 0.714434
vt 0.333599 0.714733
vt 0.331729 0.720779
vt 0.287781 0.590272
vt 0.289129 0.584730
vt 0.285250 0.586882
vt 0.288906 0.583228
vt 0.284391 0.585732
vt 0.287781 0.590272
vt 0.285250 0.586882
vt 0.289129 0.584730
vt 0.288906 0.583228
vt 0.283643 0.592078
vt 0.282521 0.591779
vt 0.283643 0.592078
vt 0.282521 0.591779
vt 0.284391 0.585732
vt 0.287781 0.716239
vt 0.289129 0.721781
vt 0.285250 0.719629
vt 0.288906 0.723284
vt 0.284391 0.720779
vt 0.287781 0.716239
vt 0.285250 0.719629
vt 0.289129 0.721781
vt 0.288906 0.723284
vt 0.283643 0.714434
vt 0.283643 0.714434
vt 0.282521 0.714733
vt 0.284391 0.720779
vt 0.282521 0.661807
vt 0.283643 0.700797
vt 0.283643 0.661807
vt 0.333599 0.661807
vt 0.332477 0.605714
vt 0.332477 0.661807
vt 0.283643 0.700797
vt 0.283643 0.661807
vt 0.282521 0.661807
vt 0.328339 0.661807
vt 0.332477 0.605714
vt 0.332477 0.661807
vt 0.333599 0.661807
vt 0.288906 0.596864
vt 0.332477 0.700797
vt 0.333599 0.701096
vt 0.328339 0.702603
vt 0.283643 0.605714
vt 0.282521 0.605415
vt 0.332477 0.700797
vt 0.333599 0.701096
vt 0.283643 0.605714
vt 0.287781 0.603909
vt 0.328339 0.603909
vt 0.282521 0.619052
vt 0.282521 0.619052
vt 0.289058 0.591982
vt 0.289058 0.663517
vt 0.327062 0.605619
vt 0.328339 0.603909
vt 0.327062 0.663517
vt 0.327062 0.660097
vt 0.289058 0.700893
vt 0.287781 0.702603
vt 0.327062 0.714529
vt 0.411434 0.827494
vt 0.411434 0.874290
vt 0.411434 0.874290
vt 0.449438 0.905411
vt 0.449438 0.878210
vt 0.449438 0.878210
vt 0.411434 0.858536
vt 0.449438 0.858536
vt 0.449438 0.858536
vt 0.411434 0.827415
vt 0.449438 0.827415
vt 0.449438 0.827415
vt 0.449438 0.858744
vt 0.411434 0.858744
vt 0.411434 0.858744
vt 0.411434 0.878210
vt 0.411434 0.905411
vt 0.411434 0.905411
vt 0.449438 0.874290
vt 0.449438 0.827494
vt 0.449438 0.827494
vt 0.449438 0.909460
vt 0.411434 0.909460
vt 0.411434 0.909460
vt 0.449438 0.811869
vt 0.411434 0.858665
vt 0.411434 0.811869
vt 0.449438 0.862585
vt 0.411434 0.889786
vt 0.411434 0.862585
vt 0.333599 0.605415
vt 0.282521 0.728369
vt 0.333599 0.619052
vt 0.333599 0.728369
vt 0.289058 0.605619
vt 0.287781 0.702603
vt 0.282521 0.701096
vt 0.282521 0.701096
vt 0.327062 0.591982
vt 0.327062 0.700893
vt 0.289058 0.714529
vt 0.411434 0.827494
vt 0.449438 0.905411
vt 0.411434 0.858536
vt 0.411434 0.827415
vt 0.449438 0.858744
vt 0.411434 0.878210
vt 0.449438 0.874290
vt 0.449438 0.909460
vt 0.449438 0.858665
vt 0.449438 0.889786
vn 0.0000 0.0000 -1.0000
vn 0.0000 -0.0000 1.0000
vn 0.0000 -1.0000 0.0000
vn 0.0000 1.0000 0.0000
vn 0.0000 0.7071 -0.7071
vn 0.0000 0.7071 0.7071
vn 0.6929 -0.6929 -0.1994
vn 0.9257 -0.1841 0.3305
vn 0.6672 -0.6672 0.3312
vn -0.6672 -0.6672 0.3312
vn -0.9622 -0.1914 -0.1938
vn -0.6929 -0.6929 -0.1994
vn 0.1914 -0.9622 -0.1938
vn 0.1841 -0.9257 0.3305
vn 0.1841 0.9257 0.3305
vn 0.6929 0.6929 -0.1994
vn 0.1914 0.9622 -0.1938
vn -0.6929 0.6929 -0.1994
vn -0.9257 0.1841 0.3305
vn -0.6672 0.6672 0.3312
vn 0.9808 0.0000 -0.1951
vn 0.9408 -0.0000 0.3391
vn 0.6672 0.6672 0.3312
vn 0.9622 0.1914 -0.1938
vn -0.0428 -0.0428 0.9982
vn -0.0441 -0.0000 0.9990
vn -0.1841 -0.9257 0.3305
vn -0.9808 -0.0000 -0.1951
vn -0.9408 -0.0000 0.3391
vn -0.1841 0.9257 0.3305
vn -0.1914 0.9622 -0.1938
vn -0.1320 0.0000 -0.9912
vn 0.1267 0.1267 -0.9838
vn 0.1320 0.0000 -0.9912
vn 0.0428 -0.0428 0.9982
vn 0.0949 -0.4894 0.8669
vn 0.3671 -0.3671 0.8547
vn 0.1267 -0.1267 -0.9838
vn 0.5049 -0.5049 -0.7002
vn 0.1277 -0.6797 -0.7223
vn 0.4894 -0.0949 0.8669
vn 0.6797 -0.1277 -0.7223
vn 0.9622 -0.1914 -0.1938
vn 0.1277 0.6797 -0.7223
vn 0.5049 0.5049 -0.7002
vn 0.0428 0.0428 0.9982
vn 0.3671 0.3671 0.8547
vn 0.0949 0.4894 0.8669
vn 0.6797 0.1277 -0.7223
vn 0.4894 0.0949 0.8669
vn 0.9257 0.1841 0.3305
vn -0.1267 -0.1267 -0.9838
vn -0.1277 -0.6797 -0.7223
vn -0.5049 -0.5049 -0.7002
vn -0.1914 -0.9622 -0.1938
vn -0.3671 -0.3671 0.8547
vn -0.0949 -0.4894 0.8669
vn -0.6797 -0.1277 -0.7223
vn -0.4894 -0.0949 0.8669
vn -0.9257 -0.1841 0.3305
vn -0.0428 0.0428 0.9982
vn -0.0949 0.4894 0.8669
vn -0.3671 0.3671 0.8547
vn -0.1267 0.1267 -0.9838
vn -0.5049 0.5049 -0.7002
vn -0.1277 0.6797 -0.7223
vn -0.4894 0.0949 0.8669
vn -0.6797 0.1277 -0.7223
vn -0.9622 0.1914 -0.1938
vn -0.9239 0.0000 -0.3827
vn -0.2617 0.0000 -0.9651
vn 0.9239 0.0000 -0.3827
vn 0.2617 0.0000 -0.9651
vn -0.4650 -0.0000 0.8853
vn 0.0441 -0.0000 0.9990
vn 0.4650 -0.0000 0.8853
vn 1.0000 0.0000 0.0000
vn -1.0000 -0.0000 0.0000
usemtl restaurant.076
s off
f 88/1/1 91/2/1 87/3/1
f 90/4/2 85/5/2 89/6/2
f 91/7/3 85/8/3 87/9/3
f 88/10/4 90/11/4 92/12/4
f 96/13/1 99/14/1 95/15/1
f 98/16/2 93/17/2 97/18/2
f 99/19/3 93/20/3 95/21/3
f 96/22/4 98/23/4 100/24/4
f 104/25/1 107/26/1 103/27/1
f 106/28/2 101/29/2 105/30/2
f 107/31/3 101/32/3 103/33/3
f 104/34/4 106/35/4 108/36/4
f 112/37/1 115/38/1 111/39/1
f 114/40/2 109/41/2 113/42/2
f 115/43/3 109/44/3 111/45/3
f 112/46/4 114/47/4 116/48/4
f 121/49/5 119/50/5 118/51/5
f 118/52/6 120/53/6 121/54/6
f 127/55/5 125/56/5 124/57/5
f 124/58/6 126/59/6 127/60/6
f 133/61/5 131/62/5 130/63/5
f 130/64/6 132/65/6 133/66/6
f 139/67/5 137/68/5 136/69/5
f 136/70/6 138/71/6 139/72/6
f 145/73/5 143/74/5 142/75/5
f 142/76/6 144/77/6 145/78/6
f 151/79/5 149/80/5 148/81/5
f 148/82/6 150/83/6 151/84/6
f 157/85/5 155/86/5 154/87/5
f 154/88/6 156/89/6 157/90/6
f 163/91/5 161/92/5 160/93/5
f 160/94/6 162/95/6 163/96/6
f 88/1/1 92/97/1 91/2/1
f 90/4/2 86/98/2 85/5/2
f 91/7/3 89/99/3 85/8/3
f 88/10/4 86/100/4 90/11/4
f 96/13/1 100/101/1 99/14/1
f 98/16/2 94/102/2 93/17/2
f 99/19/3 97/103/3 93/20/3
f 96/22/4 94/104/4 98/23/4
f 104/25/1 108/105/1 107/26/1
f 106/28/2 102/106/2 101/29/2
f 107/31/3 105/107/3 101/32/3
f 104/34/4 102/108/4 106/35/4
f 112/37/1 116/109/1 115/38/1
f 114/40/2 110/110/2 109/41/2
f 115/43/3 113/111/3 109/44/3
f 112/46/4 110/112/4 114/47/4
f 121/49/5 122/113/5 119/50/5
f 118/52/6 117/114/6 120/53/6
f 127/55/5 128/115/5 125/56/5
f 124/58/6 123/116/6 126/59/6
f 133/61/5 134/117/5 131/62/5
f 130/64/6 129/118/6 132/65/6
f 139/67/5 140/119/5 137/68/5
f 136/70/6 135/120/6 138/71/6
f 145/73/5 146/121/5 143/74/5
f 142/76/6 141/122/6 144/77/6
f 151/79/5 152/123/5 149/80/5
f 148/82/6 147/124/6 150/83/6
f 157/85/5 158/125/5 155/86/5
f 154/88/6 153/126/6 156/89/6
f 163/91/5 164/127/5 161/92/5
f 160/94/6 159/128/6 162/95/6
s 1
f 13/129/7 39/130/8 41/131/9
f 34/132/10 4/133/11 6/134/12
f 11/135/13 41/131/9 37/136/14
f 53/137/15 27/138/16 23/139/17
f 20/140/18 46/141/19 48/142/20
f 39/143/8 62/144/21 67/145/22
f 55/146/23 25/147/24 27/138/16
f 29/148/25 84/149/2 68/150/26
f 32/151/27 11/135/13 37/136/14
f 46/152/19 60/153/28 65/154/29
f 44/155/30 23/139/17 18/156/31
f 18/156/31 48/142/20 44/155/30
f 57/157/32 22/158/33 59/159/34
f 36/160/35 38/161/36 42/162/37
f 42/162/37 37/163/14 41/164/9
f 8/165/38 14/166/39 12/167/40
f 14/166/39 11/168/13 12/167/40
f 36/160/35 42/162/37 40/169/41
f 42/162/37 39/170/8 40/169/41
f 8/165/38 10/171/42 14/166/39
f 14/166/39 9/172/43 13/173/7
f 22/174/33 24/175/44 28/176/45
f 28/176/45 23/177/17 27/178/16
f 50/179/46 56/180/47 54/181/48
f 56/180/47 53/182/15 54/181/48
f 22/174/33 28/176/45 26/183/49
f 28/176/45 25/184/24 26/183/49
f 50/179/46 52/185/50 56/180/47
f 56/180/47 51/186/51 55/187/23
f 1/188/52 3/189/53 7/190/54
f 7/190/54 2/191/55 6/192/12
f 29/193/25 35/194/56 33/195/57
f 35/194/56 32/196/27 33/195/57
f 1/188/52 7/190/54 5/197/58
f 7/190/54 4/198/11 5/197/58
f 29/193/25 31/199/59 35/194/56
f 35/194/56 30/200/60 34/201/10
f 43/202/61 45/203/62 49/204/63
f 49/204/63 44/205/30 48/206/20
f 15/207/64 21/208/65 19/209/66
f 21/208/65 18/210/31 19/209/66
f 43/202/61 49/204/63 47/211/67
f 49/204/63 46/152/19 47/211/67
f 15/207/64 17/212/68 21/208/65
f 21/208/65 16/213/69 20/214/18
f 29/193/25 38/161/36 36/160/35
f 33/195/57 37/163/14 38/161/36
f 8/165/38 3/189/53 1/188/52
f 12/167/40 2/191/55 3/189/53
f 60/215/28 17/216/68 61/217/70
f 17/216/68 57/157/32 61/217/71
f 23/177/17 19/209/66 18/210/31
f 24/175/44 15/207/64 19/209/66
f 62/218/21 10/219/42 63/220/72
f 10/219/42 59/159/34 63/220/73
f 68/150/26 47/221/67 64/222/74
f 47/221/67 65/223/29 64/222/74
f 58/224/75 40/225/41 66/226/76
f 40/225/41 67/227/22 66/226/76
f 50/179/46 45/203/62 43/202/61
f 54/181/48 44/205/30 45/203/62
f 32/151/27 6/134/12 2/228/55
f 52/229/50 67/227/22 51/230/51
f 58/224/75 52/229/50 50/231/46
f 31/232/59 65/223/29 30/233/60
f 68/150/26 31/232/59 29/148/25
f 26/234/49 59/159/34 22/158/33
f 62/218/21 26/234/49 25/235/24
f 5/236/58 57/157/32 1/237/52
f 60/215/28 5/236/58 4/133/11
f 1/237/52 59/159/34 8/238/38
f 65/154/29 4/239/11 30/240/60
f 67/145/22 25/184/24 51/186/51
f 36/160/35 78/241/2 29/193/25
f 58/224/75 70/242/2 68/150/26
f 58/224/75 79/243/2 36/244/35
f 50/231/46 71/245/2 58/224/75
f 68/150/26 81/246/2 58/224/75
f 68/150/26 76/247/2 43/248/61
f 43/202/61 73/249/2 50/179/46
f 78/250/77 69/251/77 84/252/77
f 73/253/78 82/254/78 71/255/78
f 76/256/3 80/257/3 73/258/3
f 84/259/3 72/260/3 81/261/3
f 79/262/4 75/263/4 78/264/4
f 70/265/77 77/266/77 76/267/77
f 81/268/78 74/269/78 79/270/78
f 71/271/4 83/272/4 70/273/4
f 74/274/2 69/275/2 75/276/2
f 82/277/2 77/278/2 83/279/2
f 13/129/7 9/280/43 39/130/8
f 34/132/10 30/233/60 4/133/11
f 11/135/13 13/129/7 41/131/9
f 53/137/15 55/146/23 27/138/16
f 20/140/18 16/281/69 46/141/19
f 39/143/8 9/282/43 62/144/21
f 55/146/23 51/283/51 25/147/24
f 29/148/25 78/284/2 84/149/2
f 32/151/27 2/228/55 11/135/13
f 46/152/19 16/213/69 60/153/28
f 44/155/30 53/137/15 23/139/17
f 18/156/31 20/140/18 48/142/20
f 57/157/32 15/285/64 22/158/33
f 42/162/37 38/161/36 37/163/14
f 14/166/39 13/173/7 11/168/13
f 42/162/37 41/164/9 39/170/8
f 14/166/39 10/171/42 9/172/43
f 28/176/45 24/175/44 23/177/17
f 56/180/47 55/187/23 53/182/15
f 28/176/45 27/178/16 25/184/24
f 56/180/47 52/185/50 51/186/51
f 7/190/54 3/189/53 2/191/55
f 35/194/56 34/201/10 32/196/27
f 7/190/54 6/192/12 4/198/11
f 35/194/56 31/199/59 30/200/60
f 49/204/63 45/203/62 44/205/30
f 21/208/65 20/214/18 18/210/31
f 49/204/63 48/206/20 46/152/19
f 21/208/65 17/212/68 16/213/69
f 29/193/25 33/195/57 38/161/36
f 33/195/57 32/196/27 37/163/14
f 8/165/38 12/167/40 3/189/53
f 12/167/40 11/168/13 2/191/55
f 60/215/28 16/286/69 17/216/68
f 17/216/68 15/285/64 57/157/32
f 23/177/17 24/175/44 19/209/66
f 24/175/44 22/174/33 15/207/64
f 62/218/21 9/280/43 10/219/42
f 10/219/42 8/238/38 59/159/34
f 68/150/26 43/248/61 47/221/67
f 47/221/67 46/287/19 65/223/29
f 58/224/75 36/244/35 40/225/41
f 40/225/41 39/130/8 67/227/22
f 50/179/46 54/181/48 45/203/62
f 54/181/48 53/182/15 44/205/30
f 32/151/27 34/132/10 6/134/12
f 52/229/50 66/226/76 67/227/22
f 58/224/75 66/226/76 52/229/50
f 31/232/59 64/222/74 65/223/29
f 68/150/26 64/222/74 31/232/59
f 26/234/49 63/220/73 59/159/34
f 62/218/21 63/220/72 26/234/49
f 5/236/58 61/217/71 57/157/32
f 60/215/28 61/217/70 5/236/58
f 1/237/52 57/157/32 59/159/34
f 65/154/29 60/153/28 4/239/11
f 67/145/22 62/144/21 25/184/24
f 36/160/35 79/288/2 78/241/2
f 58/224/75 71/245/2 70/242/2
f 58/224/75 81/246/2 79/243/2
f 50/231/46 73/289/2 71/245/2
f 68/150/26 84/149/2 81/246/2
f 68/150/26 70/242/2 76/247/2
f 43/202/61 76/290/2 73/249/2
f 78/250/77 75/291/77 69/251/77
f 73/253/78 80/292/78 82/254/78
f 76/256/3 77/293/3 80/257/3
f 84/259/3 69/294/3 72/260/3
f 79/262/4 74/295/4 75/263/4
f 70/265/77 83/296/77 77/266/77
f 81/268/78 72/297/78 74/269/78
f 71/271/4 82/298/4 83/272/4
f 74/274/2 72/299/2 69/275/2
f 82/277/2 80/300/2 77/278/2
