# Blender v3.4.1 OBJ File: 'restaurant.blend'
# www.blender.org
mtllib fridge_A_decorated_door_bottom_Cube_108.mtl
o fridge_A_decorated_door_bottom_Cube.108
v -1.000000 1.424997 0.850000
v -0.956066 1.478030 0.850000
v -0.956066 1.424997 0.956066
v -1.000000 1.424997 0.582628
v -1.000000 0.249999 0.850000
v -0.956066 0.258738 0.956066
v -0.926777 0.073223 0.850000
v -1.000000 0.249999 0.582628
v -0.956066 0.258738 0.529595
v -0.926777 0.073223 0.582628
v -0.893151 0.106848 0.529595
v -0.750000 -0.000001 0.582628
v -0.741261 0.043933 0.529595
v 0.750000 -0.000001 0.582628
v -0.750000 -0.000001 0.850000
v -0.741261 0.043933 0.956066
v 0.750000 -0.000001 0.850000
v 0.741261 0.043933 0.956066
v 0.926777 0.073223 0.850000
v 0.893151 0.106848 0.956066
v 1.000000 0.249999 0.850000
v 0.926777 0.073223 0.582628
v 0.893151 0.106848 0.529595
v 1.000000 0.249999 0.582628
v 0.956066 0.258738 0.529595
v 1.000000 1.424997 0.582628
v 0.956066 1.478030 0.582628
v 0.956066 1.424997 0.529595
v 1.000000 1.424997 0.850000
v 0.956066 1.424997 0.956066
v 0.956066 1.478030 0.850000
v 0.936603 1.468299 0.936603
v 0.850000 1.499997 0.850000
v 0.850000 1.478030 0.956066
v -0.850000 1.499997 0.850000
v 0.850000 1.499997 0.582628
v 0.850000 1.478030 0.529595
v -0.850000 1.499997 0.582628
v -0.956066 1.478030 0.582628
v -0.850000 1.478030 0.529595
v -0.936603 1.468299 0.539327
v -0.850000 1.424997 0.500000
v -0.956066 1.424997 0.529595
v 0.850000 1.424997 0.500000
v -0.794045 0.205954 0.500000
v 0.794045 0.205954 0.500000
v 0.741261 0.043933 0.529595
v 0.936603 1.468299 0.539327
v -0.850000 1.478030 0.956066
v -0.850000 1.424997 1.000000
v -0.936603 1.468299 0.936603
v 0.850000 1.424997 1.000000
v -0.794045 0.205954 1.000000
v 0.794045 0.205954 1.000000
v -0.893151 0.106848 0.956066
v 0.956066 0.258738 0.956066
v -0.790051 1.362950 1.031595
v -0.754493 1.362950 1.057833
v -0.754493 1.398508 1.031595
v -0.535622 1.362950 1.057833
v -0.500064 1.362950 1.031595
v -0.535622 1.398507 1.031595
v -0.814190 1.374080 0.987979
v -0.775129 1.413141 0.987979
v -0.514986 1.413141 0.987979
v -0.475925 1.374080 0.987979
v -0.790051 1.137023 1.031595
v -0.754493 1.101465 1.031595
v -0.754493 1.137023 1.057833
v -0.500064 1.137023 1.031595
v -0.535622 1.137023 1.057833
v -0.535622 1.101465 1.031595
v -0.775129 1.086831 0.987979
v -0.814190 1.125893 0.987979
v -0.475925 1.125893 0.987979
v -0.514986 1.086831 0.987979
v -0.698153 1.171762 1.210430
v -0.698153 1.201365 1.240033
v -0.727755 1.201365 1.210430
v -0.727755 1.298650 1.210430
v -0.698153 1.298650 1.240033
v -0.698153 1.328253 1.210430
v -0.728624 1.200626 1.049287
v -0.698892 1.170894 1.049287
v -0.698892 1.329122 1.049287
v -0.728624 1.299389 1.049287
v -0.600128 1.170894 1.049287
v -0.570396 1.200626 1.049287
v -0.600128 1.329122 1.049287
v -0.570396 1.299389 1.049287
v -0.566434 1.198425 1.100456
v -0.601846 1.170373 1.115024
v -0.566434 1.301591 1.100456
v -0.601846 1.329643 1.115024
v -0.295812 1.296605 1.162659
v -0.277264 1.277400 1.162520
v -0.295976 1.277174 1.143206
v -0.295795 1.296500 1.198657
v -0.296065 1.276953 1.217992
v -0.277264 1.277400 1.198555
v -0.296065 1.223063 1.217992
v -0.295795 1.203516 1.198657
v -0.277264 1.222615 1.198555
v -0.295812 1.203411 1.162659
v -0.295976 1.222841 1.143206
v -0.277264 1.222615 1.162520
vt 0.283643 0.701965
vt 0.282521 0.700151
vt 0.283643 0.701965
vt 0.282521 0.686514
vt 0.284140 0.687995
vt 0.283643 0.688328
vt 0.283643 0.605714
vt 0.282521 0.672878
vt 0.282521 0.605415
vt 0.282521 0.619052
vt 0.282521 0.619052
vt 0.285250 0.586882
vt 0.282521 0.591779
vt 0.284391 0.585732
vt 0.284391 0.599369
vt 0.282521 0.605415
vt 0.284391 0.599369
vt 0.283643 0.592078
vt 0.282521 0.659241
vt 0.283643 0.659241
vt 0.285250 0.573246
vt 0.282521 0.578142
vt 0.283643 0.578441
vt 0.288906 0.569591
vt 0.284391 0.572096
vt 0.288906 0.596864
vt 0.288906 0.596864
vt 0.326991 0.571094
vt 0.289129 0.571094
vt 0.327214 0.596864
vt 0.289129 0.584730
vt 0.327214 0.583228
vt 0.326991 0.584730
vt 0.288906 0.583228
vt 0.330870 0.586882
vt 0.331728 0.585732
vt 0.331728 0.599369
vt 0.327214 0.596864
vt 0.333599 0.591779
vt 0.332477 0.592078
vt 0.331728 0.599369
vt 0.333599 0.605415
vt 0.330870 0.573246
vt 0.333599 0.578142
vt 0.331728 0.572096
vt 0.327214 0.569591
vt 0.333599 0.659241
vt 0.332477 0.592078
vt 0.332477 0.659241
vt 0.333599 0.686514
vt 0.333599 0.619052
vt 0.333599 0.619052
vt 0.332477 0.701965
vt 0.333599 0.700151
vt 0.332477 0.701965
vt 0.332477 0.672878
vt 0.332477 0.674692
vt 0.333599 0.672878
vt 0.333599 0.672878
vt 0.332477 0.605714
vt 0.333599 0.686514
vt 0.331979 0.687995
vt 0.332477 0.686514
vt 0.329768 0.689080
vt 0.332477 0.688328
vt 0.329768 0.702716
vt 0.329768 0.702716
vt 0.286352 0.689080
vt 0.329768 0.688328
vt 0.286352 0.702716
vt 0.286352 0.702716
vt 0.329768 0.675443
vt 0.286352 0.674692
vt 0.286352 0.675443
vt 0.331979 0.674359
vt 0.329768 0.674692
vt 0.284140 0.674359
vt 0.283643 0.674692
vt 0.286352 0.672878
vt 0.286352 0.659241
vt 0.287781 0.590272
vt 0.329768 0.659241
vt 0.328339 0.590272
vt 0.328339 0.576636
vt 0.287781 0.576636
vt 0.332477 0.578441
vt 0.329768 0.672878
vt 0.283643 0.672878
vt 0.282521 0.672878
vt 0.286352 0.688328
vt 0.329768 0.686514
vt 0.286352 0.686514
vt 0.283643 0.686514
vt 0.286352 0.672878
vt 0.287781 0.603909
vt 0.328339 0.603909
vt 0.287781 0.590272
vt 0.328339 0.590272
vt 0.283643 0.592078
vt 0.329768 0.672878
vt 0.401132 0.881391
vt 0.395542 0.906506
vt 0.395542 0.881391
vt 0.402657 0.923368
vt 0.402040 0.865766
vt 0.402657 0.864529
vt 0.395542 0.941708
vt 0.401659 0.943335
vt 0.395015 0.943335
vt 0.401659 0.828937
vt 0.395542 0.830563
vt 0.395015 0.828937
vt 0.394634 0.922131
vt 0.395542 0.922131
vt 0.395542 0.926083
vt 0.401132 0.922131
vt 0.402040 0.922131
vt 0.401132 0.926083
vt 0.394634 0.850141
vt 0.395542 0.846188
vt 0.395542 0.850141
vt 0.402040 0.850141
vt 0.401132 0.850141
vt 0.401132 0.846188
vt 0.394634 0.937756
vt 0.394018 0.938993
vt 0.402040 0.937756
vt 0.401132 0.941708
vt 0.394634 0.834516
vt 0.402040 0.834516
vt 0.402657 0.833279
vt 0.394634 0.881391
vt 0.394634 0.906506
vt 0.402040 0.906506
vt 0.402040 0.881391
vt 0.394018 0.864529
vt 0.394018 0.923368
vt 0.399441 0.869473
vt 0.396962 0.869531
vt 0.399485 0.869531
vt 0.396203 0.904086
vt 0.396225 0.914983
vt 0.396203 0.915065
vt 0.400345 0.872592
vt 0.407257 0.873146
vt 0.407257 0.873158
vt 0.396981 0.872918
vt 0.396981 0.869628
vt 0.399441 0.934053
vt 0.407257 0.930369
vt 0.407257 0.930381
vt 0.400345 0.903842
vt 0.407252 0.912596
vt 0.407252 0.906556
vt 0.407730 0.912621
vt 0.407730 0.906531
vt 0.407730 0.906531
vt 0.400244 0.915065
vt 0.400244 0.904086
vt 0.396225 0.872918
vt 0.396225 0.930608
vt 0.396981 0.930608
vt 0.396981 0.933899
vt 0.396962 0.933995
vt 0.399485 0.933995
vt 0.407730 0.928246
vt 0.407252 0.928221
vt 0.407250 0.928196
vt 0.407730 0.928246
vt 0.407250 0.875331
vt 0.407730 0.875281
vt 0.407252 0.875306
vt 0.407730 0.875281
vt 0.396981 0.914983
vt 0.396225 0.904168
vt 0.396981 0.904168
vt 0.400345 0.930935
vt 0.396203 0.930690
vt 0.400244 0.930690
vt 0.407250 0.906581
vt 0.407730 0.912621
vt 0.407250 0.912571
vt 0.282521 0.700151
vt 0.283643 0.672878
vt 0.282521 0.686514
vt 0.282521 0.591779
vt 0.333599 0.605415
vt 0.333599 0.591779
vt 0.333599 0.700151
vt 0.332477 0.672878
vt 0.401132 0.906506
vt 0.401132 0.830563
vt 0.402657 0.938993
vt 0.394018 0.833279
vt 0.394634 0.865766
vt 0.400345 0.915310
vt 0.400244 0.872836
vt 0.396203 0.872836
vn -0.5325 0.8179 -0.2178
vn -0.9334 0.3156 0.1705
vn -0.5234 0.8458 0.1037
vn -0.4616 0.7575 0.4616
vn -0.6816 -0.1314 0.7198
vn -0.9622 -0.1914 0.1938
vn -0.9257 -0.1841 -0.3305
vn -0.5049 -0.5049 0.7002
vn -0.6929 -0.6929 0.1994
vn -0.6672 -0.6672 -0.3312
vn -0.5277 -0.1022 -0.8433
vn -0.9001 0.3081 -0.3081
vn -0.5575 0.2208 -0.8003
vn -0.3916 -0.3916 -0.8327
vn -0.1841 -0.9257 -0.3305
vn -0.1914 -0.9622 0.1938
vn 0.0997 -0.5260 -0.8446
vn -0.0997 -0.5260 -0.8446
vn 0.1841 -0.9257 -0.3305
vn -0.1277 -0.6797 0.7223
vn 0.1914 -0.9622 0.1938
vn 0.1277 -0.6797 0.7223
vn 0.5049 -0.5049 0.7002
vn 0.6929 -0.6929 0.1994
vn 0.9622 -0.1914 0.1938
vn 0.6816 -0.1314 0.7198
vn 0.6672 -0.6672 -0.3312
vn 0.3916 -0.3916 -0.8327
vn 0.9257 -0.1841 -0.3305
vn 0.9001 0.3081 -0.3081
vn 0.5277 -0.1022 -0.8433
vn 0.5575 0.2208 -0.8003
vn 0.5234 0.8458 0.1037
vn 0.5325 0.8179 -0.2178
vn 0.9334 0.3156 0.1705
vn 0.4616 0.7575 0.4616
vn 0.6823 0.2626 0.6823
vn 0.0953 0.9909 0.0953
vn 0.0920 0.9782 -0.1861
vn -0.0953 0.9909 0.0953
vn 0.1037 0.8458 0.5234
vn -0.0920 0.9782 -0.1861
vn -0.0773 0.7442 -0.6635
vn 0.4167 0.6574 -0.6278
vn 0.0773 0.7442 -0.6635
vn -0.4167 0.6574 -0.6278
vn -0.1159 0.2339 -0.9653
vn -0.0864 -0.0888 -0.9923
vn 0.1159 0.2339 -0.9653
vn 0.0864 -0.0888 -0.9923
vn -0.1037 0.8458 0.5234
vn 0.1705 0.3154 0.9335
vn -0.1705 0.3154 0.9335
vn -0.6823 0.2626 0.6823
vn -0.1255 -0.1290 0.9837
vn 0.1255 -0.1290 0.9837
vn 0.2871 -0.2871 0.9139
vn -0.2871 0.2871 0.9139
vn -0.2871 -0.2871 0.9139
vn 0.7877 0.3302 0.5202
vn 0.7139 -0.2753 0.6439
vn 0.7877 -0.3301 0.5202
vn -0.2534 0.7622 0.5957
vn 0.3875 0.8030 0.4528
vn -0.3875 0.8030 0.4528
vn 0.3875 -0.8030 0.4528
vn -0.2534 -0.7622 0.5957
vn -0.3875 -0.8030 0.4528
vn -0.7139 0.2753 0.6439
vn 0.2871 0.2871 0.9139
vn 0.7139 0.2753 0.6439
vn 0.2534 0.7622 0.5957
vn -0.7139 -0.2753 0.6439
vn 0.2534 -0.7622 0.5957
vn -0.7877 0.3301 0.5202
vn -0.7877 -0.3301 0.5202
vn 0.1672 -0.9852 0.0381
vn -0.3858 -0.9226 0.0040
vn 0.3645 -0.9308 -0.0269
vn -0.9237 -0.3832 0.0067
vn -0.8746 0.3409 0.3447
vn -0.9237 0.3832 0.0067
vn 0.1841 -0.4122 -0.8923
vn 0.4180 -0.8511 -0.3177
vn 0.1855 -0.6270 -0.7566
vn 0.3930 -0.8527 0.3442
vn -0.3086 -0.3491 0.8848
vn -0.3127 -0.8792 0.3595
vn 0.1672 0.9852 0.0381
vn 0.3930 0.8527 0.3442
vn 0.4180 0.8511 -0.3177
vn 0.4300 0.3242 -0.8426
vn 0.4300 -0.3242 -0.8426
vn 0.8793 0.3363 -0.3371
vn 0.8792 -0.3367 0.3371
vn 0.8793 -0.3363 -0.3371
vn 0.9213 0.3789 -0.0876
vn 0.8892 -0.4544 -0.0532
vn 0.9213 -0.3789 -0.0876
vn -0.8746 -0.3409 0.3447
vn -0.3086 0.3491 0.8848
vn -0.3127 0.8792 0.3595
vn -0.3858 0.9226 0.0040
vn 0.3645 0.9308 -0.0269
vn 0.3797 0.3282 0.8649
vn 0.8792 0.3367 0.3371
vn 0.3797 -0.3282 0.8649
vn 0.1841 0.4122 -0.8923
vn 0.1855 0.6270 -0.7566
vn 0.8892 0.4544 -0.0532
usemtl restaurant.097
s 1
f 39/1/1 1/2/2 2/3/3
f 1/4/2 51/5/4 2/6/3
f 6/7/5 1/8/2 5/9/6
f 1/4/2 8/10/7 5/11/6
f 55/12/8 5/13/6 7/14/9
f 7/15/9 8/16/7 10/17/10
f 9/18/11 4/19/12 43/20/13
f 11/21/14 8/22/7 9/23/11
f 11/21/14 12/24/15 10/25/10
f 15/26/16 10/17/10 12/27/15
f 47/28/17 12/24/15 13/29/18
f 14/30/19 15/26/16 12/27/15
f 16/31/20 17/32/21 18/33/22
f 55/12/8 15/34/16 16/31/20
f 20/35/23 17/32/21 19/36/24
f 14/30/19 19/37/24 17/38/21
f 20/35/23 21/39/25 56/40/26
f 22/41/27 21/42/25 19/37/24
f 23/43/28 24/44/29 22/45/27
f 23/43/28 14/46/19 47/28/17
f 26/47/30 25/48/31 28/49/32
f 26/50/30 21/51/25 24/52/29
f 31/53/33 26/54/30 27/55/34
f 28/56/32 27/57/34 26/58/30
f 29/59/35 56/60/26 21/42/25
f 29/61/35 32/62/36 30/63/37
f 33/64/38 32/62/36 31/65/33
f 33/66/38 27/55/34 36/67/39
f 35/68/40 34/69/41 33/64/38
f 33/66/38 38/70/42 35/71/40
f 36/72/39 40/73/43 38/74/42
f 36/72/39 48/75/44 37/76/45
f 38/70/42 2/3/3 35/71/40
f 38/74/42 41/77/46 39/78/1
f 42/79/47 41/77/46 40/73/43
f 37/76/45 42/79/47 40/73/43
f 42/80/47 9/18/11 43/20/13
f 45/81/48 44/82/49 46/83/50
f 46/84/50 13/29/18 45/85/48
f 45/85/48 13/29/18 11/21/14
f 45/85/48 11/21/14 9/23/11
f 25/48/31 44/82/49 28/49/32
f 46/84/50 25/86/31 23/43/28
f 46/84/50 23/43/28 47/28/17
f 44/87/49 48/75/44 28/56/32
f 39/78/1 43/88/13 4/89/12
f 35/68/40 51/5/4 49/90/51
f 49/90/51 52/91/52 34/69/41
f 50/92/53 51/5/4 3/93/54
f 50/94/53 6/7/5 53/95/55
f 54/96/56 50/94/53 53/95/55
f 53/97/55 18/33/22 54/98/56
f 53/97/55 6/99/5 55/12/8
f 53/97/55 55/12/8 16/31/20
f 56/60/26 52/100/52 54/96/56
f 54/98/56 20/35/23 56/40/26
f 54/98/56 18/33/22 20/35/23
f 52/91/52 32/62/36 34/69/41
f 71/101/57 58/102/58 69/103/59
f 66/104/60 70/105/61 75/106/62
f 59/107/63 65/108/64 64/109/65
f 76/110/66 68/111/67 73/112/68
f 57/113/69 58/114/58 59/115/63
f 60/116/70 61/117/71 62/118/72
f 67/119/73 68/120/67 69/121/59
f 70/122/61 71/123/57 72/124/74
f 57/125/69 64/109/65 63/126/75
f 58/114/58 62/118/72 59/115/63
f 61/127/71 65/108/64 62/128/72
f 67/129/73 73/112/68 68/111/67
f 70/130/61 76/110/66 75/131/62
f 69/121/59 72/124/74 71/123/57
f 67/132/73 58/102/58 57/133/69
f 61/134/71 71/101/57 70/135/61
f 74/136/76 57/113/69 63/137/75
f 92/138/77 84/139/78 87/140/79
f 83/141/80 80/142/81 86/143/82
f 91/144/83 104/145/84 92/138/85
f 102/146/86 78/147/87 77/148/88
f 94/149/89 98/150/90 95/151/91
f 91/152/83 97/153/92 105/154/93
f 96/155/94 103/156/95 106/157/96
f 92/138/77 102/146/86 77/148/88
f 90/158/97 91/152/98 88/159/99
f 77/148/88 78/147/87 79/160/100
f 80/161/81 81/162/101 82/163/102
f 85/164/103 94/149/89 89/165/104
f 95/151/91 96/166/94 97/167/92
f 98/150/90 99/168/105 100/169/106
f 101/170/107 102/146/86 103/171/95
f 104/145/84 105/172/93 106/173/96
f 81/174/101 79/175/100 78/176/87
f 87/140/79 91/144/98 92/138/77
f 95/151/91 93/177/108 94/149/109
f 86/178/82 82/163/102 85/164/103
f 89/165/104 93/177/110 90/179/97
f 95/151/91 100/169/106 96/166/94
f 101/180/107 100/181/106 99/182/105
f 104/145/84 103/171/95 102/146/86
f 106/157/96 97/153/92 96/155/94
f 98/150/90 81/162/101 99/168/105
f 81/174/101 101/180/107 99/182/105
f 79/160/100 84/139/78 77/148/88
f 39/1/1 4/183/12 1/2/2
f 1/4/2 3/93/54 51/5/4
f 6/7/5 3/184/54 1/8/2
f 1/4/2 4/185/12 8/10/7
f 55/12/8 6/99/5 5/13/6
f 7/15/9 5/9/6 8/16/7
f 9/18/11 8/186/7 4/19/12
f 11/21/14 10/25/10 8/22/7
f 11/21/14 13/29/18 12/24/15
f 15/26/16 7/15/9 10/17/10
f 47/28/17 14/46/19 12/24/15
f 14/30/19 17/38/21 15/26/16
f 16/31/20 15/34/16 17/32/21
f 55/12/8 7/14/9 15/34/16
f 20/35/23 18/33/22 17/32/21
f 14/30/19 22/41/27 19/37/24
f 20/35/23 19/36/24 21/39/25
f 22/41/27 24/187/29 21/42/25
f 23/43/28 25/86/31 24/44/29
f 23/43/28 22/45/27 14/46/19
f 26/47/30 24/188/29 25/48/31
f 26/50/30 29/61/35 21/51/25
f 31/53/33 29/189/35 26/54/30
f 28/56/32 48/75/44 27/57/34
f 29/59/35 30/190/37 56/60/26
f 29/61/35 31/65/33 32/62/36
f 33/64/38 34/69/41 32/62/36
f 33/66/38 31/53/33 27/55/34
f 35/68/40 49/90/51 34/69/41
f 33/66/38 36/67/39 38/70/42
f 36/72/39 37/76/45 40/73/43
f 36/72/39 27/57/34 48/75/44
f 38/70/42 39/1/1 2/3/3
f 38/74/42 40/73/43 41/77/46
f 42/79/47 43/88/13 41/77/46
f 37/76/45 44/87/49 42/79/47
f 42/80/47 45/81/48 9/18/11
f 45/81/48 42/80/47 44/82/49
f 46/84/50 47/28/17 13/29/18
f 25/48/31 46/83/50 44/82/49
f 44/87/49 37/76/45 48/75/44
f 39/78/1 41/77/46 43/88/13
f 35/68/40 2/6/3 51/5/4
f 49/90/51 50/92/53 52/91/52
f 50/92/53 49/90/51 51/5/4
f 50/94/53 3/184/54 6/7/5
f 54/96/56 52/100/52 50/94/53
f 53/97/55 16/31/20 18/33/22
f 56/60/26 30/190/37 52/100/52
f 52/91/52 30/63/37 32/62/36
f 71/101/57 60/191/70 58/102/58
f 66/104/60 61/117/71 70/105/61
f 59/107/63 62/128/72 65/108/64
f 76/110/66 72/192/74 68/111/67
f 57/125/69 59/107/63 64/109/65
f 58/114/58 60/116/70 62/118/72
f 61/127/71 66/193/60 65/108/64
f 67/129/73 74/194/76 73/112/68
f 70/130/61 72/192/74 76/110/66
f 69/121/59 68/120/67 72/124/74
f 67/132/73 69/103/59 58/102/58
f 61/134/71 60/191/70 71/101/57
f 74/136/76 67/195/73 57/113/69
f 92/138/77 77/148/88 84/139/78
f 83/141/80 79/175/100 80/142/81
f 91/144/83 105/172/93 104/145/84
f 102/146/86 101/170/107 78/147/87
f 94/149/89 82/163/102 98/150/90
f 91/152/83 93/196/108 97/153/92
f 96/155/94 100/181/106 103/156/95
f 92/138/77 104/145/84 102/146/86
f 90/158/97 93/196/110 91/152/98
f 85/164/103 82/163/102 94/149/89
f 81/174/101 80/142/81 79/175/100
f 87/140/79 88/197/99 91/144/98
f 95/151/91 97/167/92 93/177/108
f 86/178/82 80/161/81 82/163/102
f 89/165/104 94/149/89 93/177/110
f 95/151/91 98/150/90 100/169/106
f 101/180/107 103/156/95 100/181/106
f 104/145/84 106/173/96 103/171/95
f 106/157/96 105/154/93 97/153/92
f 98/150/90 82/163/102 81/162/101
f 81/174/101 78/176/87 101/180/107
f 79/160/100 83/198/80 84/139/78
