# Blender v3.4.1 OBJ File: 'restaurant.blend'
# www.blender.org
mtllib jar_B_small_Cylinder_264.mtl
o jar_B_small_Cylinder.264
v 0.000000 0.400000 -0.204902
v 0.000000 0.550000 0.000000
v 0.102451 0.400000 -0.177450
v 0.177450 0.400000 -0.102451
v 0.204902 0.400000 0.000000
v 0.177450 0.400000 0.102451
v 0.102451 0.400000 0.177450
v 0.000000 0.400000 0.204902
v -0.102451 0.400000 0.177450
v -0.177450 0.400000 0.102451
v -0.204902 0.400000 0.000000
v -0.177450 0.400000 -0.102451
v -0.102451 0.400000 -0.177450
v 0.000000 0.000000 0.000000
v 0.000000 0.340317 -0.250000
v 0.000000 0.200000 -0.283010
v 0.000000 0.059683 -0.250000
v -0.125000 0.059683 -0.216506
v -0.141505 0.200000 -0.245094
v -0.125000 0.340317 -0.216506
v 0.125000 0.340317 -0.216506
v 0.141505 0.200000 -0.245094
v 0.125000 0.059683 -0.216506
v 0.250000 0.340317 0.000000
v 0.283011 0.200000 0.000000
v 0.250000 0.059683 0.000000
v 0.216507 0.059683 -0.125000
v 0.245095 0.200000 -0.141505
v 0.216507 0.340317 -0.125000
v -0.216506 0.059683 -0.125000
v -0.245094 0.200000 -0.141505
v -0.216506 0.340317 -0.125000
v -0.250000 0.059683 0.000000
v -0.283010 0.200000 0.000000
v -0.250000 0.340317 0.000000
v -0.216506 0.059683 0.125000
v -0.245094 0.200000 0.141505
v -0.216506 0.340317 0.125000
v -0.125000 0.059683 0.216506
v -0.141505 0.200000 0.245094
v -0.125000 0.340317 0.216506
v 0.000000 0.059683 0.250000
v 0.000000 0.200000 0.283011
v 0.000000 0.340317 0.250000
v 0.125000 0.059683 0.216506
v 0.141505 0.200000 0.245094
v 0.125000 0.340317 0.216506
v 0.216507 0.059683 0.125000
v 0.245094 0.200000 0.141505
v 0.216507 0.340317 0.125000
v 0.000000 0.440626 -0.239664
v 0.000000 0.509373 -0.239664
v 0.119832 0.509373 -0.207555
v 0.119832 0.440626 -0.207555
v 0.207555 0.509373 -0.119832
v 0.207555 0.440626 -0.119832
v 0.239664 0.509373 0.000000
v 0.239664 0.440626 0.000000
v 0.207555 0.509373 0.119832
v 0.207555 0.440626 0.119832
v 0.119832 0.509373 0.207555
v 0.119832 0.440626 0.207555
v 0.000000 0.509373 0.239664
v 0.000000 0.440626 0.239664
v -0.119832 0.509373 0.207555
v -0.119832 0.440626 0.207555
v -0.207555 0.509373 0.119832
v -0.207555 0.440626 0.119832
v -0.239664 0.509373 0.000000
v -0.239664 0.440626 0.000000
v -0.207555 0.509373 -0.119832
v -0.207555 0.440626 -0.119832
v -0.119832 0.509373 -0.207555
v -0.119832 0.440626 -0.207555
v 0.102451 0.550000 -0.177450
v 0.000000 0.550000 -0.204902
v 0.177450 0.550000 -0.102451
v 0.204902 0.550000 0.000000
v 0.177450 0.550000 0.102451
v 0.102451 0.550000 0.177450
v 0.000000 0.550000 0.204902
v -0.102451 0.550000 0.177450
v -0.177450 0.550000 0.102451
v -0.204902 0.550000 0.000000
v -0.177450 0.550000 -0.102451
v -0.102451 0.550000 -0.177450
v 0.000000 0.000000 -0.204902
v 0.102451 0.000000 -0.177450
v 0.177450 0.000000 -0.102451
v 0.204902 0.000000 0.000000
v 0.177450 -0.000000 0.102451
v 0.102451 -0.000000 0.177450
v 0.000000 -0.000000 0.204902
v -0.102451 -0.000000 0.177450
v -0.177450 -0.000000 0.102451
v -0.204902 0.000000 0.000000
v -0.177450 0.000000 -0.102451
v -0.102451 0.000000 -0.177450
vt 0.438540 0.835307
vt 0.454548 0.829880
vt 0.438540 0.829880
vt 0.452226 0.835307
vt 0.466266 0.829880
vt 0.465912 0.835307
vt 0.470556 0.829880
vt 0.466266 0.829880
vt 0.462245 0.835307
vt 0.454548 0.829880
vt 0.438540 0.835307
vt 0.438540 0.829880
vt 0.422532 0.829880
vt 0.424854 0.835307
vt 0.410813 0.829880
vt 0.411168 0.835307
vt 0.406524 0.829880
vt 0.410813 0.829880
vt 0.414835 0.835307
vt 0.422532 0.829880
vt 0.421842 0.847933
vt 0.438540 0.839960
vt 0.424854 0.839960
vt 0.455238 0.847933
vt 0.438540 0.847933
vt 0.467462 0.847933
vt 0.465912 0.839960
vt 0.462245 0.839960
vt 0.409617 0.847933
vt 0.414835 0.839960
vt 0.452226 0.839960
vt 0.411168 0.839960
vt 0.405143 0.847933
vt 0.409617 0.847933
vt 0.414835 0.839960
vt 0.424854 0.839960
vt 0.421842 0.847933
vt 0.438540 0.839960
vt 0.438540 0.847933
vt 0.455238 0.847933
vt 0.452226 0.839960
vt 0.462245 0.839960
vt 0.467462 0.847933
vt 0.471936 0.847933
vt 0.465912 0.940269
vt 0.467462 0.932296
vt 0.471936 0.932296
vt 0.471936 0.901046
vt 0.471281 0.882302
vt 0.476346 0.882302
vt 0.471936 0.863558
vt 0.462245 0.940269
vt 0.455238 0.932296
vt 0.455238 0.901046
vt 0.467462 0.901046
vt 0.455238 0.863558
vt 0.467462 0.863558
vt 0.438540 0.940269
vt 0.452226 0.940269
vt 0.438540 0.901046
vt 0.457443 0.882302
vt 0.438540 0.863558
vt 0.421842 0.932296
vt 0.438540 0.932296
vt 0.419637 0.882302
vt 0.438540 0.882302
vt 0.414835 0.940269
vt 0.424854 0.940269
vt 0.409617 0.901046
vt 0.421842 0.901046
vt 0.405799 0.882302
vt 0.421842 0.863558
vt 0.411168 0.940269
vt 0.409617 0.932296
vt 0.405143 0.901046
vt 0.405143 0.863558
vt 0.409617 0.863558
vt 0.409617 0.932296
vt 0.405143 0.932296
vt 0.405799 0.882302
vt 0.400734 0.882302
vt 0.462245 0.940269
vt 0.455238 0.932296
vt 0.452226 0.940269
vt 0.467462 0.901046
vt 0.457443 0.882302
vt 0.455238 0.901046
vt 0.467462 0.863558
vt 0.455238 0.863558
vt 0.424854 0.940269
vt 0.414835 0.940269
vt 0.421842 0.901046
vt 0.409617 0.901046
vt 0.419637 0.882302
vt 0.409617 0.863558
vt 0.467462 0.932296
vt 0.471281 0.882302
vt 0.438540 0.940269
vt 0.438540 0.932296
vt 0.438540 0.901046
vt 0.438540 0.882302
vt 0.438540 0.863558
vt 0.421842 0.932296
vt 0.421842 0.863558
vt 0.422532 0.773821
vt 0.438540 0.768394
vt 0.424854 0.768394
vt 0.422532 0.814255
vt 0.438540 0.805071
vt 0.422532 0.805071
vt 0.410813 0.773821
vt 0.414835 0.768394
vt 0.410813 0.814255
vt 0.410813 0.805071
vt 0.411168 0.768394
vt 0.406524 0.814255
vt 0.406524 0.805071
vt 0.410813 0.773821
vt 0.414835 0.768394
vt 0.410813 0.814255
vt 0.410813 0.805071
vt 0.422532 0.773821
vt 0.424854 0.768394
vt 0.422532 0.814255
vt 0.422532 0.805071
vt 0.438540 0.768394
vt 0.438540 0.814255
vt 0.438540 0.805071
vt 0.454548 0.773821
vt 0.452226 0.768394
vt 0.454548 0.814255
vt 0.454548 0.805071
vt 0.466266 0.773821
vt 0.462245 0.768394
vt 0.466266 0.814255
vt 0.466266 0.805071
vt 0.465912 0.768394
vt 0.470556 0.814255
vt 0.470556 0.805071
vt 0.466266 0.773821
vt 0.462245 0.768394
vt 0.466266 0.814255
vt 0.466266 0.805071
vt 0.454548 0.773821
vt 0.452226 0.768394
vt 0.454548 0.814255
vt 0.454548 0.805071
vt 0.438540 0.814255
vt 0.438540 0.850932
vt 0.452226 0.850932
vt 0.438540 0.850932
vt 0.462245 0.850932
vt 0.465912 0.850932
vt 0.462245 0.850932
vt 0.452226 0.850932
vt 0.438540 0.850932
vt 0.424854 0.850932
vt 0.414835 0.850932
vt 0.411168 0.850932
vt 0.414835 0.850932
vt 0.424854 0.850932
vt 0.438540 0.824335
vt 0.438540 0.824335
vt 0.452226 0.824335
vt 0.462245 0.824335
vt 0.465912 0.824335
vt 0.462245 0.824335
vt 0.452226 0.824335
vt 0.438540 0.824335
vt 0.424854 0.824335
vt 0.414835 0.824335
vt 0.411168 0.824335
vt 0.414835 0.824335
vt 0.424854 0.824335
vt 0.462245 0.835307
vt 0.452226 0.835307
vt 0.414835 0.835307
vt 0.424854 0.835307
vt 0.438540 0.773821
vt 0.406524 0.773821
vt 0.438540 0.773821
vt 0.470556 0.773821
vn 0.0000 0.6501 -0.7598
vn 0.4721 0.3293 -0.8177
vn 0.0000 0.3293 -0.9442
vn 0.3799 0.6501 -0.6580
vn 0.8177 0.3293 -0.4721
vn 0.7598 0.6501 0.0000
vn 0.9442 0.3293 0.0000
vn 0.8177 0.3293 0.4721
vn 0.6580 0.6501 0.3799
vn 0.4721 0.3293 0.8177
vn 0.0000 0.6501 0.7598
vn 0.0000 0.3293 0.9442
vn -0.4721 0.3293 0.8177
vn -0.3799 0.6501 0.6580
vn -0.8177 0.3293 0.4721
vn -0.7598 0.6501 -0.0000
vn -0.9442 0.3293 0.0000
vn -0.8177 0.3293 -0.4721
vn -0.6580 0.6501 -0.3799
vn -0.4721 0.3293 -0.8177
vn -0.4555 -0.4125 -0.7889
vn 0.0000 -0.6029 -0.7978
vn -0.3989 -0.6029 -0.6909
vn 0.4555 -0.4125 -0.7889
vn 0.0000 -0.4125 -0.9110
vn 0.7889 -0.4125 -0.4555
vn 0.7978 -0.6029 -0.0000
vn 0.6909 -0.6029 -0.3989
vn -0.7889 -0.4125 -0.4555
vn -0.6909 -0.6029 -0.3989
vn 0.3989 -0.6029 -0.6909
vn -0.7978 -0.6029 -0.0000
vn -0.9110 -0.4125 -0.0000
vn -0.7889 -0.4125 0.4555
vn -0.6909 -0.6029 0.3989
vn -0.3989 -0.6029 0.6909
vn -0.4555 -0.4125 0.7889
vn -0.0000 -0.6029 0.7978
vn 0.0000 -0.4125 0.9110
vn 0.4555 -0.4125 0.7889
vn 0.3989 -0.6029 0.6909
vn 0.6909 -0.6029 0.3989
vn 0.7889 -0.4125 0.4555
vn 0.9110 -0.4125 0.0000
vn 0.7978 0.6029 0.0000
vn 0.7889 0.4125 0.4555
vn 0.9110 0.4125 0.0000
vn 0.8660 -0.0000 0.5000
vn 1.0000 0.0000 0.0000
vn 0.6909 0.6029 0.3989
vn 0.4555 0.4125 0.7889
vn -0.0000 0.6029 0.7978
vn 0.3989 0.6029 0.6909
vn 0.0000 0.4125 0.9110
vn 0.5000 -0.0000 0.8660
vn -0.4555 0.4125 0.7889
vn -0.5000 -0.0000 0.8660
vn -0.0000 -0.0000 1.0000
vn -0.6909 0.6029 0.3989
vn -0.3989 0.6029 0.6909
vn -0.7889 0.4125 0.4555
vn -0.8660 -0.0000 0.5000
vn -0.7978 0.6029 0.0000
vn -0.9110 0.4125 0.0000
vn -0.7889 0.4125 -0.4555
vn -0.8660 0.0000 -0.5000
vn -1.0000 0.0000 -0.0000
vn 0.6909 0.6029 -0.3989
vn 0.4555 0.4125 -0.7889
vn 0.3989 0.6029 -0.6909
vn 0.7889 0.4125 -0.4555
vn 0.5000 0.0000 -0.8660
vn -0.3989 0.6029 -0.6909
vn -0.6909 0.6029 -0.3989
vn -0.4555 0.4125 -0.7889
vn -0.5000 0.0000 -0.8660
vn 0.8660 0.0000 -0.5000
vn 0.0000 0.6029 -0.7978
vn -0.0000 0.4125 -0.9110
vn 0.0000 0.0000 -1.0000
vn -0.4721 -0.3293 -0.8177
vn 0.0000 -0.6501 -0.7598
vn -0.3799 -0.6501 -0.6580
vn 0.0000 -0.3293 -0.9442
vn -0.8177 -0.3293 -0.4721
vn -0.6580 -0.6501 -0.3799
vn -0.7598 -0.6501 -0.0000
vn -0.9442 -0.3293 -0.0000
vn -0.8177 -0.3293 0.4721
vn -0.6580 -0.6501 0.3799
vn -0.4721 -0.3293 0.8177
vn -0.3799 -0.6501 0.6580
vn 0.0000 -0.6501 0.7598
vn 0.0000 -0.3293 0.9442
vn 0.4721 -0.3293 0.8177
vn 0.3799 -0.6501 0.6580
vn 0.8177 -0.3293 0.4721
vn 0.6580 -0.6501 0.3799
vn 0.7598 -0.6501 -0.0000
vn 0.9442 -0.3293 -0.0000
vn 0.8177 -0.3293 -0.4721
vn 0.6580 -0.6501 -0.3799
vn 0.4721 -0.3293 -0.8177
vn 0.3799 -0.6501 -0.6580
vn 0.0000 1.0000 0.0000
vn 0.0000 -1.0000 -0.0000
vn 0.6580 0.6501 -0.3799
vn 0.3799 0.6501 0.6580
vn -0.6580 0.6501 0.3799
vn -0.3799 0.6501 -0.6580
usemtl restaurant.101
s 1
f 76/1/1 53/2/2 52/3/3
f 75/4/4 55/5/5 53/2/2
f 55/5/5 78/6/6 57/7/7
f 78/6/6 59/8/8 57/7/7
f 79/9/9 61/10/10 59/8/8
f 61/10/10 81/11/11 63/12/12
f 81/11/11 65/13/13 63/12/12
f 82/14/14 67/15/15 65/13/13
f 67/15/15 84/16/16 69/17/17
f 84/16/16 71/18/18 69/17/17
f 85/19/19 73/20/20 71/18/18
f 73/20/20 76/1/1 52/3/3
f 18/21/21 87/22/22 98/23/23
f 23/24/24 87/22/22 17/25/25
f 27/26/26 90/27/27 89/28/28
f 30/29/29 98/23/23 97/30/30
f 23/24/24 89/28/28 88/31/31
f 30/29/29 96/32/32 33/33/33
f 36/34/34 96/32/32 95/35/35
f 36/34/34 94/36/36 39/37/37
f 39/37/37 93/38/38 42/39/39
f 45/40/40 93/38/38 92/41/41
f 45/40/40 91/42/42 48/43/43
f 48/43/43 90/27/27 26/44/44
f 5/45/45 50/46/46 24/47/47
f 24/48/47 49/49/48 25/50/49
f 49/49/48 26/51/44 25/50/49
f 6/52/50 47/53/51 50/46/46
f 47/54/51 49/49/48 50/55/46
f 49/49/48 45/56/40 48/57/43
f 8/58/52 47/53/51 7/59/53
f 44/60/54 46/61/55 47/54/51
f 46/61/55 42/62/39 45/56/40
f 8/58/52 41/63/56 44/64/54
f 44/60/54 40/65/57 43/66/58
f 40/65/57 42/62/39 43/66/58
f 10/67/59 41/63/56 9/68/60
f 38/69/61 40/65/57 41/70/56
f 37/71/62 39/72/37 40/65/57
f 11/73/63 38/74/61 10/67/59
f 35/75/64 37/71/62 38/69/61
f 37/71/62 33/76/33 36/77/34
f 11/73/63 32/78/65 35/79/64
f 35/75/64 31/80/66 34/81/67
f 31/80/66 33/76/33 34/81/67
f 4/82/68 21/83/69 3/84/70
f 29/85/71 22/86/72 21/87/69
f 22/86/72 27/88/26 23/89/24
f 13/90/73 32/78/65 12/91/74
f 20/92/75 31/80/66 32/93/65
f 19/94/76 30/95/29 31/80/66
f 5/45/45 29/96/71 4/82/68
f 24/48/47 28/97/77 29/85/71
f 28/97/77 26/51/44 27/88/26
f 1/98/78 21/83/69 15/99/79
f 15/100/79 22/86/72 16/101/80
f 22/86/72 17/102/25 16/101/80
f 1/98/78 20/103/75 13/90/73
f 15/100/79 19/94/76 20/92/75
f 19/94/76 17/102/25 18/104/21
f 74/105/81 1/106/82 13/107/83
f 73/108/20 51/109/84 74/110/81
f 72/111/85 13/107/83 12/112/86
f 71/113/18 74/110/81 72/114/85
f 11/115/87 72/111/85 12/112/86
f 69/116/17 72/114/85 70/117/88
f 68/118/89 11/115/87 10/119/90
f 67/120/15 70/117/88 68/121/89
f 66/122/91 10/119/90 9/123/92
f 65/124/13 68/121/89 66/125/91
f 8/126/93 66/122/91 9/123/92
f 63/127/12 66/125/91 64/128/94
f 62/129/95 8/126/93 7/130/96
f 61/131/10 64/128/94 62/132/95
f 60/133/97 7/130/96 6/134/98
f 59/135/8 62/132/95 60/136/97
f 5/137/99 60/133/97 6/134/98
f 57/138/7 60/136/97 58/139/100
f 56/140/101 5/137/99 4/141/102
f 55/142/5 58/139/100 56/143/101
f 54/144/103 4/141/102 3/145/104
f 53/146/2 56/143/101 54/147/103
f 1/106/82 54/144/103 3/145/104
f 52/148/3 54/147/103 51/109/84
f 2/149/105 75/150/105 76/151/105
f 2/149/105 77/152/105 75/150/105
f 2/149/105 78/153/105 77/152/105
f 2/149/105 79/154/105 78/153/105
f 2/149/105 80/155/105 79/154/105
f 2/149/105 81/156/105 80/155/105
f 2/149/105 82/157/105 81/156/105
f 2/149/105 83/158/105 82/157/105
f 2/149/105 84/159/105 83/158/105
f 2/149/105 85/160/105 84/159/105
f 2/149/105 86/161/105 85/160/105
f 2/149/105 76/151/105 86/161/105
f 14/162/106 87/163/106 88/164/106
f 14/162/106 88/164/106 89/165/106
f 14/162/106 89/165/106 90/166/106
f 14/162/106 90/166/106 91/167/106
f 14/162/106 91/167/106 92/168/106
f 14/162/106 92/168/106 93/169/106
f 14/162/106 93/169/106 94/170/106
f 14/162/106 94/170/106 95/171/106
f 14/162/106 95/171/106 96/172/106
f 14/162/106 96/172/106 97/173/106
f 14/162/106 97/173/106 98/174/106
f 14/162/106 98/174/106 87/163/106
f 76/1/1 75/4/4 53/2/2
f 75/4/4 77/175/107 55/5/5
f 55/5/5 77/175/107 78/6/6
f 78/6/6 79/9/9 59/8/8
f 79/9/9 80/176/108 61/10/10
f 61/10/10 80/176/108 81/11/11
f 81/11/11 82/14/14 65/13/13
f 82/14/14 83/177/109 67/15/15
f 67/15/15 83/177/109 84/16/16
f 84/16/16 85/19/19 71/18/18
f 85/19/19 86/178/110 73/20/20
f 73/20/20 86/178/110 76/1/1
f 18/21/21 17/25/25 87/22/22
f 23/24/24 88/31/31 87/22/22
f 27/26/26 26/44/44 90/27/27
f 30/29/29 18/21/21 98/23/23
f 23/24/24 27/26/26 89/28/28
f 30/29/29 97/30/30 96/32/32
f 36/34/34 33/33/33 96/32/32
f 36/34/34 95/35/35 94/36/36
f 39/37/37 94/36/36 93/38/38
f 45/40/40 42/39/39 93/38/38
f 45/40/40 92/41/41 91/42/42
f 48/43/43 91/42/42 90/27/27
f 5/45/45 6/52/50 50/46/46
f 24/48/47 50/55/46 49/49/48
f 49/49/48 48/57/43 26/51/44
f 6/52/50 7/59/53 47/53/51
f 47/54/51 46/61/55 49/49/48
f 49/49/48 46/61/55 45/56/40
f 8/58/52 44/64/54 47/53/51
f 44/60/54 43/66/58 46/61/55
f 46/61/55 43/66/58 42/62/39
f 8/58/52 9/68/60 41/63/56
f 44/60/54 41/70/56 40/65/57
f 40/65/57 39/72/37 42/62/39
f 10/67/59 38/74/61 41/63/56
f 38/69/61 37/71/62 40/65/57
f 37/71/62 36/77/34 39/72/37
f 11/73/63 35/79/64 38/74/61
f 35/75/64 34/81/67 37/71/62
f 37/71/62 34/81/67 33/76/33
f 11/73/63 12/91/74 32/78/65
f 35/75/64 32/93/65 31/80/66
f 31/80/66 30/95/29 33/76/33
f 4/82/68 29/96/71 21/83/69
f 29/85/71 28/97/77 22/86/72
f 22/86/72 28/97/77 27/88/26
f 13/90/73 20/103/75 32/78/65
f 20/92/75 19/94/76 31/80/66
f 19/94/76 18/104/21 30/95/29
f 5/45/45 24/47/47 29/96/71
f 24/48/47 25/50/49 28/97/77
f 28/97/77 25/50/49 26/51/44
f 1/98/78 3/84/70 21/83/69
f 15/100/79 21/87/69 22/86/72
f 22/86/72 23/89/24 17/102/25
f 1/98/78 15/99/79 20/103/75
f 15/100/79 16/101/80 19/94/76
f 19/94/76 16/101/80 17/102/25
f 74/105/81 51/179/84 1/106/82
f 73/108/20 52/148/3 51/109/84
f 72/111/85 74/105/81 13/107/83
f 71/113/18 73/108/20 74/110/81
f 11/115/87 70/180/88 72/111/85
f 69/116/17 71/113/18 72/114/85
f 68/118/89 70/180/88 11/115/87
f 67/120/15 69/116/17 70/117/88
f 66/122/91 68/118/89 10/119/90
f 65/124/13 67/120/15 68/121/89
f 8/126/93 64/181/94 66/122/91
f 63/127/12 65/124/13 66/125/91
f 62/129/95 64/181/94 8/126/93
f 61/131/10 63/127/12 64/128/94
f 60/133/97 62/129/95 7/130/96
f 59/135/8 61/131/10 62/132/95
f 5/137/99 58/182/100 60/133/97
f 57/138/7 59/135/8 60/136/97
f 56/140/101 58/182/100 5/137/99
f 55/142/5 57/138/7 58/139/100
f 54/144/103 56/140/101 4/141/102
f 53/146/2 55/142/5 56/143/101
f 1/106/82 51/179/84 54/144/103
f 52/148/3 53/146/2 54/147/103
