# Blender v3.4.1 OBJ File: 'restaurant.blend'
# www.blender.org
mtllib jar_C_medium_Cylinder_268.mtl
o jar_C_medium_Cylinder.268
v 0.000000 0.500000 -0.204902
v 0.000000 0.650000 0.000000
v 0.102450 0.500000 -0.177450
v 0.177450 0.500000 -0.102451
v 0.204901 0.500000 0.000000
v 0.177450 0.500000 0.102451
v 0.102450 0.500000 0.177450
v 0.000000 0.500000 0.204902
v -0.102451 0.500000 0.177450
v -0.177450 0.500000 0.102451
v -0.204902 0.500000 0.000000
v -0.177450 0.500000 -0.102451
v -0.102451 0.500000 -0.177450
v 0.000000 0.000000 0.000000
v 0.000000 0.440317 -0.250000
v 0.000000 0.059683 -0.250000
v -0.125000 0.059683 -0.216506
v -0.125000 0.440317 -0.216506
v 0.125000 0.440317 -0.216506
v 0.125000 0.059683 -0.216506
v 0.250000 0.440317 0.000000
v 0.250000 0.059683 0.000000
v 0.216506 0.059683 -0.125000
v 0.216506 0.440317 -0.125000
v -0.216507 0.059683 -0.125000
v -0.216507 0.440317 -0.125000
v -0.250000 0.059683 0.000000
v -0.250000 0.440317 0.000000
v -0.168535 0.164514 0.172972
v -0.168535 0.369963 0.172972
v -0.125000 0.164514 0.216506
v -0.125000 0.369963 0.216506
v 0.000000 0.164514 0.250000
v 0.000000 0.369963 0.250000
v 0.125000 0.164514 0.216506
v 0.125000 0.369963 0.216506
v 0.168534 0.164514 0.172972
v 0.168534 0.369963 0.172972
v 0.000000 0.540626 -0.239664
v 0.000000 0.609373 -0.239664
v 0.119832 0.609373 -0.207555
v 0.119832 0.540626 -0.207555
v 0.207555 0.609373 -0.119832
v 0.207555 0.540626 -0.119832
v 0.239664 0.609373 0.000000
v 0.239664 0.540626 0.000000
v 0.207555 0.609373 0.119832
v 0.207555 0.540626 0.119832
v 0.119832 0.609373 0.207555
v 0.119832 0.540626 0.207555
v 0.000000 0.609373 0.239664
v 0.000000 0.540626 0.239664
v -0.119832 0.609373 0.207555
v -0.119832 0.540626 0.207555
v -0.207556 0.609373 0.119832
v -0.207556 0.540626 0.119832
v -0.239664 0.609373 0.000000
v -0.239664 0.540626 0.000000
v -0.207556 0.609373 -0.119832
v -0.207556 0.540626 -0.119832
v -0.119832 0.609373 -0.207555
v -0.119832 0.540626 -0.207555
v 0.102450 0.650000 -0.177450
v 0.000000 0.650000 -0.204902
v 0.177450 0.650000 -0.102451
v 0.204901 0.650000 0.000000
v 0.177450 0.650000 0.102451
v 0.102450 0.650000 0.177450
v 0.000000 0.650000 0.204902
v -0.102451 0.650000 0.177450
v -0.177450 0.650000 0.102451
v -0.204902 0.650000 0.000000
v -0.177450 0.650000 -0.102451
v -0.102451 0.650000 -0.177450
v 0.000000 0.000000 -0.204902
v 0.102450 0.000000 -0.177450
v 0.177450 0.000000 -0.102451
v 0.204901 0.000000 0.000000
v 0.177450 -0.000000 0.102451
v 0.102450 -0.000000 0.177450
v 0.000000 -0.000000 0.204902
v -0.102451 -0.000000 0.177450
v -0.177450 -0.000000 0.102451
v -0.204902 0.000000 0.000000
v -0.177450 0.000000 -0.102451
v -0.102451 0.000000 -0.177450
v -0.216507 0.059683 0.125000
v -0.216507 0.440317 0.125000
v 0.216506 0.059683 0.125000
v 0.216506 0.440317 0.125000
v 0.125000 0.440317 0.216506
v 0.125000 0.059683 0.216506
v 0.000000 0.440317 0.250000
v 0.000000 0.059683 0.250000
v -0.125000 0.440317 0.216506
v -0.125000 0.059683 0.216506
vt 0.813540 0.905484
vt 0.827226 0.915878
vt 0.829548 0.905484
vt 0.837245 0.915878
vt 0.841266 0.905484
vt 0.840911 0.915878
vt 0.845556 0.905484
vt 0.841266 0.905484
vt 0.837245 0.915878
vt 0.829548 0.905484
vt 0.827226 0.915878
vt 0.813540 0.905484
vt 0.813540 0.915878
vt 0.797532 0.905484
vt 0.789835 0.915878
vt 0.785813 0.905484
vt 0.786168 0.915878
vt 0.781524 0.905484
vt 0.785813 0.905484
vt 0.789835 0.915878
vt 0.797532 0.905484
vt 0.813540 0.915878
vt 0.671842 0.551058
vt 0.688540 0.543085
vt 0.674854 0.543085
vt 0.688540 0.551058
vt 0.702226 0.543085
vt 0.717462 0.551058
vt 0.715911 0.543085
vt 0.712245 0.543085
vt 0.664835 0.543085
vt 0.659617 0.551058
vt 0.705238 0.551058
vt 0.661168 0.543085
vt 0.655143 0.551058
vt 0.659617 0.551058
vt 0.664835 0.543085
vt 0.671842 0.551058
vt 0.674854 0.543085
vt 0.688540 0.543085
vt 0.688540 0.551058
vt 0.702226 0.543085
vt 0.705238 0.551058
vt 0.712245 0.543085
vt 0.717462 0.551058
vt 0.721936 0.551058
vt 0.715911 0.656753
vt 0.717462 0.648780
vt 0.721936 0.648780
vt 0.711054 0.643187
vt 0.705238 0.670632
vt 0.705238 0.643187
vt 0.712245 0.656753
vt 0.705238 0.648780
vt 0.688540 0.670632
vt 0.688540 0.643187
vt 0.702226 0.656753
vt 0.688540 0.648780
vt 0.671842 0.670632
vt 0.671842 0.643187
vt 0.688540 0.656753
vt 0.671842 0.648780
vt 0.666026 0.670632
vt 0.666026 0.643187
vt 0.664835 0.656753
vt 0.674854 0.656753
vt 0.659617 0.566683
vt 0.655143 0.617530
vt 0.655143 0.566683
vt 0.661168 0.656753
vt 0.659617 0.648780
vt 0.659617 0.617530
vt 0.659617 0.566683
vt 0.659617 0.648780
vt 0.655143 0.648780
vt 0.705238 0.566683
vt 0.717462 0.617530
vt 0.717462 0.566683
vt 0.712245 0.656753
vt 0.705238 0.648780
vt 0.702226 0.656753
vt 0.671842 0.617530
vt 0.671842 0.566683
vt 0.664835 0.656753
vt 0.671842 0.648780
vt 0.721936 0.566683
vt 0.721936 0.617530
vt 0.717462 0.648780
vt 0.688540 0.617530
vt 0.705238 0.617530
vt 0.688540 0.648780
vt 0.688540 0.656753
vt 0.688540 0.566683
vt 0.674854 0.656753
vt 0.797532 0.798116
vt 0.813540 0.787722
vt 0.799854 0.787722
vt 0.797532 0.875558
vt 0.813540 0.857968
vt 0.797532 0.857968
vt 0.789835 0.787722
vt 0.785813 0.875558
vt 0.785813 0.857968
vt 0.786168 0.787722
vt 0.785813 0.798116
vt 0.781524 0.875558
vt 0.781524 0.857968
vt 0.785813 0.798116
vt 0.789835 0.787722
vt 0.785813 0.875558
vt 0.785813 0.857968
vt 0.797532 0.798116
vt 0.799854 0.787722
vt 0.797532 0.875558
vt 0.797532 0.857968
vt 0.813540 0.787722
vt 0.813540 0.875558
vt 0.813540 0.857968
vt 0.827226 0.787722
vt 0.813540 0.798116
vt 0.829548 0.875558
vt 0.829548 0.857968
vt 0.837245 0.787722
vt 0.829548 0.798116
vt 0.841266 0.875558
vt 0.841266 0.857968
vt 0.840911 0.787722
vt 0.841266 0.798116
vt 0.845556 0.875558
vt 0.845556 0.857968
vt 0.841266 0.798116
vt 0.837245 0.787722
vt 0.841266 0.875558
vt 0.841266 0.857968
vt 0.829548 0.798116
vt 0.827226 0.787722
vt 0.829548 0.875558
vt 0.829548 0.857968
vt 0.813540 0.798116
vt 0.813540 0.875558
vt 0.813540 0.945804
vt 0.827226 0.945804
vt 0.813540 0.945804
vt 0.837245 0.945804
vt 0.840911 0.945804
vt 0.837245 0.945804
vt 0.827226 0.945804
vt 0.813540 0.945804
vt 0.799854 0.945804
vt 0.789835 0.945804
vt 0.786168 0.945804
vt 0.789835 0.945804
vt 0.799854 0.945804
vt 0.688540 0.527460
vt 0.688540 0.527460
vt 0.702226 0.527460
vt 0.712245 0.527460
vt 0.715911 0.527460
vt 0.712245 0.527460
vt 0.702226 0.527460
vt 0.688540 0.527460
vt 0.674854 0.527460
vt 0.664835 0.527460
vt 0.661168 0.527460
vt 0.664835 0.527460
vt 0.674854 0.527460
vt 0.717462 0.617530
vt 0.717462 0.566683
vt 0.666026 0.580687
vt 0.659617 0.617530
vt 0.711054 0.580687
vt 0.711054 0.608132
vt 0.705238 0.617530
vt 0.705238 0.608132
vt 0.705238 0.566683
vt 0.688540 0.617530
vt 0.688540 0.608132
vt 0.688540 0.580687
vt 0.705238 0.580687
vt 0.671842 0.617530
vt 0.671842 0.608132
vt 0.671842 0.580687
vt 0.688540 0.566683
vt 0.666026 0.608132
vt 0.671842 0.566683
vt 0.799854 0.915878
vt 0.799854 0.915878
vt 0.711054 0.670632
vt 0.781524 0.798116
vt 0.845556 0.798116
vn 0.0000 0.3293 -0.9442
vn 0.3799 0.6501 -0.6580
vn 0.4721 0.3293 -0.8177
vn 0.6580 0.6501 -0.3799
vn 0.8177 0.3293 -0.4721
vn 0.7598 0.6501 0.0000
vn 0.9442 0.3293 -0.0000
vn 0.8177 0.3293 0.4721
vn 0.6580 0.6501 0.3799
vn 0.4721 0.3293 0.8177
vn 0.3799 0.6501 0.6580
vn 0.0000 0.3293 0.9442
vn 0.0000 0.6501 0.7598
vn -0.4721 0.3293 0.8177
vn -0.6580 0.6501 0.3799
vn -0.8177 0.3293 0.4721
vn -0.7598 0.6501 0.0000
vn -0.9442 0.3293 0.0000
vn -0.8177 0.3293 -0.4721
vn -0.6580 0.6501 -0.3799
vn -0.4721 0.3293 -0.8177
vn 0.0000 0.6501 -0.7598
vn -0.4765 -0.3032 -0.8253
vn 0.0000 -0.6029 -0.7978
vn -0.3989 -0.6029 -0.6909
vn 0.0000 -0.3032 -0.9529
vn 0.3989 -0.6029 -0.6909
vn 0.8253 -0.3032 -0.4765
vn 0.7978 -0.6029 -0.0000
vn 0.6910 -0.6029 -0.3989
vn -0.6909 -0.6029 -0.3989
vn -0.8253 -0.3032 -0.4765
vn 0.4765 -0.3032 -0.8253
vn -0.7978 -0.6029 -0.0000
vn -0.9529 -0.3032 -0.0000
vn -0.8253 -0.3032 0.4765
vn -0.6909 -0.6029 0.3989
vn -0.4765 -0.3032 0.8253
vn -0.3989 -0.6029 0.6909
vn 0.0000 -0.6029 0.7978
vn 0.0000 -0.3032 0.9529
vn 0.3989 -0.6029 0.6909
vn 0.4765 -0.3032 0.8253
vn 0.6910 -0.6029 0.3989
vn 0.8253 -0.3032 0.4765
vn 0.9529 -0.3032 -0.0000
vn 0.7978 0.6029 0.0000
vn 0.8253 0.3032 0.4765
vn 0.9529 0.3032 0.0000
vn 0.7071 -0.0000 0.7071
vn 0.5000 -0.0000 0.8660
vn 0.6910 0.6029 0.3989
vn 0.4765 0.3032 0.8253
vn -0.0000 -0.0000 1.0000
vn 0.3989 0.6029 0.6909
vn 0.0000 0.3032 0.9529
vn -0.5000 -0.0000 0.8660
vn 0.0000 0.6029 0.7978
vn -0.4765 0.3032 0.8253
vn -0.7071 0.0000 0.7071
vn -0.6909 0.6029 0.3989
vn -0.3989 0.6029 0.6909
vn -0.9529 0.3032 0.0000
vn -0.7978 0.6029 0.0000
vn -0.8253 0.3032 0.4765
vn -0.8253 0.3032 -0.4765
vn 0.8253 0.3032 -0.4765
vn 0.6910 0.6029 -0.3989
vn 0.4765 0.3032 -0.8253
vn 0.3989 0.6029 -0.6909
vn -0.4765 0.3032 -0.8253
vn -0.6909 0.6029 -0.3989
vn 0.0000 0.3032 -0.9529
vn 0.0000 0.6029 -0.7978
vn -0.3989 0.6029 -0.6909
vn -0.4721 -0.3293 -0.8177
vn 0.0000 -0.6501 -0.7598
vn -0.3799 -0.6501 -0.6580
vn 0.0000 -0.3293 -0.9442
vn -0.6580 -0.6502 -0.3799
vn -0.8177 -0.3293 -0.4721
vn -0.7598 -0.6501 -0.0000
vn -0.9442 -0.3293 0.0000
vn -0.8177 -0.3293 0.4721
vn -0.6580 -0.6502 0.3799
vn -0.4721 -0.3293 0.8177
vn -0.3799 -0.6501 0.6580
vn 0.0000 -0.6501 0.7598
vn 0.0000 -0.3293 0.9442
vn 0.3799 -0.6501 0.6580
vn 0.4721 -0.3293 0.8177
vn 0.6580 -0.6501 0.3799
vn 0.8177 -0.3293 0.4721
vn 0.7598 -0.6502 -0.0000
vn 0.9442 -0.3293 -0.0000
vn 0.8177 -0.3293 -0.4721
vn 0.6580 -0.6501 -0.3799
vn 0.4721 -0.3293 -0.8177
vn 0.3799 -0.6501 -0.6580
vn 0.0000 1.0000 0.0000
vn 0.0000 -1.0000 -0.0000
vn -0.3799 0.6501 0.6580
vn -0.3799 0.6501 -0.6580
usemtl restaurant.106
s 1
f 40/1/1 63/2/2 41/3/3
f 41/3/3 65/4/4 43/5/5
f 43/5/5 66/6/6 45/7/7
f 66/6/6 47/8/8 45/7/7
f 67/9/9 49/10/10 47/8/8
f 68/11/11 51/12/12 49/10/10
f 69/13/13 53/14/14 51/12/12
f 53/14/14 71/15/15 55/16/16
f 55/16/16 72/17/17 57/18/18
f 72/17/17 59/19/19 57/18/18
f 73/20/20 61/21/21 59/19/19
f 61/21/21 64/22/22 40/1/1
f 17/23/23 75/24/24 86/25/25
f 16/26/26 76/27/27 75/24/24
f 23/28/28 78/29/29 77/30/30
f 17/23/23 85/31/31 25/32/32
f 20/33/33 77/30/30 76/27/27
f 25/32/32 84/34/34 27/35/35
f 87/36/36 84/34/34 83/37/37
f 96/38/38 83/37/37 82/39/39
f 96/38/38 81/40/40 94/41/41
f 94/41/41 80/42/42 92/43/43
f 92/43/43 79/44/44 89/45/45
f 89/45/45 78/29/29 22/46/46
f 5/47/47 90/48/48 21/49/49
f 37/50/50 36/51/51 35/52/51
f 6/53/52 91/54/53 90/48/48
f 35/52/51 34/55/54 33/56/54
f 7/57/55 93/58/56 91/54/53
f 33/56/54 32/59/57 31/60/57
f 8/61/58 95/62/59 93/58/56
f 31/60/57 30/63/60 29/64/60
f 10/65/61 95/62/59 9/66/62
f 87/67/36 28/68/63 27/69/35
f 11/70/64 88/71/65 10/65/61
f 27/69/35 26/72/66 25/73/32
f 11/70/64 26/74/66 28/75/63
f 20/76/33 24/77/67 23/78/28
f 4/79/68 19/80/69 3/81/70
f 25/73/32 18/82/71 17/83/23
f 12/84/72 18/85/71 26/74/66
f 22/86/46 24/77/67 21/87/49
f 5/47/47 24/88/67 4/79/68
f 20/76/33 15/89/73 19/90/69
f 3/81/70 15/91/73 1/92/74
f 16/93/26 18/82/71 15/89/73
f 1/92/74 18/85/71 13/94/75
f 62/95/76 1/96/77 13/97/78
f 61/98/21 39/99/79 62/100/76
f 12/101/80 62/95/76 13/97/78
f 59/102/19 62/100/76 60/103/81
f 11/104/82 60/105/81 12/101/80
f 57/106/18 60/103/81 58/107/83
f 56/108/84 11/104/82 10/109/85
f 55/110/16 58/107/83 56/111/84
f 54/112/86 10/109/85 9/113/87
f 53/114/14 56/111/84 54/115/86
f 8/116/88 54/112/86 9/113/87
f 51/117/12 54/115/86 52/118/89
f 7/119/90 52/120/89 8/116/88
f 49/121/10 52/118/89 50/122/91
f 6/123/92 50/124/91 7/119/90
f 47/125/8 50/122/91 48/126/93
f 5/127/94 48/128/93 6/123/92
f 45/129/7 48/126/93 46/130/95
f 44/131/96 5/127/94 4/132/97
f 43/133/5 46/130/95 44/134/96
f 42/135/98 4/132/97 3/136/99
f 41/137/3 44/134/96 42/138/98
f 39/139/79 3/136/99 1/96/77
f 40/140/1 42/138/98 39/99/79
f 2/141/100 63/142/100 64/143/100
f 2/141/100 65/144/100 63/142/100
f 2/141/100 66/145/100 65/144/100
f 2/141/100 67/146/100 66/145/100
f 2/141/100 68/147/100 67/146/100
f 2/141/100 69/148/100 68/147/100
f 2/141/100 70/149/100 69/148/100
f 2/141/100 71/150/100 70/149/100
f 2/141/100 72/151/100 71/150/100
f 2/141/100 73/152/100 72/151/100
f 2/141/100 74/153/100 73/152/100
f 2/141/100 64/143/100 74/153/100
f 14/154/101 75/155/101 76/156/101
f 14/154/101 76/156/101 77/157/101
f 14/154/101 77/157/101 78/158/101
f 14/154/101 78/158/101 79/159/101
f 14/154/101 79/159/101 80/160/101
f 14/154/101 80/160/101 81/161/101
f 14/154/101 81/161/101 82/162/101
f 14/154/101 82/162/101 83/163/101
f 14/154/101 83/163/101 84/164/101
f 14/154/101 84/164/101 85/165/101
f 14/154/101 85/165/101 86/166/101
f 14/154/101 86/166/101 75/155/101
f 22/86/46 90/167/48 89/168/45
f 29/169/60 88/170/65 87/67/36
f 37/171/50 90/167/48 38/172/50
f 38/172/50 91/173/53 36/174/51
f 37/171/50 92/175/43 89/168/45
f 36/174/51 93/176/56 34/177/54
f 33/178/54 92/175/43 35/179/51
f 34/177/54 95/180/59 32/181/57
f 31/182/57 94/183/41 33/178/54
f 30/184/60 95/180/59 88/170/65
f 29/169/60 96/185/38 31/182/57
f 40/1/1 64/22/22 63/2/2
f 41/3/3 63/2/2 65/4/4
f 43/5/5 65/4/4 66/6/6
f 66/6/6 67/9/9 47/8/8
f 67/9/9 68/11/11 49/10/10
f 68/11/11 69/13/13 51/12/12
f 69/13/13 70/186/102 53/14/14
f 53/14/14 70/186/102 71/15/15
f 55/16/16 71/15/15 72/17/17
f 72/17/17 73/20/20 59/19/19
f 73/20/20 74/187/103 61/21/21
f 61/21/21 74/187/103 64/22/22
f 17/23/23 16/26/26 75/24/24
f 16/26/26 20/33/33 76/27/27
f 23/28/28 22/46/46 78/29/29
f 17/23/23 86/25/25 85/31/31
f 20/33/33 23/28/28 77/30/30
f 25/32/32 85/31/31 84/34/34
f 87/36/36 27/35/35 84/34/34
f 96/38/38 87/36/36 83/37/37
f 96/38/38 82/39/39 81/40/40
f 94/41/41 81/40/40 80/42/42
f 92/43/43 80/42/42 79/44/44
f 89/45/45 79/44/44 78/29/29
f 5/47/47 6/53/52 90/48/48
f 37/50/50 38/188/50 36/51/51
f 6/53/52 7/57/55 91/54/53
f 35/52/51 36/51/51 34/55/54
f 7/57/55 8/61/58 93/58/56
f 33/56/54 34/55/54 32/59/57
f 8/61/58 9/66/62 95/62/59
f 31/60/57 32/59/57 30/63/60
f 10/65/61 88/71/65 95/62/59
f 87/67/36 88/170/65 28/68/63
f 11/70/64 28/75/63 88/71/65
f 27/69/35 28/68/63 26/72/66
f 11/70/64 12/84/72 26/74/66
f 20/76/33 19/90/69 24/77/67
f 4/79/68 24/88/67 19/80/69
f 25/73/32 26/72/66 18/82/71
f 12/84/72 13/94/75 18/85/71
f 22/86/46 23/78/28 24/77/67
f 5/47/47 21/49/49 24/88/67
f 20/76/33 16/93/26 15/89/73
f 3/81/70 19/80/69 15/91/73
f 16/93/26 17/83/23 18/82/71
f 1/92/74 15/91/73 18/85/71
f 62/95/76 39/139/79 1/96/77
f 61/98/21 40/140/1 39/99/79
f 12/101/80 60/105/81 62/95/76
f 59/102/19 61/98/21 62/100/76
f 11/104/82 58/189/83 60/105/81
f 57/106/18 59/102/19 60/103/81
f 56/108/84 58/189/83 11/104/82
f 55/110/16 57/106/18 58/107/83
f 54/112/86 56/108/84 10/109/85
f 53/114/14 55/110/16 56/111/84
f 8/116/88 52/120/89 54/112/86
f 51/117/12 53/114/14 54/115/86
f 7/119/90 50/124/91 52/120/89
f 49/121/10 51/117/12 52/118/89
f 6/123/92 48/128/93 50/124/91
f 47/125/8 49/121/10 50/122/91
f 5/127/94 46/190/95 48/128/93
f 45/129/7 47/125/8 48/126/93
f 44/131/96 46/190/95 5/127/94
f 43/133/5 45/129/7 46/130/95
f 42/135/98 44/131/96 4/132/97
f 41/137/3 43/133/5 44/134/96
f 39/139/79 42/135/98 3/136/99
f 40/140/1 41/137/3 42/138/98
f 22/86/46 21/87/49 90/167/48
f 29/169/60 30/184/60 88/170/65
f 37/171/50 89/168/45 90/167/48
f 38/172/50 90/167/48 91/173/53
f 37/171/50 35/179/51 92/175/43
f 36/174/51 91/173/53 93/176/56
f 33/178/54 94/183/41 92/175/43
f 34/177/54 93/176/56 95/180/59
f 31/182/57 96/185/38 94/183/41
f 30/184/60 32/181/57 95/180/59
f 29/169/60 87/67/36 96/185/38
