# Blender v3.4.1 OBJ File: 'restaurant.blend'
# www.blender.org
mtllib kitchencounter_innercorner_Cube_898.mtl
o kitchencounter_innercorner_Cube.898
v -1.000000 -0.000000 0.800000
v -1.000000 0.800000 0.800000
v -1.000000 0.000000 -1.000000
v -1.000000 0.800000 -1.000000
v 1.000000 0.000000 -1.000000
v 1.000000 0.800000 -1.000000
v -1.000000 1.000000 0.950000
v -1.000000 1.000000 -1.000000
v 1.000000 1.000000 -1.000000
v 1.000000 1.000000 1.000000
v -0.950000 1.000000 1.000000
v -0.800000 0.800000 1.000000
v -0.800000 -0.000000 1.000000
v -0.800000 -0.000000 0.800000
v -0.800000 0.800000 0.800000
v 1.000000 -0.000000 1.000000
v 1.000000 0.800000 1.000000
v -1.000000 0.850000 1.000000
v -1.000000 0.800000 0.950000
v -0.950000 0.800000 1.000000
v -1.000000 0.950000 1.000000
vt 0.935202 0.116593
vt 0.935202 0.049884
vt 0.935202 0.049884
vt 0.821988 0.116593
vt 0.849518 0.133271
vt 0.849518 0.116593
vt 0.849518 0.116593
vt 0.849518 0.133271
vt 0.938787 0.100968
vt 0.938787 0.034259
vt 0.935202 0.116593
vt 0.971048 0.049884
vt 0.822676 0.164521
vt 0.821988 0.164521
vt 0.821988 0.164521
vt 0.821988 0.116593
vt 0.821988 0.133271
vt 0.938787 0.049884
vt 0.938787 0.116593
vt 0.938787 0.116593
vt 0.849518 0.164521
vt 0.849518 0.164521
vt 0.821988 0.116593
vt 0.821988 0.129102
vt 0.821988 0.133271
vt 0.824741 0.116593
vt 0.821988 0.085343
vt 0.824741 0.085343
vt 0.822676 0.085343
vt 0.971048 0.116593
vt 0.938787 0.049884
vt 0.971048 0.049884
vt 0.935202 0.018634
vt 0.971048 0.018634
vt 0.938787 0.018634
vt 0.821988 0.105138
vt 0.821988 0.100968
vt 0.822676 0.100968
vt 0.821988 0.144727
vt 0.822676 0.148896
vt 0.821988 0.148896
vt 0.822676 0.116593
vt 0.822676 0.133271
vt 0.821988 0.120763
vt 0.821988 0.085343
vt 0.824741 0.085343
vt 0.971048 0.116593
vt 0.935202 0.018634
vt 0.971048 0.018634
vt 0.938787 0.018634
vn -1.0000 -0.0000 0.0000
vn 0.0000 0.0000 -1.0000
vn 1.0000 0.0000 0.0000
vn 0.0000 -0.0000 1.0000
vn -0.0000 1.0000 0.0000
vn 0.0000 -1.0000 0.0000
vn -0.5774 -0.5774 0.5774
vn -0.5773 0.5773 0.5774
usemtl restaurant.149
s 1
f 2/1/1 3/2/1 1/3/1
f 4/4/2 9/5/2 6/6/2
f 17/7/3 9/5/3 10/8/3
f 15/9/4 1/3/4 14/10/4
f 4/11/2 5/12/2 3/2/2
f 11/13/5 8/14/5 7/15/5
f 2/16/1 8/17/1 4/4/1
f 14/18/1 12/19/1 15/20/1
f 8/14/5 10/21/5 9/22/5
f 19/23/1 21/24/1 7/25/1
f 10/8/4 12/26/4 17/7/4
f 19/27/6 12/28/6 20/29/6
f 17/30/4 13/31/4 16/32/4
f 3/33/6 5/34/6 14/35/6
f 18/36/7 19/37/7 20/38/7
f 21/39/8 11/40/8 7/41/8
f 20/42/4 12/26/4 11/43/4
f 7/25/1 2/16/1 19/23/1
f 20/42/4 21/24/4 18/44/4
f 12/28/6 2/45/6 15/46/6
f 17/30/3 5/12/3 6/47/3
f 1/48/6 3/33/6 14/35/6
f 16/49/6 13/50/6 14/35/6
f 5/34/6 16/49/6 14/35/6
f 2/1/1 4/11/1 3/2/1
f 4/4/2 8/17/2 9/5/2
f 17/7/3 6/6/3 9/5/3
f 15/9/4 2/1/4 1/3/4
f 4/11/2 6/47/2 5/12/2
f 11/13/5 10/21/5 8/14/5
f 2/16/1 7/25/1 8/17/1
f 14/18/1 13/31/1 12/19/1
f 19/23/1 18/44/1 21/24/1
f 10/8/4 11/43/4 12/26/4
f 19/27/6 2/45/6 12/28/6
f 17/30/4 12/19/4 13/31/4
f 20/42/4 11/43/4 21/24/4
f 17/30/3 16/32/3 5/12/3
