# Blender v3.4.1 OBJ File: 'restaurant.blend'
# www.blender.org
mtllib kitchencounter_straight_A_backsplash_Cube_894.mtl
o kitchencounter_straight_A_backsplash_Cube.894
v -1.000000 -0.000000 0.800000
v -1.000000 0.800000 0.800000
v -1.000000 0.000000 -1.000000
v -1.000000 0.800000 -1.000000
v 1.000000 -0.000000 0.800000
v 1.000000 0.800000 0.800000
v 1.000000 0.000000 -1.000000
v 1.000000 0.800000 -1.000000
v -1.000000 1.000000 0.950000
v 1.000000 1.000000 0.950000
v -1.000000 1.000000 -0.800000
v 1.000000 1.000000 -0.800000
v -1.000000 1.200000 -1.000000
v 1.000000 1.200000 -1.000000
v 1.000000 0.950000 1.000000
v -1.000000 0.950000 1.000000
v -1.000000 1.150000 -0.800000
v -1.000000 1.200000 -0.850000
v 1.000000 1.200000 -0.850000
v 1.000000 1.150000 -0.800000
v 1.000000 0.850000 1.000000
v 1.000000 0.800000 0.950000
v -1.000000 0.800000 0.950000
v -1.000000 0.850000 1.000000
v -0.860000 0.100000 0.910000
v -0.860000 0.140000 0.950000
v -0.900000 0.140000 0.910000
v -0.860000 0.360000 0.950000
v -0.860000 0.400000 0.910000
v -0.900000 0.360000 0.910000
v -0.860000 0.100000 0.750000
v -0.900000 0.140000 0.750000
v -0.900000 0.360000 0.750000
v -0.860000 0.400000 0.750000
v 0.860000 0.100000 0.910000
v 0.900000 0.140000 0.910000
v 0.860000 0.140000 0.950000
v 0.860000 0.400000 0.910000
v 0.860000 0.360000 0.950000
v 0.900000 0.360000 0.910000
v 0.900000 0.140000 0.750000
v 0.860000 0.100000 0.750000
v 0.860000 0.400000 0.750000
v 0.900000 0.360000 0.750000
v -0.860000 0.440000 0.950000
v -0.900000 0.440000 0.910000
v -0.860000 0.660000 0.950000
v -0.860000 0.700000 0.910000
v -0.900000 0.660000 0.910000
v -0.900000 0.440000 0.750000
v -0.900000 0.660000 0.750000
v -0.860000 0.700000 0.750000
v 0.900000 0.440000 0.910000
v 0.860000 0.440000 0.950000
v 0.860000 0.700000 0.910000
v 0.860000 0.660000 0.950000
v 0.900000 0.660000 0.910000
v 0.900000 0.440000 0.750000
v 0.860000 0.700000 0.750000
v 0.900000 0.660000 0.750000
v 0.000000 0.550000 1.041903
v -0.053977 0.603978 0.986796
v -0.076335 0.550001 0.986796
v -0.053977 0.496024 0.986796
v 0.000000 0.473666 0.986796
v 0.053977 0.496024 0.986796
v 0.076336 0.550001 0.986796
v 0.053977 0.603978 0.986796
v 0.000000 0.626336 0.986796
v -0.041759 0.591758 1.024086
v -0.041759 0.591758 0.949506
v -0.059056 0.550000 1.024086
v -0.059056 0.550000 0.949506
v -0.041759 0.508241 1.024086
v -0.041759 0.508241 0.949506
v 0.000000 0.490944 1.024086
v 0.000000 0.490944 0.949506
v 0.041758 0.508241 1.024086
v 0.041758 0.508241 0.949506
v 0.059056 0.550000 1.024086
v 0.059056 0.550000 0.949506
v 0.041758 0.591758 1.024086
v 0.041758 0.591758 0.949506
v 0.000000 0.609055 1.024086
v 0.000000 0.609055 0.949506
v 0.000000 0.250000 1.041903
v -0.053977 0.303978 0.986796
v -0.076335 0.250001 0.986796
v -0.053977 0.196024 0.986796
v 0.000000 0.173666 0.986796
v 0.053977 0.196024 0.986796
v 0.076336 0.250001 0.986796
v 0.053977 0.303978 0.986796
v 0.000000 0.326336 0.986796
v -0.041759 0.291758 1.024086
v -0.041759 0.291758 0.949506
v -0.059056 0.250000 1.024086
v -0.059056 0.250000 0.949506
v -0.041759 0.208241 1.024086
v -0.041759 0.208241 0.949506
v 0.000000 0.190944 1.024086
v 0.000000 0.190944 0.949506
v 0.041758 0.208241 1.024086
v 0.041758 0.208241 0.949506
v 0.059056 0.250000 1.024086
v 0.059056 0.250000 0.949506
v 0.041758 0.291758 1.024086
v 0.041758 0.291758 0.949506
v 0.000000 0.309055 1.024086
v 0.000000 0.309055 0.949506
vt 0.935202 0.116593
vt 0.971048 0.049884
vt 0.935202 0.049884
vt 0.971048 0.116593
vt 0.971048 0.116593
vt 0.971048 0.049884
vt 0.935202 0.049884
vt 0.821988 0.164521
vt 0.849518 0.164521
vt 0.849518 0.164521
vt 0.821988 0.116593
vt 0.821988 0.133271
vt 0.821988 0.116593
vt 0.849518 0.116593
vt 0.849518 0.149948
vt 0.849518 0.133271
vt 0.849518 0.120763
vt 0.821988 0.129102
vt 0.821988 0.120763
vt 0.821988 0.133271
vt 0.821988 0.116593
vt 0.849518 0.129102
vt 0.849518 0.116593
vt 0.849518 0.133271
vt 0.821988 0.145779
vt 0.821988 0.149948
vt 0.849518 0.116593
vt 0.935202 0.116593
vt 0.821988 0.181198
vt 0.849518 0.181198
vt 0.849518 0.181198
vt 0.821988 0.148896
vt 0.849518 0.144727
vt 0.849518 0.148896
vt 0.849518 0.161404
vt 0.821988 0.165573
vt 0.821988 0.161404
vt 0.821988 0.105138
vt 0.849518 0.100968
vt 0.849518 0.105138
vt 0.849518 0.085343
vt 0.821988 0.085343
vt 0.821988 0.085343
vt 0.971048 0.018634
vt 0.935202 0.018634
vt 0.935202 0.018634
vt 0.667878 0.111153
vt 0.646665 0.092808
vt 0.667878 0.092808
vt 0.646171 0.095528
vt 0.646171 0.077183
vt 0.646171 0.077183
vt 0.668371 0.095528
vt 0.668371 0.077183
vt 0.668371 0.077183
vt 0.646665 0.058223
vt 0.646665 0.061558
vt 0.646171 0.061558
vt 0.646665 0.142403
vt 0.646665 0.145739
vt 0.646171 0.142403
vt 0.667878 0.058223
vt 0.668371 0.061558
vt 0.667878 0.061558
vt 0.667878 0.145739
vt 0.667878 0.142403
vt 0.668371 0.142403
vt 0.646665 0.042598
vt 0.646171 0.045933
vt 0.646665 0.042598
vt 0.646665 0.111153
vt 0.646171 0.092808
vt 0.646665 0.130114
vt 0.646171 0.126778
vt 0.646665 0.130114
vt 0.667878 0.042598
vt 0.668371 0.045933
vt 0.667878 0.042598
vt 0.667878 0.130114
vt 0.668371 0.126778
vt 0.667878 0.130114
vt 0.668371 0.111153
vt 0.667878 0.136169
vt 0.646665 0.117824
vt 0.667878 0.117824
vt 0.646665 0.155130
vt 0.667878 0.155130
vt 0.667878 0.155130
vt 0.646171 0.120544
vt 0.646171 0.102199
vt 0.646171 0.102199
vt 0.668371 0.120544
vt 0.668371 0.102199
vt 0.668371 0.102199
vt 0.646665 0.083239
vt 0.646665 0.086574
vt 0.646171 0.086574
vt 0.646665 0.167419
vt 0.646665 0.170755
vt 0.646171 0.167419
vt 0.667878 0.083239
vt 0.668371 0.086574
vt 0.667878 0.086574
vt 0.667878 0.170755
vt 0.667878 0.167419
vt 0.668371 0.167419
vt 0.646665 0.067614
vt 0.646171 0.070949
vt 0.646665 0.067614
vt 0.646665 0.136169
vt 0.646171 0.117824
vt 0.646171 0.151794
vt 0.646665 0.155130
vt 0.667878 0.067614
vt 0.668371 0.070949
vt 0.667878 0.067614
vt 0.668371 0.151794
vt 0.668371 0.136169
vt 0.849518 0.145779
vt 0.849518 0.149948
vt 0.798466 0.130479
vt 0.796875 0.131921
vt 0.796875 0.111372
vt 0.798466 0.099229
vt 0.799784 0.080122
vt 0.799125 0.080122
vt 0.793966 0.080122
vt 0.795284 0.099229
vt 0.794625 0.080122
vt 0.796875 0.058131
vt 0.795284 0.061015
vt 0.796875 0.059572
vt 0.799125 0.111372
vt 0.798932 0.075621
vt 0.799784 0.095747
vt 0.798932 0.115873
vt 0.796875 0.117737
vt 0.794818 0.075621
vt 0.794625 0.111372
vt 0.793966 0.095747
vt 0.794818 0.115873
vt 0.795284 0.130479
vt 0.796875 0.073756
vt 0.795284 0.092265
vt 0.796875 0.100671
vt 0.798932 0.100248
vt 0.798466 0.061015
vt 0.798466 0.092265
vt 0.794818 0.100248
vt 0.794818 0.059996
vt 0.798932 0.059996
vt 0.796875 0.090822
vt 0.798466 0.130479
vt 0.796875 0.131921
vt 0.796875 0.111372
vt 0.798466 0.099229
vt 0.799784 0.080122
vt 0.799125 0.080122
vt 0.793966 0.080122
vt 0.795284 0.099229
vt 0.794625 0.080122
vt 0.796875 0.058131
vt 0.795284 0.061015
vt 0.796875 0.059572
vt 0.799125 0.111372
vt 0.798932 0.075621
vt 0.799784 0.095747
vt 0.798932 0.115873
vt 0.796875 0.117737
vt 0.794818 0.075621
vt 0.794625 0.111372
vt 0.793966 0.095747
vt 0.794818 0.115873
vt 0.795284 0.130479
vt 0.796875 0.073756
vt 0.795284 0.092265
vt 0.796875 0.100671
vt 0.798932 0.100248
vt 0.798466 0.061015
vt 0.798466 0.092265
vt 0.794818 0.100248
vt 0.794818 0.059996
vt 0.798932 0.059996
vt 0.796875 0.090822
vt 0.821988 0.164521
vt 0.821988 0.149948
vt 0.821988 0.181198
vt 0.821988 0.144727
vt 0.849518 0.165573
vt 0.821988 0.100968
vt 0.849518 0.085343
vt 0.971048 0.018634
vt 0.646171 0.095528
vt 0.668371 0.095528
vt 0.646171 0.045933
vt 0.646171 0.111153
vt 0.646171 0.126778
vt 0.668371 0.045933
vt 0.668371 0.126778
vt 0.668371 0.092808
vt 0.646171 0.120544
vt 0.668371 0.120544
vt 0.646171 0.070949
vt 0.646171 0.136169
vt 0.646171 0.151794
vt 0.668371 0.070949
vt 0.668371 0.151794
vt 0.668371 0.117824
vt 0.796875 0.102112
vt 0.796875 0.102112
vn 0.0000 0.0000 -1.0000
vn 1.0000 -0.0000 0.0000
vn 0.0000 -0.0000 1.0000
vn 0.0000 1.0000 0.0000
vn -1.0000 0.0000 0.0000
vn 0.0000 -0.3827 0.9239
vn 0.0000 0.3827 0.9239
vn 0.0000 0.9239 0.3827
vn 0.0000 0.7071 0.7071
vn 0.0000 -0.9239 0.3827
vn 0.0000 -1.0000 -0.0000
vn 0.3416 0.3416 0.8756
vn -0.3416 -0.3416 0.8756
vn 0.3416 -0.3416 0.8756
vn -0.8756 0.3416 0.3416
vn -0.9239 -0.3827 -0.0000
vn -0.8756 -0.3416 0.3416
vn -0.4606 -0.7588 0.4606
vn -0.4606 0.4606 0.7588
vn -0.4606 0.7588 0.4606
vn 0.3416 -0.8756 0.3416
vn 0.7588 -0.4606 0.4606
vn 0.4606 0.7588 0.4606
vn 0.7588 0.4606 0.4606
vn -0.7071 -0.7071 -0.0000
vn -0.7071 0.7071 0.0000
vn 0.3827 -0.9239 -0.0000
vn 0.7071 0.7071 0.0000
vn 0.3416 0.8756 0.3416
vn 0.3827 0.9239 0.0000
vn 0.8756 -0.3416 0.3416
vn 0.9239 -0.3827 -0.0000
vn -0.3416 0.3416 0.8756
vn 0.4606 -0.7588 0.4606
vn 0.7071 -0.7071 -0.0000
vn 0.2042 0.2042 0.9574
vn 0.0000 0.2888 0.9574
vn 0.6416 0.6416 -0.4205
vn 0.9073 0.0000 -0.4204
vn -0.9073 0.0000 -0.4204
vn -0.6416 0.6416 -0.4205
vn 0.0000 -0.9073 -0.4204
vn -0.6416 -0.6416 -0.4204
vn 0.9073 -0.0000 0.4204
vn 0.6416 -0.6416 0.4204
vn 0.0000 0.9073 0.4205
vn 0.6416 0.6416 0.4205
vn -0.6416 -0.6416 0.4204
vn -0.9073 -0.0000 0.4204
vn -0.6416 0.6416 0.4205
vn 0.0000 -0.9073 0.4204
vn 0.0000 0.9073 -0.4205
vn -0.2042 0.2042 0.9574
vn 0.6416 -0.6416 -0.4204
vn 0.2042 -0.2042 0.9574
vn 0.2888 0.0000 0.9574
vn -0.2042 -0.2042 0.9574
vn 0.0000 -0.2888 0.9574
vn -0.2888 0.0000 0.9574
vn -0.9239 0.3827 0.0000
usemtl restaurant.110
s 1
f 4/1/1 7/2/1 3/3/1
f 8/4/2 6/5/2 5/6/2
f 6/5/3 1/7/3 5/6/3
f 7/2/2 8/4/2 5/6/2
f 11/8/4 10/9/4 12/10/4
f 2/11/5 11/12/5 4/13/5
f 8/14/2 14/15/2 12/16/2
f 21/17/6 16/18/7 24/19/6
f 9/20/5 2/11/5 23/21/5
f 15/22/2 22/23/2 10/24/2
f 17/25/5 13/26/5 11/12/5
f 6/27/2 12/16/2 10/24/2
f 1/7/5 2/28/5 4/1/5
f 12/16/3 17/25/3 11/12/3
f 13/29/4 19/30/8 14/31/4
f 9/32/9 15/33/7 10/34/9
f 20/35/9 18/36/8 17/37/9
f 6/27/2 10/24/2 22/23/2
f 24/38/6 22/39/10 21/40/6
f 6/41/11 23/42/10 2/43/11
f 1/7/5 4/1/5 3/3/5
f 7/44/11 1/45/11 3/46/11
f 39/47/12 26/48/13 37/49/14
f 30/50/15 32/51/16 27/52/17
f 44/53/2 36/54/2 41/55/2
f 25/56/18 26/57/13 27/58/17
f 28/59/19 29/60/20 30/61/15
f 35/62/21 36/63/22 37/64/14
f 38/65/23 39/66/12 40/67/24
f 25/68/18 32/69/16 31/70/25
f 28/71/19 27/72/17 26/48/13
f 34/73/26 30/74/15 29/75/20
f 42/76/27 36/77/22 35/78/21
f 38/79/23 44/80/28 43/81/28
f 37/49/14 40/82/24 39/47/12
f 35/62/21 26/57/13 25/56/18
f 29/60/20 39/66/12 38/65/23
f 42/76/27 25/68/11 31/70/11
f 56/83/12 45/84/13 54/85/14
f 52/86/4 55/87/29 59/88/30
f 49/89/15 50/90/16 46/91/17
f 60/92/2 53/93/31 58/94/32
f 29/95/18 45/96/13 46/97/17
f 47/98/33 48/99/20 49/100/15
f 38/101/34 53/102/31 54/103/14
f 55/104/29 56/105/12 57/106/24
f 29/107/18 50/108/16 34/109/25
f 47/110/33 46/111/17 45/84/13
f 52/86/26 49/112/15 48/113/20
f 43/114/35 53/115/31 38/116/34
f 55/87/29 60/117/28 59/88/30
f 54/85/14 57/118/24 56/83/12
f 38/101/34 45/96/13 29/95/18
f 48/99/20 56/105/12 55/104/29
f 9/20/5 24/19/5 16/18/5
f 20/119/2 14/15/2 19/120/2
f 13/26/1 8/14/1 4/13/1
f 4/13/5 11/12/5 13/26/5
f 82/121/36 84/122/37 61/123/3
f 83/124/38 67/125/39 81/126/39
f 63/127/40 71/128/41 73/129/40
f 65/130/42 75/131/43 77/132/42
f 80/133/44 66/134/45 67/135/44
f 84/122/46 68/136/47 69/137/46
f 64/138/48 72/139/49 63/140/49
f 62/141/50 84/122/46 69/137/46
f 63/140/49 70/142/50 62/141/50
f 65/143/51 74/144/48 64/138/48
f 85/145/52 68/146/38 83/124/38
f 84/122/37 70/142/53 61/123/3
f 79/147/54 65/130/42 77/132/42
f 78/148/45 65/143/51 66/134/45
f 62/149/41 85/145/52 71/128/41
f 78/148/55 80/133/56 61/123/3
f 82/121/47 67/135/44 68/136/47
f 64/150/43 73/129/40 75/131/43
f 81/126/39 66/151/54 79/147/54
f 74/144/57 76/152/58 61/123/3
f 72/139/59 74/144/57 61/123/3
f 76/152/58 78/148/55 61/123/3
f 70/142/53 72/139/59 61/123/3
f 80/133/56 82/121/36 61/123/3
f 107/153/36 109/154/37 86/155/3
f 108/156/38 92/157/39 106/158/39
f 88/159/40 96/160/41 98/161/40
f 90/162/42 100/163/43 102/164/42
f 105/165/44 91/166/45 92/167/44
f 109/154/46 93/168/47 94/169/46
f 89/170/48 97/171/49 88/172/49
f 87/173/50 109/154/46 94/169/46
f 88/172/49 95/174/50 87/173/50
f 90/175/51 99/176/48 89/170/48
f 110/177/52 93/178/38 108/156/38
f 109/154/37 95/174/53 86/155/3
f 104/179/54 90/162/42 102/164/42
f 103/180/45 90/175/51 91/166/45
f 87/181/41 110/177/52 96/160/41
f 103/180/55 105/165/56 86/155/3
f 107/153/47 92/167/44 93/168/47
f 89/182/43 98/161/40 100/163/43
f 106/158/39 91/183/54 104/179/54
f 99/176/57 101/184/58 86/155/3
f 97/171/59 99/176/57 86/155/3
f 101/184/58 103/180/55 86/155/3
f 95/174/53 97/171/59 86/155/3
f 105/165/56 107/153/36 86/155/3
f 4/1/1 8/4/1 7/2/1
f 6/5/3 2/28/3 1/7/3
f 11/8/4 9/185/4 10/9/4
f 2/11/5 9/20/5 11/12/5
f 21/17/6 15/22/7 16/18/7
f 15/22/2 21/17/2 22/23/2
f 17/25/5 18/186/5 13/26/5
f 6/27/2 8/14/2 12/16/2
f 12/16/3 20/119/3 17/25/3
f 13/29/4 18/187/8 19/30/8
f 9/32/9 16/188/7 15/33/7
f 20/35/9 19/189/8 18/36/8
f 24/38/6 23/190/10 22/39/10
f 6/41/11 22/191/10 23/42/10
f 7/44/11 5/192/11 1/45/11
f 39/47/12 28/71/3 26/48/13
f 30/50/15 33/193/60 32/51/16
f 44/53/2 40/194/2 36/54/2
f 25/68/18 27/195/17 32/69/16
f 28/71/19 30/196/15 27/72/17
f 34/73/26 33/197/60 30/74/15
f 42/76/27 41/198/35 36/77/22
f 38/79/23 40/199/24 44/80/28
f 37/49/14 36/200/22 40/82/24
f 35/62/21 37/64/14 26/57/13
f 29/60/20 28/59/19 39/66/12
f 42/76/27 35/78/21 25/68/11
f 56/83/12 47/110/33 45/84/13
f 52/86/4 48/113/4 55/87/29
f 49/89/15 51/201/60 50/90/16
f 60/92/2 57/202/2 53/93/31
f 29/107/18 46/203/17 50/108/16
f 47/110/33 49/204/15 46/111/17
f 52/86/26 51/205/60 49/112/15
f 43/114/35 58/206/32 53/115/31
f 55/87/29 57/207/24 60/117/28
f 54/85/14 53/208/31 57/118/24
f 38/101/34 54/103/14 45/96/13
f 48/99/20 47/98/33 56/105/12
f 9/20/5 23/21/5 24/19/5
f 20/119/2 12/16/2 14/15/2
f 13/26/1 14/15/1 8/14/1
f 83/124/38 68/146/38 67/125/39
f 63/127/40 62/149/41 71/128/41
f 65/130/42 64/150/43 75/131/43
f 80/133/44 78/148/45 66/134/45
f 84/122/46 82/121/47 68/136/47
f 64/138/48 74/144/48 72/139/49
f 62/141/50 70/142/50 84/122/46
f 63/140/49 72/139/49 70/142/50
f 65/143/51 76/152/51 74/144/48
f 85/145/52 69/209/52 68/146/38
f 79/147/54 66/151/54 65/130/42
f 78/148/45 76/152/51 65/143/51
f 62/149/41 69/209/52 85/145/52
f 82/121/47 80/133/44 67/135/44
f 64/150/43 63/127/40 73/129/40
f 81/126/39 67/125/39 66/151/54
f 108/156/38 93/178/38 92/157/39
f 88/159/40 87/181/41 96/160/41
f 90/162/42 89/182/43 100/163/43
f 105/165/44 103/180/45 91/166/45
f 109/154/46 107/153/47 93/168/47
f 89/170/48 99/176/48 97/171/49
f 87/173/50 95/174/50 109/154/46
f 88/172/49 97/171/49 95/174/50
f 90/175/51 101/184/51 99/176/48
f 110/177/52 94/210/52 93/178/38
f 104/179/54 91/183/54 90/162/42
f 103/180/45 101/184/51 90/175/51
f 87/181/41 94/210/52 110/177/52
f 107/153/47 105/165/44 92/167/44
f 89/182/43 88/159/40 98/161/40
f 106/158/39 92/157/39 91/183/54
