# Blender v3.4.1 OBJ File: 'restaurant.blend'
# www.blender.org
mtllib kitchentable_B_Cube_182.mtl
o kitchentable_B_Cube.182
v -0.849994 0.096250 -0.943750
v -0.849994 0.803750 -0.943750
v -0.783703 0.096250 -0.916291
v -0.783703 0.803750 -0.916291
v -0.756244 0.096250 -0.850000
v -0.756244 0.803750 -0.850000
v -0.783703 0.096250 -0.783709
v -0.783703 0.803750 -0.783709
v -0.849994 0.096250 -0.756250
v -0.849994 0.803750 -0.756250
v -0.916285 0.096250 -0.783709
v -0.916285 0.803750 -0.783709
v -0.943744 0.096250 -0.850000
v -0.943744 0.803750 -0.850000
v -0.916285 0.096250 -0.916291
v -0.916285 0.803750 -0.916291
v 0.849994 0.096250 -0.943750
v 0.849994 0.803750 -0.943750
v 0.783703 0.096250 -0.916291
v 0.783703 0.803750 -0.916291
v 0.756244 0.096250 -0.850000
v 0.756244 0.803750 -0.850000
v 0.783703 0.096250 -0.783709
v 0.783703 0.803750 -0.783709
v 0.849994 0.096250 -0.756250
v 0.849994 0.803750 -0.756250
v 0.916285 0.096250 -0.783709
v 0.916285 0.803750 -0.783709
v 0.943744 0.096250 -0.850000
v 0.943744 0.803750 -0.850000
v 0.916285 0.096250 -0.916291
v 0.916285 0.803750 -0.916291
v -0.849994 0.096250 0.943750
v -0.849994 0.803750 0.943750
v -0.783703 0.096250 0.916291
v -0.783703 0.803750 0.916291
v -0.756244 0.096250 0.850000
v -0.756244 0.803750 0.850000
v -0.783703 0.096250 0.783709
v -0.783703 0.803750 0.783709
v -0.849994 0.096250 0.756250
v -0.849994 0.803750 0.756250
v -0.916285 0.096250 0.783709
v -0.916285 0.803750 0.783709
v -0.943744 0.096250 0.850000
v -0.943744 0.803750 0.850000
v -0.916285 0.096250 0.916291
v -0.916285 0.803750 0.916291
v 0.849994 0.096248 0.943750
v 0.849994 0.803750 0.943750
v 0.783703 0.096248 0.916291
v 0.783703 0.803750 0.916291
v 0.756244 0.096248 0.850000
v 0.756244 0.803750 0.850000
v 0.783703 0.096248 0.783709
v 0.783703 0.803750 0.783709
v 0.849994 0.096248 0.756250
v 0.849994 0.803750 0.756250
v 0.916285 0.096248 0.783709
v 0.916285 0.803750 0.783709
v 0.943744 0.096248 0.850000
v 0.943744 0.803750 0.850000
v 0.916285 0.096248 0.916291
v 0.916285 0.803750 0.916291
v -0.782500 0.200000 0.787500
v 0.782500 0.200000 0.787500
v -0.782500 0.145873 0.818750
v 0.782500 0.145873 0.818750
v -0.782500 0.145873 0.881250
v 0.782500 0.145873 0.881250
v -0.782500 0.200000 0.912500
v 0.782500 0.200000 0.912500
v -0.782500 0.254127 0.881250
v 0.782500 0.254127 0.881250
v -0.782500 0.254127 0.818750
v 0.782500 0.254127 0.818750
v -0.782500 0.200000 -0.787500
v 0.782500 0.200000 -0.787500
v -0.782500 0.145873 -0.818750
v 0.782500 0.145873 -0.818750
v -0.782500 0.145873 -0.881250
v 0.782500 0.145873 -0.881250
v -0.782500 0.200000 -0.912500
v 0.782500 0.200000 -0.912500
v -0.782500 0.254127 -0.881250
v 0.782500 0.254127 -0.881250
v -0.782500 0.254127 -0.818750
v 0.782500 0.254127 -0.818750
v 0.787500 0.200000 0.782500
v 0.787500 0.200000 -0.782500
v 0.818750 0.145873 0.782500
v 0.818750 0.145873 -0.782500
v 0.881250 0.145873 0.782500
v 0.881250 0.145873 -0.782500
v 0.912500 0.200000 0.782500
v 0.912500 0.200000 -0.782500
v 0.881250 0.254127 0.782500
v 0.881250 0.254127 -0.782500
v 0.818750 0.254127 0.782500
v 0.818750 0.254127 -0.782500
v -0.787500 0.200000 0.782500
v -0.787500 0.200000 -0.782500
v -0.818750 0.145873 0.782500
v -0.818750 0.145873 -0.782500
v -0.881250 0.145873 0.782500
v -0.881250 0.145873 -0.782500
v -0.912500 0.200000 0.782500
v -0.912500 0.200000 -0.782500
v -0.881250 0.254127 0.782500
v -0.881250 0.254127 -0.782500
v -0.818750 0.254127 0.782500
v -0.818750 0.254127 -0.782500
v -0.849994 -0.003750 -0.850000
v 0.849994 -0.003750 -0.850000
v -0.849994 -0.003750 0.850000
v 0.849994 -0.003752 0.850000
v 0.849994 -0.003752 0.906250
v 0.810219 -0.003752 0.889775
v 0.793744 -0.003752 0.850000
v 0.810219 -0.003752 0.810225
v 0.849994 -0.003752 0.793750
v 0.889769 -0.003752 0.810225
v 0.906244 -0.003752 0.850000
v 0.889769 -0.003752 0.889775
v 0.849994 -0.003750 -0.906250
v 0.810219 -0.003750 -0.889775
v 0.793744 -0.003750 -0.850000
v 0.810219 -0.003750 -0.810225
v 0.849994 -0.003750 -0.793750
v 0.889769 -0.003750 -0.810225
v 0.906244 -0.003750 -0.850000
v 0.889769 -0.003750 -0.889775
v -0.849994 -0.003750 -0.906250
v -0.810219 -0.003750 -0.889775
v -0.793744 -0.003750 -0.850000
v -0.810219 -0.003750 -0.810225
v -0.849994 -0.003750 -0.793750
v -0.889769 -0.003750 -0.810225
v -0.906244 -0.003750 -0.850000
v -0.889769 -0.003750 -0.889775
v -0.849994 -0.003750 0.906250
v -0.810219 -0.003750 0.889775
v -0.793744 -0.003750 0.850000
v -0.810219 -0.003750 0.810225
v -0.849994 -0.003750 0.793750
v -0.889769 -0.003750 0.810225
v -0.906244 -0.003750 0.850000
v -0.889769 -0.003750 0.889775
v -0.800000 0.800000 0.800000
v -0.800000 0.800000 -0.800000
v 0.800000 0.800000 0.800000
v 0.800000 0.800000 -0.800000
v -1.000000 1.000000 1.000000
v -1.000000 1.000000 -1.000000
v 1.000000 1.000000 -1.000000
v 1.000000 1.000000 1.000000
v -1.000000 0.800000 -1.000000
v -1.000000 0.800000 1.000000
v 1.000000 0.800000 -1.000000
v 1.000000 0.800000 1.000000
v -0.800000 0.600000 -0.800000
v -0.800000 0.600000 0.800000
v 0.800000 0.600000 -0.800000
v 0.800000 0.600000 0.800000
vt 0.418390 0.886362
vt 0.420033 0.855292
vt 0.418390 0.855292
vt 0.420033 0.886362
vt 0.420713 0.855292
vt 0.420713 0.886362
vt 0.420033 0.855292
vt 0.420033 0.886362
vt 0.418390 0.855292
vt 0.418390 0.886362
vt 0.416748 0.855292
vt 0.416748 0.886362
vt 0.416067 0.855292
vt 0.416067 0.886362
vt 0.416748 0.855292
vt 0.416748 0.886362
vt 0.420033 0.839667
vt 0.418390 0.850900
vt 0.418390 0.839667
vt 0.458870 0.855292
vt 0.460513 0.886362
vt 0.460513 0.855292
vt 0.458190 0.855292
vt 0.458870 0.886362
vt 0.458870 0.855292
vt 0.458190 0.886362
vt 0.460513 0.855292
vt 0.458870 0.886362
vt 0.462156 0.855292
vt 0.460513 0.886362
vt 0.462836 0.855292
vt 0.462156 0.886362
vt 0.462156 0.855292
vt 0.462836 0.886362
vt 0.462156 0.886362
vt 0.416748 0.839667
vt 0.416997 0.850900
vt 0.417405 0.850900
vt 0.420033 0.855292
vt 0.418390 0.886362
vt 0.418390 0.855292
vt 0.420713 0.855292
vt 0.420033 0.886362
vt 0.420033 0.855292
vt 0.420713 0.886362
vt 0.418390 0.855292
vt 0.420033 0.886362
vt 0.416748 0.855292
vt 0.418390 0.886362
vt 0.416067 0.855292
vt 0.416748 0.886362
vt 0.416748 0.855292
vt 0.416067 0.886362
vt 0.416748 0.886362
vt 0.462156 0.839667
vt 0.461907 0.850900
vt 0.462836 0.839667
vt 0.460513 0.886362
vt 0.458870 0.855291
vt 0.460513 0.855291
vt 0.458870 0.886362
vt 0.458190 0.855291
vt 0.458190 0.886362
vt 0.458870 0.855291
vt 0.458870 0.886362
vt 0.460513 0.855291
vt 0.460513 0.886362
vt 0.462156 0.855291
vt 0.462156 0.886362
vt 0.462836 0.855291
vt 0.462836 0.886362
vt 0.462156 0.855291
vt 0.462156 0.886362
vt 0.416748 0.839667
vt 0.418390 0.850900
vt 0.418390 0.839667
vt 0.458841 0.844223
vt 0.420063 0.841846
vt 0.420063 0.844223
vt 0.458841 0.841846
vt 0.420063 0.841846
vt 0.458841 0.841846
vt 0.420063 0.844223
vt 0.458841 0.875473
vt 0.420063 0.877850
vt 0.420063 0.875473
vt 0.458841 0.877850
vt 0.420063 0.877850
vt 0.458841 0.877850
vt 0.420063 0.875473
vt 0.420063 0.841846
vt 0.458841 0.844223
vt 0.420063 0.844223
vt 0.420063 0.841846
vt 0.458841 0.841846
vt 0.420063 0.844223
vt 0.458841 0.841846
vt 0.420063 0.877850
vt 0.458841 0.875473
vt 0.420063 0.875473
vt 0.420063 0.877850
vt 0.458841 0.877850
vt 0.420063 0.875473
vt 0.458841 0.877850
vt 0.458964 0.844223
vt 0.459739 0.841846
vt 0.458964 0.844223
vt 0.459739 0.841846
vt 0.461287 0.841846
vt 0.461287 0.841846
vt 0.462062 0.844223
vt 0.462062 0.875473
vt 0.461287 0.877850
vt 0.462062 0.875473
vt 0.461287 0.877850
vt 0.459739 0.877850
vt 0.459739 0.877850
vt 0.458964 0.875473
vt 0.419165 0.841846
vt 0.419939 0.844223
vt 0.419939 0.844223
vt 0.417616 0.841846
vt 0.419165 0.841846
vt 0.416842 0.844223
vt 0.417616 0.841846
vt 0.417616 0.877850
vt 0.416842 0.875473
vt 0.416842 0.875473
vt 0.419165 0.877850
vt 0.417616 0.877850
vt 0.419939 0.875473
vt 0.419165 0.877850
vt 0.462156 0.839666
vt 0.460513 0.850900
vt 0.461499 0.850900
vt 0.458870 0.839667
vt 0.459119 0.850900
vt 0.458190 0.839667
vt 0.420033 0.839667
vt 0.419784 0.850900
vt 0.419376 0.850900
vt 0.458870 0.839666
vt 0.460513 0.850900
vt 0.459527 0.850900
vt 0.416997 0.850900
vt 0.417405 0.850900
vt 0.462156 0.839667
vt 0.461499 0.850900
vt 0.418390 0.850900
vt 0.418390 0.839667
vt 0.419784 0.850900
vt 0.419376 0.850900
vt 0.458870 0.839667
vt 0.459527 0.850900
vt 0.418390 0.850900
vt 0.418390 0.839667
vt 0.462156 0.839666
vt 0.460513 0.839666
vt 0.458870 0.839666
vt 0.460513 0.839666
vt 0.416748 0.839667
vt 0.416067 0.839667
vt 0.460513 0.850900
vt 0.460513 0.839667
vt 0.420033 0.839667
vt 0.420713 0.839667
vt 0.460513 0.850900
vt 0.460513 0.839667
vt 0.416748 0.839667
vt 0.417405 0.850900
vt 0.461907 0.850900
vt 0.461499 0.850900
vt 0.420033 0.839667
vt 0.419376 0.850900
vt 0.417405 0.850900
vt 0.459119 0.850900
vt 0.459527 0.850900
vt 0.419376 0.850900
vt 0.461499 0.850900
vt 0.416067 0.839667
vt 0.462836 0.839666
vt 0.459527 0.850900
vt 0.420713 0.839667
vt 0.458190 0.839666
vt 0.460513 0.804025
vt 0.460513 0.804025
vt 0.459527 0.804025
vt 0.459119 0.804025
vt 0.459527 0.804025
vt 0.460513 0.804025
vt 0.461499 0.804025
vt 0.461907 0.804025
vt 0.461499 0.804025
vt 0.460513 0.804025
vt 0.459527 0.804025
vt 0.460513 0.804025
vt 0.459119 0.804025
vt 0.459527 0.804025
vt 0.460513 0.804025
vt 0.461499 0.804025
vt 0.461907 0.804025
vt 0.461499 0.804025
vt 0.418390 0.804025
vt 0.418390 0.804025
vt 0.419376 0.804025
vt 0.419784 0.804025
vt 0.419376 0.804025
vt 0.418390 0.804025
vt 0.417405 0.804025
vt 0.416997 0.804025
vt 0.417405 0.804025
vt 0.418390 0.804025
vt 0.419376 0.804025
vt 0.418390 0.804025
vt 0.419784 0.804025
vt 0.419376 0.804025
vt 0.418390 0.804025
vt 0.417405 0.804025
vt 0.416997 0.804025
vt 0.417405 0.804025
vt 0.279375 0.651661
vt 0.279375 0.617732
vt 0.279375 0.617732
vt 0.279375 0.651661
vt 0.342894 0.617732
vt 0.342894 0.651661
vt 0.342894 0.617732
vt 0.461542 0.810902
vt 0.461542 0.790761
vt 0.461542 0.810902
vt 0.342894 0.695527
vt 0.279375 0.695527
vt 0.279375 0.695527
vt 0.342894 0.651661
vt 0.285727 0.573866
vt 0.279375 0.573866
vt 0.285727 0.573866
vt 0.342894 0.573866
vt 0.336542 0.573866
vt 0.342894 0.573866
vt 0.336542 0.573866
vt 0.279375 0.573866
vt 0.461542 0.764722
vt 0.410727 0.764722
vt 0.410727 0.764722
vt 0.410727 0.810902
vt 0.410727 0.790761
vt 0.410727 0.810902
vt 0.461542 0.790761
vt 0.410727 0.790761
vt 0.458841 0.844223
vt 0.458841 0.875473
vt 0.458841 0.844223
vt 0.458841 0.875473
vt 0.462062 0.844223
vt 0.458964 0.875473
vt 0.416842 0.844223
vt 0.419939 0.875473
vt 0.342894 0.695527
vt 0.461542 0.764722
vn 0.0000 0.0000 -1.0000
vn 0.6967 -0.1712 -0.6967
vn 0.0000 -0.1712 -0.9852
vn 0.9239 0.0000 -0.3827
vn 0.9852 -0.1712 -0.0000
vn 1.0000 0.0000 -0.0000
vn 0.6967 -0.1712 0.6967
vn 0.3827 -0.0000 0.9239
vn -0.0000 -0.1712 0.9852
vn 0.0000 -0.0000 1.0000
vn -0.6967 -0.1712 0.6967
vn -0.9239 -0.0000 0.3827
vn -0.9852 -0.1712 -0.0000
vn -1.0000 -0.0000 -0.0000
vn -0.6967 -0.1712 -0.6967
vn -0.3827 0.0000 -0.9239
vn 0.0000 -0.3511 -0.9363
vn -0.9239 0.0000 -0.3827
vn -0.3827 -0.0000 0.9239
vn 0.9239 -0.0000 0.3827
vn 0.3827 0.0000 -0.9239
vn -0.9363 -0.3511 -0.0000
vn -0.6621 -0.3511 0.6621
vn 0.9363 -0.3511 0.0000
vn -0.7071 0.0000 -0.7071
vn 0.7071 0.0000 -0.7071
vn -0.0000 -0.3511 0.9363
vn 0.0000 -0.5000 -0.8660
vn 0.0000 -1.0000 -0.0000
vn 0.0000 -0.5000 0.8660
vn 0.0000 0.5000 0.8660
vn 0.0000 1.0000 0.0000
vn 0.0000 0.5000 -0.8660
vn -0.8660 -0.5000 -0.0000
vn 0.8660 -0.5000 -0.0000
vn 0.8660 0.5000 0.0000
vn -0.8660 0.5000 0.0000
vn 0.6621 -0.3511 0.6621
vn 0.6621 -0.3511 -0.6621
vn -0.6621 -0.3511 -0.6621
usemtl restaurant.083
s 1
f 2/1/1 3/2/2 1/3/3
f 4/4/4 5/5/5 3/2/2
f 6/6/6 7/7/7 5/5/5
f 8/8/8 9/9/9 7/7/7
f 10/10/10 11/11/11 9/9/9
f 12/12/12 13/13/13 11/11/11
f 14/14/14 15/15/15 13/13/13
f 16/16/16 1/3/3 15/15/15
f 3/17/2 133/18/17 1/19/3
f 19/20/15 18/21/1 17/22/3
f 21/23/13 20/24/18 19/20/15
f 23/25/11 22/26/14 21/23/13
f 25/27/9 24/28/19 23/25/11
f 27/29/7 26/30/10 25/27/9
f 29/31/5 28/32/20 27/29/7
f 31/33/2 30/34/6 29/31/5
f 17/22/3 32/35/21 31/33/2
f 47/36/11 147/37/22 148/38/23
f 35/39/7 34/40/10 33/41/9
f 37/42/5 36/43/20 35/39/7
f 39/44/2 38/45/6 37/42/5
f 41/46/3 40/47/21 39/44/2
f 43/48/15 42/49/1 41/46/3
f 45/50/13 44/51/18 43/48/15
f 47/52/11 46/53/14 45/50/13
f 33/41/9 48/54/19 47/52/11
f 27/55/7 131/56/24 29/57/5
f 50/58/19 51/59/11 49/60/9
f 52/61/12 53/62/13 51/59/11
f 54/63/14 55/64/15 53/62/13
f 56/65/25 57/66/3 55/64/15
f 58/67/21 59/68/2 57/66/3
f 60/69/26 61/70/5 59/68/2
f 62/71/6 63/72/7 61/70/5
f 64/73/8 49/60/9 63/72/7
f 11/74/11 137/75/27 9/76/9
f 66/77/28 67/78/28 65/79/28
f 68/80/29 69/81/29 67/78/29
f 70/82/30 71/83/30 69/81/30
f 72/84/31 73/85/31 71/86/31
f 74/87/32 75/88/32 73/85/32
f 76/89/33 65/90/33 75/88/33
f 79/91/30 78/92/30 77/93/30
f 81/94/29 80/95/29 79/91/29
f 83/96/28 82/97/28 81/94/28
f 85/98/33 84/99/33 83/100/33
f 87/101/32 86/102/32 85/98/32
f 77/103/31 88/104/31 87/101/31
f 90/105/34 91/106/34 89/107/34
f 92/108/29 93/109/29 91/106/29
f 94/110/35 95/111/35 93/109/35
f 96/112/36 97/113/36 95/114/36
f 98/115/32 99/116/32 97/113/32
f 100/117/37 89/118/37 99/116/37
f 103/119/35 102/120/35 101/121/35
f 105/122/29 104/123/29 103/119/29
f 107/124/34 106/125/34 105/122/34
f 109/126/37 108/127/37 107/128/37
f 111/129/32 110/130/32 109/126/32
f 101/131/36 112/132/36 111/129/36
f 63/133/7 117/134/27 124/135/38
f 19/136/15 127/137/22 21/138/13
f 39/139/2 143/140/24 144/141/39
f 55/142/15 121/143/17 120/144/40
f 11/74/11 139/145/22 138/146/23
f 31/147/2 131/56/24 132/148/39
f 47/36/11 141/149/27 33/150/9
f 3/17/2 135/151/24 134/152/39
f 23/153/11 127/137/22 128/154/23
f 39/139/2 145/155/17 41/156/3
f 59/157/2 121/143/17 57/158/3
f 51/159/11 117/134/27 49/160/9
f 15/161/15 139/145/22 13/162/13
f 31/147/2 125/163/17 17/164/3
f 7/165/7 135/151/24 5/166/5
f 23/153/11 129/167/27 25/168/9
f 43/169/15 145/155/17 146/170/40
f 59/157/2 123/171/24 122/172/39
f 35/173/7 141/149/27 142/174/38
f 15/161/15 133/18/17 140/175/40
f 51/159/11 119/176/22 118/177/23
f 7/165/7 137/75/27 136/178/38
f 27/55/7 129/167/27 130/179/38
f 43/169/15 147/37/22 45/180/13
f 63/133/7 123/171/24 61/181/5
f 19/136/15 125/163/17 126/182/40
f 35/173/7 143/140/24 37/183/5
f 55/142/15 119/176/22 53/184/13
f 116/185/29 117/186/29 118/187/29
f 116/185/29 118/187/29 119/188/29
f 116/185/29 119/188/29 120/189/29
f 116/185/29 120/189/29 121/190/29
f 116/185/29 121/190/29 122/191/29
f 116/185/29 122/191/29 123/192/29
f 116/185/29 123/192/29 124/193/29
f 116/185/29 124/193/29 117/186/29
f 114/194/29 126/195/29 125/196/29
f 114/194/29 127/197/29 126/195/29
f 114/194/29 128/198/29 127/197/29
f 114/194/29 129/199/29 128/198/29
f 114/194/29 130/200/29 129/199/29
f 114/194/29 131/201/29 130/200/29
f 114/194/29 132/202/29 131/201/29
f 114/194/29 125/196/29 132/202/29
f 113/203/29 133/204/29 134/205/29
f 113/203/29 134/205/29 135/206/29
f 113/203/29 135/206/29 136/207/29
f 113/203/29 136/207/29 137/208/29
f 113/203/29 137/208/29 138/209/29
f 113/203/29 138/209/29 139/210/29
f 113/203/29 139/210/29 140/211/29
f 113/203/29 140/211/29 133/204/29
f 115/212/29 142/213/29 141/214/29
f 115/212/29 143/215/29 142/213/29
f 115/212/29 144/216/29 143/215/29
f 115/212/29 145/217/29 144/216/29
f 115/212/29 146/218/29 145/217/29
f 115/212/29 147/219/29 146/218/29
f 115/212/29 148/220/29 147/219/29
f 115/212/29 141/214/29 148/220/29
f 153/221/14 157/222/14 158/223/14
f 154/224/1 159/225/1 157/222/1
f 155/226/6 160/227/6 159/225/6
f 151/228/6 163/229/6 152/230/6
f 156/231/32 154/232/32 153/233/32
f 156/234/10 158/223/10 160/227/10
f 149/235/29 157/236/29 150/237/29
f 150/237/29 159/238/29 152/239/29
f 152/239/29 160/240/29 151/241/29
f 151/241/29 158/242/29 149/235/29
f 163/243/29 162/244/29 161/245/29
f 150/246/14 162/247/14 149/248/14
f 149/248/10 164/249/10 151/228/10
f 152/230/1 161/250/1 150/246/1
f 2/1/1 4/4/21 3/2/2
f 4/4/4 6/6/6 5/5/5
f 6/6/6 8/8/20 7/7/7
f 8/8/8 10/10/10 9/9/9
f 10/10/10 12/12/19 11/11/11
f 12/12/12 14/14/14 13/13/13
f 14/14/14 16/16/18 15/15/15
f 16/16/16 2/1/1 1/3/3
f 3/17/2 134/152/39 133/18/17
f 19/20/15 20/24/16 18/21/1
f 21/23/13 22/26/14 20/24/18
f 23/25/11 24/28/12 22/26/14
f 25/27/9 26/30/10 24/28/19
f 27/29/7 28/32/8 26/30/10
f 29/31/5 30/34/6 28/32/20
f 31/33/2 32/35/4 30/34/6
f 17/22/3 18/21/1 32/35/21
f 47/36/11 45/180/13 147/37/22
f 35/39/7 36/43/8 34/40/10
f 37/42/5 38/45/6 36/43/20
f 39/44/2 40/47/4 38/45/6
f 41/46/3 42/49/1 40/47/21
f 43/48/15 44/51/16 42/49/1
f 45/50/13 46/53/14 44/51/18
f 47/52/11 48/54/12 46/53/14
f 33/41/9 34/40/10 48/54/19
f 27/55/7 130/179/38 131/56/24
f 50/58/19 52/61/19 51/59/11
f 52/61/12 54/63/14 53/62/13
f 54/63/14 56/65/25 55/64/15
f 56/65/25 58/67/16 57/66/3
f 58/67/21 60/69/26 59/68/2
f 60/69/26 62/71/6 61/70/5
f 62/71/6 64/73/20 63/72/7
f 64/73/8 50/58/8 49/60/9
f 11/74/11 138/146/23 137/75/27
f 66/77/28 68/80/28 67/78/28
f 68/80/29 70/82/29 69/81/29
f 70/82/30 72/251/30 71/83/30
f 72/84/31 74/87/31 73/85/31
f 74/87/32 76/89/32 75/88/32
f 76/89/33 66/252/33 65/90/33
f 79/91/30 80/95/30 78/92/30
f 81/94/29 82/97/29 80/95/29
f 83/96/28 84/253/28 82/97/28
f 85/98/33 86/102/33 84/99/33
f 87/101/32 88/104/32 86/102/32
f 77/103/31 78/254/31 88/104/31
f 90/105/34 92/108/34 91/106/34
f 92/108/29 94/110/29 93/109/29
f 94/110/35 96/255/35 95/111/35
f 96/112/36 98/115/36 97/113/36
f 98/115/32 100/117/32 99/116/32
f 100/117/37 90/256/37 89/118/37
f 103/119/35 104/123/35 102/120/35
f 105/122/29 106/125/29 104/123/29
f 107/124/34 108/257/34 106/125/34
f 109/126/37 110/130/37 108/127/37
f 111/129/32 112/132/32 110/130/32
f 101/131/36 102/258/36 112/132/36
f 63/133/7 49/160/9 117/134/27
f 19/136/15 126/182/40 127/137/22
f 39/139/2 37/183/5 143/140/24
f 55/142/15 57/158/3 121/143/17
f 11/74/11 13/162/13 139/145/22
f 31/147/2 29/57/5 131/56/24
f 47/36/11 148/38/23 141/149/27
f 3/17/2 5/166/5 135/151/24
f 23/153/11 21/138/13 127/137/22
f 39/139/2 144/141/39 145/155/17
f 59/157/2 122/172/39 121/143/17
f 51/159/11 118/177/23 117/134/27
f 15/161/15 140/175/40 139/145/22
f 31/147/2 132/148/39 125/163/17
f 7/165/7 136/178/38 135/151/24
f 23/153/11 128/154/23 129/167/27
f 43/169/15 41/156/3 145/155/17
f 59/157/2 61/181/5 123/171/24
f 35/173/7 33/150/9 141/149/27
f 15/161/15 1/19/3 133/18/17
f 51/159/11 53/184/13 119/176/22
f 7/165/7 9/76/9 137/75/27
f 27/55/7 25/168/9 129/167/27
f 43/169/15 146/170/40 147/37/22
f 63/133/7 124/135/38 123/171/24
f 19/136/15 17/164/3 125/163/17
f 35/173/7 142/174/38 143/140/24
f 55/142/15 120/144/40 119/176/22
f 153/221/14 154/224/14 157/222/14
f 154/224/1 155/226/1 159/225/1
f 155/226/6 156/234/6 160/227/6
f 151/228/6 164/249/6 163/229/6
f 156/231/32 155/259/32 154/232/32
f 156/234/10 153/221/10 158/223/10
f 149/235/29 158/242/29 157/236/29
f 150/237/29 157/236/29 159/238/29
f 152/239/29 159/238/29 160/240/29
f 151/241/29 160/240/29 158/242/29
f 163/243/29 164/260/29 162/244/29
f 150/246/14 161/250/14 162/247/14
f 149/248/10 162/247/10 164/249/10
f 152/230/1 163/229/1 161/250/1
