# Blender v3.4.1 OBJ File: 'restaurant.blend'
# www.blender.org
mtllib kitchencabinet_corner_half_Cube_217.mtl
o kitchencabinet_corner_half_Cube.217
v -1.000000 3.000000 0.800000
v -1.000000 3.000000 0.000000
v 0.200000 3.000000 0.800000
v 1.000000 3.000000 0.000000
v 0.200000 3.000000 2.000000
v 1.000000 3.000000 2.000000
v 0.090000 3.100000 1.040000
v 0.050000 3.140000 1.040000
v 0.090000 3.140000 1.000000
v 0.050000 3.860000 1.040001
v 0.090000 3.900000 1.040001
v 0.090000 3.860000 1.000001
v 0.250000 3.100000 1.040000
v 0.250000 3.140000 1.000000
v 0.250000 3.860000 1.000001
v 0.250000 3.900000 1.040001
v 0.090000 3.100000 1.860000
v 0.090000 3.140000 1.900000
v 0.050000 3.140000 1.860000
v 0.090000 3.900000 1.860001
v 0.050000 3.860000 1.860001
v 0.090000 3.860000 1.900001
v 0.250000 3.140000 1.900000
v 0.250000 3.100000 1.860000
v 0.250000 3.900000 1.860001
v 0.250000 3.860000 1.900001
v -0.041903 3.350000 1.150001
v 0.013204 3.403978 1.096024
v 0.013204 3.350001 1.073666
v 0.013204 3.296024 1.096024
v 0.013204 3.273666 1.150000
v 0.013204 3.296024 1.203978
v 0.013204 3.350001 1.226337
v 0.013204 3.403978 1.203978
v 0.013204 3.426336 1.150001
v -0.024086 3.391758 1.108242
v 0.050494 3.391758 1.108242
v -0.024086 3.350000 1.090945
v 0.050494 3.350000 1.090945
v -0.024086 3.308241 1.108242
v 0.050494 3.308241 1.108242
v -0.024086 3.290944 1.150000
v 0.050494 3.290944 1.150000
v -0.024086 3.308241 1.191760
v 0.050494 3.308241 1.191760
v -0.024086 3.350000 1.209057
v 0.050494 3.350000 1.209057
v -0.024086 3.391758 1.191760
v 0.050494 3.391758 1.191760
v -0.024086 3.409055 1.150001
v 0.050494 3.409055 1.150001
v 0.000000 3.140000 0.910001
v 0.000000 3.860000 0.910001
v 0.000000 3.140000 0.750001
v 0.000000 3.860000 0.750001
v -0.860000 3.100000 0.910001
v -0.860000 3.140000 0.950001
v -0.900000 3.140000 0.910001
v -0.860000 3.860000 0.950001
v -0.860000 3.900000 0.910001
v -0.900000 3.860000 0.910001
v -0.860000 3.100000 0.750000
v -0.900000 3.140000 0.750001
v -0.900000 3.860000 0.750001
v -0.860000 3.900000 0.750001
v -0.040000 3.100000 0.910001
v -0.040000 3.140000 0.950001
v -0.040000 3.900000 0.910001
v -0.040000 3.860000 0.950001
v -0.040000 3.100000 0.750000
v -0.040000 3.900000 0.750001
v -0.150000 3.350000 1.041904
v -0.203977 3.403978 0.986797
v -0.226335 3.350001 0.986797
v -0.203977 3.296024 0.986797
v -0.150000 3.273666 0.986797
v -0.096023 3.296024 0.986797
v -0.073664 3.350001 0.986797
v -0.096023 3.403978 0.986797
v -0.150000 3.426336 0.986797
v -0.191759 3.391758 1.024087
v -0.191759 3.391758 0.949507
v -0.209056 3.350000 1.024087
v -0.209056 3.350000 0.949507
v -0.191759 3.308241 1.024087
v -0.191759 3.308241 0.949507
v -0.150000 3.290944 1.024086
v -0.150000 3.290944 0.949507
v -0.108242 3.308241 1.024087
v -0.108242 3.308241 0.949507
v -0.090944 3.350000 1.024087
v -0.090944 3.350000 0.949507
v -0.108242 3.391758 1.024087
v -0.108242 3.391758 0.949507
v -0.150000 3.409055 1.024087
v -0.150000 3.409055 0.949507
v -0.950000 4.000000 0.750001
v -1.000000 3.950000 0.800001
v -0.950000 4.000000 0.050001
v -1.000000 3.950000 0.000001
v 0.200000 3.950000 0.800001
v 0.250000 4.000000 0.750001
v 1.000000 3.950000 0.000001
v 0.950000 4.000000 0.050001
v 0.250000 4.000000 1.950001
v 0.200000 3.950000 2.000001
v 0.950000 4.000000 1.950001
v 1.000000 3.950000 2.000001
vt 0.971048 0.147843
vt 0.936233 0.147843
vt 0.936541 0.147843
vt 0.971048 0.128883
vt 0.935202 0.065509
vt 0.971048 0.065509
vt 0.935202 0.113258
vt 0.935202 0.049884
vt 0.935202 0.049884
vt 0.935202 0.034259
vt 0.971048 0.034259
vt 0.935202 0.034259
vt 0.935202 0.128883
vt 0.971048 0.065509
vt 0.935202 0.065509
vt 0.971048 0.113258
vt 0.971048 0.049884
vt 0.971048 0.049884
vt 0.935202 0.147843
vt 0.970017 0.147843
vt 0.935202 0.147843
vt 0.971048 0.034259
vt 0.935202 0.034259
vt 0.935202 0.034259
vt 0.935202 0.128883
vt 0.971048 0.065509
vt 0.935202 0.065509
vt 0.667878 0.136169
vt 0.657765 0.092808
vt 0.667878 0.092808
vt 0.657765 0.155130
vt 0.667878 0.155130
vt 0.667878 0.155130
vt 0.668371 0.120544
vt 0.668371 0.077183
vt 0.668371 0.077183
vt 0.657765 0.058223
vt 0.657765 0.061558
vt 0.657271 0.061558
vt 0.657765 0.167419
vt 0.657765 0.170755
vt 0.657271 0.167419
vt 0.667878 0.058223
vt 0.668371 0.061558
vt 0.667878 0.061558
vt 0.667878 0.170755
vt 0.667878 0.167419
vt 0.668371 0.167419
vt 0.657765 0.042598
vt 0.657271 0.045933
vt 0.657765 0.042598
vt 0.657765 0.136169
vt 0.657271 0.092808
vt 0.657271 0.151794
vt 0.657765 0.155130
vt 0.667878 0.042598
vt 0.668371 0.045933
vt 0.667878 0.042598
vt 0.668371 0.151794
vt 0.668371 0.136169
vt 0.798466 0.130479
vt 0.796875 0.131921
vt 0.796875 0.111372
vt 0.798466 0.099229
vt 0.799784 0.080122
vt 0.799125 0.080122
vt 0.793966 0.080122
vt 0.795284 0.099229
vt 0.794625 0.080122
vt 0.796875 0.058131
vt 0.795284 0.061015
vt 0.796875 0.059572
vt 0.799125 0.111372
vt 0.798932 0.075621
vt 0.799784 0.095747
vt 0.798932 0.115873
vt 0.796875 0.117737
vt 0.794818 0.075621
vt 0.794625 0.111372
vt 0.793966 0.095747
vt 0.794818 0.115873
vt 0.795284 0.130479
vt 0.796875 0.073756
vt 0.795284 0.092265
vt 0.796875 0.100671
vt 0.798932 0.100248
vt 0.798466 0.061015
vt 0.798466 0.092265
vt 0.794818 0.100248
vt 0.794818 0.059996
vt 0.798932 0.059996
vt 0.796875 0.090822
vt 0.657271 0.136169
vt 0.656778 0.136169
vt 0.646665 0.092808
vt 0.656778 0.092808
vt 0.646665 0.155130
vt 0.656778 0.155130
vt 0.656778 0.155130
vt 0.646171 0.120544
vt 0.646171 0.077183
vt 0.646171 0.077183
vt 0.646665 0.058223
vt 0.646665 0.061558
vt 0.646171 0.061558
vt 0.646665 0.167419
vt 0.646665 0.170755
vt 0.646171 0.167419
vt 0.656778 0.058223
vt 0.657271 0.061558
vt 0.656778 0.061558
vt 0.656778 0.170755
vt 0.656778 0.167419
vt 0.657271 0.167419
vt 0.646665 0.042598
vt 0.646171 0.045933
vt 0.646665 0.042598
vt 0.646665 0.136169
vt 0.646171 0.092808
vt 0.646171 0.151794
vt 0.646665 0.155130
vt 0.656778 0.042598
vt 0.657271 0.045933
vt 0.656778 0.042598
vt 0.657271 0.151794
vt 0.657271 0.136169
vt 0.798466 0.130479
vt 0.796875 0.131921
vt 0.796875 0.111372
vt 0.798466 0.099229
vt 0.799784 0.080122
vt 0.799125 0.080122
vt 0.793966 0.080122
vt 0.795284 0.099229
vt 0.794625 0.080122
vt 0.796875 0.058131
vt 0.795284 0.061015
vt 0.796875 0.059572
vt 0.799125 0.111372
vt 0.798932 0.075621
vt 0.799784 0.095747
vt 0.798932 0.115873
vt 0.796875 0.117737
vt 0.794818 0.075621
vt 0.794625 0.111372
vt 0.793966 0.095747
vt 0.794818 0.115873
vt 0.795284 0.130479
vt 0.796875 0.073756
vt 0.795284 0.092265
vt 0.796875 0.100671
vt 0.798932 0.100248
vt 0.798466 0.061015
vt 0.798466 0.092265
vt 0.794818 0.100248
vt 0.794818 0.059996
vt 0.798932 0.059996
vt 0.796875 0.090822
vt 0.657271 0.045933
vt 0.657271 0.092808
vt 0.935202 0.132218
vt 0.935202 0.128883
vt 0.935202 0.132218
vt 0.936696 0.147843
vt 0.971048 0.144508
vt 0.970151 0.147843
vt 0.935202 0.144508
vt 0.936099 0.147843
vt 0.971048 0.132218
vt 0.971048 0.128883
vt 0.971048 0.132218
vt 0.970151 0.147843
vt 0.935202 0.144508
vt 0.936099 0.147843
vt 0.969554 0.147843
vt 0.935202 0.144508
vt 0.971048 0.144508
vt 0.971048 0.128883
vt 0.935202 0.065509
vt 0.971048 0.065509
vt 0.971048 0.147843
vt 0.935202 0.128883
vt 0.935202 0.113258
vt 0.971048 0.034259
vt 0.971048 0.128883
vt 0.971048 0.113258
vt 0.969709 0.147843
vt 0.971048 0.034259
vt 0.668371 0.120544
vt 0.657271 0.045933
vt 0.657271 0.151794
vt 0.668371 0.045933
vt 0.668371 0.151794
vt 0.668371 0.092808
vt 0.796875 0.102112
vt 0.646171 0.120544
vt 0.646171 0.045933
vt 0.646171 0.136169
vt 0.646171 0.151794
vt 0.657271 0.151794
vt 0.796875 0.102112
vt 0.935202 0.144508
vt 0.971048 0.144508
vt 0.971048 0.144508
vn -0.0000 1.0000 -0.0000
vn -1.0000 -0.0000 0.0000
vn 0.0000 -1.0000 -0.0000
vn 0.0000 0.0000 -1.0000
vn 0.0000 -0.0000 1.0000
vn 1.0000 0.0000 0.0000
vn -0.8756 0.3416 0.3416
vn -0.8756 -0.3416 -0.3416
vn -0.8756 -0.3416 0.3416
vn 0.0000 0.9239 -0.3827
vn -0.3416 0.8756 0.3416
vn 0.0000 0.9239 0.3827
vn -0.3416 -0.8756 -0.3416
vn -0.3416 -0.3416 -0.8756
vn -0.8756 0.3416 -0.3416
vn -0.3416 0.8756 -0.3416
vn -0.3416 0.3416 -0.8756
vn -0.3416 -0.8756 0.3416
vn -0.4606 -0.4606 0.7588
vn -0.4606 0.4606 0.7588
vn 0.0000 -0.7071 -0.7071
vn 0.0000 -0.9239 -0.3827
vn 0.0000 -0.9239 0.3827
vn 0.0000 0.7071 0.7071
vn -0.9574 0.2042 0.2042
vn -0.9574 0.2888 0.0000
vn 0.4205 0.6416 0.6416
vn 0.4204 0.0000 0.9073
vn 0.4204 0.0000 -0.9073
vn 0.4205 0.6416 -0.6416
vn 0.4204 -0.9073 -0.0000
vn 0.4204 -0.6416 -0.6416
vn -0.4204 -0.0000 0.9073
vn -0.4204 -0.6416 0.6416
vn -0.4205 0.9073 0.0000
vn -0.4205 0.6416 0.6416
vn -0.4204 -0.6416 -0.6416
vn -0.4204 -0.0000 -0.9073
vn -0.4205 0.6416 -0.6416
vn -0.4204 -0.9073 -0.0000
vn 0.4205 0.9073 0.0000
vn -0.9574 0.2042 -0.2042
vn 0.4204 -0.6416 0.6416
vn -0.9574 -0.2042 0.2042
vn -0.9574 0.0000 0.2888
vn -0.9574 -0.2042 -0.2042
vn -0.9574 -0.2888 0.0000
vn -0.9574 0.0000 -0.2888
vn 0.3416 0.3416 0.8756
vn -0.3416 -0.3416 0.8756
vn 0.3416 -0.3416 0.8756
vn 0.3416 0.8756 0.3416
vn -0.9239 -0.3827 0.0000
vn -0.3416 0.3416 0.8756
vn 0.3416 -0.8756 0.3416
vn 0.8756 -0.3416 0.3416
vn 0.8756 0.3416 0.3416
vn -0.7071 -0.7071 0.0000
vn -0.7071 0.7071 0.0000
vn 0.7071 -0.7071 0.0000
vn 0.9239 0.3827 0.0000
vn 0.7071 0.7071 0.0000
vn 0.2042 0.2042 0.9574
vn 0.0000 0.2888 0.9574
vn 0.6416 0.6416 -0.4205
vn 0.9073 0.0000 -0.4204
vn -0.9073 0.0000 -0.4204
vn -0.6416 0.6416 -0.4205
vn 0.0000 -0.9073 -0.4204
vn -0.6416 -0.6416 -0.4204
vn 0.9073 -0.0000 0.4204
vn 0.6416 -0.6416 0.4204
vn 0.0000 0.9073 0.4205
vn 0.6416 0.6416 0.4205
vn -0.6416 -0.6416 0.4204
vn -0.9073 -0.0000 0.4204
vn -0.6416 0.6416 0.4205
vn 0.0000 -0.9073 0.4204
vn 0.0000 0.9073 -0.4205
vn -0.2042 0.2042 0.9574
vn 0.6416 -0.6416 -0.4204
vn 0.2042 -0.2042 0.9574
vn 0.2888 0.0000 0.9574
vn -0.2042 -0.2042 0.9574
vn 0.0000 -0.2888 0.9574
vn -0.2888 0.0000 0.9574
vn 0.9239 -0.3827 0.0000
vn 0.0000 0.7071 -0.7071
vn 0.0000 -0.7071 0.7071
vn -0.9239 0.3827 0.0000
usemtl restaurant.108
s 1
f 102/1/1 99/2/1 97/3/1
f 106/4/2 3/5/2 5/6/2
f 98/7/2 2/8/2 1/9/2
f 2/10/3 3/11/3 1/12/3
f 100/13/4 4/14/4 2/15/4
f 108/16/5 5/17/5 6/18/5
f 102/19/1 107/20/1 104/21/1
f 6/22/3 3/23/3 4/24/3
f 103/25/6 6/26/6 4/27/6
f 21/28/7 8/29/8 19/30/9
f 16/31/10 20/32/11 25/33/12
f 26/34/5 18/35/5 23/36/5
f 7/37/13 8/38/8 9/39/14
f 10/40/15 11/41/16 12/42/17
f 17/43/18 18/44/19 19/45/9
f 20/46/11 21/47/7 22/48/20
f 7/49/13 14/50/21 13/51/22
f 10/52/15 9/53/14 8/29/8
f 16/31/10 12/54/17 11/55/16
f 24/56/23 18/57/19 17/58/18
f 20/32/11 26/59/24 25/33/12
f 19/30/9 22/60/20 21/28/7
f 17/43/18 8/38/8 7/37/13
f 11/41/16 21/47/7 20/46/11
f 24/56/23 7/49/13 13/51/22
f 48/61/25 50/62/26 27/63/2
f 49/64/27 33/65/28 47/66/28
f 29/67/29 37/68/30 39/69/29
f 31/70/31 41/71/32 43/72/31
f 46/73/33 32/74/34 33/75/33
f 50/62/35 34/76/36 35/77/35
f 30/78/37 38/79/38 29/80/38
f 28/81/39 50/62/35 35/77/35
f 29/80/38 36/82/39 28/81/39
f 31/83/40 40/84/37 30/78/37
f 51/85/41 34/86/27 49/64/27
f 50/62/26 36/82/42 27/63/2
f 45/87/43 31/70/31 43/72/31
f 44/88/34 31/83/40 32/74/34
f 28/89/30 51/85/41 37/68/30
f 44/88/44 46/73/45 27/63/2
f 48/61/36 33/75/33 34/76/36
f 30/90/32 39/69/29 41/71/32
f 47/66/28 32/91/43 45/87/43
f 40/84/46 42/92/47 27/63/2
f 38/79/48 40/84/46 27/63/2
f 42/92/47 44/88/44 27/63/2
f 36/82/42 38/79/48 27/63/2
f 46/73/45 48/61/25 27/63/2
f 12/93/17 14/50/4 9/53/14
f 69/94/49 57/95/50 67/96/51
f 65/97/1 68/98/52 71/99/1
f 61/100/7 63/101/53 58/102/9
f 56/103/18 57/104/50 58/105/9
f 59/106/54 60/107/11 61/108/7
f 66/109/55 52/110/56 67/111/51
f 68/112/52 69/113/49 53/114/57
f 56/115/18 63/116/53 62/117/58
f 59/118/54 58/119/9 57/95/50
f 65/97/59 61/120/7 60/121/11
f 70/122/60 52/123/56 66/124/55
f 68/98/52 55/125/61 71/99/62
f 67/96/51 53/126/57 69/94/49
f 66/109/55 57/104/50 56/103/18
f 60/107/11 69/113/49 68/112/52
f 70/122/3 56/115/18 62/117/3
f 93/127/63 95/128/64 72/129/5
f 94/130/65 78/131/66 92/132/66
f 74/133/67 82/134/68 84/135/67
f 76/136/69 86/137/70 88/138/69
f 91/139/71 77/140/72 78/141/71
f 95/128/73 79/142/74 80/143/73
f 75/144/75 83/145/76 74/146/76
f 73/147/77 95/128/73 80/143/73
f 74/146/76 81/148/77 73/147/77
f 76/149/78 85/150/75 75/144/75
f 96/151/79 79/152/65 94/130/65
f 95/128/64 81/148/80 72/129/5
f 90/153/81 76/136/69 88/138/69
f 89/154/72 76/149/78 77/140/72
f 73/155/68 96/151/79 82/134/68
f 89/154/82 91/139/83 72/129/5
f 93/127/74 78/141/71 79/142/74
f 75/156/70 84/135/67 86/137/70
f 92/132/66 77/157/81 90/153/81
f 85/150/84 87/158/85 72/129/5
f 83/145/86 85/150/84 72/129/5
f 87/158/85 89/154/82 72/129/5
f 81/148/80 83/145/86 72/129/5
f 91/139/83 93/127/63 72/129/5
f 54/159/87 53/126/57 52/160/56
f 99/161/59 98/162/59 97/163/59
f 97/164/24 101/165/24 102/1/24
f 107/166/62 103/167/62 104/168/62
f 105/169/24 108/170/24 107/171/24
f 104/172/88 100/173/88 99/174/88
f 105/175/59 101/176/59 106/177/59
f 101/178/5 1/179/5 3/180/5
f 102/1/1 104/181/1 99/2/1
f 106/4/2 101/182/2 3/5/2
f 98/7/2 100/183/2 2/8/2
f 2/10/3 4/184/3 3/11/3
f 100/13/4 103/185/4 4/14/4
f 108/16/5 106/186/5 5/17/5
f 102/19/1 105/187/1 107/20/1
f 6/22/3 5/188/3 3/23/3
f 103/25/6 108/170/6 6/26/6
f 21/28/7 10/52/15 8/29/8
f 16/31/10 11/55/16 20/32/11
f 26/34/5 22/189/5 18/35/5
f 7/49/13 9/190/14 14/50/21
f 10/52/15 12/93/17 9/53/14
f 16/31/10 15/191/88 12/54/17
f 24/56/23 23/192/89 18/57/19
f 20/32/11 22/193/20 26/59/24
f 19/30/9 18/194/19 22/60/20
f 17/43/18 19/45/9 8/38/8
f 11/41/16 10/40/15 21/47/7
f 24/56/23 17/58/18 7/49/13
f 49/64/27 34/86/27 33/65/28
f 29/67/29 28/89/30 37/68/30
f 31/70/31 30/90/32 41/71/32
f 46/73/33 44/88/34 32/74/34
f 50/62/35 48/61/36 34/76/36
f 30/78/37 40/84/37 38/79/38
f 28/81/39 36/82/39 50/62/35
f 29/80/38 38/79/38 36/82/39
f 31/83/40 42/92/40 40/84/37
f 51/85/41 35/195/41 34/86/27
f 45/87/43 32/91/43 31/70/31
f 44/88/34 42/92/40 31/83/40
f 28/89/30 35/195/41 51/85/41
f 48/61/36 46/73/33 33/75/33
f 30/90/32 29/67/29 39/69/29
f 47/66/28 33/65/28 32/91/43
f 12/93/17 15/191/4 14/50/4
f 69/94/49 59/118/54 57/95/50
f 65/97/1 60/121/11 68/98/52
f 61/100/7 64/196/90 63/101/53
f 56/115/18 58/197/9 63/116/53
f 59/118/54 61/198/7 58/119/9
f 65/97/59 64/199/90 61/120/7
f 70/122/60 54/159/87 52/123/56
f 68/98/52 53/200/57 55/125/61
f 67/96/51 52/160/56 53/126/57
f 66/109/55 67/111/51 57/104/50
f 60/107/11 59/106/54 69/113/49
f 70/122/3 66/124/55 56/115/18
f 94/130/65 79/152/65 78/131/66
f 74/133/67 73/155/68 82/134/68
f 76/136/69 75/156/70 86/137/70
f 91/139/71 89/154/72 77/140/72
f 95/128/73 93/127/74 79/142/74
f 75/144/75 85/150/75 83/145/76
f 73/147/77 81/148/77 95/128/73
f 74/146/76 83/145/76 81/148/77
f 76/149/78 87/158/78 85/150/75
f 96/151/79 80/201/79 79/152/65
f 90/153/81 77/157/81 76/136/69
f 89/154/72 87/158/78 76/149/78
f 73/155/68 80/201/79 96/151/79
f 93/127/74 91/139/71 78/141/71
f 75/156/70 74/133/67 84/135/67
f 92/132/66 78/131/66 77/157/81
f 54/159/87 55/125/61 53/126/57
f 99/161/59 100/13/59 98/162/59
f 97/164/24 98/202/24 101/165/24
f 107/166/62 108/203/62 103/167/62
f 105/169/24 106/4/24 108/170/24
f 104/172/88 103/204/88 100/173/88
f 105/175/59 102/19/59 101/176/59
f 101/178/5 98/162/5 1/179/5
