# Blender v3.4.1 OBJ File: 'restaurant.blend'
# www.blender.org
mtllib kitchencounter_straight_B_backsplash_Cube_895.mtl
o kitchencounter_straight_B_backsplash_Cube.895
v -1.000000 -0.000000 0.800000
v -1.000000 0.800000 0.800000
v -1.000000 0.000000 -1.000000
v -1.000000 0.800000 -1.000000
v 1.000000 -0.000000 0.800000
v 1.000000 0.800000 0.800000
v 1.000000 0.000000 -1.000000
v 1.000000 0.800000 -1.000000
v -1.000000 1.000000 0.950000
v 1.000000 1.000000 0.950000
v -1.000000 1.000000 -0.800000
v 1.000000 1.000000 -0.800000
v -1.000000 1.200000 -1.000000
v 1.000000 1.200000 -1.000000
v 1.000000 0.950000 1.000000
v -1.000000 0.950000 1.000000
v -1.000000 1.150000 -0.800000
v -1.000000 1.200000 -0.850000
v 1.000000 1.200000 -0.850000
v 1.000000 1.150000 -0.800000
v 1.000000 0.850000 1.000000
v 1.000000 0.800000 0.950000
v -1.000000 0.800000 0.950000
v -1.000000 0.850000 1.000000
v 0.040000 0.100000 0.910000
v 0.040000 0.140000 0.950000
v 0.000000 0.140000 0.910000
v 0.040000 0.660000 0.950000
v 0.040000 0.700000 0.910000
v 0.000000 0.660000 0.910000
v 0.040000 0.100000 0.750000
v 0.000000 0.140000 0.750000
v 0.000000 0.660000 0.750000
v 0.040000 0.700000 0.750000
v 0.860000 0.100000 0.910000
v 0.900000 0.140000 0.910000
v 0.860000 0.140000 0.950000
v 0.860000 0.700000 0.910000
v 0.860000 0.660000 0.950000
v 0.900000 0.660000 0.910000
v 0.900000 0.140000 0.750000
v 0.860000 0.100000 0.750000
v 0.860000 0.700000 0.750000
v 0.900000 0.660000 0.750000
v -0.860000 0.100000 0.910000
v -0.860000 0.140000 0.950000
v -0.900000 0.140000 0.910000
v -0.860000 0.660000 0.950000
v -0.860000 0.700000 0.910000
v -0.900000 0.660000 0.910000
v -0.860000 0.100000 0.750000
v -0.900000 0.140000 0.750000
v -0.900000 0.660000 0.750000
v -0.860000 0.700000 0.750000
v -0.040000 0.100000 0.910000
v -0.040000 0.140000 0.950000
v -0.040000 0.700000 0.910000
v -0.040000 0.660000 0.950000
v -0.040000 0.100000 0.750000
v -0.040000 0.700000 0.750000
v -0.150000 0.400000 1.041903
v -0.203977 0.453978 0.986796
v -0.226335 0.400001 0.986796
v -0.203977 0.346024 0.986796
v -0.150000 0.323666 0.986796
v -0.096023 0.346024 0.986796
v -0.073664 0.400001 0.986796
v -0.096023 0.453978 0.986796
v -0.150000 0.476336 0.986796
v -0.191759 0.441758 1.024086
v -0.191759 0.441758 0.949506
v -0.209056 0.400000 1.024086
v -0.209056 0.400000 0.949506
v -0.191759 0.358241 1.024086
v -0.191759 0.358241 0.949506
v -0.150000 0.340944 1.024086
v -0.150000 0.340944 0.949506
v -0.108242 0.358241 1.024086
v -0.108242 0.358241 0.949506
v -0.090944 0.400000 1.024086
v -0.090944 0.400000 0.949506
v -0.108242 0.441758 1.024086
v -0.108242 0.441758 0.949506
v -0.150000 0.459055 1.024086
v -0.150000 0.459055 0.949506
v 0.150000 0.400000 1.041903
v 0.096023 0.453978 0.986796
v 0.073665 0.400001 0.986796
v 0.096023 0.346024 0.986796
v 0.150000 0.323666 0.986796
v 0.203977 0.346024 0.986796
v 0.226336 0.400001 0.986796
v 0.203977 0.453978 0.986796
v 0.150000 0.476336 0.986796
v 0.108241 0.441758 1.024086
v 0.108241 0.441758 0.949506
v 0.090944 0.400000 1.024086
v 0.090944 0.400000 0.949506
v 0.108241 0.358241 1.024086
v 0.108241 0.358241 0.949506
v 0.150000 0.340944 1.024086
v 0.150000 0.340944 0.949506
v 0.191758 0.358241 1.024086
v 0.191758 0.358241 0.949506
v 0.209055 0.400000 1.024086
v 0.209055 0.400000 0.949506
v 0.191758 0.441758 1.024086
v 0.191758 0.441758 0.949506
v 0.150000 0.459055 1.024086
v 0.150000 0.459055 0.949506
vt 0.849518 0.145779
vt 0.849518 0.149948
vt 0.849518 0.149948
vt 0.935202 0.116593
vt 0.971048 0.049884
vt 0.935202 0.049884
vt 0.971048 0.116593
vt 0.971048 0.116593
vt 0.971048 0.049884
vt 0.935202 0.049884
vt 0.821988 0.164521
vt 0.849518 0.164521
vt 0.849518 0.164521
vt 0.821988 0.116593
vt 0.821988 0.133271
vt 0.821988 0.116593
vt 0.849518 0.116593
vt 0.849518 0.133271
vt 0.849518 0.120763
vt 0.821988 0.129102
vt 0.821988 0.120763
vt 0.821988 0.149948
vt 0.849518 0.116593
vt 0.849518 0.133271
vt 0.821988 0.145779
vt 0.821988 0.149948
vt 0.935202 0.116593
vt 0.821988 0.181198
vt 0.849518 0.181198
vt 0.849518 0.181198
vt 0.821988 0.148896
vt 0.849518 0.144727
vt 0.849518 0.148896
vt 0.849518 0.161404
vt 0.821988 0.165573
vt 0.821988 0.161404
vt 0.849518 0.116593
vt 0.821988 0.105138
vt 0.849518 0.100968
vt 0.849518 0.105138
vt 0.849518 0.085343
vt 0.821988 0.085343
vt 0.821988 0.085343
vt 0.849518 0.129102
vt 0.971048 0.018634
vt 0.935202 0.018634
vt 0.935202 0.018634
vt 0.667878 0.136169
vt 0.657765 0.092808
vt 0.667878 0.092808
vt 0.657765 0.155130
vt 0.667878 0.155130
vt 0.667878 0.155130
vt 0.668371 0.120544
vt 0.668371 0.077183
vt 0.668371 0.077183
vt 0.657765 0.058223
vt 0.657765 0.061558
vt 0.657271 0.061558
vt 0.657765 0.167419
vt 0.657765 0.170755
vt 0.657271 0.167419
vt 0.667878 0.058223
vt 0.668371 0.061558
vt 0.667878 0.061558
vt 0.667878 0.170755
vt 0.667878 0.167419
vt 0.668371 0.167419
vt 0.657765 0.042598
vt 0.657271 0.045933
vt 0.657765 0.042598
vt 0.657765 0.136169
vt 0.657271 0.092808
vt 0.657271 0.151794
vt 0.657765 0.155130
vt 0.667878 0.042598
vt 0.668371 0.045933
vt 0.667878 0.042598
vt 0.668371 0.151794
vt 0.668371 0.136169
vt 0.656778 0.136169
vt 0.646665 0.092808
vt 0.656778 0.092808
vt 0.646665 0.155130
vt 0.656778 0.155130
vt 0.656778 0.155130
vt 0.646171 0.120544
vt 0.646171 0.077183
vt 0.646171 0.077183
vt 0.646665 0.058223
vt 0.646665 0.061558
vt 0.646171 0.061558
vt 0.646665 0.167419
vt 0.646665 0.170755
vt 0.646171 0.167419
vt 0.656778 0.058223
vt 0.656778 0.061558
vt 0.656778 0.170755
vt 0.656778 0.167419
vt 0.646665 0.042598
vt 0.646171 0.045933
vt 0.646665 0.042598
vt 0.646665 0.136169
vt 0.646171 0.092808
vt 0.646171 0.151794
vt 0.646665 0.155130
vt 0.656778 0.042598
vt 0.657271 0.045933
vt 0.656778 0.042598
vt 0.657271 0.151794
vt 0.657271 0.136169
vt 0.821988 0.116593
vt 0.821988 0.133271
vt 0.798466 0.130479
vt 0.796875 0.131921
vt 0.796875 0.111372
vt 0.798466 0.099229
vt 0.799784 0.080122
vt 0.799125 0.080122
vt 0.793966 0.080122
vt 0.795284 0.099229
vt 0.794625 0.080122
vt 0.796875 0.058131
vt 0.795284 0.061015
vt 0.796875 0.059572
vt 0.799125 0.111372
vt 0.798932 0.075621
vt 0.799784 0.095747
vt 0.798932 0.115873
vt 0.796875 0.117737
vt 0.794818 0.075621
vt 0.794625 0.111372
vt 0.793966 0.095747
vt 0.794818 0.115873
vt 0.795284 0.130479
vt 0.796875 0.073756
vt 0.795284 0.092265
vt 0.796875 0.100671
vt 0.798932 0.100248
vt 0.798466 0.061015
vt 0.798466 0.092265
vt 0.794818 0.100248
vt 0.794818 0.059996
vt 0.798932 0.059996
vt 0.796875 0.090822
vt 0.798466 0.130479
vt 0.796875 0.131921
vt 0.796875 0.111372
vt 0.798466 0.099229
vt 0.799784 0.080122
vt 0.799125 0.080122
vt 0.793966 0.080122
vt 0.795284 0.099229
vt 0.794625 0.080122
vt 0.796875 0.058131
vt 0.795284 0.061015
vt 0.796875 0.059572
vt 0.799125 0.111372
vt 0.798932 0.075621
vt 0.799784 0.095747
vt 0.798932 0.115873
vt 0.796875 0.117737
vt 0.794818 0.075621
vt 0.794625 0.111372
vt 0.793966 0.095747
vt 0.794818 0.115873
vt 0.795284 0.130479
vt 0.796875 0.073756
vt 0.795284 0.092265
vt 0.796875 0.100671
vt 0.798932 0.100248
vt 0.798466 0.061015
vt 0.798466 0.092265
vt 0.794818 0.100248
vt 0.794818 0.059996
vt 0.798932 0.059996
vt 0.796875 0.090822
vt 0.821988 0.164521
vt 0.821988 0.181198
vt 0.821988 0.144727
vt 0.849518 0.165573
vt 0.821988 0.100968
vt 0.849518 0.085343
vt 0.971048 0.018634
vt 0.668371 0.120544
vt 0.668371 0.045933
vt 0.668371 0.151794
vt 0.668371 0.092808
vt 0.646171 0.120544
vt 0.646171 0.045933
vt 0.646171 0.136169
vt 0.646171 0.151794
vt 0.796875 0.102112
vt 0.796875 0.102112
vn 1.0000 0.0000 0.0000
vn 0.0000 0.0000 -1.0000
vn 0.0000 -0.0000 1.0000
vn 0.0000 1.0000 0.0000
vn -1.0000 0.0000 0.0000
vn 0.0000 -0.3827 0.9239
vn 0.0000 0.3827 0.9239
vn 0.0000 0.9239 0.3827
vn 0.0000 0.7071 0.7071
vn 0.0000 -0.9239 0.3827
vn 0.0000 -1.0000 -0.0000
vn 0.3416 0.3416 0.8756
vn -0.3416 -0.3416 0.8756
vn 0.3416 -0.3416 0.8756
vn -0.3827 0.9239 0.0000
vn 0.3416 0.8756 0.3416
vn 0.3827 0.9239 0.0000
vn -0.3416 -0.8756 0.3416
vn -0.7588 -0.4606 0.4606
vn -0.3416 0.3416 0.8756
vn -0.3416 0.8756 0.3416
vn -0.7588 0.4606 0.4606
vn 0.3416 -0.8756 0.3416
vn 0.7588 -0.4606 0.4606
vn 0.7588 0.4606 0.4606
vn -0.7071 -0.7071 -0.0000
vn -0.3827 -0.9239 -0.0000
vn 0.3827 -0.9239 -0.0000
vn 0.7071 0.7071 0.0000
vn -0.8756 0.3416 0.3416
vn -0.9239 -0.3827 -0.0000
vn -0.8756 -0.3416 0.3416
vn -0.4606 -0.7588 0.4606
vn -0.4606 0.7588 0.4606
vn 0.4606 0.7588 0.4606
vn -0.7071 0.7071 0.0000
vn 0.2042 0.2042 0.9574
vn 0.0000 0.2888 0.9574
vn 0.6416 0.6416 -0.4205
vn 0.9073 0.0000 -0.4204
vn -0.9073 0.0000 -0.4204
vn -0.6416 0.6416 -0.4204
vn 0.0000 -0.9073 -0.4204
vn -0.6416 -0.6416 -0.4204
vn 0.9073 -0.0000 0.4204
vn 0.6416 -0.6416 0.4204
vn 0.0000 0.9073 0.4205
vn 0.6416 0.6416 0.4205
vn -0.6416 -0.6416 0.4204
vn -0.9073 -0.0000 0.4204
vn -0.6416 0.6416 0.4205
vn 0.0000 -0.9073 0.4204
vn 0.0000 0.9073 -0.4205
vn -0.2042 0.2042 0.9574
vn 0.6416 -0.6416 -0.4204
vn -0.6416 0.6416 -0.4205
vn 0.2042 -0.2042 0.9574
vn 0.2888 -0.0000 0.9574
vn -0.2042 -0.2042 0.9574
vn 0.0000 -0.2888 0.9574
vn -0.2888 -0.0000 0.9574
vn 0.9073 0.0000 -0.4205
vn 0.9073 -0.0000 0.4205
vn 0.7071 -0.7071 -0.0000
vn -0.9239 0.3827 0.0000
usemtl restaurant.113
s 1
f 20/1/1 14/2/1 19/3/1
f 4/4/2 7/5/2 3/6/2
f 8/7/1 6/8/1 5/9/1
f 6/8/3 1/10/3 5/9/3
f 11/11/4 10/12/4 12/13/4
f 2/14/5 11/15/5 4/16/5
f 8/17/1 14/2/1 12/18/1
f 21/19/6 16/20/7 24/21/6
f 13/22/2 8/17/2 4/16/2
f 6/23/1 12/18/1 10/24/1
f 13/22/5 17/25/5 18/26/5
f 1/10/5 2/27/5 4/4/5
f 12/18/3 17/25/3 11/15/3
f 13/28/4 19/29/8 14/30/4
f 9/31/9 15/32/7 10/33/9
f 20/34/9 18/35/8 17/36/9
f 6/23/1 10/24/1 22/37/1
f 24/38/6 22/39/10 21/40/6
f 6/41/11 23/42/10 2/43/11
f 15/44/1 22/37/1 10/24/1
f 7/45/11 1/46/11 3/47/11
f 7/5/1 8/7/1 5/9/1
f 1/10/5 4/4/5 3/6/5
f 39/48/12 26/49/13 37/50/14
f 34/51/15 38/52/16 43/53/17
f 44/54/1 36/55/1 41/56/1
f 25/57/18 26/58/13 27/59/19
f 28/60/20 29/61/21 30/62/22
f 35/63/23 36/64/24 37/65/14
f 38/66/16 39/67/12 40/68/25
f 25/69/18 32/70/26 31/71/27
f 28/72/20 27/73/19 26/49/13
f 34/51/15 30/74/22 29/75/21
f 42/76/28 36/77/24 35/78/23
f 38/52/16 44/79/29 43/53/17
f 37/50/14 40/80/25 39/48/12
f 35/63/23 26/58/13 25/57/18
f 29/61/21 39/67/12 38/66/16
f 42/76/28 25/69/18 31/71/27
f 58/81/12 46/82/13 56/83/14
f 54/84/4 57/85/4 60/86/4
f 50/87/30 52/88/31 47/89/32
f 45/90/33 46/91/13 47/92/32
f 48/93/20 49/94/34 50/95/30
f 55/96/23 27/59/24 56/97/14
f 57/98/35 58/99/12 30/62/25
f 45/100/33 52/101/31 51/102/26
f 48/103/20 47/104/32 46/82/13
f 54/84/36 50/105/30 49/106/34
f 59/107/28 27/108/24 55/109/23
f 57/85/35 33/110/29 60/86/29
f 56/83/14 30/111/25 58/81/12
f 55/96/23 46/91/13 45/90/33
f 49/94/34 58/99/12 57/98/35
f 59/107/28 45/100/11 51/102/11
f 2/14/5 23/112/5 9/113/5
f 24/21/5 9/113/5 23/112/5
f 11/15/5 13/22/5 4/16/5
f 82/114/37 84/115/38 61/116/3
f 83/117/39 67/118/40 81/119/40
f 63/120/41 71/121/42 73/122/41
f 65/123/43 75/124/44 77/125/43
f 80/126/45 66/127/46 67/128/45
f 84/115/47 68/129/48 69/130/47
f 64/131/49 72/132/50 63/133/50
f 62/134/51 84/115/47 69/130/47
f 63/133/50 70/135/51 62/134/51
f 65/136/52 74/137/49 64/131/49
f 85/138/53 68/139/39 83/117/39
f 84/115/38 70/135/54 61/116/3
f 79/140/55 65/123/43 77/125/43
f 78/141/46 65/136/52 66/127/46
f 62/142/56 85/138/53 71/121/42
f 78/141/57 80/126/58 61/116/3
f 82/114/48 67/128/45 68/129/48
f 64/143/44 73/122/41 75/124/44
f 81/119/40 66/144/55 79/140/55
f 74/137/59 76/145/60 61/116/3
f 72/132/61 74/137/59 61/116/3
f 76/145/60 78/141/57 61/116/3
f 70/135/54 72/132/61 61/116/3
f 80/126/58 82/114/37 61/116/3
f 107/146/37 109/147/38 86/148/3
f 108/149/39 92/150/62 106/151/62
f 88/152/41 96/153/42 98/154/41
f 90/155/43 100/156/44 102/157/43
f 105/158/63 91/159/46 92/160/63
f 109/147/47 93/161/48 94/162/47
f 89/163/49 97/164/50 88/165/50
f 87/166/51 109/147/47 94/162/47
f 88/165/50 95/167/51 87/166/51
f 90/168/52 99/169/49 89/163/49
f 110/170/53 93/171/39 108/149/39
f 109/147/38 95/167/54 86/148/3
f 104/172/55 90/155/43 102/157/43
f 103/173/46 90/168/52 91/159/46
f 87/174/56 110/170/53 96/153/42
f 103/173/57 105/158/58 86/148/3
f 107/146/48 92/160/63 93/161/48
f 89/175/44 98/154/41 100/156/44
f 106/151/62 91/176/55 104/172/55
f 99/169/59 101/177/60 86/148/3
f 97/164/61 99/169/59 86/148/3
f 101/177/60 103/173/57 86/148/3
f 95/167/54 97/164/61 86/148/3
f 105/158/58 107/146/37 86/148/3
f 20/1/1 12/18/1 14/2/1
f 4/4/2 8/7/2 7/5/2
f 6/8/3 2/27/3 1/10/3
f 11/11/4 9/178/4 10/12/4
f 2/14/5 9/113/5 11/15/5
f 21/19/6 15/44/7 16/20/7
f 13/22/2 14/2/2 8/17/2
f 6/23/1 8/17/1 12/18/1
f 13/22/5 11/15/5 17/25/5
f 12/18/3 20/1/3 17/25/3
f 13/28/4 18/179/8 19/29/8
f 9/31/9 16/180/7 15/32/7
f 20/34/9 19/181/8 18/35/8
f 24/38/6 23/182/10 22/39/10
f 6/41/11 22/183/10 23/42/10
f 15/44/1 21/19/1 22/37/1
f 7/45/11 5/184/11 1/46/11
f 39/48/12 28/72/20 26/49/13
f 34/51/15 29/75/21 38/52/16
f 44/54/1 40/185/1 36/55/1
f 25/69/18 27/108/19 32/70/26
f 28/72/20 30/111/22 27/73/19
f 34/51/15 33/110/36 30/74/22
f 42/76/28 41/186/64 36/77/24
f 38/52/16 40/187/25 44/79/29
f 37/50/14 36/188/24 40/80/25
f 35/63/23 37/65/14 26/58/13
f 29/61/21 28/60/20 39/67/12
f 42/76/28 35/78/23 25/69/18
f 58/81/12 48/103/20 46/82/13
f 54/84/4 49/106/4 57/85/4
f 50/87/30 53/189/65 52/88/31
f 45/100/33 47/190/32 52/101/31
f 48/103/20 50/191/30 47/104/32
f 54/84/36 53/192/65 50/105/30
f 59/107/28 32/70/64 27/108/24
f 57/85/35 30/74/25 33/110/29
f 56/83/14 27/73/24 30/111/25
f 55/96/23 56/97/14 46/91/13
f 49/94/34 48/93/20 58/99/12
f 59/107/28 55/109/23 45/100/11
f 24/21/5 16/20/5 9/113/5
f 83/117/39 68/139/39 67/118/40
f 63/120/41 62/142/56 71/121/42
f 65/123/43 64/143/44 75/124/44
f 80/126/45 78/141/46 66/127/46
f 84/115/47 82/114/48 68/129/48
f 64/131/49 74/137/49 72/132/50
f 62/134/51 70/135/51 84/115/47
f 63/133/50 72/132/50 70/135/51
f 65/136/52 76/145/52 74/137/49
f 85/138/53 69/193/53 68/139/39
f 79/140/55 66/144/55 65/123/43
f 78/141/46 76/145/52 65/136/52
f 62/142/56 69/193/53 85/138/53
f 82/114/48 80/126/45 67/128/45
f 64/143/44 63/120/41 73/122/41
f 81/119/40 67/118/40 66/144/55
f 108/149/39 93/171/39 92/150/62
f 88/152/41 87/174/56 96/153/42
f 90/155/43 89/175/44 100/156/44
f 105/158/63 103/173/46 91/159/46
f 109/147/47 107/146/48 93/161/48
f 89/163/49 99/169/49 97/164/50
f 87/166/51 95/167/51 109/147/47
f 88/165/50 97/164/50 95/167/51
f 90/168/52 101/177/52 99/169/49
f 110/170/53 94/194/53 93/171/39
f 104/172/55 91/176/55 90/155/43
f 103/173/46 101/177/52 90/168/52
f 87/174/56 94/194/53 110/170/53
f 107/146/48 105/158/63 92/160/63
f 89/175/44 88/152/41 98/154/41
f 106/151/62 92/150/62 91/176/55
