# Blender v3.4.1 OBJ File: 'restaurant.blend'
# www.blender.org
mtllib menu_Cube_18195.mtl
o menu_Cube.18195
v -0.190000 0.740000 0.050000
v -0.230000 0.800000 0.030000
v -0.250000 0.780000 0.030000
v -0.250000 0.780000 -0.030000
v -0.230000 0.800000 -0.030000
v -0.190000 0.740000 -0.050000
v 0.250000 0.780000 0.030000
v 0.230000 0.800000 0.030000
v 0.190000 0.740000 0.050000
v 0.190000 0.740000 -0.050000
v 0.230000 0.800000 -0.030000
v 0.250000 0.780000 -0.030000
v -0.250000 0.148676 0.030000
v -0.190000 0.200000 0.050000
v -0.190000 0.200000 -0.050000
v -0.250000 0.148676 -0.030000
v 0.250000 0.148676 -0.030000
v 0.190000 0.200000 -0.050000
v 0.190000 0.200000 0.050000
v 0.250000 0.148676 0.030000
v -0.250000 0.088676 -0.130000
v -0.230000 0.110290 -0.132850
v -0.230000 0.080000 -0.150000
v -0.250000 0.000000 -0.130000
v -0.230000 0.000000 -0.150000
v 0.230000 0.000000 -0.150000
v 0.250000 0.000000 -0.130000
v 0.250000 0.088676 -0.130000
v 0.230000 0.080000 -0.150000
v 0.230000 0.110290 -0.132850
v 0.250000 0.088676 0.130000
v 0.230000 0.110290 0.132850
v 0.230000 0.080000 0.150000
v 0.250000 -0.000000 0.130000
v 0.230000 -0.000000 0.150000
v -0.230000 -0.000000 0.150000
v -0.250000 -0.000000 0.130000
v -0.250000 0.088676 0.130000
v -0.230000 0.080000 0.150000
v -0.230000 0.110290 0.132850
v -0.230000 0.160000 0.050000
v -0.230000 0.780000 0.050000
v 0.230000 0.780000 -0.050000
v -0.230000 0.780000 -0.050000
v 0.230000 0.780000 0.050000
v -0.230000 0.160000 -0.050000
v 0.230000 0.160000 -0.050000
v 0.230000 0.160000 0.050000
v -0.171000 0.227000 0.030000
v -0.171000 0.713000 0.030000
v 0.171000 0.713000 0.030000
v 0.171000 0.227000 0.030000
v 0.171000 0.713000 -0.030000
v -0.171000 0.713000 -0.030000
v -0.171000 0.227000 -0.030000
v 0.171000 0.227000 -0.030000
vt 0.404453 0.953523
vt 0.458144 0.953523
vt 0.458144 0.953523
vt 0.460479 0.904314
vt 0.460479 0.830625
vt 0.460479 0.830625
vt 0.402119 0.854872
vt 0.402119 0.844522
vt 0.402119 0.854872
vt 0.402119 0.904314
vt 0.402119 0.830625
vt 0.402119 0.830625
vt 0.409122 0.867866
vt 0.451258 0.871017
vt 0.453476 0.867866
vt 0.402119 0.861875
vt 0.402119 0.861875
vt 0.460479 0.854872
vt 0.460479 0.844522
vt 0.460479 0.854872
vt 0.458144 0.863197
vt 0.404453 0.857395
vt 0.404453 0.863197
vt 0.404453 0.863197
vt 0.458144 0.857395
vt 0.458144 0.863197
vt 0.402119 0.813272
vt 0.458144 0.813272
vt 0.460479 0.813272
vt 0.458144 0.838235
vt 0.404453 0.828897
vt 0.458144 0.828897
vt 0.460479 0.861875
vt 0.460479 0.861875
vt 0.460479 0.813272
vt 0.404453 0.813272
vt 0.402119 0.813272
vt 0.404453 0.838235
vt 0.458144 0.828897
vt 0.404453 0.828897
vt 0.404453 0.935564
vt 0.404453 0.937898
vt 0.402119 0.935564
vt 0.402119 0.935564
vt 0.404453 0.937898
vt 0.404453 0.935564
vt 0.460479 0.935564
vt 0.458144 0.937898
vt 0.458144 0.935564
vt 0.458144 0.935564
vt 0.458144 0.937898
vt 0.460479 0.935564
vt 0.402119 0.870497
vt 0.404453 0.873020
vt 0.404453 0.869485
vt 0.460479 0.870497
vt 0.458144 0.869485
vt 0.458144 0.873020
vt 0.460479 0.870497
vt 0.458144 0.873020
vt 0.458144 0.869485
vt 0.402119 0.870497
vt 0.404453 0.869485
vt 0.404453 0.873020
vt 0.404453 0.831947
vt 0.404453 0.831947
vt 0.402119 0.904314
vt 0.404453 0.904314
vt 0.458144 0.831947
vt 0.458144 0.904314
vt 0.458144 0.831947
vt 0.460479 0.904314
vt 0.458144 0.904314
vt 0.402119 0.860147
vt 0.460479 0.860147
vt 0.404453 0.878822
vt 0.402119 0.877500
vt 0.458144 0.878822
vt 0.460479 0.860147
vt 0.402119 0.860147
vt 0.404453 0.860147
vt 0.404453 0.878822
vt 0.402119 0.877500
vt 0.458144 0.878822
vt 0.409122 0.820991
vt 0.411340 0.880868
vt 0.409122 0.884020
vt 0.409122 0.836616
vt 0.404453 0.904314
vt 0.409122 0.899645
vt 0.453476 0.899645
vt 0.453476 0.899645
vt 0.409122 0.899645
vt 0.409122 0.836616
vt 0.453476 0.836616
vt 0.453476 0.836616
vt 0.597456 0.976391
vt 0.520359 0.767408
vt 0.597456 0.767408
vt 0.453476 0.884020
vt 0.451258 0.824142
vt 0.453476 0.820991
vt 0.453476 0.867866
vt 0.411340 0.871017
vt 0.409122 0.867866
vt 0.409122 0.868395
vt 0.451258 0.865243
vt 0.453476 0.868395
vt 0.520359 0.976391
vt 0.597456 0.767408
vt 0.520359 0.767408
vt 0.409122 0.884020
vt 0.411340 0.824142
vt 0.409122 0.820991
vt 0.453476 0.868395
vt 0.411340 0.865243
vt 0.409122 0.868395
vt 0.453476 0.820991
vt 0.451258 0.880868
vt 0.453476 0.884020
vt 0.404453 0.953523
vt 0.402119 0.844522
vt 0.411340 0.871017
vt 0.460479 0.844522
vt 0.458144 0.857395
vt 0.404453 0.857395
vt 0.404453 0.813272
vt 0.404453 0.838235
vt 0.458144 0.813272
vt 0.458144 0.838235
vt 0.404453 0.860147
vt 0.458144 0.860147
vt 0.460479 0.877500
vt 0.458144 0.860147
vt 0.460479 0.877500
vt 0.411340 0.824142
vt 0.520359 0.976391
vt 0.451258 0.880868
vt 0.451258 0.871017
vt 0.411340 0.865243
vt 0.597456 0.976391
vt 0.411340 0.880868
vt 0.451258 0.865243
vt 0.451258 0.824142
vn -0.3416 0.8756 -0.3416
vn 0.3416 0.8756 0.3416
vn 0.3416 0.8756 -0.3416
vn 0.8756 0.3416 -0.3416
vn 0.9701 0.1196 0.2112
vn 0.9701 0.1196 -0.2112
vn -0.8692 0.2436 -0.4303
vn -0.9239 -0.0000 0.3827
vn -0.8692 0.2436 0.4303
vn -0.8756 0.3416 0.3416
vn -0.9701 0.1196 -0.2112
vn -0.9701 0.1196 0.2112
vn 0.0000 0.5952 -0.8036
vn 0.8692 0.2436 0.4303
vn 0.9239 -0.0000 -0.3827
vn 0.8692 0.2436 -0.4303
vn 0.4734 0.4340 -0.7665
vn -0.3403 0.6743 -0.6554
vn 0.0000 0.8575 -0.5145
vn 0.0000 0.8575 0.5145
vn 0.3403 0.6743 0.6554
vn 0.4734 0.4340 0.7665
vn 0.0000 -1.0000 -0.0000
vn 0.3403 0.2151 0.9154
vn 0.0000 -0.0000 1.0000
vn -0.3403 0.2151 -0.9154
vn 0.0000 0.0000 -1.0000
vn -0.4606 0.4606 0.7588
vn -0.3416 0.8756 0.3416
vn -0.8756 0.3416 -0.3416
vn -0.3416 0.3416 -0.8756
vn 0.8756 0.3416 0.3416
vn 0.3416 0.3416 0.8756
vn 0.3416 0.3416 -0.8756
vn 0.3403 0.2151 -0.9154
vn 0.3403 0.6743 -0.6554
vn -0.3403 0.2151 0.9154
vn -0.3403 0.6743 0.6554
vn -0.7544 0.3234 0.5712
vn -0.5829 0.2499 -0.7732
vn -0.9239 0.0000 -0.3827
vn 0.9239 -0.0000 0.3827
vn -0.7071 -0.0000 0.7071
vn 0.7250 -0.0000 0.6887
vn -0.7250 -0.0000 0.6887
vn 0.0000 0.5952 0.8036
vn 0.0000 -0.5952 0.8036
vn 0.7250 0.0000 -0.6887
vn 0.0000 -0.5952 -0.8036
vn -0.7250 0.0000 -0.6887
vn -0.7071 0.0000 -0.7071
vn 0.7071 -0.0000 -0.7071
vn 0.7071 -0.0000 0.7071
usemtl restaurant.135
s 1
f 5/1/1 8/2/2 11/3/3
f 12/4/4 20/5/5 17/6/6
f 21/7/7 37/8/8 38/9/9
f 3/10/10 16/11/11 13/12/12
f 15/13/13 56/14/13 18/15/13
f 16/16/11 38/9/9 13/17/12
f 31/18/14 27/19/15 28/20/16
f 47/21/17 22/22/18 46/23/19
f 41/24/20 32/25/21 48/26/22
f 24/27/23 26/28/23 27/29/23
f 33/30/24 36/31/25 35/32/25
f 20/33/5 28/20/16 17/34/6
f 34/35/23 36/36/23 37/37/23
f 23/38/26 26/39/27 25/40/27
f 42/41/28 2/42/29 3/43/10
f 4/44/30 5/45/1 44/46/31
f 7/47/32 8/48/2 45/49/33
f 43/50/34 11/51/3 12/52/4
f 21/53/7 22/54/18 23/55/26
f 28/56/16 29/57/35 30/58/36
f 31/59/14 32/60/21 33/61/24
f 38/62/9 39/63/37 40/64/38
f 41/65/39 3/10/10 13/12/12
f 5/45/1 3/43/10 2/42/29
f 11/51/3 44/46/31 5/45/1
f 8/48/2 12/52/4 11/51/3
f 2/42/29 45/49/33 8/48/2
f 46/66/40 4/67/30 44/68/31
f 12/4/4 47/69/17 43/70/34
f 48/71/22 7/72/32 45/73/33
f 23/55/26 24/74/41 21/53/7
f 27/75/15 29/57/35 28/56/16
f 30/58/36 23/55/26 22/54/18
f 46/76/40 21/53/7 16/77/11
f 47/78/17 28/56/16 30/58/36
f 33/61/24 34/79/42 31/59/14
f 39/63/37 37/80/8 36/81/43
f 40/64/38 33/61/24 32/60/21
f 38/62/9 41/82/39 13/83/12
f 31/59/14 48/84/22 32/60/21
f 14/85/44 50/86/44 1/87/44
f 14/88/25 42/89/25 41/65/25
f 6/90/27 43/70/34 10/91/27
f 9/92/25 42/89/25 1/93/25
f 15/94/27 44/68/31 6/90/27
f 18/95/27 43/70/34 47/69/17
f 19/96/25 45/73/33 9/92/25
f 14/88/25 48/71/22 19/96/25
f 18/95/27 46/66/40 15/94/27
f 51/97/25 49/98/25 52/99/25
f 9/100/45 52/101/45 19/102/45
f 19/103/46 49/104/46 14/105/46
f 1/106/47 51/107/47 9/108/47
f 54/109/27 56/110/27 55/111/27
f 6/112/48 55/113/48 15/114/48
f 10/115/49 54/116/49 6/117/49
f 18/118/50 53/119/50 10/120/50
f 24/27/23 34/35/23 37/37/23
f 5/1/1 2/121/29 8/2/2
f 12/4/4 7/72/32 20/5/5
f 21/7/7 24/122/41 37/8/8
f 3/10/10 4/67/30 16/11/11
f 15/13/13 55/123/13 56/14/13
f 16/16/11 21/7/7 38/9/9
f 31/18/14 34/124/42 27/19/15
f 47/21/17 30/125/36 22/22/18
f 41/24/20 40/126/38 32/25/21
f 24/27/23 25/127/23 26/28/23
f 33/30/24 39/128/37 36/31/25
f 20/33/5 31/18/14 28/20/16
f 34/35/23 35/129/23 36/36/23
f 23/38/26 29/130/35 26/39/27
f 41/65/39 42/89/28 3/10/10
f 5/45/1 4/44/30 3/43/10
f 11/51/3 43/50/34 44/46/31
f 8/48/2 7/47/32 12/52/4
f 2/42/29 42/41/28 45/49/33
f 46/66/40 16/11/11 4/67/30
f 12/4/4 17/6/6 47/69/17
f 48/71/22 20/5/5 7/72/32
f 23/55/26 25/131/51 24/74/41
f 27/75/15 26/132/52 29/57/35
f 30/58/36 29/57/35 23/55/26
f 46/76/40 22/54/18 21/53/7
f 47/78/17 17/133/6 28/56/16
f 33/61/24 35/134/53 34/79/42
f 39/63/37 38/62/9 37/80/8
f 40/64/38 39/63/37 33/61/24
f 38/62/9 40/64/38 41/82/39
f 31/59/14 20/135/5 48/84/22
f 14/85/44 49/136/44 50/86/44
f 14/88/25 1/93/25 42/89/25
f 6/90/27 44/68/31 43/70/34
f 9/92/25 45/73/33 42/89/25
f 15/94/27 46/66/40 44/68/31
f 18/95/27 10/91/27 43/70/34
f 19/96/25 48/71/22 45/73/33
f 14/88/25 41/65/25 48/71/22
f 18/95/27 47/69/17 46/66/40
f 51/97/25 50/137/25 49/98/25
f 9/100/45 51/138/45 52/101/45
f 19/103/46 52/139/46 49/104/46
f 1/106/47 50/140/47 51/107/47
f 54/109/27 53/141/27 56/110/27
f 6/112/48 54/142/48 55/113/48
f 10/115/49 53/143/49 54/116/49
f 18/118/50 56/144/50 53/119/50
f 24/27/23 27/29/23 34/35/23
