# Blender v3.4.1 OBJ File: 'restaurant.blend'
# www.blender.org
mtllib mustard_Cylinder_791.mtl
o mustard_Cylinder.791
v 0.000000 0.000000 0.000000
v 0.000000 0.050000 -0.150000
v 0.000000 0.560000 -0.097346
v 0.075000 0.050000 -0.129904
v 0.048673 0.560000 -0.084304
v 0.129904 0.050000 -0.075000
v 0.084304 0.560000 -0.048673
v 0.150000 0.050000 0.000000
v 0.097346 0.560000 0.000000
v 0.129904 0.050000 0.075000
v 0.084304 0.560000 0.048673
v 0.075000 0.050000 0.129904
v 0.048673 0.560000 0.084304
v 0.000000 0.050000 0.150000
v 0.000000 0.560000 0.097346
v -0.075000 0.050000 0.129904
v -0.048673 0.560000 0.084304
v -0.129904 0.050000 0.075000
v -0.084304 0.560000 0.048673
v -0.150000 0.050000 0.000000
v -0.097346 0.560000 0.000000
v -0.129904 0.050000 -0.075000
v -0.084304 0.560000 -0.048673
v -0.075000 0.050000 -0.129904
v -0.048673 0.560000 -0.084304
v 0.000000 0.620000 -0.097346
v 0.000000 0.690000 -0.041137
v 0.020568 0.690000 -0.035625
v 0.048673 0.620000 -0.084304
v 0.035625 0.690000 -0.020568
v 0.084304 0.620000 -0.048673
v 0.041137 0.690000 0.000000
v 0.097346 0.620000 0.000000
v 0.035625 0.690000 0.020568
v 0.084304 0.620000 0.048673
v 0.020568 0.690000 0.035625
v 0.048673 0.620000 0.084304
v 0.000000 0.690000 0.041137
v 0.000000 0.620000 0.097346
v -0.020568 0.690000 0.035625
v -0.048673 0.620000 0.084304
v -0.035625 0.690000 0.020568
v -0.084304 0.620000 0.048673
v -0.041137 0.690000 0.000000
v -0.097346 0.620000 0.000000
v -0.035625 0.690000 -0.020568
v -0.084304 0.620000 -0.048673
v -0.020568 0.690000 -0.035625
v -0.048673 0.620000 -0.084304
v 0.000000 0.778508 0.000000
v 0.000000 0.773101 -0.019474
v 0.009737 0.773101 -0.016865
v 0.016865 0.773101 -0.009737
v 0.019474 0.773101 0.000000
v 0.016865 0.773101 0.009737
v 0.009737 0.773101 0.016865
v 0.000000 0.773101 0.019474
v -0.009737 0.773101 0.016865
v -0.016865 0.773101 0.009737
v -0.019474 0.773101 0.000000
v -0.016865 0.773101 -0.009737
v -0.009737 0.773101 -0.016865
v 0.055418 0.000000 -0.095986
v 0.000000 0.000000 -0.110835
v 0.095986 0.000000 -0.055418
v 0.110835 0.000000 0.000000
v 0.095986 -0.000000 0.055418
v 0.055418 -0.000000 0.095986
v 0.000000 -0.000000 0.110835
v -0.055418 -0.000000 0.095986
v -0.095986 -0.000000 0.055418
v -0.110835 0.000000 0.000000
v -0.095986 0.000000 -0.055418
v -0.055418 0.000000 -0.095986
v 0.000000 0.533471 -0.150000
v 0.075000 0.533471 -0.129904
v 0.129904 0.533471 -0.075000
v 0.150000 0.533471 0.000000
v 0.129904 0.533471 0.075000
v 0.075000 0.533471 0.129904
v 0.000000 0.533471 0.150000
v -0.075000 0.533471 0.129904
v -0.129904 0.533471 0.075000
v -0.150000 0.533471 0.000000
v -0.129904 0.533471 -0.075000
v -0.075000 0.533471 -0.129904
vt 0.309835 0.371876
vt 0.321328 0.329767
vt 0.309835 0.329767
vt 0.329742 0.424218
vt 0.317294 0.434485
vt 0.321328 0.424218
vt 0.309835 0.434485
vt 0.309835 0.424218
vt 0.298341 0.424218
vt 0.302376 0.434485
vt 0.296915 0.434485
vt 0.289928 0.424218
vt 0.294917 0.434485
vt 0.286848 0.424218
vt 0.289928 0.424218
vt 0.296915 0.434485
vt 0.302376 0.434485
vt 0.298341 0.424218
vt 0.309835 0.434485
vt 0.309835 0.424218
vt 0.324753 0.434485
vt 0.322754 0.434485
vt 0.322754 0.382143
vt 0.324753 0.392410
vt 0.324753 0.382143
vt 0.329742 0.424218
vt 0.332822 0.424218
vt 0.321328 0.312320
vt 0.309835 0.303764
vt 0.309835 0.312320
vt 0.329742 0.312320
vt 0.318328 0.303764
vt 0.321328 0.371876
vt 0.329742 0.329767
vt 0.326820 0.303764
vt 0.324544 0.303764
vt 0.329742 0.371876
vt 0.332822 0.329767
vt 0.329742 0.312320
vt 0.332822 0.312320
vt 0.332822 0.371876
vt 0.329742 0.329767
vt 0.321328 0.312320
vt 0.324544 0.303764
vt 0.329742 0.371876
vt 0.321328 0.329767
vt 0.309835 0.303764
vt 0.318328 0.303764
vt 0.321328 0.371876
vt 0.309835 0.329767
vt 0.298341 0.312320
vt 0.309835 0.312320
vt 0.309835 0.371876
vt 0.298341 0.329767
vt 0.289928 0.312320
vt 0.301342 0.303764
vt 0.298341 0.371876
vt 0.289928 0.329767
vt 0.292850 0.303764
vt 0.295125 0.303764
vt 0.289928 0.371876
vt 0.286848 0.329767
vt 0.289928 0.312320
vt 0.286848 0.312320
vt 0.286848 0.371876
vt 0.289928 0.329767
vt 0.298341 0.312320
vt 0.295125 0.303764
vt 0.289928 0.371876
vt 0.298341 0.329767
vt 0.301342 0.303764
vt 0.298341 0.371876
vt 0.302376 0.382143
vt 0.309835 0.392410
vt 0.309835 0.382143
vt 0.317294 0.382143
vt 0.322754 0.392410
vt 0.309835 0.382143
vt 0.302376 0.392410
vt 0.302376 0.382143
vt 0.296915 0.382143
vt 0.302376 0.392410
vt 0.306683 0.404388
vt 0.309835 0.426634
vt 0.308889 0.426634
vt 0.317294 0.382143
vt 0.309835 0.392410
vt 0.294917 0.382143
vt 0.296915 0.392410
vt 0.322754 0.382143
vt 0.317294 0.392410
vt 0.296915 0.382143
vt 0.294917 0.392410
vt 0.322754 0.392410
vt 0.296915 0.392410
vt 0.315294 0.439283
vt 0.317294 0.427305
vt 0.312987 0.439283
vt 0.316139 0.439283
vt 0.322754 0.427305
vt 0.322754 0.427305
vt 0.324753 0.427305
vt 0.315294 0.439283
vt 0.317294 0.427305
vt 0.309835 0.439283
vt 0.312987 0.439283
vt 0.302376 0.427305
vt 0.309835 0.427305
vt 0.304375 0.439283
vt 0.306683 0.439283
vt 0.303531 0.439283
vt 0.296915 0.427305
vt 0.296915 0.427305
vt 0.294917 0.427305
vt 0.304375 0.439283
vt 0.302376 0.427305
vt 0.309835 0.439283
vt 0.306683 0.439283
vt 0.317294 0.392410
vt 0.315294 0.404388
vt 0.311726 0.426634
vt 0.311473 0.426634
vt 0.304375 0.404388
vt 0.308889 0.426634
vt 0.306683 0.404388
vt 0.312987 0.404388
vt 0.309835 0.426634
vt 0.310781 0.426634
vt 0.308197 0.426634
vt 0.304375 0.404388
vt 0.310781 0.426634
vt 0.312987 0.404388
vt 0.309835 0.404388
vt 0.311473 0.426634
vt 0.315294 0.404388
vt 0.307944 0.426634
vt 0.303531 0.404388
vt 0.309835 0.404388
vt 0.316139 0.404388
vt 0.308197 0.426634
vt 0.309835 0.427305
vt 0.309835 0.462024
vt 0.310781 0.461529
vt 0.309835 0.461529
vt 0.311473 0.461529
vt 0.311726 0.461529
vt 0.311473 0.461529
vt 0.310781 0.461529
vt 0.309835 0.461529
vt 0.308889 0.461529
vt 0.308197 0.461529
vt 0.307944 0.461529
vt 0.308197 0.461529
vt 0.308889 0.461529
vt 0.309835 0.286316
vt 0.309835 0.286316
vt 0.318328 0.286316
vt 0.324544 0.286316
vt 0.326820 0.286316
vt 0.324544 0.286316
vt 0.318328 0.286316
vt 0.309835 0.286316
vt 0.301342 0.286316
vt 0.295125 0.286316
vt 0.292850 0.286316
vt 0.295125 0.286316
vt 0.301342 0.286316
vt 0.321328 0.424218
vt 0.322754 0.434485
vt 0.317294 0.434485
vn -0.0000 0.0000 -1.0000
vn 0.4753 -0.3107 -0.8232
vn 0.0000 -0.3107 -0.9505
vn 0.3897 0.8931 0.2250
vn 0.2250 0.8931 0.3897
vn 0.0000 0.8931 0.4500
vn -0.2250 0.8931 0.3897
vn -0.3897 0.8931 0.2250
vn -0.4500 0.8931 0.0000
vn -0.3897 0.8931 -0.2250
vn -0.2250 0.8931 -0.3897
vn -0.0000 0.8931 -0.4500
vn 0.4500 0.8931 0.0000
vn 0.8660 0.0000 -0.5000
vn 1.0000 0.0000 -0.0000
vn 0.3897 0.8931 -0.2250
vn 0.0000 -0.6166 -0.7872
vn 0.8232 -0.3107 -0.4753
vn 0.3936 -0.6166 -0.6818
vn 0.5000 0.0000 -0.8660
vn 0.7872 -0.6166 -0.0000
vn 0.6818 -0.6166 -0.3936
vn 0.9505 -0.3107 -0.0000
vn 0.8232 -0.3107 0.4753
vn 0.4753 -0.3107 0.8232
vn 0.6818 -0.6166 0.3936
vn 0.8660 -0.0000 0.5000
vn 0.0000 -0.6166 0.7872
vn 0.3936 -0.6166 0.6818
vn 0.5000 -0.0000 0.8660
vn 0.0000 -0.3107 0.9505
vn -0.4753 -0.3107 0.8232
vn -0.0000 -0.0000 1.0000
vn -0.8232 -0.3107 0.4753
vn -0.3936 -0.6166 0.6818
vn -0.5000 -0.0000 0.8660
vn -0.7872 -0.6166 -0.0000
vn -0.6818 -0.6166 0.3936
vn -0.8660 -0.0000 0.5000
vn -0.9505 -0.3107 -0.0000
vn -0.8232 -0.3107 -0.4753
vn -1.0000 0.0000 0.0000
vn -0.4753 -0.3107 -0.8232
vn -0.6818 -0.6166 -0.3936
vn -0.8660 0.0000 -0.5000
vn -0.3936 -0.6166 -0.6818
vn -0.5000 0.0000 -0.8660
vn -0.4838 0.2522 0.8380
vn 0.0000 0.2522 0.9677
vn 0.6753 0.6261 -0.3899
vn 0.3899 0.6261 -0.6753
vn 0.7797 0.6261 0.0000
vn 0.6753 0.6261 0.3899
vn 0.3899 0.6261 0.6753
vn 0.0000 0.6261 0.7797
vn -0.3899 0.6261 0.6753
vn -0.6753 0.6261 0.3899
vn -0.7797 0.6261 0.0000
vn -0.6753 0.6261 -0.3899
vn -0.3899 0.6261 -0.6753
vn 0.0000 0.6261 -0.7797
vn 0.8380 0.2522 0.4838
vn 0.9677 0.2522 0.0000
vn -0.8380 0.2522 -0.4838
vn -0.4838 0.2522 -0.8380
vn 0.4838 0.2522 -0.8380
vn 0.0000 0.2522 -0.9677
vn -0.8380 0.2522 0.4838
vn 0.4838 0.2522 0.8380
vn 0.0000 0.2523 -0.9677
vn 0.8380 0.2522 -0.4838
vn -0.9677 0.2522 0.0000
vn -0.9677 0.2523 -0.0000
vn 0.0000 0.2523 0.9677
vn 0.9677 0.2523 -0.0000
vn -0.0000 1.0000 0.0000
vn 0.1338 0.9635 -0.2317
vn 0.0000 0.9635 -0.2675
vn 0.2317 0.9635 -0.1338
vn 0.2675 0.9635 -0.0000
vn 0.2317 0.9635 0.1338
vn 0.1338 0.9635 0.2317
vn 0.0000 0.9635 0.2675
vn -0.1338 0.9635 0.2317
vn -0.2317 0.9635 0.1338
vn -0.2675 0.9635 -0.0000
vn -0.2317 0.9635 -0.1338
vn -0.1338 0.9635 -0.2317
vn 0.0000 -1.0000 -0.0000
vn 0.2250 0.8931 -0.3897
usemtl restaurant.122
s 1
f 75/1/1 4/2/2 2/3/3
f 79/4/4 13/5/5 80/6/5
f 80/6/5 15/7/6 81/8/6
f 82/9/7 15/7/6 17/10/7
f 82/9/7 19/11/8 83/12/8
f 83/12/8 21/13/9 84/14/9
f 85/15/10 21/13/9 23/16/10
f 85/15/10 25/17/11 86/18/11
f 86/18/11 3/19/12 75/20/12
f 79/4/4 9/21/13 11/22/4
f 7/23/14 33/24/15 9/25/15
f 77/26/16 9/21/13 78/27/13
f 4/28/2 64/29/17 2/30/3
f 6/31/18 63/32/19 4/28/2
f 76/33/20 6/34/18 4/2/2
f 6/31/18 66/35/21 65/36/22
f 77/37/14 8/38/23 6/34/18
f 10/39/24 66/35/21 8/40/23
f 78/41/15 10/42/24 8/38/23
f 12/43/25 67/44/26 10/39/24
f 79/45/27 12/46/25 10/42/24
f 12/43/25 69/47/28 68/48/29
f 80/49/30 14/50/31 12/46/25
f 16/51/32 69/47/28 14/52/31
f 81/53/33 16/54/32 14/50/31
f 18/55/34 70/56/35 16/51/32
f 82/57/36 18/58/34 16/54/32
f 18/55/34 72/59/37 71/60/38
f 83/61/39 20/62/40 18/58/34
f 22/63/41 72/59/37 20/64/40
f 84/65/42 22/66/41 20/62/40
f 24/67/43 73/68/44 22/63/41
f 85/69/45 24/70/43 22/66/41
f 24/67/43 64/29/17 74/71/46
f 86/72/47 2/3/3 24/70/43
f 25/73/47 26/74/1 3/75/1
f 5/76/20 31/77/14 7/23/14
f 15/78/33 41/79/36 17/80/36
f 23/81/45 49/82/47 25/73/47
f 40/83/48 57/84/49 58/85/48
f 13/86/30 39/87/33 15/78/33
f 21/88/42 47/89/45 23/81/45
f 11/90/27 37/91/30 13/86/30
f 19/92/39 45/93/42 21/88/42
f 9/25/15 35/94/27 11/90/27
f 17/80/36 43/95/39 19/92/39
f 30/96/50 29/97/51 28/98/51
f 32/99/52 31/100/50 30/96/50
f 32/99/52 35/101/53 33/102/52
f 34/103/53 37/104/54 35/101/53
f 38/105/55 37/104/54 36/106/54
f 38/105/55 41/107/56 39/108/55
f 42/109/57 41/107/56 40/110/56
f 44/111/58 43/112/57 42/109/57
f 44/111/58 47/113/59 45/114/58
f 46/115/59 49/116/60 47/113/59
f 27/117/61 49/116/60 48/118/60
f 3/75/1 29/119/20 5/76/20
f 34/120/62 54/121/63 55/122/62
f 46/123/64 62/124/65 48/125/65
f 28/126/66 51/127/67 52/128/66
f 40/83/48 59/129/68 42/130/68
f 34/120/62 56/131/69 36/132/69
f 48/125/65 51/127/67 27/133/70
f 28/126/66 53/134/71 30/135/71
f 42/130/68 60/136/72 44/137/73
f 36/132/69 57/84/49 38/138/74
f 30/135/71 54/121/63 32/139/75
f 46/123/64 60/136/72 61/140/64
f 27/117/61 29/97/51 26/141/61
f 50/142/76 52/143/77 51/144/78
f 50/142/76 53/145/79 52/143/77
f 50/142/76 54/146/80 53/145/79
f 50/142/76 55/147/81 54/146/80
f 50/142/76 56/148/82 55/147/81
f 50/142/76 57/149/83 56/148/82
f 50/142/76 58/150/84 57/149/83
f 50/142/76 59/151/85 58/150/84
f 50/142/76 60/152/86 59/151/85
f 50/142/76 61/153/87 60/152/86
f 50/142/76 62/154/88 61/153/87
f 50/142/76 51/144/78 62/154/88
f 1/155/89 64/156/89 63/157/89
f 1/155/89 63/157/89 65/158/89
f 1/155/89 65/158/89 66/159/89
f 1/155/89 66/159/89 67/160/89
f 1/155/89 67/160/89 68/161/89
f 1/155/89 68/161/89 69/162/89
f 1/155/89 69/162/89 70/163/89
f 1/155/89 70/163/89 71/164/89
f 1/155/89 71/164/89 72/165/89
f 1/155/89 72/165/89 73/166/89
f 1/155/89 73/166/89 74/167/89
f 1/155/89 74/167/89 64/156/89
f 76/168/90 7/169/16 77/26/16
f 3/19/12 76/168/90 75/20/12
f 75/1/1 76/33/20 4/2/2
f 79/4/4 11/22/4 13/5/5
f 80/6/5 13/5/5 15/7/6
f 82/9/7 81/8/6 15/7/6
f 82/9/7 17/10/7 19/11/8
f 83/12/8 19/11/8 21/13/9
f 85/15/10 84/14/9 21/13/9
f 85/15/10 23/16/10 25/17/11
f 86/18/11 25/17/11 3/19/12
f 79/4/4 78/27/13 9/21/13
f 7/23/14 31/77/14 33/24/15
f 77/26/16 7/169/16 9/21/13
f 4/28/2 63/32/19 64/29/17
f 6/31/18 65/36/22 63/32/19
f 76/33/20 77/37/14 6/34/18
f 6/31/18 8/40/23 66/35/21
f 77/37/14 78/41/15 8/38/23
f 10/39/24 67/44/26 66/35/21
f 78/41/15 79/45/27 10/42/24
f 12/43/25 68/48/29 67/44/26
f 79/45/27 80/49/30 12/46/25
f 12/43/25 14/52/31 69/47/28
f 80/49/30 81/53/33 14/50/31
f 16/51/32 70/56/35 69/47/28
f 81/53/33 82/57/36 16/54/32
f 18/55/34 71/60/38 70/56/35
f 82/57/36 83/61/39 18/58/34
f 18/55/34 20/64/40 72/59/37
f 83/61/39 84/65/42 20/62/40
f 22/63/41 73/68/44 72/59/37
f 84/65/42 85/69/45 22/66/41
f 24/67/43 74/71/46 73/68/44
f 85/69/45 86/72/47 24/70/43
f 24/67/43 2/30/3 64/29/17
f 86/72/47 75/1/1 2/3/3
f 25/73/47 49/82/47 26/74/1
f 5/76/20 29/119/20 31/77/14
f 15/78/33 39/87/33 41/79/36
f 23/81/45 47/89/45 49/82/47
f 40/83/48 38/138/74 57/84/49
f 13/86/30 37/91/30 39/87/33
f 21/88/42 45/93/42 47/89/45
f 11/90/27 35/94/27 37/91/30
f 19/92/39 43/95/39 45/93/42
f 9/25/15 33/24/15 35/94/27
f 17/80/36 41/79/36 43/95/39
f 30/96/50 31/100/50 29/97/51
f 32/99/52 33/102/52 31/100/50
f 32/99/52 34/103/53 35/101/53
f 34/103/53 36/106/54 37/104/54
f 38/105/55 39/108/55 37/104/54
f 38/105/55 40/110/56 41/107/56
f 42/109/57 43/112/57 41/107/56
f 44/111/58 45/114/58 43/112/57
f 44/111/58 46/115/59 47/113/59
f 46/115/59 48/118/60 49/116/60
f 27/117/61 26/141/61 49/116/60
f 3/75/1 26/74/1 29/119/20
f 34/120/62 32/139/75 54/121/63
f 46/123/64 61/140/64 62/124/65
f 28/126/66 27/133/70 51/127/67
f 40/83/48 58/85/48 59/129/68
f 34/120/62 55/122/62 56/131/69
f 48/125/65 62/124/65 51/127/67
f 28/126/66 52/128/66 53/134/71
f 42/130/68 59/129/68 60/136/72
f 36/132/69 56/131/69 57/84/49
f 30/135/71 53/134/71 54/121/63
f 46/123/64 44/137/73 60/136/72
f 27/117/61 28/98/51 29/97/51
f 76/168/90 5/170/90 7/169/16
f 3/19/12 5/170/90 76/168/90
