# Blender v3.4.1 OBJ File: 'restaurant.blend'
# www.blender.org
mtllib oven_door_Cube_069.mtl
o oven_door_Cube.069
v -0.870000 0.400000 1.170000
v -0.670000 0.630000 1.200000
v -0.900000 0.430001 1.170000
v -0.670000 1.370001 1.200000
v -0.870000 1.600001 1.170000
v -0.900000 1.570001 1.170000
v -0.870000 0.400000 0.930000
v -0.900000 0.430001 0.930000
v -0.870000 0.430001 0.900000
v -0.870000 1.600001 0.930000
v -0.870000 1.570001 0.900000
v -0.900000 1.570001 0.930000
v 0.370000 0.400000 1.170000
v 0.400000 0.430001 1.170000
v 0.170000 0.630000 1.200000
v 0.370000 1.600001 1.170000
v 0.170000 1.370001 1.200000
v 0.400000 1.570001 1.170000
v 0.370000 0.400000 0.930000
v 0.370000 0.430001 0.900000
v 0.400000 0.430001 0.930000
v 0.370000 1.600001 0.930000
v 0.400000 1.570001 0.930000
v 0.370000 1.570001 0.900000
v -0.870000 0.430001 1.200000
v -0.870000 1.570001 1.200000
v 0.370000 1.570001 1.200000
v 0.370000 0.430001 1.200000
v -0.670000 0.730000 1.100000
v -0.670000 1.270001 1.100000
v 0.170000 1.270001 1.100000
v 0.170000 0.730000 1.100000
v -0.670000 1.420001 1.300000
v -0.670000 1.520001 1.300000
v -0.770000 1.420001 1.200000
v -0.770000 1.520001 1.200000
v 0.170000 1.420001 1.300000
v 0.170000 1.520001 1.300000
v 0.270000 1.420001 1.200000
v 0.270000 1.520001 1.200000
vt 0.415839 0.842551
vt 0.449176 0.838036
vt 0.449176 0.842551
vt 0.458305 0.882830
vt 0.458305 0.831362
vt 0.458305 0.831362
vt 0.407901 0.915435
vt 0.457114 0.915435
vt 0.457114 0.915435
vt 0.406711 0.882830
vt 0.406711 0.831362
vt 0.406711 0.831362
vt 0.407901 0.898455
vt 0.457114 0.846987
vt 0.407901 0.846987
vt 0.407901 0.814382
vt 0.407901 0.815737
vt 0.406711 0.815737
vt 0.407901 0.929705
vt 0.407901 0.931060
vt 0.406711 0.929705
vt 0.407901 0.814382
vt 0.406711 0.815737
vt 0.407901 0.815737
vt 0.407901 0.931060
vt 0.407901 0.929705
vt 0.406711 0.929705
vt 0.457114 0.814382
vt 0.458305 0.815737
vt 0.457114 0.815737
vt 0.457114 0.931060
vt 0.457114 0.929705
vt 0.458305 0.929705
vt 0.457114 0.814382
vt 0.457114 0.815737
vt 0.458305 0.815737
vt 0.457114 0.931060
vt 0.458305 0.929705
vt 0.457114 0.929705
vt 0.407901 0.798757
vt 0.406711 0.800112
vt 0.407901 0.798757
vt 0.407901 0.914080
vt 0.406711 0.862612
vt 0.407901 0.862612
vt 0.406711 0.914080
vt 0.407901 0.915435
vt 0.407901 0.862612
vt 0.406711 0.914080
vt 0.407901 0.914080
vt 0.458305 0.862612
vt 0.457114 0.914080
vt 0.458305 0.914080
vt 0.457114 0.798757
vt 0.458305 0.800112
vt 0.457114 0.798757
vt 0.457114 0.862612
vt 0.458305 0.914080
vt 0.457114 0.914080
vt 0.415839 0.889426
vt 0.407901 0.846987
vt 0.415839 0.856016
vt 0.449176 0.889426
vt 0.457114 0.846987
vt 0.457114 0.898455
vt 0.449176 0.856016
vt 0.407901 0.898455
vt 0.324176 0.884911
vt 0.290839 0.860531
vt 0.324176 0.860531
vt 0.449176 0.858176
vt 0.449176 0.829281
vt 0.449176 0.824766
vt 0.449176 0.871641
vt 0.415839 0.876156
vt 0.415839 0.871641
vt 0.415839 0.858176
vt 0.415839 0.829281
vt 0.415839 0.853661
vt 0.290839 0.875718
vt 0.286870 0.868517
vt 0.290839 0.868517
vt 0.286870 0.900640
vt 0.328145 0.893439
vt 0.286870 0.893439
vt 0.328145 0.875718
vt 0.324176 0.868517
vt 0.328145 0.868517
vt 0.324176 0.900640
vt 0.290839 0.893439
vt 0.324176 0.893439
vt 0.286870 0.843595
vt 0.324176 0.843595
vt 0.290839 0.843595
vt 0.286870 0.950484
vt 0.324176 0.950484
vt 0.328145 0.950484
vt 0.415839 0.838036
vt 0.458305 0.882830
vt 0.406711 0.882830
vt 0.457114 0.898455
vt 0.406711 0.800112
vt 0.406711 0.862612
vt 0.457114 0.862612
vt 0.458305 0.800112
vt 0.458305 0.862612
vt 0.290839 0.884911
vt 0.449176 0.853661
vt 0.449176 0.876156
vt 0.415839 0.824766
vt 0.286870 0.875718
vt 0.328145 0.900640
vt 0.324176 0.875718
vt 0.290839 0.900640
vt 0.328145 0.843595
vt 0.290839 0.950484
vn 0.0000 -0.7071 0.7071
vn 1.0000 0.0000 0.0000
vn 0.0000 1.0000 0.0000
vn -1.0000 0.0000 0.0000
vn 0.0000 0.0000 -1.0000
vn -0.5774 -0.5773 0.5774
vn -0.5773 0.5774 0.5773
vn -0.5774 -0.5773 -0.5774
vn -0.5774 0.5774 -0.5774
vn 0.5774 -0.5773 0.5774
vn 0.5773 0.5774 0.5773
vn 0.5774 -0.5773 -0.5774
vn 0.5774 0.5774 -0.5773
vn -0.7071 -0.7071 -0.0000
vn -0.7071 0.0000 0.7071
vn -0.7071 0.7071 0.0000
vn -0.7071 0.0000 -0.7071
vn 0.0000 -0.7071 -0.7071
vn 0.0000 0.7071 -0.7071
vn 0.7071 0.0000 -0.7071
vn 0.7071 -0.7071 0.0000
vn 0.7071 0.7071 0.0000
vn 0.7071 -0.0000 0.7071
vn 0.0000 0.7071 0.7071
vn 0.0000 -1.0000 0.0000
vn -0.0000 -0.0000 1.0000
usemtl restaurant.136
s off
f 4/1/1 31/2/1 17/3/1
f 23/4/2 14/5/2 21/6/2
f 10/7/3 16/8/3 22/9/3
f 6/10/4 8/11/4 3/12/4
f 11/13/5 20/14/5 9/15/5
f 1/16/6 25/17/6 3/18/6
f 26/19/7 5/20/7 6/21/7
f 7/22/8 8/23/8 9/24/8
f 10/25/9 11/26/9 12/27/9
f 13/28/10 14/29/10 28/30/10
f 16/31/11 27/32/11 18/33/11
f 19/34/12 20/35/12 21/36/12
f 22/37/13 23/38/13 24/39/13
f 1/40/14 8/41/14 7/42/14
f 26/43/15 3/44/15 25/45/15
f 10/7/16 6/46/16 5/47/16
f 9/48/17 12/49/17 11/50/17
f 7/22/18 20/35/18 19/34/18
f 22/37/19 11/26/19 10/25/19
f 21/51/20 24/52/20 23/53/20
f 19/54/21 14/55/21 13/56/21
f 16/8/22 23/53/22 22/9/22
f 28/57/23 18/58/23 27/59/23
f 13/28/1 25/17/1 1/16/1
f 5/20/24 27/32/24 16/31/24
f 19/54/25 1/40/25 7/42/25
f 4/60/26 25/61/26 2/62/26
f 17/63/26 28/64/26 27/65/26
f 2/62/26 28/64/26 15/66/26
f 17/63/26 26/67/26 4/60/26
f 31/68/26 29/69/26 32/70/26
f 17/71/4 32/72/4 15/73/4
f 15/74/24 29/75/24 2/76/24
f 4/77/2 29/78/2 30/79/2
f 34/80/15 35/81/15 33/82/15
f 36/83/5 39/84/5 35/85/5
f 40/86/23 37/87/23 39/88/23
f 38/89/26 33/90/26 37/91/26
f 35/92/25 37/93/25 33/94/25
f 36/95/3 38/96/3 40/97/3
f 4/1/1 30/98/1 31/2/1
f 23/4/2 18/99/2 14/5/2
f 10/7/3 5/47/3 16/8/3
f 6/10/4 12/100/4 8/11/4
f 11/13/5 24/101/5 20/14/5
f 1/40/14 3/102/14 8/41/14
f 26/43/15 6/46/15 3/44/15
f 10/7/16 12/49/16 6/46/16
f 9/48/17 8/103/17 12/49/17
f 7/22/18 9/24/18 20/35/18
f 22/37/19 24/39/19 11/26/19
f 21/51/20 20/104/20 24/52/20
f 19/54/21 21/105/21 14/55/21
f 16/8/22 18/58/22 23/53/22
f 28/57/23 14/106/23 18/58/23
f 13/28/1 28/30/1 25/17/1
f 5/20/24 26/19/24 27/32/24
f 19/54/25 13/56/25 1/40/25
f 4/60/26 26/67/26 25/61/26
f 17/63/26 15/66/26 28/64/26
f 2/62/26 25/61/26 28/64/26
f 17/63/26 27/65/26 26/67/26
f 31/68/26 30/107/26 29/69/26
f 17/71/4 31/108/4 32/72/4
f 15/74/24 32/109/24 29/75/24
f 4/77/2 2/110/2 29/78/2
f 34/80/15 36/111/15 35/81/15
f 36/83/5 40/112/5 39/84/5
f 40/86/23 38/113/23 37/87/23
f 38/89/26 34/114/26 33/90/26
f 35/92/25 39/115/25 37/93/25
f 36/95/3 34/116/3 38/96/3
