# Blender v3.4.1 OBJ File: 'restaurant.blend'
# www.blender.org
mtllib pan_A_Cylinder_196.mtl
o pan_A_Cylinder.196
v 0.500000 0.230000 -0.099456
v 0.480000 0.250000 -0.095478
v 0.480000 0.250000 0.095478
v 0.500000 0.230000 0.099456
v 0.406924 0.250000 0.271898
v 0.423880 0.230000 0.283227
v 0.271898 0.250000 0.406924
v 0.283227 0.230000 0.423880
v 0.095478 0.250000 0.480000
v 0.099456 0.230000 0.500000
v -0.095478 0.250000 0.480000
v -0.099456 0.230000 0.500000
v -0.271898 0.250000 0.406924
v -0.283227 0.230000 0.423880
v -0.406924 0.250000 0.271898
v -0.423880 0.230000 0.283227
v -0.480000 0.250000 0.095478
v -0.500000 0.230000 0.099456
v -0.480000 0.250000 -0.095478
v -0.500000 0.230000 -0.099456
v -0.406924 0.250000 -0.271898
v -0.423880 0.230000 -0.283227
v -0.271898 0.250000 -0.406924
v -0.283227 0.230000 -0.423880
v -0.095478 0.250000 -0.480000
v -0.099456 0.230000 -0.500000
v 0.095478 0.250000 -0.480000
v 0.099456 0.230000 -0.500000
v 0.271898 0.250000 -0.406924
v 0.283227 0.230000 -0.423880
v 0.406924 0.250000 -0.271898
v 0.423880 0.230000 -0.283227
v 0.400000 0.230000 0.079565
v 0.420000 0.250000 0.083543
v 0.420000 0.250000 -0.083543
v 0.400000 0.230000 -0.079565
v 0.356059 0.250000 -0.237911
v 0.339104 0.230000 -0.226582
v 0.237911 0.250000 -0.356059
v 0.226582 0.230000 -0.339104
v 0.083543 0.250000 -0.420000
v 0.079565 0.230000 -0.400000
v -0.083543 0.250000 -0.420000
v -0.079565 0.230000 -0.400000
v -0.237911 0.250000 -0.356059
v -0.226582 0.230000 -0.339104
v -0.356059 0.250000 -0.237911
v -0.339104 0.230000 -0.226582
v -0.420000 0.250000 -0.083543
v -0.400000 0.230000 -0.079565
v -0.420000 0.250000 0.083543
v -0.400000 0.230000 0.079565
v -0.356059 0.250000 0.237911
v -0.339104 0.230000 0.226582
v -0.237911 0.250000 0.356059
v -0.226582 0.230000 0.339104
v -0.083543 0.250000 0.420000
v -0.079565 0.230000 0.400000
v 0.083543 0.250000 0.420000
v 0.079565 0.230000 0.400000
v 0.237911 0.250000 0.356059
v 0.226582 0.230000 0.339104
v 0.339104 0.230000 0.226582
v 0.356059 0.250000 0.237911
v 0.350000 0.050000 0.069619
v 0.350000 0.050000 -0.069619
v 0.296716 0.050000 -0.198259
v 0.198259 0.050000 -0.296716
v 0.069619 0.050000 -0.350000
v -0.069619 0.050000 -0.350000
v -0.198259 0.050000 -0.296716
v -0.296716 0.050000 -0.198259
v -0.350000 0.050000 -0.069619
v -0.350000 0.050000 0.069619
v -0.296716 0.050000 0.198259
v -0.198259 0.050000 0.296716
v -0.069619 0.050000 0.350000
v 0.069619 0.050000 0.350000
v 0.198259 0.050000 0.296716
v 0.296716 0.050000 0.198259
v 0.400000 0.000000 -0.079565
v 0.500000 0.100000 -0.099456
v 0.470711 0.029289 -0.093630
v 0.500000 0.100000 0.099456
v 0.400000 -0.000000 0.079565
v 0.470711 0.029289 0.093630
v 0.423880 0.100000 0.283227
v 0.339104 -0.000000 0.226582
v 0.399049 0.029289 0.266636
v 0.283227 0.100000 0.423880
v 0.226582 -0.000000 0.339104
v 0.266636 0.029289 0.399049
v 0.099456 0.100000 0.500000
v 0.079565 -0.000000 0.400000
v 0.093630 0.029289 0.470711
v -0.099456 0.100000 0.500000
v -0.079565 -0.000000 0.400000
v -0.093630 0.029289 0.470711
v -0.283227 0.100000 0.423880
v -0.226582 -0.000000 0.339104
v -0.266636 0.029289 0.399049
v -0.423880 0.100000 0.283227
v -0.339104 -0.000000 0.226582
v -0.399049 0.029289 0.266636
v -0.500000 0.100000 0.099456
v -0.400000 -0.000000 0.079565
v -0.470711 0.029289 0.093630
v -0.500000 0.100000 -0.099456
v -0.400000 0.000000 -0.079565
v -0.470711 0.029289 -0.093630
v -0.423880 0.100000 -0.283227
v -0.339104 0.000000 -0.226582
v -0.399049 0.029289 -0.266636
v -0.283227 0.100000 -0.423880
v -0.226582 0.000000 -0.339104
v -0.266636 0.029289 -0.399049
v -0.099456 0.100000 -0.500000
v -0.079565 0.000000 -0.400000
v -0.093630 0.029289 -0.470711
v 0.099456 0.100000 -0.500000
v 0.079565 0.000000 -0.400000
v 0.093630 0.029289 -0.470711
v 0.283227 0.100000 -0.423880
v 0.226582 0.000000 -0.339104
v 0.266636 0.029289 -0.399049
v 0.423880 0.100000 -0.283227
v 0.339104 0.000000 -0.226582
v 0.399049 0.029289 -0.266636
v 0.000000 0.050000 0.000000
v 0.000000 0.000000 0.000000
v -0.036437 0.107057 0.452563
v -0.036747 0.186753 0.459535
v 0.036437 0.107057 0.452563
v 0.036747 0.186753 0.459535
v -0.060840 0.151647 0.963393
v -0.060824 0.211419 0.968622
v 0.060840 0.151647 0.963393
v 0.060824 0.211419 0.968622
v 0.000000 0.092115 0.451255
v 0.000000 0.201696 0.460842
v 0.044601 0.136207 0.584773
v 0.078519 0.180483 0.978014
v 0.000000 0.144048 0.974826
v 0.000000 0.216917 0.981202
v -0.078520 0.180483 0.978014
v -0.044659 0.215902 0.591745
v 0.044659 0.215902 0.591745
v -0.044601 0.136207 0.584773
v 0.000000 0.178278 1.000000
v -0.064816 0.176055 0.588259
v 0.000000 0.230845 0.593053
v 0.000000 0.121264 0.583465
v 0.064816 0.176055 0.588259
v 0.073704 0.230745 0.852635
v -0.073565 0.152756 0.845812
v 0.073565 0.152756 0.845812
v -0.073704 0.230745 0.852635
v 0.106546 0.191698 0.849815
v 0.000000 0.138061 0.845123
v 0.000000 0.245336 0.854508
v -0.106546 0.191698 0.849815
vt 0.438984 0.890511
vt 0.448079 0.864190
vt 0.438984 0.864190
vt 0.438787 0.910185
vt 0.445836 0.910185
vt 0.447518 0.910185
vt 0.451684 0.910185
vt 0.454201 0.910185
vt 0.457818 0.910185
vt 0.454848 0.910185
vt 0.454848 0.910185
vt 0.457818 0.910185
vt 0.451684 0.910185
vt 0.454201 0.910185
vt 0.445836 0.910185
vt 0.447518 0.910185
vt 0.438787 0.910185
vt 0.438196 0.910185
vt 0.429926 0.910185
vt 0.429336 0.910185
vt 0.422286 0.910185
vt 0.420604 0.910185
vt 0.416438 0.910185
vt 0.413921 0.910185
vt 0.410304 0.910185
vt 0.413274 0.910185
vt 0.413274 0.910185
vt 0.410304 0.910185
vt 0.416438 0.910185
vt 0.413921 0.910185
vt 0.443874 0.854067
vt 0.450845 0.890511
vt 0.445275 0.890511
vt 0.422286 0.910185
vt 0.420604 0.910185
vt 0.429336 0.910185
vt 0.429926 0.910185
vt 0.420043 0.890511
vt 0.429139 0.864190
vt 0.420043 0.864190
vt 0.448079 0.890511
vt 0.455040 0.864190
vt 0.437999 0.890511
vt 0.413082 0.890511
vt 0.413082 0.864190
vt 0.409314 0.890511
vt 0.409314 0.864190
vt 0.409314 0.890511
vt 0.409314 0.864190
vt 0.413082 0.890511
vt 0.413082 0.864190
vt 0.420043 0.890511
vt 0.420043 0.864190
vt 0.429139 0.890511
vt 0.429139 0.864190
vt 0.438984 0.890511
vt 0.438984 0.864190
vt 0.448079 0.890511
vt 0.448079 0.864190
vt 0.455040 0.890511
vt 0.455040 0.864190
vt 0.458808 0.890511
vt 0.458808 0.864190
vt 0.458808 0.890511
vt 0.458808 0.864190
vt 0.455040 0.890511
vt 0.430123 0.890511
vt 0.424249 0.854067
vt 0.422847 0.890511
vt 0.437507 0.854067
vt 0.437999 0.890511
vt 0.424249 0.854067
vt 0.430123 0.890511
vt 0.422847 0.890511
vt 0.443874 0.854067
vt 0.445275 0.890511
vt 0.419376 0.854067
vt 0.417278 0.890511
vt 0.448747 0.854067
vt 0.450845 0.890511
vt 0.414264 0.890511
vt 0.453859 0.890511
vt 0.416738 0.854067
vt 0.414264 0.890511
vt 0.451384 0.854067
vt 0.453859 0.890511
vt 0.419376 0.854067
vt 0.417278 0.890511
vt 0.448747 0.854067
vt 0.429139 0.921761
vt 0.438787 0.925810
vt 0.438984 0.921761
vt 0.448079 0.921761
vt 0.447518 0.925810
vt 0.454201 0.925810
vt 0.455040 0.921761
vt 0.457818 0.925810
vt 0.458808 0.921761
vt 0.457818 0.925810
vt 0.458808 0.921761
vt 0.455040 0.921761
vt 0.454201 0.925810
vt 0.447518 0.925810
vt 0.448079 0.921761
vt 0.438787 0.925810
vt 0.438984 0.921761
vt 0.429336 0.925810
vt 0.429139 0.921761
vt 0.420043 0.921761
vt 0.420604 0.925810
vt 0.413921 0.925810
vt 0.413082 0.921761
vt 0.410304 0.925810
vt 0.409314 0.921761
vt 0.410304 0.925810
vt 0.409314 0.921761
vt 0.413082 0.921761
vt 0.413921 0.925810
vt 0.420604 0.925810
vt 0.420043 0.921761
vt 0.429336 0.925810
vt 0.429926 0.925810
vt 0.437999 0.921761
vt 0.438196 0.925810
vt 0.445836 0.925810
vt 0.445275 0.921761
vt 0.422286 0.925810
vt 0.430123 0.921761
vt 0.417278 0.921761
vt 0.422847 0.921761
vt 0.416438 0.925810
vt 0.414264 0.921761
vt 0.413274 0.925810
vt 0.413274 0.925810
vt 0.416438 0.925810
vt 0.414264 0.921761
vt 0.422286 0.925810
vt 0.417278 0.921761
vt 0.430123 0.921761
vt 0.422847 0.921761
vt 0.438196 0.925810
vt 0.429926 0.925810
vt 0.445836 0.925810
vt 0.437999 0.921761
vt 0.450845 0.921761
vt 0.445275 0.921761
vt 0.451684 0.925810
vt 0.453859 0.921761
vt 0.454848 0.925810
vt 0.454848 0.925810
vt 0.451684 0.925810
vt 0.453859 0.921761
vt 0.450845 0.921761
vt 0.438196 0.910185
vt 0.430615 0.854067
vt 0.429427 0.865499
vt 0.438695 0.865499
vt 0.430123 0.843943
vt 0.447258 0.865499
vt 0.437999 0.843943
vt 0.450845 0.843943
vt 0.445275 0.843943
vt 0.457358 0.865499
vt 0.453811 0.865499
vt 0.453859 0.843943
vt 0.457358 0.865499
vt 0.453811 0.865499
vt 0.453859 0.843943
vt 0.447258 0.865499
vt 0.450845 0.843943
vt 0.438695 0.865499
vt 0.437999 0.843943
vt 0.445275 0.843943
vt 0.429427 0.865499
vt 0.420864 0.865499
vt 0.430123 0.843943
vt 0.417278 0.843943
vt 0.422847 0.843943
vt 0.410764 0.865499
vt 0.414311 0.865499
vt 0.414264 0.843943
vt 0.410764 0.865499
vt 0.414311 0.865499
vt 0.414264 0.843943
vt 0.420864 0.865499
vt 0.417278 0.843943
vt 0.422847 0.843943
vt 0.429139 0.890511
vt 0.437507 0.869692
vt 0.430615 0.869692
vt 0.434061 0.869692
vt 0.424249 0.869692
vt 0.419376 0.869692
vt 0.416738 0.869692
vt 0.416738 0.869692
vt 0.419376 0.869692
vt 0.424249 0.869692
vt 0.430615 0.869692
vt 0.437507 0.869692
vt 0.443874 0.869692
vt 0.448747 0.869692
vt 0.451384 0.869692
vt 0.451384 0.869692
vt 0.448747 0.869692
vt 0.443874 0.869692
vt 0.430123 0.828318
vt 0.437999 0.828318
vt 0.434061 0.828318
vt 0.445275 0.828318
vt 0.450845 0.828318
vt 0.453859 0.828318
vt 0.453859 0.828318
vt 0.450845 0.828318
vt 0.445275 0.828318
vt 0.437999 0.828318
vt 0.430123 0.828318
vt 0.422847 0.828318
vt 0.417278 0.828318
vt 0.414264 0.828318
vt 0.414264 0.828318
vt 0.417278 0.828318
vt 0.422847 0.828318
vt 0.481743 0.843397
vt 0.475889 0.840646
vt 0.475923 0.843621
vt 0.476122 0.882756
vt 0.481743 0.874647
vt 0.475923 0.874871
vt 0.483555 0.880039
vt 0.482309 0.873108
vt 0.482002 0.886749
vt 0.482466 0.880485
vt 0.482002 0.886749
vt 0.482467 0.880485
vt 0.481743 0.874647
vt 0.463349 0.887656
vt 0.463176 0.879589
vt 0.475923 0.874871
vt 0.463176 0.879589
vt 0.463004 0.871521
vt 0.463349 0.887656
vt 0.456805 0.881755
vt 0.456460 0.865619
vt 0.481743 0.843397
vt 0.475923 0.843621
vt 0.476354 0.924866
vt 0.482002 0.917999
vt 0.476261 0.921911
vt 0.463349 0.918906
vt 0.476261 0.921911
vt 0.463349 0.918906
vt 0.456870 0.916030
vt 0.463413 0.921932
vt 0.463004 0.840271
vt 0.462939 0.837245
vt 0.482002 0.917999
vt 0.482624 0.919112
vt 0.456460 0.834369
vt 0.456395 0.831343
vt 0.456460 0.834369
vt 0.476122 0.882756
vt 0.456460 0.865619
vt 0.463004 0.871521
vt 0.456805 0.881755
vt 0.463004 0.840271
vt 0.476261 0.890661
vt 0.437507 0.854067
vt 0.430615 0.854067
vt 0.416738 0.854067
vt 0.451384 0.854067
vt 0.482309 0.841858
vt 0.482624 0.887862
vt 0.456805 0.913005
vt 0.456805 0.913005
vt 0.476261 0.890661
vn 0.9808 -0.0000 0.1951
vn 0.8157 -0.1938 0.5450
vn 0.9622 -0.1938 0.1914
vn -0.0000 1.0000 0.0000
vn -0.8000 0.2725 -0.5345
vn -0.5345 0.2725 -0.8000
vn 0.8315 0.0000 -0.5556
vn 0.9622 -0.1938 -0.1914
vn 0.8157 -0.1938 -0.5450
vn 0.8315 0.0000 0.5556
vn 0.5450 -0.1938 0.8157
vn -0.9437 0.2725 -0.1877
vn 0.5556 0.0000 -0.8315
vn 0.5450 -0.1938 -0.8157
vn 0.1951 0.0000 -0.9808
vn 0.1914 -0.1938 -0.9622
vn -0.1951 0.0000 -0.9808
vn -0.1914 -0.1938 -0.9622
vn -0.5556 0.0000 -0.8315
vn -0.5450 -0.1938 -0.8157
vn -0.8315 0.0000 -0.5556
vn -0.8157 -0.1938 -0.5450
vn -0.9808 0.0000 -0.1951
vn -0.9622 -0.1938 -0.1914
vn -0.9808 -0.0000 0.1951
vn -0.9622 -0.1938 0.1914
vn -0.8315 -0.0000 0.5556
vn -0.8157 -0.1938 0.5450
vn -0.5556 0.0000 0.8315
vn -0.5450 -0.1938 0.8157
vn -0.1951 -0.0000 0.9808
vn -0.1914 -0.1938 0.9622
vn 0.1951 -0.0000 0.9808
vn 0.1914 -0.1938 0.9622
vn 0.5556 -0.0000 0.8315
vn 0.9437 0.2725 0.1877
vn 0.8000 0.2725 0.5345
vn 0.9437 0.2725 -0.1877
vn -0.8000 0.2725 0.5345
vn -0.9437 0.2725 0.1877
vn 0.8000 0.2725 -0.5345
vn -0.5345 0.2725 0.8000
vn 0.5345 0.2725 -0.8000
vn -0.1877 0.2725 0.9437
vn 0.1877 0.2725 -0.9437
vn 0.1877 0.2725 0.9437
vn -0.1877 0.2725 -0.9437
vn 0.5345 0.2725 0.8000
vn 0.6868 0.7139 -0.1366
vn 0.6868 0.7139 0.1366
vn 0.5822 0.7139 0.3890
vn 0.3890 0.7139 0.5822
vn 0.1366 0.7139 0.6868
vn -0.1366 0.7139 0.6868
vn -0.3890 0.7139 0.5822
vn -0.5822 0.7139 0.3890
vn -0.6868 0.7139 0.1366
vn -0.6868 0.7139 -0.1366
vn -0.5822 0.7139 -0.3890
vn -0.3890 0.7139 -0.5822
vn -0.1366 0.7139 -0.6868
vn 0.1366 0.7139 -0.6868
vn 0.3890 0.7139 -0.5822
vn 0.5822 0.7139 -0.3890
vn 0.7110 -0.6889 -0.1414
vn 0.7110 -0.6889 0.1414
vn 0.2105 -0.9767 -0.0419
vn 0.6027 -0.6889 0.4027
vn 0.2105 -0.9767 0.0419
vn 0.1192 -0.9767 0.1784
vn 0.1784 -0.9767 0.1192
vn 0.1414 -0.6889 0.7110
vn 0.4027 -0.6889 0.6027
vn 0.0419 -0.9767 0.2105
vn -0.1414 -0.6889 0.7110
vn -0.4027 -0.6889 0.6027
vn -0.0419 -0.9767 0.2105
vn -0.6027 -0.6889 0.4027
vn -0.1192 -0.9767 0.1784
vn -0.7110 -0.6889 0.1414
vn -0.2105 -0.9767 0.0419
vn -0.1784 -0.9767 0.1192
vn -0.7110 -0.6889 -0.1414
vn -0.6027 -0.6889 -0.4027
vn -0.2105 -0.9767 -0.0419
vn -0.1192 -0.9767 -0.1784
vn -0.1784 -0.9767 -0.1192
vn -0.1414 -0.6889 -0.7110
vn -0.4027 -0.6889 -0.6027
vn -0.0419 -0.9767 -0.2105
vn 0.0734 -0.9265 -0.3691
vn 0.1797 -0.3891 -0.9035
vn 0.4027 -0.6889 -0.6027
vn 0.0419 -0.9767 -0.2105
vn 0.6027 -0.6889 -0.4027
vn 0.1192 -0.9767 -0.1784
vn 0.1784 -0.9767 -0.1192
vn 0.9808 0.0000 -0.1951
vn -0.0000 -1.0000 -0.0000
vn 0.5227 -0.8484 0.0833
vn -0.0000 -0.9994 0.0333
vn 0.5332 -0.8459 0.0083
vn 0.7698 -0.6383 0.0043
vn 0.2337 -0.5593 0.7953
vn 0.0000 -0.5847 0.8113
vn -0.0000 -0.5925 0.8056
vn 0.2315 0.4102 0.8821
vn 0.0000 0.4302 0.9027
vn 0.2362 0.4035 0.8840
vn -0.2315 0.4102 0.8821
vn -0.2362 0.4035 0.8840
vn -0.2337 -0.5593 0.7953
vn 0.6189 0.7699 -0.1555
vn 0.7802 0.6249 0.0285
vn 0.9926 0.0163 -0.1201
vn -0.5332 -0.8459 0.0083
vn -0.9926 0.0163 -0.1201
vn -0.6538 -0.7543 0.0596
vn -0.6189 0.7699 -0.1555
vn -0.8127 0.5282 -0.2459
vn -0.7371 -0.6735 0.0555
vn -0.5227 -0.8484 0.0833
vn 0.0000 0.9981 0.0618
vn 0.5225 0.8212 0.2295
vn 0.5161 0.8553 0.0461
vn -0.5161 0.8553 0.0461
vn 0.0000 0.9725 -0.2328
vn 0.0000 0.9912 -0.1322
vn 0.6538 -0.7543 0.0596
vn 0.0000 -0.9908 0.1351
vn -0.5225 0.8212 0.2295
vn 0.0000 0.9758 0.2189
vn 0.7371 -0.6735 0.0555
vn 0.0000 -0.9765 0.2153
vn -0.7698 -0.6383 0.0043
vn -0.8150 -0.5650 0.1287
vn 0.8127 0.5282 -0.2459
vn -0.7802 0.6249 0.0285
vn -0.8148 0.5344 0.2249
vn 0.0000 -0.9989 0.0461
vn 0.8150 -0.5650 0.1288
vn 0.2392 -0.5518 0.7990
vn -0.0000 0.4375 0.8992
vn -0.2392 -0.5518 0.7990
vn 0.8148 0.5343 0.2249
usemtl restaurant.062
s 1
f 4/1/1 87/2/2 84/3/3
f 3/4/4 64/5/4 5/6/4
f 5/6/4 61/7/4 7/8/4
f 9/9/4 61/7/4 59/10/4
f 9/9/4 57/11/4 11/12/4
f 11/12/4 55/13/4 13/14/4
f 13/14/4 53/15/4 15/16/4
f 17/17/4 53/15/4 51/18/4
f 17/17/4 49/19/4 19/20/4
f 19/20/4 47/21/4 21/22/4
f 21/22/4 45/23/4 23/24/4
f 25/25/4 45/23/4 43/26/4
f 25/25/4 41/27/4 27/28/4
f 27/28/4 39/29/4 29/30/4
f 80/31/5 62/32/6 63/33/5
f 29/30/4 37/34/4 31/35/4
f 2/36/4 37/34/4 35/37/4
f 32/38/7 82/39/8 126/40/9
f 6/41/10 90/42/11 87/2/2
f 33/43/12 80/31/5 63/33/5
f 30/44/13 126/40/9 123/45/14
f 28/46/15 123/45/14 120/47/16
f 26/48/17 120/47/16 117/49/18
f 24/50/19 117/49/18 114/51/20
f 22/52/21 114/51/20 111/53/22
f 20/54/23 111/53/22 108/55/24
f 18/56/25 108/55/24 105/57/26
f 16/58/27 105/57/26 102/59/28
f 14/60/29 102/59/28 99/61/30
f 12/62/31 99/61/30 96/63/32
f 10/64/33 96/63/32 93/65/34
f 8/66/35 93/65/34 90/42/11
f 50/67/36 72/68/37 48/69/37
f 74/70/38 50/67/36 52/71/38
f 67/72/39 36/73/40 38/74/39
f 75/75/41 52/71/38 54/76/41
f 68/77/42 38/74/39 40/78/42
f 76/79/43 54/76/41 56/80/43
f 42/81/44 68/77/42 40/78/42
f 58/82/45 76/79/43 56/80/43
f 70/83/46 42/81/44 44/84/46
f 78/85/47 58/82/45 60/86/47
f 71/87/48 44/84/46 46/88/48
f 79/89/6 60/86/47 62/32/6
f 72/68/37 46/88/48 48/69/37
f 1/90/49 3/91/50 4/92/50
f 6/93/51 3/91/50 5/94/51
f 6/93/51 7/95/52 8/96/52
f 8/96/52 9/97/53 10/98/53
f 10/98/53 11/99/54 12/100/54
f 14/101/55 11/99/54 13/102/55
f 14/101/55 15/103/56 16/104/56
f 16/104/56 17/105/57 18/106/57
f 18/106/57 19/107/58 20/108/58
f 22/109/59 19/107/58 21/110/59
f 22/109/59 23/111/60 24/112/60
f 24/112/60 25/113/61 26/114/61
f 26/114/61 27/115/62 28/116/62
f 30/117/63 27/115/62 29/118/63
f 30/117/63 31/119/64 32/120/64
f 32/120/64 2/121/49 1/90/49
f 35/122/57 33/123/58 34/124/58
f 64/125/59 33/123/58 63/126/59
f 37/127/56 36/128/57 35/122/57
f 37/127/56 40/129/55 38/130/56
f 39/131/55 42/132/54 40/129/55
f 43/133/53 42/132/54 41/134/54
f 45/135/52 44/136/53 43/133/53
f 47/137/51 46/138/52 45/135/52
f 47/137/51 50/139/50 48/140/51
f 51/141/49 50/139/50 49/142/50
f 53/143/64 52/144/49 51/141/49
f 53/143/64 56/145/63 54/146/64
f 55/147/63 58/148/62 56/145/63
f 59/149/61 58/148/62 57/150/62
f 61/151/60 60/152/61 59/149/61
f 64/125/59 62/153/60 61/151/60
f 2/36/4 34/154/4 3/4/4
f 66/155/40 33/43/12 36/73/40
f 84/3/3 83/156/65 82/39/8
f 86/157/66 81/158/67 83/156/65
f 87/2/2 86/157/66 84/3/3
f 89/159/68 85/160/69 86/157/66
f 90/42/11 89/159/68 87/2/2
f 89/159/68 91/161/70 88/162/71
f 90/42/11 95/163/72 92/164/73
f 92/164/73 94/165/74 91/161/70
f 96/63/32 95/163/72 93/65/34
f 98/166/75 94/165/74 95/163/72
f 99/61/30 98/166/75 96/63/32
f 101/167/76 97/168/77 98/166/75
f 102/59/28 101/167/76 99/61/30
f 104/169/78 100/170/79 101/167/76
f 102/59/28 107/171/80 104/169/78
f 104/169/78 106/172/81 103/173/82
f 108/55/24 107/171/80 105/57/26
f 110/174/83 106/172/81 107/171/80
f 111/53/22 110/174/83 108/55/24
f 113/175/84 109/176/85 110/174/83
f 114/51/20 113/175/84 111/53/22
f 113/175/84 115/177/86 112/178/87
f 114/51/20 119/179/88 116/180/89
f 116/180/89 118/181/90 115/177/86
f 120/47/16 119/179/88 117/49/18
f 122/182/91 118/181/90 119/179/88
f 123/45/14 122/182/92 120/47/16
f 125/183/93 121/184/94 122/182/91
f 126/40/9 125/183/93 123/45/14
f 128/185/95 124/186/96 125/183/93
f 126/40/9 83/156/65 128/185/95
f 128/185/95 81/158/67 127/187/97
f 1/188/98 84/3/3 82/39/8
f 65/189/4 66/190/4 129/191/4
f 66/190/4 67/192/4 129/191/4
f 67/192/4 68/193/4 129/191/4
f 68/193/4 69/194/4 129/191/4
f 69/194/4 70/195/4 129/191/4
f 70/195/4 71/196/4 129/191/4
f 71/196/4 72/197/4 129/191/4
f 72/197/4 73/198/4 129/191/4
f 73/198/4 74/199/4 129/191/4
f 74/199/4 75/200/4 129/191/4
f 75/200/4 76/201/4 129/191/4
f 76/201/4 77/202/4 129/191/4
f 77/202/4 78/203/4 129/191/4
f 78/203/4 79/204/4 129/191/4
f 79/204/4 80/205/4 129/191/4
f 80/205/4 65/189/4 129/191/4
f 81/206/67 85/207/69 130/208/99
f 85/207/69 88/209/71 130/208/99
f 88/209/71 91/210/70 130/208/99
f 91/210/70 94/211/74 130/208/99
f 94/211/74 97/212/77 130/208/99
f 97/212/77 100/213/79 130/208/99
f 100/213/79 103/214/82 130/208/99
f 103/214/82 106/215/81 130/208/99
f 106/215/81 109/216/85 130/208/99
f 109/216/85 112/217/87 130/208/99
f 112/217/87 115/218/86 130/208/99
f 115/218/86 118/219/90 130/208/99
f 118/219/90 121/220/94 130/208/99
f 121/220/94 124/221/96 130/208/99
f 124/221/96 127/222/97 130/208/99
f 127/222/97 81/206/67 130/208/99
f 137/223/100 159/224/101 156/225/102
f 158/226/103 137/227/100 156/228/102
f 137/227/104 149/229/105 143/230/106
f 138/231/107 149/229/108 142/232/109
f 149/229/108 136/233/110 145/234/111
f 149/229/105 135/235/112 143/230/106
f 147/236/113 158/226/114 153/237/115
f 155/238/116 150/239/117 148/240/118
f 150/239/117 146/241/119 132/242/120
f 148/240/118 150/239/117 131/243/121
f 159/224/101 135/244/122 155/245/116
f 160/246/123 138/247/124 154/248/125
f 160/246/123 146/249/119 157/250/126
f 147/251/113 140/252/127 151/253/128
f 140/252/127 146/249/119 151/253/128
f 141/254/129 159/224/101 152/255/130
f 160/246/123 136/256/131 144/257/132
f 133/258/133 152/255/130 139/259/134
f 152/255/130 131/260/121 139/259/134
f 161/261/135 135/235/122 145/234/136
f 133/262/133 153/237/115 141/263/129
f 134/264/137 147/236/113 153/237/115
f 136/233/131 161/261/138 145/234/139
f 161/261/138 146/241/119 150/239/117
f 159/224/101 148/265/118 152/255/130
f 153/237/115 156/228/102 141/263/129
f 138/231/124 158/226/114 154/266/125
f 147/251/113 160/246/123 154/248/125
f 131/243/121 150/239/117 132/242/120
f 133/262/133 134/264/137 153/237/115
f 4/1/1 6/41/10 87/2/2
f 3/4/4 34/154/4 64/5/4
f 5/6/4 64/5/4 61/7/4
f 9/9/4 7/8/4 61/7/4
f 9/9/4 59/10/4 57/11/4
f 11/12/4 57/11/4 55/13/4
f 13/14/4 55/13/4 53/15/4
f 17/17/4 15/16/4 53/15/4
f 17/17/4 51/18/4 49/19/4
f 19/20/4 49/19/4 47/21/4
f 21/22/4 47/21/4 45/23/4
f 25/25/4 23/24/4 45/23/4
f 25/25/4 43/26/4 41/27/4
f 27/28/4 41/27/4 39/29/4
f 80/31/5 79/89/6 62/32/6
f 29/30/4 39/29/4 37/34/4
f 2/36/4 31/35/4 37/34/4
f 32/38/7 1/188/98 82/39/8
f 6/41/10 8/66/35 90/42/11
f 33/43/12 65/267/12 80/31/5
f 30/44/13 32/38/7 126/40/9
f 28/46/15 30/44/13 123/45/14
f 26/48/17 28/46/15 120/47/16
f 24/50/19 26/48/17 117/49/18
f 22/52/21 24/50/19 114/51/20
f 20/54/23 22/52/21 111/53/22
f 18/56/25 20/54/23 108/55/24
f 16/58/27 18/56/25 105/57/26
f 14/60/29 16/58/27 102/59/28
f 12/62/31 14/60/29 99/61/30
f 10/64/33 12/62/31 96/63/32
f 8/66/35 10/64/33 93/65/34
f 50/67/36 73/268/36 72/68/37
f 74/70/38 73/268/36 50/67/36
f 67/72/39 66/155/40 36/73/40
f 75/75/41 74/70/38 52/71/38
f 68/77/42 67/72/39 38/74/39
f 76/79/43 75/75/41 54/76/41
f 42/81/44 69/269/44 68/77/42
f 58/82/45 77/270/45 76/79/43
f 70/83/46 69/269/44 42/81/44
f 78/85/47 77/270/45 58/82/45
f 71/87/48 70/83/46 44/84/46
f 79/89/6 78/85/47 60/86/47
f 72/68/37 71/87/48 46/88/48
f 1/90/49 2/121/49 3/91/50
f 6/93/51 4/92/50 3/91/50
f 6/93/51 5/94/51 7/95/52
f 8/96/52 7/95/52 9/97/53
f 10/98/53 9/97/53 11/99/54
f 14/101/55 12/100/54 11/99/54
f 14/101/55 13/102/55 15/103/56
f 16/104/56 15/103/56 17/105/57
f 18/106/57 17/105/57 19/107/58
f 22/109/59 20/108/58 19/107/58
f 22/109/59 21/110/59 23/111/60
f 24/112/60 23/111/60 25/113/61
f 26/114/61 25/113/61 27/115/62
f 30/117/63 28/116/62 27/115/62
f 30/117/63 29/118/63 31/119/64
f 32/120/64 31/119/64 2/121/49
f 35/122/57 36/128/57 33/123/58
f 64/125/59 34/124/58 33/123/58
f 37/127/56 38/130/56 36/128/57
f 37/127/56 39/131/55 40/129/55
f 39/131/55 41/134/54 42/132/54
f 43/133/53 44/136/53 42/132/54
f 45/135/52 46/138/52 44/136/53
f 47/137/51 48/140/51 46/138/52
f 47/137/51 49/142/50 50/139/50
f 51/141/49 52/144/49 50/139/50
f 53/143/64 54/146/64 52/144/49
f 53/143/64 55/147/63 56/145/63
f 55/147/63 57/150/62 58/148/62
f 59/149/61 60/152/61 58/148/62
f 61/151/60 62/153/60 60/152/61
f 64/125/59 63/126/59 62/153/60
f 2/36/4 35/37/4 34/154/4
f 66/155/40 65/267/12 33/43/12
f 84/3/3 86/157/66 83/156/65
f 86/157/66 85/160/69 81/158/67
f 87/2/2 89/159/68 86/157/66
f 89/159/68 88/162/71 85/160/69
f 90/42/11 92/164/73 89/159/68
f 89/159/68 92/164/73 91/161/70
f 90/42/11 93/65/34 95/163/72
f 92/164/73 95/163/72 94/165/74
f 96/63/32 98/166/75 95/163/72
f 98/166/75 97/168/77 94/165/74
f 99/61/30 101/167/76 98/166/75
f 101/167/76 100/170/79 97/168/77
f 102/59/28 104/169/78 101/167/76
f 104/169/78 103/173/82 100/170/79
f 102/59/28 105/57/26 107/171/80
f 104/169/78 107/171/80 106/172/81
f 108/55/24 110/174/83 107/171/80
f 110/174/83 109/176/85 106/172/81
f 111/53/22 113/175/84 110/174/83
f 113/175/84 112/178/87 109/176/85
f 114/51/20 116/180/89 113/175/84
f 113/175/84 116/180/89 115/177/86
f 114/51/20 117/49/18 119/179/88
f 116/180/89 119/179/88 118/181/90
f 120/47/16 122/182/92 119/179/88
f 122/182/91 121/184/94 118/181/90
f 123/45/14 125/183/93 122/182/92
f 125/183/93 124/186/96 121/184/94
f 126/40/9 128/185/95 125/183/93
f 128/185/95 127/187/97 124/186/96
f 126/40/9 82/39/8 83/156/65
f 128/185/95 83/156/65 81/158/67
f 1/188/98 4/1/1 84/3/3
f 137/223/100 143/271/140 159/224/101
f 158/226/103 142/232/141 137/227/100
f 137/227/104 142/232/142 149/229/105
f 138/231/107 144/272/143 149/229/108
f 149/229/108 144/272/143 136/233/110
f 149/229/105 145/234/144 135/235/112
f 147/236/113 154/266/125 158/226/114
f 155/238/116 161/261/135 150/239/117
f 159/224/101 143/271/140 135/244/122
f 160/246/123 144/257/132 138/247/124
f 160/246/123 151/253/128 146/249/119
f 147/251/113 134/273/137 140/252/127
f 140/252/127 132/274/120 146/249/119
f 141/254/129 156/225/102 159/224/101
f 160/246/123 157/250/126 136/256/131
f 133/258/133 141/254/129 152/255/130
f 152/255/130 148/265/118 131/260/121
f 161/261/135 155/238/116 135/235/122
f 136/233/131 157/275/126 161/261/138
f 161/261/138 157/275/126 146/241/119
f 159/224/101 155/245/116 148/265/118
f 153/237/115 158/226/103 156/228/102
f 138/231/124 142/232/145 158/226/114
f 147/251/113 151/253/128 160/246/123
