# Blender v3.4.1 OBJ File: 'restaurant.blend'
# www.blender.org
mtllib papertowel_Cylinder_910.mtl
o papertowel_Cylinder.910
v 0.000000 0.000000 0.000000
v 0.000000 0.150000 -0.158019
v 0.079010 0.150000 -0.136849
v 0.136849 0.150000 -0.079010
v 0.158019 0.150000 0.000000
v 0.136849 0.150000 0.079010
v 0.079010 0.150000 0.136849
v 0.000000 0.150000 0.158019
v -0.079010 0.150000 0.136849
v -0.136849 0.150000 0.079010
v -0.158019 0.150000 0.000000
v -0.136849 0.150000 -0.079010
v -0.079010 0.150000 -0.136849
v 0.046186 0.721602 -0.046186
v -0.016905 0.721602 -0.063091
v 0.063091 0.721602 0.016905
v 0.016905 0.721602 0.063091
v -0.046186 0.721602 0.046186
v -0.063091 0.721602 -0.016905
v 0.079010 0.800000 -0.136849
v 0.000000 0.800000 -0.158019
v 0.136849 0.800000 -0.079010
v 0.158019 0.800000 0.000000
v 0.136849 0.800000 0.079010
v 0.079010 0.800000 0.136849
v 0.000000 0.800000 0.158019
v -0.079010 0.800000 0.136849
v -0.136849 0.800000 0.079010
v -0.158019 0.800000 0.000000
v -0.136849 0.800000 -0.079010
v -0.079010 0.800000 -0.136849
v 0.043842 0.800000 -0.075937
v 0.000000 0.800000 -0.087684
v 0.075937 0.800000 -0.043842
v 0.087684 0.800000 0.000000
v 0.075937 0.800000 0.043842
v 0.043842 0.800000 0.075937
v 0.000000 0.800000 0.087684
v -0.043842 0.800000 0.075937
v -0.075937 0.800000 0.043842
v -0.087684 0.800000 0.000000
v -0.075937 0.800000 -0.043842
v -0.043842 0.800000 -0.075937
v 0.000000 0.913754 0.000000
v 0.046186 0.894582 -0.046186
v -0.016905 0.894582 -0.063091
v 0.063091 0.894582 0.016905
v 0.016905 0.894582 0.063091
v -0.046186 0.894582 0.046186
v -0.063091 0.894582 -0.016905
v -0.011943 0.913754 -0.044572
v 0.032629 0.913754 -0.032629
v 0.044572 0.913754 0.011943
v 0.011943 0.913754 0.044572
v -0.032629 0.913754 0.032629
v -0.044572 0.913754 -0.011943
v 0.109999 0.150000 -0.190525
v 0.125000 0.121021 -0.216506
v 0.000000 0.121021 -0.250000
v 0.000000 0.150000 -0.219999
v 0.190525 0.150000 -0.109999
v 0.216506 0.121021 -0.125000
v 0.219999 0.150000 0.000000
v 0.250000 0.121021 0.000000
v 0.190525 0.150000 0.109999
v 0.216506 0.121021 0.125000
v 0.109999 0.150000 0.190524
v 0.125000 0.121021 0.216506
v 0.000000 0.150000 0.219999
v 0.000000 0.121021 0.250000
v -0.109999 0.150000 0.190525
v -0.125000 0.121021 0.216506
v -0.190525 0.150000 0.109999
v -0.216506 0.121021 0.125000
v -0.219999 0.150000 0.000000
v -0.250000 0.121021 0.000000
v -0.190525 0.150000 -0.109999
v -0.216506 0.121021 -0.125000
v -0.109999 0.150000 -0.190524
v -0.125000 0.121021 -0.216506
v 0.000000 0.182636 0.175364
v 0.000000 0.767363 0.175364
v -0.087682 0.767363 0.151870
v -0.087682 0.182636 0.151870
v 0.175364 0.182636 0.000000
v 0.175364 0.767363 0.000000
v 0.151870 0.767363 0.087682
v 0.151870 0.182636 0.087682
v -0.151870 0.182636 -0.087682
v -0.151870 0.767363 -0.087682
v -0.087682 0.767363 -0.151870
v -0.087682 0.182636 -0.151870
v 0.000000 0.182636 -0.175364
v 0.000000 0.767363 -0.175364
v 0.087682 0.767363 -0.151870
v 0.087682 0.182636 -0.151870
v -0.151870 0.767363 0.087682
v -0.151870 0.182636 0.087682
v 0.087682 0.767363 0.151870
v 0.087682 0.182636 0.151870
v 0.151870 0.767363 -0.087682
v 0.151870 0.182636 -0.087682
v -0.175364 0.767363 0.000000
v -0.175364 0.182636 0.000000
v 0.000000 0.000000 -0.250000
v 0.125000 0.000000 -0.216506
v 0.216506 0.000000 -0.125000
v 0.250000 0.000000 0.000000
v 0.216506 -0.000000 0.125000
v 0.125000 -0.000000 0.216506
v 0.000000 -0.000000 0.250000
v -0.125000 -0.000000 0.216506
v -0.216506 -0.000000 0.125000
v -0.250000 0.000000 0.000000
v -0.216506 0.000000 -0.125000
v -0.125000 0.000000 -0.216506
vt 0.831429 0.841895
vt 0.846024 0.822594
vt 0.831429 0.822594
vt 0.833319 0.862142
vt 0.829037 0.862142
vt 0.824094 0.862142
vt 0.836696 0.862142
vt 0.841880 0.862142
vt 0.841880 0.862142
vt 0.846580 0.862142
vt 0.833319 0.862142
vt 0.829037 0.862142
vt 0.811493 0.862142
vt 0.824094 0.862142
vt 0.793949 0.862142
vt 0.811493 0.862142
vt 0.789668 0.862142
vt 0.798892 0.862142
vt 0.786291 0.862142
vt 0.781107 0.862142
vt 0.781107 0.862142
vt 0.776406 0.862142
vt 0.547509 0.913729
vt 0.561493 0.918934
vt 0.548892 0.918934
vt 0.789668 0.862142
vt 0.793949 0.862142
vt 0.811493 0.862142
vt 0.798892 0.862142
vt 0.811493 0.841895
vt 0.811493 0.822594
vt 0.791557 0.841895
vt 0.791557 0.822594
vt 0.851365 0.841895
vt 0.846024 0.822594
vt 0.851365 0.822594
vt 0.846024 0.841895
vt 0.831429 0.822594
vt 0.831429 0.841895
vt 0.811493 0.822594
vt 0.811493 0.841895
vt 0.791557 0.822594
vt 0.791557 0.841895
vt 0.776963 0.822594
vt 0.776963 0.841895
vt 0.771621 0.822594
vt 0.771621 0.841895
vt 0.776963 0.822594
vt 0.776963 0.841895
vt 0.846024 0.841895
vt 0.814189 0.890806
vt 0.804127 0.918394
vt 0.804127 0.890806
vt 0.585714 0.913729
vt 0.586696 0.918934
vt 0.583319 0.918934
vt 0.537272 0.913729
vt 0.548892 0.918934
vt 0.547509 0.913729
vt 0.575478 0.913729
vt 0.561493 0.918934
vt 0.574094 0.918934
vt 0.539668 0.918934
vt 0.537272 0.913729
vt 0.574094 0.918934
vt 0.575478 0.913729
vt 0.561493 0.913729
vt 0.583319 0.918934
vt 0.585714 0.913729
vt 0.536291 0.918934
vt 0.533525 0.913729
vt 0.561493 0.913729
vt 0.589462 0.913729
vt 0.539668 0.918934
vt 0.568486 0.934559
vt 0.561493 0.934559
vt 0.561493 0.934559
vt 0.573604 0.934559
vt 0.574094 0.934559
vt 0.586696 0.934559
vt 0.583319 0.934559
vt 0.573604 0.934559
vt 0.575478 0.934559
vt 0.568486 0.934559
vt 0.583319 0.934559
vt 0.561493 0.934559
vt 0.574094 0.934559
vt 0.554501 0.934559
vt 0.561493 0.934559
vt 0.549382 0.934559
vt 0.548892 0.934559
vt 0.536291 0.934559
vt 0.539668 0.934559
vt 0.549382 0.934559
vt 0.547508 0.934559
vt 0.554501 0.934559
vt 0.539668 0.934559
vt 0.548892 0.934559
vt 0.558797 0.859556
vt 0.568486 0.872059
vt 0.561493 0.872059
vt 0.568860 0.859556
vt 0.573604 0.872059
vt 0.571555 0.859556
vt 0.573604 0.872059
vt 0.575478 0.872059
vt 0.564189 0.859556
vt 0.561493 0.872059
vt 0.568486 0.872059
vt 0.554501 0.872059
vt 0.554127 0.859556
vt 0.549382 0.872059
vt 0.551431 0.859556
vt 0.549382 0.872059
vt 0.547508 0.872059
vt 0.554501 0.872059
vt 0.801431 0.890806
vt 0.808797 0.918394
vt 0.808797 0.890806
vt 0.821555 0.890806
vt 0.814189 0.918394
vt 0.801431 0.918394
vt 0.818860 0.890806
vt 0.821555 0.918394
vt 0.808797 0.949644
vt 0.816697 0.952702
vt 0.818860 0.949644
vt 0.821555 0.949644
vt 0.818602 0.952702
vt 0.813398 0.952702
vt 0.814189 0.949644
vt 0.806289 0.952702
vt 0.804127 0.949644
vt 0.801431 0.949644
vt 0.804384 0.952702
vt 0.809588 0.952702
vt 0.818860 0.918394
vt 0.811493 0.937077
vt 0.816697 0.937077
vt 0.809588 0.937077
vt 0.818602 0.937077
vt 0.813398 0.937077
vt 0.806289 0.937077
vt 0.804384 0.937077
vt 0.811493 0.873145
vt 0.829037 0.877767
vt 0.831429 0.873145
vt 0.841880 0.877767
vt 0.846024 0.873145
vt 0.851365 0.873145
vt 0.846580 0.877767
vt 0.841880 0.877767
vt 0.846024 0.873145
vt 0.829037 0.877767
vt 0.831429 0.873145
vt 0.811493 0.873145
vt 0.811493 0.877767
vt 0.793949 0.877767
vt 0.791557 0.873145
vt 0.781107 0.877767
vt 0.776963 0.873145
vt 0.771621 0.873145
vt 0.776406 0.877767
vt 0.781107 0.877767
vt 0.776963 0.873145
vt 0.793949 0.877767
vt 0.791557 0.873145
vt 0.811493 0.877767
vt 0.811493 0.862142
vt 0.536291 0.784017
vt 0.537272 0.789222
vt 0.539668 0.784017
vt 0.533525 0.820472
vt 0.537272 0.820472
vt 0.586696 0.784017
vt 0.585714 0.789222
vt 0.589462 0.789222
vt 0.585714 0.820472
vt 0.589462 0.820472
vt 0.561493 0.784017
vt 0.575478 0.789222
vt 0.561493 0.789222
vt 0.575478 0.820472
vt 0.561493 0.820472
vt 0.537272 0.789222
vt 0.533525 0.789222
vt 0.537272 0.820472
vt 0.574094 0.784017
vt 0.583319 0.784017
vt 0.575478 0.820472
vt 0.561493 0.784017
vt 0.547509 0.789222
vt 0.561493 0.789222
vt 0.547509 0.820472
vt 0.561493 0.820472
vt 0.583319 0.784017
vt 0.574094 0.784017
vt 0.585714 0.820472
vt 0.548892 0.784017
vt 0.539668 0.784017
vt 0.547509 0.820472
vt 0.575478 0.789222
vt 0.548892 0.784017
vt 0.585714 0.789222
vt 0.547509 0.789222
vt 0.811493 0.822594
vn 0.5000 0.0000 -0.8660
vn 0.8660 0.0000 -0.5000
vn 0.0000 1.0000 0.0000
vn -0.4862 0.2330 0.8422
vn 0.0000 0.4693 0.8830
vn -0.4415 0.4693 0.7647
vn 0.0000 0.0000 -1.0000
vn -0.5000 0.0000 -0.8660
vn 1.0000 -0.0000 -0.0000
vn 0.8660 -0.0000 0.5000
vn 0.5000 -0.0000 0.8660
vn 0.0000 -0.0000 1.0000
vn -0.5000 -0.0000 0.8660
vn -0.8660 -0.0000 0.5000
vn -1.0000 0.0000 0.0000
vn -0.8660 0.0000 -0.5000
vn -0.2588 -0.0000 0.9659
vn -0.6636 0.3453 0.6636
vn 0.8422 0.2330 0.4862
vn 0.8830 0.4693 0.0000
vn 0.7647 0.4693 0.4415
vn -0.8422 0.2330 -0.4862
vn -0.4415 0.4693 -0.7647
vn -0.4862 0.2330 -0.8422
vn 0.4862 0.2330 -0.8422
vn 0.0000 0.4693 -0.8830
vn 0.4415 0.4693 -0.7647
vn -0.7647 0.4693 0.4415
vn -0.8422 0.2330 0.4862
vn 0.4415 0.4693 0.7647
vn 0.4862 0.2330 0.8422
vn 0.0000 0.2330 -0.9725
vn 0.7647 0.4693 -0.4415
vn 0.8422 0.2330 -0.4862
vn -0.8830 0.4693 0.0000
vn -0.9725 0.2330 0.0000
vn -0.0000 0.2330 0.9725
vn 0.9725 0.2330 0.0000
vn -0.7647 0.4693 -0.4415
vn 0.2416 0.3582 0.9018
vn -0.4502 0.3050 0.8392
vn -0.0297 0.3050 0.9519
vn -0.6602 0.3582 0.6602
vn -0.8392 0.3050 0.4502
vn -0.9018 0.3582 -0.2416
vn -0.8095 0.3050 -0.5016
vn -0.9519 0.3050 0.0297
vn -0.2416 0.3582 -0.9018
vn 0.0297 0.3050 -0.9519
vn -0.5016 0.3050 -0.8095
vn 0.4502 0.3050 -0.8392
vn 0.6602 0.3582 -0.6602
vn 0.8392 0.3050 -0.4502
vn 0.9018 0.3582 0.2416
vn 0.8095 0.3050 0.5016
vn 0.9519 0.3050 -0.0297
vn 0.5016 0.3050 0.8095
vn -0.7071 0.0000 -0.7071
vn -0.2429 0.3453 -0.9065
vn 0.7071 -0.0000 0.7071
vn 0.2429 0.3453 0.9065
vn -0.9659 -0.0000 0.2588
vn -0.9065 0.3453 -0.2429
vn 0.9659 0.0000 -0.2588
vn 0.9065 0.3453 0.2429
vn 0.5000 0.7071 -0.5000
vn 0.6636 0.3453 -0.6636
vn 0.6830 0.7071 0.1830
vn 0.1830 0.7071 0.6830
vn -0.5000 0.7071 0.5000
vn -0.6830 0.7071 -0.1830
vn -0.1830 0.7071 -0.6830
vn 0.2588 0.0000 -0.9659
vn -0.0000 0.7193 -0.6947
vn 0.3474 0.7192 -0.6017
vn 0.6017 0.7192 -0.3474
vn 0.6948 0.7193 0.0000
vn 0.6017 0.7192 0.3474
vn 0.3474 0.7193 0.6017
vn 0.0000 0.7193 0.6947
vn -0.3474 0.7192 0.6017
vn -0.6017 0.7192 0.3474
vn -0.6948 0.7193 0.0000
vn -0.6017 0.7192 -0.3474
vn -0.3474 0.7193 -0.6017
vn -0.8830 -0.4693 -0.0000
vn -0.8422 -0.2330 -0.4862
vn -0.7647 -0.4693 -0.4415
vn -0.9725 -0.2330 0.0000
vn 0.8830 -0.4693 -0.0000
vn 0.8422 -0.2330 -0.4862
vn 0.9725 -0.2330 0.0000
vn 0.0000 -0.4693 0.8830
vn 0.4862 -0.2330 0.8422
vn 0.0000 -0.2330 0.9725
vn -0.8422 -0.2330 0.4862
vn 0.4415 -0.4693 -0.7647
vn 0.7647 -0.4693 -0.4415
vn 0.4862 -0.2330 -0.8422
vn 0.0000 -0.4693 -0.8830
vn -0.4862 -0.2330 -0.8422
vn -0.0000 -0.2330 -0.9725
vn 0.7647 -0.4693 0.4415
vn 0.4415 -0.4693 0.7647
vn 0.8422 -0.2330 0.4862
vn -0.4415 -0.4693 0.7647
vn -0.7647 -0.4693 0.4415
vn -0.4862 -0.2330 0.8422
vn -0.4415 -0.4693 -0.7647
vn 0.0000 -1.0000 -0.0000
usemtl restaurant.084
s 1
f 58/1/1 107/2/2 106/3/1
f 4/4/3 57/5/3 3/6/3
f 5/7/3 61/8/3 4/4/3
f 5/7/3 65/9/3 63/10/3
f 6/11/3 67/12/3 65/9/3
f 8/13/3 67/12/3 7/14/3
f 8/13/3 71/15/3 69/16/3
f 10/17/3 71/15/3 9/18/3
f 11/19/3 73/20/3 10/17/3
f 11/19/3 77/21/3 75/22/3
f 83/23/4 26/24/5 27/25/6
f 12/26/3 79/27/3 77/21/3
f 2/28/3 79/27/3 13/29/3
f 59/30/7 106/3/1 105/31/7
f 80/32/8 105/31/7 116/33/8
f 64/34/9 109/35/10 108/36/9
f 66/37/10 110/38/11 109/35/10
f 68/39/11 111/40/12 110/38/11
f 70/41/12 112/42/13 111/40/12
f 72/43/13 113/44/14 112/42/13
f 74/45/14 114/46/15 113/44/14
f 76/47/15 115/48/16 114/46/15
f 78/49/16 116/33/8 115/48/16
f 62/50/2 108/36/9 107/2/2
f 17/51/17 49/52/18 18/53/17
f 87/54/19 23/55/20 24/56/21
f 90/57/22 31/58/23 91/59/24
f 95/60/25 21/61/26 20/62/27
f 83/23/4 28/63/28 97/64/29
f 87/54/19 25/65/30 99/66/31
f 91/59/24 21/61/26 94/67/32
f 95/60/25 22/68/33 101/69/34
f 97/64/29 29/70/35 103/71/36
f 99/66/31 26/24/5 82/72/37
f 101/69/34 23/55/20 86/73/38
f 90/57/22 29/70/35 30/74/39
f 32/75/3 21/76/3 33/77/3
f 34/78/3 20/79/3 32/75/3
f 34/78/3 23/80/3 22/81/3
f 36/82/3 23/80/3 35/83/3
f 37/84/3 24/85/3 36/82/3
f 37/84/3 26/86/3 25/87/3
f 39/88/3 26/86/3 38/89/3
f 40/90/3 27/91/3 39/88/3
f 40/90/3 29/92/3 28/93/3
f 42/94/3 29/92/3 41/95/3
f 43/96/3 30/97/3 42/94/3
f 43/96/3 21/76/3 31/98/3
f 15/99/40 32/100/41 33/101/42
f 14/102/43 34/103/44 32/100/41
f 16/104/45 34/103/44 14/102/43
f 16/104/45 36/105/46 35/106/47
f 17/107/48 36/105/46 16/104/45
f 17/107/48 38/108/49 37/109/50
f 17/107/48 39/110/51 38/108/49
f 18/111/52 40/112/53 39/110/51
f 19/113/54 40/112/53 18/111/52
f 19/113/54 42/114/55 41/115/56
f 15/99/40 42/114/55 19/113/54
f 15/99/40 33/101/42 43/116/57
f 19/117/58 46/118/59 15/119/58
f 16/120/60 48/121/61 17/51/60
f 18/53/62 50/122/63 19/117/62
f 14/123/64 47/124/65 16/120/64
f 46/125/59 52/126/66 45/127/67
f 47/128/65 52/126/66 53/129/68
f 47/128/65 54/130/69 48/131/61
f 48/131/61 55/132/70 49/133/18
f 50/134/63 55/132/70 56/135/71
f 50/134/63 51/136/72 46/125/59
f 15/119/73 45/137/67 14/123/73
f 44/138/3 52/139/3 51/140/3
f 44/138/3 53/141/3 52/139/3
f 44/138/3 54/142/3 53/141/3
f 44/138/3 55/143/3 54/142/3
f 44/138/3 56/144/3 55/143/3
f 44/138/3 51/140/3 56/144/3
f 59/145/74 57/146/75 58/147/75
f 58/147/75 61/148/76 62/149/76
f 64/150/77 61/148/76 63/151/77
f 64/150/77 65/152/78 66/153/78
f 66/153/78 67/154/79 68/155/79
f 70/156/80 67/154/79 69/157/80
f 70/156/80 71/158/81 72/159/81
f 72/159/81 73/160/82 74/161/82
f 76/162/83 73/160/82 75/163/83
f 76/162/83 77/164/84 78/165/84
f 78/165/84 79/166/85 80/167/85
f 59/145/74 79/166/85 60/168/74
f 2/28/3 57/5/3 60/169/3
f 11/170/86 89/171/87 12/172/88
f 104/173/89 90/57/22 89/174/87
f 5/175/90 102/176/91 85/177/92
f 102/178/91 86/73/38 85/179/92
f 8/180/93 100/181/94 81/182/95
f 100/183/94 82/72/37 81/184/95
f 11/170/86 98/185/96 104/186/89
f 98/187/96 103/71/36 104/173/89
f 3/188/97 102/176/91 4/189/98
f 96/190/99 101/69/34 102/178/91
f 2/191/100 92/192/101 93/193/102
f 92/194/101 94/67/32 93/195/102
f 6/196/103 100/181/94 7/197/104
f 88/198/105 99/66/31 100/183/94
f 9/199/106 98/185/96 10/200/107
f 84/201/108 97/64/29 98/187/96
f 2/191/100 96/202/99 3/188/97
f 93/195/102 95/60/25 96/190/99
f 12/172/88 92/192/101 13/203/109
f 89/174/87 91/59/24 92/194/101
f 5/175/90 88/204/105 6/196/103
f 85/179/92 87/54/19 88/198/105
f 8/180/93 84/205/108 9/199/106
f 81/184/95 83/23/4 84/201/108
f 1/206/110 105/31/110 106/3/110
f 1/206/110 106/3/110 107/2/110
f 1/206/110 107/2/110 108/36/110
f 1/206/110 108/36/110 109/35/110
f 1/206/110 109/35/110 110/38/110
f 1/206/110 110/38/110 111/40/110
f 1/206/110 111/40/110 112/42/110
f 1/206/110 112/42/110 113/44/110
f 1/206/110 113/44/110 114/46/110
f 1/206/110 114/46/110 115/48/110
f 1/206/110 115/48/110 116/33/110
f 1/206/110 116/33/110 105/31/110
f 58/1/1 62/50/2 107/2/2
f 4/4/3 61/8/3 57/5/3
f 5/7/3 63/10/3 61/8/3
f 5/7/3 6/11/3 65/9/3
f 6/11/3 7/14/3 67/12/3
f 8/13/3 69/16/3 67/12/3
f 8/13/3 9/18/3 71/15/3
f 10/17/3 73/20/3 71/15/3
f 11/19/3 75/22/3 73/20/3
f 11/19/3 12/26/3 77/21/3
f 83/23/4 82/72/37 26/24/5
f 12/26/3 13/29/3 79/27/3
f 2/28/3 60/169/3 79/27/3
f 59/30/7 58/1/1 106/3/1
f 80/32/8 59/30/7 105/31/7
f 64/34/9 66/37/10 109/35/10
f 66/37/10 68/39/11 110/38/11
f 68/39/11 70/41/12 111/40/12
f 70/41/12 72/43/13 112/42/13
f 72/43/13 74/45/14 113/44/14
f 74/45/14 76/47/15 114/46/15
f 76/47/15 78/49/16 115/48/16
f 78/49/16 80/32/8 116/33/8
f 62/50/2 64/34/9 108/36/9
f 17/51/17 48/121/61 49/52/18
f 87/54/19 86/73/38 23/55/20
f 90/57/22 30/74/39 31/58/23
f 95/60/25 94/67/32 21/61/26
f 83/23/4 27/25/6 28/63/28
f 87/54/19 24/56/21 25/65/30
f 91/59/24 31/58/23 21/61/26
f 95/60/25 20/62/27 22/68/33
f 97/64/29 28/63/28 29/70/35
f 99/66/31 25/65/30 26/24/5
f 101/69/34 22/68/33 23/55/20
f 90/57/22 103/71/36 29/70/35
f 32/75/3 20/79/3 21/76/3
f 34/78/3 22/81/3 20/79/3
f 34/78/3 35/83/3 23/80/3
f 36/82/3 24/85/3 23/80/3
f 37/84/3 25/87/3 24/85/3
f 37/84/3 38/89/3 26/86/3
f 39/88/3 27/91/3 26/86/3
f 40/90/3 28/93/3 27/91/3
f 40/90/3 41/95/3 29/92/3
f 42/94/3 30/97/3 29/92/3
f 43/96/3 31/98/3 30/97/3
f 43/96/3 33/77/3 21/76/3
f 15/99/40 14/102/43 32/100/41
f 16/104/45 35/106/47 34/103/44
f 17/107/48 37/109/50 36/105/46
f 17/107/48 18/111/52 39/110/51
f 19/113/54 41/115/56 40/112/53
f 15/99/40 43/116/57 42/114/55
f 19/117/58 50/122/63 46/118/59
f 16/120/60 47/124/65 48/121/61
f 18/53/62 49/52/18 50/122/63
f 14/123/64 45/137/67 47/124/65
f 46/125/59 51/136/72 52/126/66
f 47/128/65 45/127/67 52/126/66
f 47/128/65 53/129/68 54/130/69
f 48/131/61 54/130/69 55/132/70
f 50/134/63 49/133/18 55/132/70
f 50/134/63 56/135/71 51/136/72
f 15/119/73 46/118/59 45/137/67
f 59/145/74 60/168/74 57/146/75
f 58/147/75 57/146/75 61/148/76
f 64/150/77 62/149/76 61/148/76
f 64/150/77 63/151/77 65/152/78
f 66/153/78 65/152/78 67/154/79
f 70/156/80 68/155/79 67/154/79
f 70/156/80 69/157/80 71/158/81
f 72/159/81 71/158/81 73/160/82
f 76/162/83 74/161/82 73/160/82
f 76/162/83 75/163/83 77/164/84
f 78/165/84 77/164/84 79/166/85
f 59/145/74 80/167/85 79/166/85
f 2/28/3 3/6/3 57/5/3
f 11/170/86 104/186/89 89/171/87
f 104/173/89 103/71/36 90/57/22
f 5/175/90 4/189/98 102/176/91
f 102/178/91 101/69/34 86/73/38
f 8/180/93 7/197/104 100/181/94
f 100/183/94 99/66/31 82/72/37
f 11/170/86 10/200/107 98/185/96
f 98/187/96 97/64/29 103/71/36
f 3/188/97 96/202/99 102/176/91
f 96/190/99 95/60/25 101/69/34
f 2/191/100 13/203/109 92/192/101
f 92/194/101 91/59/24 94/67/32
f 6/196/103 88/204/105 100/181/94
f 88/198/105 87/54/19 99/66/31
f 9/199/106 84/205/108 98/185/96
f 84/201/108 83/23/4 97/64/29
f 2/191/100 93/193/102 96/202/99
f 93/195/102 94/67/32 95/60/25
f 12/172/88 89/171/87 92/192/101
f 89/174/87 90/57/22 91/59/24
f 5/175/90 85/177/92 88/204/105
f 85/179/92 86/73/38 87/54/19
f 8/180/93 81/182/95 84/205/108
f 81/184/95 82/72/37 83/23/4
