# Blender v3.4.1 OBJ File: 'restaurant.blend'
# www.blender.org
mtllib pillar_B_Cube_150.mtl
o pillar_B_Cube.150
v 0.500000 4.000000 -0.499999
v 0.400000 4.100000 -0.399999
v 0.500000 4.000000 0.500001
v 0.400000 4.100000 0.400001
v -0.500000 4.000000 -0.499999
v -0.400000 4.100000 -0.399999
v -0.400000 4.100000 0.400001
v -0.500000 4.000000 0.500001
v 0.400000 2.000000 0.400000
v 0.500000 2.100000 0.500000
v 0.500000 1.900000 0.500000
v 0.400000 2.000000 -0.400000
v 0.500000 2.100000 -0.500000
v 0.500000 1.900000 -0.500000
v -0.400000 2.000000 -0.400000
v -0.500000 2.100000 -0.500000
v -0.500000 1.900000 -0.500000
v -0.400000 2.000000 0.400000
v -0.500000 1.900000 0.500000
v -0.500000 2.100000 0.500000
v 0.500000 0.000000 -0.500000
v 0.500000 -0.000000 0.500000
v -0.500000 0.000000 -0.500000
v -0.500000 -0.000000 0.500000
vt 0.553467 0.626892
vt 0.553467 0.588105
vt 0.553467 0.588105
vt 0.555508 0.660183
vt 0.573881 0.658142
vt 0.571839 0.660183
vt 0.573881 0.658142
vt 0.571839 0.660183
vt 0.553467 0.658142
vt 0.555508 0.660183
vt 0.553467 0.658142
vt 0.553467 0.626892
vt 0.573881 0.588105
vt 0.305508 0.664189
vt 0.303467 0.662148
vt 0.305508 0.664189
vt 0.553467 0.556855
vt 0.555508 0.554814
vt 0.553467 0.556855
vt 0.321839 0.664189
vt 0.303467 0.662148
vt 0.573881 0.556855
vt 0.555508 0.554814
vt 0.321839 0.664189
vt 0.323881 0.662148
vt 0.573881 0.556855
vt 0.571839 0.554814
vt 0.323881 0.662148
vt 0.571839 0.554814
vt 0.573881 0.626892
vt 0.573881 0.588105
vt 0.303467 0.630898
vt 0.323881 0.592111
vt 0.303467 0.592111
vt 0.573881 0.626892
vt 0.323881 0.560861
vt 0.303467 0.560861
vt 0.303467 0.560861
vt 0.303467 0.630898
vt 0.303467 0.592111
vt 0.323881 0.630898
vt 0.323881 0.592111
vt 0.323881 0.630898
vt 0.323881 0.560861
vn -1.0000 0.0000 0.0000
vn 0.0000 0.7071 0.7071
vn 0.7071 0.7071 0.0000
vn 0.0000 0.7071 -0.7071
vn -0.7071 0.7071 0.0000
vn 0.0000 0.0000 -1.0000
vn -0.7071 -0.7071 0.0000
vn 0.0000 -0.7071 -0.7071
vn 0.7071 -0.7071 0.0000
vn 0.0000 -0.7071 0.7071
vn 0.0000 1.0000 0.0000
vn 1.0000 0.0000 0.0000
vn 0.0000 -0.0000 1.0000
vn 0.0000 -1.0000 -0.0000
usemtl restaurant.147
s 1
f 8/1/1 16/2/1 20/3/1
f 7/4/2 3/5/2 4/6/2
f 4/6/3 1/7/3 2/8/3
f 2/8/4 5/9/4 6/10/4
f 6/10/5 8/11/5 7/4/5
f 5/12/6 13/13/6 16/2/6
f 15/14/5 19/15/5 18/16/5
f 16/17/7 18/18/7 20/19/7
f 12/20/4 17/21/4 15/14/4
f 13/22/8 15/23/8 16/17/8
f 9/24/3 14/25/3 12/20/3
f 10/26/9 12/27/9 13/22/9
f 18/16/2 11/28/2 9/24/2
f 20/19/10 9/29/10 10/26/10
f 6/10/11 4/6/11 2/8/11
f 1/30/12 10/31/12 13/13/12
f 17/32/6 21/33/6 23/34/6
f 3/35/13 20/3/13 10/31/13
f 21/36/14 24/37/14 23/38/14
f 19/39/1 23/34/1 24/40/1
f 14/41/12 22/42/12 21/33/12
f 11/43/13 24/40/13 22/42/13
f 8/1/1 5/12/1 16/2/1
f 7/4/2 8/11/2 3/5/2
f 4/6/3 3/5/3 1/7/3
f 2/8/4 1/7/4 5/9/4
f 6/10/5 5/9/5 8/11/5
f 5/12/6 1/30/6 13/13/6
f 15/14/5 17/21/5 19/15/5
f 16/17/7 15/23/7 18/18/7
f 12/20/4 14/25/4 17/21/4
f 13/22/8 12/27/8 15/23/8
f 9/24/3 11/28/3 14/25/3
f 10/26/9 9/29/9 12/27/9
f 18/16/2 19/15/2 11/28/2
f 20/19/10 18/18/10 9/29/10
f 6/10/11 7/4/11 4/6/11
f 1/30/12 3/35/12 10/31/12
f 17/32/6 14/41/6 21/33/6
f 3/35/13 8/1/13 20/3/13
f 21/36/14 22/44/14 24/37/14
f 19/39/1 17/32/1 23/34/1
f 14/41/12 11/43/12 22/42/12
f 11/43/13 19/39/13 24/40/13
