# Blender v3.4.1 OBJ File: 'restaurant.blend'
# www.blender.org
mtllib plate_small_Cylinder_567.mtl
o plate_small_Cylinder.567
v -0.201314 0.100000 -0.201314
v -0.073686 0.100000 -0.275000
v 0.073686 0.100000 -0.275000
v 0.201314 0.100000 -0.201314
v 0.275000 0.100000 -0.073686
v 0.275000 0.100000 0.073686
v 0.201314 0.100000 0.201314
v 0.073686 0.100000 0.275000
v -0.073686 0.100000 0.275000
v -0.201314 0.100000 0.201314
v -0.275000 0.100000 0.073686
v -0.275000 0.100000 -0.073686
v -0.100481 0.100000 -0.375000
v -0.274519 0.100000 -0.274519
v 0.100481 0.100000 -0.375000
v 0.274519 0.100000 -0.274519
v 0.375000 0.100000 -0.100481
v 0.375000 0.100000 0.100481
v 0.274519 0.100000 0.274519
v 0.100481 0.100000 0.375000
v -0.100481 0.100000 0.375000
v -0.274519 0.100000 0.274519
v -0.375000 0.100000 0.100481
v -0.375000 0.100000 -0.100481
v 0.000000 0.030000 0.000000
v 0.000000 0.000000 0.000000
v -0.274519 0.050000 -0.274519
v -0.100481 0.050000 -0.375000
v 0.100481 0.050000 -0.375000
v 0.274519 0.050000 -0.274519
v 0.375000 0.050000 -0.100481
v 0.375000 0.050000 0.100481
v 0.274519 0.050000 0.274519
v 0.100481 0.050000 0.375000
v -0.100481 0.050000 0.375000
v -0.274519 0.050000 0.274519
v -0.375000 0.050000 0.100481
v -0.375000 0.050000 -0.100481
v -0.053590 0.030000 -0.200000
v -0.146410 0.030000 -0.146410
v 0.053590 0.030000 -0.200000
v 0.146410 0.030000 -0.146410
v 0.200000 0.030000 -0.053590
v 0.200000 0.030000 0.053590
v 0.146410 0.030000 0.146410
v 0.053590 0.030000 0.200000
v -0.053590 0.030000 0.200000
v -0.146410 0.030000 0.146410
v -0.200000 0.030000 0.053590
v -0.200000 0.030000 -0.053590
v -0.087083 0.000000 -0.325000
v -0.237916 0.000000 -0.237917
v 0.087084 0.000000 -0.325000
v 0.237916 0.000000 -0.237917
v 0.325000 0.000000 -0.087084
v 0.325000 -0.000000 0.087084
v 0.237916 -0.000000 0.237917
v 0.087083 -0.000000 0.325000
v -0.087084 -0.000000 0.325000
v -0.237916 -0.000000 0.237917
v -0.325000 -0.000000 0.087084
v -0.325000 0.000000 -0.087083
vt 0.522082 0.886136
vt 0.529297 0.870000
vt 0.522082 0.870000
vt 0.556224 0.886136
vt 0.568721 0.870000
vt 0.556224 0.870000
vt 0.568721 0.886136
vt 0.575936 0.870000
vt 0.575936 0.886136
vt 0.575936 0.870000
vt 0.575936 0.886136
vt 0.568721 0.870000
vt 0.568721 0.886136
vt 0.556224 0.870000
vt 0.556224 0.886136
vt 0.541794 0.870000
vt 0.541794 0.886136
vt 0.529297 0.870000
vt 0.529297 0.886136
vt 0.522082 0.870000
vt 0.522082 0.886136
vt 0.552857 0.863545
vt 0.563464 0.886136
vt 0.559522 0.863545
vt 0.541794 0.886136
vt 0.541794 0.870000
vt 0.529297 0.886136
vt 0.543718 0.916570
vt 0.529297 0.916570
vt 0.534554 0.916570
vt 0.554300 0.916570
vt 0.541794 0.916570
vt 0.563464 0.916570
vt 0.556224 0.916570
vt 0.568755 0.916570
vt 0.568721 0.916570
vt 0.568755 0.916570
vt 0.575936 0.916570
vt 0.563464 0.916570
vt 0.575936 0.916570
vt 0.554300 0.916570
vt 0.568721 0.916570
vt 0.543718 0.916570
vt 0.556224 0.916570
vt 0.534554 0.916570
vt 0.541794 0.916570
vt 0.529262 0.916570
vt 0.529297 0.916570
vt 0.529262 0.916570
vt 0.522082 0.916570
vt 0.522082 0.916570
vt 0.563370 0.863545
vt 0.563464 0.886136
vt 0.559522 0.863545
vt 0.534648 0.863545
vt 0.529262 0.886136
vt 0.534648 0.863545
vt 0.545161 0.863545
vt 0.554300 0.886136
vt 0.563370 0.863545
vt 0.568755 0.886136
vt 0.534554 0.886136
vt 0.529262 0.886136
vt 0.552857 0.863545
vt 0.543718 0.886136
vt 0.545161 0.863545
vt 0.534554 0.886136
vt 0.543718 0.886136
vt 0.568755 0.886136
vt 0.554300 0.886136
vt 0.538496 0.863545
vt 0.538496 0.863545
vt 0.541794 0.846970
vt 0.531925 0.830833
vt 0.529297 0.846970
vt 0.556224 0.846970
vt 0.542756 0.830833
vt 0.566093 0.830833
vt 0.555262 0.830833
vt 0.568721 0.846970
vt 0.572346 0.830833
vt 0.575936 0.846970
vt 0.575936 0.846970
vt 0.568721 0.846970
vt 0.572346 0.830833
vt 0.556224 0.846970
vt 0.566093 0.830833
vt 0.541794 0.846970
vt 0.555262 0.830833
vt 0.531925 0.830833
vt 0.542756 0.830833
vt 0.529297 0.846970
vt 0.525672 0.830833
vt 0.522082 0.846970
vt 0.525672 0.830833
vt 0.522082 0.846970
vt 0.549009 0.886574
vt 0.545161 0.886574
vt 0.538496 0.886574
vt 0.552857 0.886574
vt 0.559522 0.886574
vt 0.563370 0.886574
vt 0.563370 0.886574
vt 0.559522 0.886574
vt 0.552857 0.886574
vt 0.545161 0.886574
vt 0.538496 0.886574
vt 0.534648 0.886574
vt 0.534648 0.886574
vt 0.549009 0.807804
vt 0.531925 0.807804
vt 0.542756 0.807804
vt 0.555262 0.807804
vt 0.566093 0.807804
vt 0.572346 0.807804
vt 0.572346 0.807804
vt 0.566093 0.807804
vt 0.555262 0.807804
vt 0.542756 0.807804
vt 0.531925 0.807804
vt 0.525672 0.807804
vt 0.525672 0.807804
vn -0.9659 -0.0000 -0.2588
vn -0.6571 -0.3692 -0.6571
vn -0.8977 -0.3692 -0.2405
vn 0.2588 0.0000 -0.9659
vn 0.6571 -0.3692 -0.6571
vn 0.2405 -0.3692 -0.8977
vn 0.7071 0.0000 -0.7071
vn 0.8977 -0.3692 -0.2405
vn 0.9659 -0.0000 -0.2588
vn 0.9659 0.0000 0.2588
vn 0.7071 -0.0000 0.7071
vn 0.2588 -0.0000 0.9659
vn -0.2405 -0.3692 0.8977
vn -0.2588 -0.0000 0.9659
vn -0.6571 -0.3692 0.6571
vn -0.7071 -0.0000 0.7071
vn -0.8977 -0.3692 0.2405
vn -0.9659 0.0000 0.2588
vn -0.1733 0.7427 -0.6468
vn -0.4735 0.7427 -0.4735
vn -0.2588 0.0000 -0.9659
vn -0.2405 -0.3692 -0.8977
vn -0.7071 0.0000 -0.7071
vn 0.0000 1.0000 0.0000
vn -0.6468 0.7427 0.1733
vn -0.4735 0.7427 0.4735
vn 0.6468 0.7427 0.1733
vn 0.6468 0.7427 -0.1733
vn 0.1733 0.7427 -0.6468
vn -0.6468 0.7427 -0.1733
vn 0.4735 0.7427 0.4735
vn -0.1733 0.7427 0.6468
vn 0.1733 0.7427 0.6468
vn 0.4735 0.7427 -0.4735
vn -0.4913 -0.7193 -0.4913
vn -0.1798 -0.7193 -0.6711
vn 0.4913 -0.7193 -0.4913
vn 0.1798 -0.7193 -0.6711
vn 0.6711 -0.7193 -0.1798
vn 0.6711 -0.7193 0.1798
vn 0.4913 -0.7193 0.4913
vn 0.1798 -0.7193 0.6711
vn -0.4913 -0.7193 0.4913
vn -0.1798 -0.7193 0.6711
vn -0.6711 -0.7193 0.1798
vn -0.6711 -0.7193 -0.1798
vn -0.0000 -1.0000 -0.0000
usemtl restaurant.134
s 1
f 24/1/1 27/2/2 38/3/3
f 15/4/4 30/5/5 29/6/6
f 16/7/7 31/8/8 30/5/5
f 17/9/9 32/10/10 31/8/8
f 18/11/10 33/12/11 32/10/10
f 19/13/11 34/14/12 33/12/11
f 20/15/12 35/16/13 34/14/12
f 21/17/14 36/18/15 35/16/13
f 22/19/16 37/20/17 36/18/15
f 23/21/18 38/3/3 37/20/17
f 46/22/19 7/23/20 45/24/20
f 13/25/21 29/6/6 28/26/22
f 14/27/23 28/26/22 27/2/2
f 2/28/24 14/29/24 1/30/24
f 3/31/24 13/32/24 2/28/24
f 4/33/24 15/34/24 3/31/24
f 5/35/24 16/36/24 4/33/24
f 6/37/24 17/38/24 5/35/24
f 7/39/24 18/40/24 6/37/24
f 8/41/24 19/42/24 7/39/24
f 9/43/24 20/44/24 8/41/24
f 10/45/24 21/46/24 9/43/24
f 11/47/24 22/48/24 10/45/24
f 12/49/24 23/50/24 11/47/24
f 1/30/24 24/51/24 12/49/24
f 43/52/25 4/53/26 42/54/26
f 50/55/27 11/56/28 49/57/28
f 47/58/29 8/59/19 46/22/19
f 44/60/30 5/61/25 43/52/25
f 50/55/27 1/62/31 12/63/27
f 41/64/32 2/65/33 39/66/33
f 47/58/29 10/67/34 9/68/29
f 44/60/30 7/23/20 6/69/30
f 41/64/32 4/53/26 3/70/32
f 49/57/28 10/67/34 48/71/34
f 39/66/33 1/62/31 40/72/31
f 28/73/22 52/74/35 27/75/2
f 29/76/6 51/77/36 28/73/22
f 29/76/6 54/78/37 53/79/38
f 30/80/5 55/81/39 54/78/37
f 32/82/40 55/81/39 31/83/8
f 33/84/41 56/85/40 32/82/40
f 34/86/42 57/87/41 33/84/41
f 35/88/13 58/89/42 34/86/42
f 35/88/13 60/90/43 59/91/44
f 36/92/15 61/93/45 60/90/43
f 37/94/17 62/95/46 61/93/45
f 27/75/2 62/95/46 38/96/3
f 25/97/24 39/98/24 40/99/24
f 25/97/24 41/100/24 39/98/24
f 25/97/24 42/101/24 41/100/24
f 25/97/24 43/102/24 42/101/24
f 25/97/24 44/103/24 43/102/24
f 25/97/24 45/104/24 44/103/24
f 25/97/24 46/105/24 45/104/24
f 25/97/24 47/106/24 46/105/24
f 25/97/24 48/107/24 47/106/24
f 25/97/24 49/108/24 48/107/24
f 25/97/24 50/109/24 49/108/24
f 25/97/24 40/99/24 50/109/24
f 26/110/47 52/111/47 51/112/47
f 26/110/47 51/112/47 53/113/47
f 26/110/47 53/113/47 54/114/47
f 26/110/47 54/114/47 55/115/47
f 26/110/47 55/115/47 56/116/47
f 26/110/47 56/116/47 57/117/47
f 26/110/47 57/117/47 58/118/47
f 26/110/47 58/118/47 59/119/47
f 26/110/47 59/119/47 60/120/47
f 26/110/47 60/120/47 61/121/47
f 26/110/47 61/121/47 62/122/47
f 26/110/47 62/122/47 52/111/47
f 24/1/1 14/27/23 27/2/2
f 15/4/4 16/7/7 30/5/5
f 16/7/7 17/9/9 31/8/8
f 17/9/9 18/11/10 32/10/10
f 18/11/10 19/13/11 33/12/11
f 19/13/11 20/15/12 34/14/12
f 20/15/12 21/17/14 35/16/13
f 21/17/14 22/19/16 36/18/15
f 22/19/16 23/21/18 37/20/17
f 23/21/18 24/1/1 38/3/3
f 46/22/19 8/59/19 7/23/20
f 13/25/21 15/4/4 29/6/6
f 14/27/23 13/25/21 28/26/22
f 2/28/24 13/32/24 14/29/24
f 3/31/24 15/34/24 13/32/24
f 4/33/24 16/36/24 15/34/24
f 5/35/24 17/38/24 16/36/24
f 6/37/24 18/40/24 17/38/24
f 7/39/24 19/42/24 18/40/24
f 8/41/24 20/44/24 19/42/24
f 9/43/24 21/46/24 20/44/24
f 10/45/24 22/48/24 21/46/24
f 11/47/24 23/50/24 22/48/24
f 12/49/24 24/51/24 23/50/24
f 1/30/24 14/29/24 24/51/24
f 43/52/25 5/61/25 4/53/26
f 50/55/27 12/63/27 11/56/28
f 47/58/29 9/68/29 8/59/19
f 44/60/30 6/69/30 5/61/25
f 50/55/27 40/72/31 1/62/31
f 41/64/32 3/70/32 2/65/33
f 47/58/29 48/71/34 10/67/34
f 44/60/30 45/24/20 7/23/20
f 41/64/32 42/54/26 4/53/26
f 49/57/28 11/56/28 10/67/34
f 39/66/33 2/65/33 1/62/31
f 28/73/22 51/77/36 52/74/35
f 29/76/6 53/79/38 51/77/36
f 29/76/6 30/80/5 54/78/37
f 30/80/5 31/83/8 55/81/39
f 32/82/40 56/85/40 55/81/39
f 33/84/41 57/87/41 56/85/40
f 34/86/42 58/89/42 57/87/41
f 35/88/13 59/91/44 58/89/42
f 35/88/13 36/92/15 60/90/43
f 36/92/15 37/94/17 61/93/45
f 37/94/17 38/96/3 62/95/46
f 27/75/2 52/74/35 62/95/46
