# Blender v3.4.1 OBJ File: 'restaurant.blend'
# www.blender.org
mtllib plate_dirty_Cylinder_572.mtl
o plate_dirty_Cylinder.572
v -0.074592 0.100000 -0.375000
v 0.074592 0.100000 -0.375000
v 0.212420 0.100000 -0.317910
v 0.317910 0.100000 -0.212420
v 0.375000 0.100000 -0.074592
v 0.375000 0.100000 0.074592
v 0.317910 0.100000 0.212420
v 0.212420 0.100000 0.317910
v 0.074592 0.100000 0.375000
v -0.074592 0.100000 0.375000
v -0.212420 0.100000 0.317910
v -0.317910 0.100000 0.212420
v -0.375000 0.100000 0.074592
v -0.375000 0.100000 -0.074592
v -0.317910 0.100000 -0.212420
v -0.212420 0.100000 -0.317910
v 0.094483 0.100000 -0.475000
v -0.094483 0.100000 -0.475000
v 0.269066 0.100000 -0.402686
v 0.402686 0.100000 -0.269066
v 0.475000 0.100000 -0.094483
v 0.475000 0.100000 0.094483
v 0.402686 0.100000 0.269066
v 0.269066 0.100000 0.402686
v 0.094483 0.100000 0.475000
v -0.094483 0.100000 0.475000
v -0.269066 0.100000 0.402686
v -0.402686 0.100000 0.269066
v -0.475000 0.100000 0.094483
v -0.475000 0.100000 -0.094483
v -0.402686 0.100000 -0.269066
v -0.269066 0.100000 -0.402686
v 0.000000 0.030000 0.000000
v 0.000000 0.000000 0.000000
v -0.094483 0.050000 -0.475000
v 0.094483 0.050000 -0.475000
v 0.269066 0.050000 -0.402686
v 0.402686 0.050000 -0.269066
v 0.475000 0.050000 -0.094483
v 0.475000 0.050000 0.094483
v 0.402686 0.050000 0.269066
v 0.269066 0.050000 0.402686
v 0.094483 0.050000 0.475000
v -0.094483 0.050000 0.475000
v -0.269066 0.050000 0.402686
v -0.402686 0.050000 0.269066
v -0.475000 0.050000 0.094483
v -0.475000 0.050000 -0.094483
v -0.402686 0.050000 -0.269066
v -0.269066 0.050000 -0.402686
v 0.059674 0.030000 -0.300000
v -0.059674 0.030000 -0.300000
v 0.169936 0.030000 -0.254328
v 0.254328 0.030000 -0.169936
v 0.300000 0.030000 -0.059674
v 0.300000 0.030000 0.059674
v 0.254328 0.030000 0.169936
v 0.169936 0.030000 0.254328
v 0.059674 0.030000 0.300000
v -0.059674 0.030000 0.300000
v -0.169936 0.030000 0.254328
v -0.254328 0.030000 0.169936
v -0.300000 0.030000 0.059674
v -0.300000 0.030000 -0.059674
v -0.254328 0.030000 -0.169936
v -0.169936 0.030000 -0.254328
v 0.084538 0.000000 -0.425000
v -0.084538 0.000000 -0.425000
v 0.240743 0.000000 -0.360298
v 0.360298 0.000000 -0.240743
v 0.425000 0.000000 -0.084538
v 0.425000 -0.000000 0.084538
v 0.360298 -0.000000 0.240743
v 0.240743 -0.000000 0.360298
v 0.084538 -0.000000 0.425000
v -0.084538 -0.000000 0.425000
v -0.240743 -0.000000 0.360298
v -0.360298 -0.000000 0.240743
v -0.425000 -0.000000 0.084538
v -0.425000 0.000000 -0.084538
v -0.360298 0.000000 -0.240743
v -0.240743 0.000000 -0.360298
v 0.180000 0.027992 -0.154786
v 0.239952 0.027992 -0.129952
v 0.264785 0.027992 -0.070000
v 0.239952 0.027992 -0.010048
v 0.180000 0.027992 0.014786
v 0.120048 0.027992 -0.010048
v 0.095214 0.027992 -0.070000
v 0.120048 0.027992 -0.129952
v 0.205119 0.084292 -0.070000
v 0.179005 0.064900 -0.140761
v 0.233220 0.049102 -0.121947
v 0.254195 0.049502 -0.070000
v 0.233220 0.049102 -0.018053
v 0.179005 0.064900 0.000761
v 0.127436 0.051585 -0.019250
v 0.107452 0.052465 -0.070000
v 0.127436 0.051585 -0.120750
v 0.037156 0.027809 -0.233186
v 0.080760 0.027809 -0.251248
v 0.124364 0.027809 -0.233187
v 0.142426 0.027809 -0.189582
v 0.124364 0.027809 -0.145978
v 0.080760 0.027809 -0.127917
v 0.037156 0.027809 -0.145978
v 0.019094 0.027809 -0.189582
v 0.091451 0.079108 -0.200273
v 0.047699 0.064716 -0.221237
v 0.081660 0.053918 -0.238947
v 0.115546 0.054319 -0.224368
v 0.130125 0.053918 -0.190483
v 0.112414 0.064716 -0.156521
v 0.079477 0.056401 -0.141529
v 0.047139 0.057282 -0.155961
v 0.032706 0.056401 -0.188300
v -0.151881 0.027992 -0.119003
v -0.092407 0.027992 -0.094637
v -0.033981 0.027992 0.031359
v -0.056673 0.027992 0.089602
v -0.108544 0.027992 0.126033
v -0.201628 0.027992 0.124232
v -0.187845 0.027992 -0.025498
v -0.094166 0.084142 0.030224
v -0.151017 0.065832 -0.099964
v -0.097430 0.049973 -0.082028
v -0.045785 0.049447 0.029481
v -0.065140 0.049221 0.079894
v -0.114014 0.065357 0.109507
v -0.192877 0.051104 0.110813
v -0.177083 0.050829 -0.014354
v -0.000410 0.026809 0.066783
v 0.074059 0.026809 0.095518
v 0.050933 0.026809 0.196508
v -0.031811 0.026809 0.207635
v -0.075861 0.026809 0.156328
v -0.027419 0.026809 0.109437
v 0.017609 0.077960 0.162849
v 0.000834 0.054560 0.082041
v 0.061076 0.053786 0.105103
v 0.041669 0.053264 0.186007
v -0.024272 0.064173 0.190813
v -0.059496 0.054921 0.153649
v -0.017918 0.058675 0.118852
v -0.033282 0.028071 -0.164280
v -0.013775 0.028071 -0.205302
v 0.017932 0.028071 -0.186023
v 0.014583 0.028071 -0.166197
v -0.011630 0.028071 -0.147893
v -0.009344 0.056925 -0.175970
v -0.026583 0.040794 -0.165381
v -0.014377 0.036364 -0.196543
v 0.011422 0.040794 -0.184095
v 0.009380 0.037252 -0.168814
v -0.008087 0.037252 -0.152516
vt 0.545133 0.819240
vt 0.557669 0.807228
vt 0.545133 0.807228
vt 0.583774 0.819240
vt 0.593369 0.807228
vt 0.583774 0.807228
vt 0.593369 0.819240
vt 0.598561 0.807228
vt 0.598561 0.819240
vt 0.598561 0.807228
vt 0.598561 0.819240
vt 0.593369 0.807228
vt 0.593369 0.819240
vt 0.583774 0.807228
vt 0.583774 0.819240
vt 0.571238 0.807228
vt 0.571238 0.819240
vt 0.557669 0.807228
vt 0.557669 0.819240
vt 0.545133 0.807228
vt 0.545133 0.819240
vt 0.535539 0.807228
vt 0.535539 0.819240
vt 0.530346 0.807228
vt 0.530346 0.819240
vt 0.530346 0.807228
vt 0.530346 0.819240
vt 0.535539 0.807228
vt 0.535539 0.819240
vt 0.568739 0.802424
vt 0.579707 0.819240
vt 0.576656 0.802424
vt 0.571238 0.819240
vt 0.571238 0.807228
vt 0.557669 0.819240
vt 0.569810 0.841894
vt 0.557669 0.841894
vt 0.559098 0.841894
vt 0.579707 0.841894
vt 0.571238 0.841894
vt 0.587281 0.841894
vt 0.583774 0.841894
vt 0.598561 0.841894
vt 0.593369 0.841894
vt 0.591381 0.841894
vt 0.591381 0.841894
vt 0.587281 0.841894
vt 0.598561 0.841894
vt 0.579707 0.841894
vt 0.593369 0.841894
vt 0.571238 0.841894
vt 0.583774 0.841894
vt 0.559098 0.841894
vt 0.569810 0.841894
vt 0.549201 0.841894
vt 0.557669 0.841894
vt 0.541626 0.841894
vt 0.545133 0.841894
vt 0.530346 0.841894
vt 0.535539 0.841894
vt 0.537527 0.841894
vt 0.537527 0.841894
vt 0.541626 0.841894
vt 0.530346 0.841894
vt 0.549201 0.841894
vt 0.535539 0.841894
vt 0.545133 0.841894
vt 0.560169 0.802424
vt 0.549201 0.819240
vt 0.552251 0.802424
vt 0.560169 0.802424
vt 0.569810 0.819240
vt 0.568739 0.802424
vt 0.579707 0.819240
vt 0.569810 0.819240
vt 0.549201 0.819240
vt 0.559098 0.819240
vt 0.576656 0.802424
vt 0.587281 0.819240
vt 0.552251 0.802424
vt 0.541626 0.819240
vt 0.585995 0.802424
vt 0.582716 0.802424
vt 0.542912 0.802424
vt 0.546192 0.802424
vt 0.585995 0.802424
vt 0.591381 0.819240
vt 0.542912 0.802424
vt 0.537527 0.819240
vt 0.587281 0.819240
vt 0.591381 0.819240
vt 0.541626 0.819240
vt 0.537527 0.819240
vt 0.582716 0.802424
vt 0.546192 0.802424
vt 0.559098 0.819240
vt 0.571238 0.790086
vt 0.558384 0.778075
vt 0.557669 0.790086
vt 0.583774 0.790086
vt 0.570524 0.778075
vt 0.593369 0.790086
vt 0.581740 0.778075
vt 0.594971 0.778075
vt 0.590325 0.778075
vt 0.598561 0.790086
vt 0.598561 0.790086
vt 0.593369 0.790086
vt 0.594971 0.778075
vt 0.583774 0.790086
vt 0.590325 0.778075
vt 0.570524 0.778075
vt 0.581740 0.778075
vt 0.557669 0.790086
vt 0.571238 0.790086
vt 0.545133 0.790086
vt 0.558384 0.778075
vt 0.535539 0.790086
vt 0.547167 0.778075
vt 0.533936 0.778075
vt 0.538582 0.778075
vt 0.530346 0.790086
vt 0.530346 0.790086
vt 0.535539 0.790086
vt 0.533936 0.778075
vt 0.545133 0.790086
vt 0.538582 0.778075
vt 0.547167 0.778075
vt 0.564454 0.819566
vt 0.568739 0.819566
vt 0.560169 0.819566
vt 0.576656 0.819566
vt 0.582716 0.819566
vt 0.585995 0.819566
vt 0.585995 0.819566
vt 0.582716 0.819566
vt 0.576656 0.819566
vt 0.568739 0.819566
vt 0.560169 0.819566
vt 0.552251 0.819566
vt 0.546192 0.819566
vt 0.542912 0.819566
vt 0.542912 0.819566
vt 0.546192 0.819566
vt 0.552251 0.819566
vt 0.564454 0.760932
vt 0.558384 0.760932
vt 0.570524 0.760932
vt 0.581740 0.760932
vt 0.590325 0.760932
vt 0.594971 0.760932
vt 0.594971 0.760932
vt 0.590325 0.760932
vt 0.581740 0.760932
vt 0.570524 0.760932
vt 0.558384 0.760932
vt 0.547167 0.760932
vt 0.538582 0.760932
vt 0.533936 0.760932
vt 0.533936 0.760932
vt 0.538582 0.760932
vt 0.547167 0.760932
vt 0.954819 0.642802
vt 0.962252 0.575320
vt 0.953775 0.575320
vt 0.974242 0.575320
vt 0.969778 0.638289
vt 0.970730 0.575320
vt 0.962252 0.575320
vt 0.954819 0.642802
vt 0.953775 0.575320
vt 0.950263 0.575320
vt 0.969778 0.638289
vt 0.970730 0.575320
vt 0.969778 0.678261
vt 0.962111 0.696883
vt 0.965804 0.719741
vt 0.972744 0.678733
vt 0.969778 0.678261
vt 0.962111 0.696883
vt 0.954819 0.681188
vt 0.951993 0.682225
vt 0.954819 0.681188
vt 0.941424 0.620308
vt 0.942053 0.543737
vt 0.939499 0.543737
vt 0.954385 0.543737
vt 0.955200 0.615794
vt 0.956939 0.543737
vt 0.954385 0.543737
vt 0.948037 0.620308
vt 0.948219 0.543737
vt 0.942053 0.543737
vt 0.948346 0.615794
vt 0.948219 0.543737
vt 0.948346 0.652689
vt 0.943544 0.665417
vt 0.949731 0.682382
vt 0.953138 0.653161
vt 0.955200 0.652689
vt 0.952695 0.665417
vt 0.948037 0.655616
vt 0.943464 0.656654
vt 0.941424 0.655616
vt 0.910235 0.575320
vt 0.915443 0.668700
vt 0.915321 0.575320
vt 0.931993 0.575320
vt 0.927588 0.638506
vt 0.928785 0.575320
vt 0.921450 0.575320
vt 0.909524 0.641929
vt 0.908287 0.575320
vt 0.923021 0.639872
vt 0.923732 0.575320
vt 0.923021 0.679288
vt 0.915443 0.697983
vt 0.923483 0.719565
vt 0.930324 0.678669
vt 0.927588 0.678402
vt 0.920676 0.697422
vt 0.909524 0.680621
vt 0.911757 0.680298
vt 0.942691 0.614605
vt 0.932300 0.541919
vt 0.944001 0.541919
vt 0.928385 0.617616
vt 0.926071 0.541919
vt 0.932921 0.541919
vt 0.936916 0.616962
vt 0.936741 0.541919
vt 0.945435 0.615553
vt 0.947271 0.541919
vt 0.945435 0.652532
vt 0.936916 0.653446
vt 0.939289 0.681028
vt 0.942691 0.651918
vt 0.933366 0.664777
vt 0.928385 0.653870
vt 0.934265 0.658295
vt 0.935154 0.544211
vt 0.933040 0.567339
vt 0.932092 0.544211
vt 0.934766 0.559288
vt 0.939334 0.544211
vt 0.934851 0.544211
vt 0.938125 0.560900
vt 0.938861 0.544211
vt 0.935655 0.560900
vt 0.950391 0.574913
vt 0.948665 0.582964
vt 0.951102 0.612285
vt 0.954039 0.582964
vt 0.953750 0.576525
vt 0.951280 0.576525
vt 0.962111 0.667005
vt 0.972744 0.639017
vt 0.962111 0.667005
vt 0.951993 0.644402
vt 0.943544 0.635422
vt 0.953138 0.616522
vt 0.952695 0.635422
vt 0.943464 0.621908
vt 0.911757 0.641429
vt 0.930324 0.638918
vt 0.920676 0.667835
vt 0.933366 0.634434
vt 0.934265 0.624440
vt 0.938414 0.567339
vn -0.5556 0.0000 -0.8315
vn -0.1951 0.0000 -0.9808
vn -0.5159 -0.3710 -0.7721
vn 0.5556 0.0000 -0.8315
vn 0.8315 0.0000 -0.5556
vn 0.5159 -0.3710 -0.7721
vn 0.9108 -0.3710 -0.1812
vn 0.9808 0.0000 -0.1951
vn 0.9108 -0.3710 0.1812
vn 0.9808 0.0000 0.1951
vn 0.7721 -0.3710 0.5159
vn 0.8315 -0.0000 0.5556
vn 0.5159 -0.3710 0.7721
vn 0.5556 -0.0000 0.8315
vn 0.1951 -0.0000 0.9808
vn -0.1951 -0.0000 0.9808
vn -0.5556 -0.0000 0.8315
vn -0.7721 -0.3710 0.5159
vn -0.8315 -0.0000 0.5556
vn -0.9108 -0.3710 0.1812
vn -0.9808 -0.0000 0.1951
vn -0.9108 -0.3710 -0.1812
vn -0.9808 -0.0000 -0.1951
vn -0.7721 -0.3710 -0.5159
vn -0.8315 0.0000 -0.5556
vn -0.1317 0.7376 -0.6622
vn -0.3751 0.7376 -0.5614
vn 0.1951 0.0000 -0.9808
vn 0.1812 -0.3710 -0.9108
vn -0.0000 1.0000 0.0000
vn 0.1317 0.7376 0.6622
vn 0.3751 0.7376 0.5614
vn 0.1317 0.7376 -0.6622
vn -0.1317 0.7376 0.6622
vn -0.3751 0.7376 0.5614
vn 0.3751 0.7376 -0.5614
vn -0.5614 0.7376 0.3751
vn 0.5614 0.7376 -0.3751
vn -0.6622 0.7376 0.1317
vn 0.6622 0.7376 -0.1317
vn -0.6622 0.7376 -0.1317
vn 0.6622 0.7376 0.1317
vn -0.5614 0.7376 -0.3751
vn 0.5614 0.7376 0.3751
vn -0.1366 -0.7139 -0.6868
vn 0.1366 -0.7139 -0.6868
vn 0.5822 -0.7139 -0.3890
vn 0.3890 -0.7139 -0.5822
vn 0.6868 -0.7139 -0.1366
vn 0.6868 -0.7139 0.1366
vn 0.5822 -0.7139 0.3890
vn 0.1366 -0.7139 0.6868
vn 0.3890 -0.7139 0.5822
vn -0.1366 -0.7139 0.6868
vn -0.3890 -0.7139 0.5822
vn -0.6868 -0.7139 0.1366
vn -0.5822 -0.7139 0.3890
vn -0.6868 -0.7139 -0.1366
vn -0.5822 -0.7139 -0.3890
vn -0.3890 -0.7139 -0.5822
vn 0.0000 -1.0000 -0.0000
vn -0.6382 0.4262 -0.6411
vn 0.0007 0.3837 -0.9234
vn -0.6265 0.4456 -0.6395
vn 0.8987 0.4386 0.0000
vn 0.5851 0.6078 0.5369
vn 0.6289 0.4429 0.6391
vn 0.0007 0.3837 0.9234
vn -0.6382 0.4262 0.6411
vn -0.6265 0.4456 0.6395
vn -0.8971 0.4419 0.0000
vn 0.5851 0.6078 -0.5369
vn 0.6289 0.4429 -0.6391
vn -0.0361 0.7307 -0.6818
vn 0.1801 0.9837 0.0000
vn 0.7834 0.6215 0.0000
vn -0.0361 0.7307 0.6818
vn -0.3044 0.9420 0.1412
vn -0.3098 0.9508 0.0000
vn -0.3044 0.9420 -0.1412
vn -0.9087 0.4176 0.0019
vn -0.6435 0.4152 -0.6431
vn -0.9027 0.4301 -0.0077
vn 0.6413 0.4214 -0.6413
vn 0.8017 0.5969 -0.0310
vn 0.9045 0.4264 0.0060
vn 0.6431 0.4152 0.6435
vn -0.0019 0.4176 0.9087
vn 0.0077 0.4301 0.9027
vn -0.6402 0.4247 0.6402
vn 0.0310 0.5969 -0.8017
vn -0.0060 0.4264 -0.9045
vn -0.5039 0.7345 -0.4545
vn 0.1221 0.9850 -0.1221
vn 0.5600 0.6106 -0.5600
vn 0.4545 0.7345 0.5039
vn -0.1061 0.9346 0.3396
vn -0.2326 0.9444 0.2326
vn -0.3396 0.9346 0.1061
vn -0.8842 0.4329 -0.1755
vn -0.9126 0.2474 -0.3256
vn -0.9149 0.1979 -0.3519
vn 0.8773 0.4799 -0.0104
vn 0.6311 0.6382 0.4409
vn 0.6670 0.5131 0.5402
vn 0.2659 0.4493 0.8529
vn -0.0261 0.4817 0.8760
vn -0.0167 0.5068 0.8619
vn -0.9423 0.3227 -0.0895
vn -0.9474 0.3081 -0.0872
vn 0.3764 0.4395 -0.8156
vn 0.5624 0.6542 -0.5057
vn 0.5722 0.5025 -0.6481
vn 0.4076 0.6320 -0.6591
vn 0.1981 0.9801 0.0102
vn 0.7712 0.6355 -0.0372
vn 0.1679 0.7635 0.6236
vn -0.2728 0.9602 0.0595
vn -0.3751 0.9270 0.0049
vn -0.3917 0.9191 0.0418
vn 0.5439 0.6048 0.5817
vn 0.1280 0.3899 0.9119
vn 0.1220 0.4028 0.9071
vn -0.7003 0.4195 0.5776
vn -0.6894 0.4343 0.5797
vn -0.6776 0.4499 0.5818
vn -0.6463 0.3383 -0.6840
vn -0.7262 0.3618 -0.5847
vn -0.6592 0.3189 -0.6810
vn -0.8049 0.3377 -0.4880
vn -0.8018 0.3151 -0.5077
vn 0.3241 0.4462 -0.8342
vn 0.6347 0.7036 -0.3197
vn 0.3214 0.4506 -0.8329
vn 0.8956 0.3899 0.2144
vn 0.9082 0.3632 0.2080
vn 0.1738 0.7667 -0.6181
vn 0.1624 0.9751 0.1511
vn 0.1455 0.5049 0.8508
vn -0.2743 0.9567 -0.0970
vn -0.2901 0.9563 0.0369
vn -0.2447 0.9451 -0.2167
vn -0.4671 0.4756 0.7454
vn -0.4372 0.5545 0.7081
vn -0.5629 0.3607 0.7437
vn 0.3332 0.6342 -0.6977
vn 0.3769 0.4228 -0.8241
vn 0.3785 0.6850 -0.6225
vn 0.8688 0.4583 0.1873
vn 0.6927 0.5965 0.4054
vn 0.7551 0.5013 0.4224
vn 0.5650 0.4014 0.7209
vn 0.5623 0.1885 0.8052
vn -0.8328 0.3966 -0.3861
vn -0.8198 0.4169 -0.3925
vn -0.8419 0.3617 -0.4004
vn -0.8018 0.4614 -0.3797
vn -0.7457 0.5535 -0.3708
vn 0.3213 0.4579 -0.8289
vn 0.2320 0.6590 -0.7154
vn 0.7914 0.5637 0.2364
vn 0.5720 0.7000 0.4277
vn -0.3723 0.6068 0.7023
vn -0.2948 0.7243 0.6233
vn -0.8944 0.4473 -0.0000
vn -0.6377 0.4320 0.6377
vn -0.8680 0.4767 -0.1387
vn -0.7123 0.4026 0.5749
vn -0.7149 0.3855 -0.5833
usemtl restaurant.066
s 1
f 32/1/1 35/2/2 50/3/3
f 19/4/4 38/5/5 37/6/6
f 20/7/5 39/8/7 38/5/5
f 21/9/8 40/10/9 39/8/7
f 22/11/10 41/12/11 40/10/9
f 23/13/12 42/14/13 41/12/11
f 24/15/14 43/16/15 42/14/13
f 25/17/15 44/18/16 43/16/15
f 26/19/16 45/20/17 44/18/16
f 27/21/17 46/22/18 45/20/17
f 28/23/19 47/24/20 46/22/18
f 29/25/21 48/26/22 47/24/20
f 30/27/23 49/28/24 48/26/22
f 31/29/25 50/3/3 49/28/24
f 59/30/26 8/31/27 58/32/27
f 17/33/28 37/6/6 36/34/29
f 18/35/2 36/34/29 35/2/2
f 2/36/30 18/37/30 1/38/30
f 3/39/30 17/40/30 2/36/30
f 4/41/30 19/42/30 3/39/30
f 4/41/30 21/43/30 20/44/30
f 6/45/30 21/43/30 5/46/30
f 7/47/30 22/48/30 6/45/30
f 8/49/30 23/50/30 7/47/30
f 8/49/30 25/51/30 24/52/30
f 10/53/30 25/51/30 9/54/30
f 11/55/30 26/56/30 10/53/30
f 12/57/30 27/58/30 11/55/30
f 12/57/30 29/59/30 28/60/30
f 14/61/30 29/59/30 13/62/30
f 15/63/30 30/64/30 14/61/30
f 16/65/30 31/66/30 15/63/30
f 16/65/30 18/37/30 32/67/30
f 52/68/31 16/69/32 66/70/32
f 60/71/33 9/72/26 59/30/26
f 51/73/34 3/74/35 2/75/34
f 60/71/33 11/76/36 10/77/33
f 53/78/35 4/79/37 3/74/35
f 61/80/36 12/81/38 11/76/36
f 55/82/39 4/79/37 54/83/37
f 63/84/40 12/81/38 62/85/38
f 56/86/41 5/87/39 55/82/39
f 64/88/42 13/89/40 63/84/40
f 56/86/41 7/90/43 6/91/41
f 64/88/42 15/92/44 14/93/42
f 58/32/27 7/90/43 57/94/43
f 66/70/32 15/92/44 65/95/44
f 51/73/34 1/96/31 52/68/31
f 36/97/29 68/98/45 35/99/45
f 37/100/6 67/101/46 36/97/29
f 38/102/47 69/103/48 37/100/6
f 38/102/47 71/104/49 70/105/47
f 40/106/9 71/104/49 39/107/7
f 41/108/11 72/109/50 40/106/9
f 42/110/13 73/111/51 41/108/11
f 42/110/13 75/112/52 74/113/53
f 44/114/54 75/112/52 43/115/52
f 45/116/55 76/117/54 44/114/54
f 46/118/18 77/119/55 45/116/55
f 46/118/18 79/120/56 78/121/57
f 48/122/22 79/120/56 47/123/20
f 49/124/24 80/125/58 48/122/22
f 50/126/3 81/127/59 49/124/24
f 50/126/3 68/98/45 82/128/60
f 33/129/30 51/130/30 52/131/30
f 33/129/30 53/132/30 51/130/30
f 33/129/30 54/133/30 53/132/30
f 33/129/30 55/134/30 54/133/30
f 33/129/30 56/135/30 55/134/30
f 33/129/30 57/136/30 56/135/30
f 33/129/30 58/137/30 57/136/30
f 33/129/30 59/138/30 58/137/30
f 33/129/30 60/139/30 59/138/30
f 33/129/30 61/140/30 60/139/30
f 33/129/30 62/141/30 61/140/30
f 33/129/30 63/142/30 62/141/30
f 33/129/30 64/143/30 63/142/30
f 33/129/30 65/144/30 64/143/30
f 33/129/30 66/145/30 65/144/30
f 33/129/30 52/131/30 66/145/30
f 34/146/61 68/147/61 67/148/61
f 34/146/61 67/148/61 69/149/61
f 34/146/61 69/149/61 70/150/61
f 34/146/61 70/150/61 71/151/61
f 34/146/61 71/151/61 72/152/61
f 34/146/61 72/152/61 73/153/61
f 34/146/61 73/153/61 74/154/61
f 34/146/61 74/154/61 75/155/61
f 34/146/61 75/155/61 76/156/61
f 34/146/61 76/156/61 77/157/61
f 34/146/61 77/157/61 78/158/61
f 34/146/61 78/158/61 79/159/61
f 34/146/61 79/159/61 80/160/61
f 34/146/61 80/160/61 81/161/61
f 34/146/61 81/161/61 82/162/61
f 34/146/61 82/162/61 68/147/61
f 99/163/62 83/164/63 90/165/64
f 85/166/65 95/167/66 86/168/67
f 95/167/66 87/169/68 86/168/67
f 87/169/68 97/170/69 88/171/70
f 97/170/69 89/172/71 88/171/70
f 89/172/71 99/163/62 90/165/64
f 83/164/63 93/173/72 84/174/73
f 93/173/72 85/166/65 84/174/73
f 93/175/72 92/176/74 91/177/75
f 94/178/76 93/175/72 91/177/75
f 95/179/66 94/178/76 91/177/75
f 96/180/77 95/179/66 91/177/75
f 97/181/78 96/180/77 91/177/75
f 98/182/79 97/181/78 91/177/75
f 99/183/80 98/182/79 91/177/75
f 92/176/74 99/183/80 91/177/75
f 116/184/81 100/185/82 107/186/83
f 102/187/84 112/188/85 103/189/86
f 112/188/85 104/190/87 103/189/86
f 104/190/87 114/191/88 105/192/89
f 114/191/88 106/193/90 105/192/89
f 106/193/90 116/184/81 107/186/83
f 100/185/82 110/194/91 101/195/92
f 110/194/91 102/187/84 101/195/92
f 110/196/91 109/197/93 108/198/94
f 111/199/95 110/196/91 108/198/94
f 112/200/85 111/199/95 108/198/94
f 113/201/96 112/200/85 108/198/94
f 114/202/97 113/201/96 108/198/94
f 115/203/98 114/202/97 108/198/94
f 116/204/99 115/203/98 108/198/94
f 109/197/93 116/204/99 108/198/94
f 123/205/100 125/206/101 117/207/102
f 119/208/103 128/209/104 120/210/105
f 128/209/104 121/211/106 120/210/105
f 121/211/106 130/212/107 122/213/108
f 130/212/109 123/205/100 122/213/110
f 117/207/111 126/214/112 118/215/113
f 126/214/112 119/208/103 118/215/113
f 126/216/112 125/217/114 124/218/115
f 127/219/116 126/216/112 124/218/115
f 128/220/104 127/219/116 124/218/115
f 129/221/117 128/220/104 124/218/115
f 130/222/118 129/221/117 124/218/115
f 131/223/119 130/222/118 124/218/115
f 125/217/120 131/223/119 124/218/115
f 141/224/121 135/225/122 134/226/123
f 135/225/124 143/227/125 136/228/126
f 143/227/127 137/229/128 136/228/129
f 137/229/128 139/230/130 132/231/131
f 132/231/132 140/232/133 133/233/134
f 140/232/133 134/226/135 133/233/136
f 140/234/133 139/235/137 138/236/138
f 141/237/121 140/234/133 138/236/138
f 142/238/139 141/237/121 138/236/138
f 143/239/140 142/238/141 138/236/138
f 144/240/142 143/239/140 138/236/138
f 139/235/137 144/240/142 138/236/138
f 149/241/143 151/242/144 145/243/145
f 152/244/146 147/245/147 146/246/148
f 147/245/149 154/247/150 148/248/151
f 148/248/151 155/249/152 149/241/153
f 145/243/154 152/244/155 146/246/156
f 152/250/155 151/251/157 150/252/158
f 153/253/159 152/250/146 150/252/160
f 154/254/150 153/253/161 150/252/162
f 155/255/152 154/254/150 150/252/162
f 151/251/144 155/255/163 150/252/164
f 32/1/1 18/35/2 35/2/2
f 19/4/4 20/7/5 38/5/5
f 20/7/5 21/9/8 39/8/7
f 21/9/8 22/11/10 40/10/9
f 22/11/10 23/13/12 41/12/11
f 23/13/12 24/15/14 42/14/13
f 24/15/14 25/17/15 43/16/15
f 25/17/15 26/19/16 44/18/16
f 26/19/16 27/21/17 45/20/17
f 27/21/17 28/23/19 46/22/18
f 28/23/19 29/25/21 47/24/20
f 29/25/21 30/27/23 48/26/22
f 30/27/23 31/29/25 49/28/24
f 31/29/25 32/1/1 50/3/3
f 59/30/26 9/72/26 8/31/27
f 17/33/28 19/4/4 37/6/6
f 18/35/2 17/33/28 36/34/29
f 2/36/30 17/40/30 18/37/30
f 3/39/30 19/42/30 17/40/30
f 4/41/30 20/44/30 19/42/30
f 4/41/30 5/46/30 21/43/30
f 6/45/30 22/48/30 21/43/30
f 7/47/30 23/50/30 22/48/30
f 8/49/30 24/52/30 23/50/30
f 8/49/30 9/54/30 25/51/30
f 10/53/30 26/56/30 25/51/30
f 11/55/30 27/58/30 26/56/30
f 12/57/30 28/60/30 27/58/30
f 12/57/30 13/62/30 29/59/30
f 14/61/30 30/64/30 29/59/30
f 15/63/30 31/66/30 30/64/30
f 16/65/30 32/67/30 31/66/30
f 16/65/30 1/38/30 18/37/30
f 52/68/31 1/96/31 16/69/32
f 60/71/33 10/77/33 9/72/26
f 51/73/34 53/78/35 3/74/35
f 60/71/33 61/80/36 11/76/36
f 53/78/35 54/83/37 4/79/37
f 61/80/36 62/85/38 12/81/38
f 55/82/39 5/87/39 4/79/37
f 63/84/40 13/89/40 12/81/38
f 56/86/41 6/91/41 5/87/39
f 64/88/42 14/93/42 13/89/40
f 56/86/41 57/94/43 7/90/43
f 64/88/42 65/95/44 15/92/44
f 58/32/27 8/31/27 7/90/43
f 66/70/32 16/69/32 15/92/44
f 51/73/34 2/75/34 1/96/31
f 36/97/29 67/101/46 68/98/45
f 37/100/6 69/103/48 67/101/46
f 38/102/47 70/105/47 69/103/48
f 38/102/47 39/107/7 71/104/49
f 40/106/9 72/109/50 71/104/49
f 41/108/11 73/111/51 72/109/50
f 42/110/13 74/113/53 73/111/51
f 42/110/13 43/115/52 75/112/52
f 44/114/54 76/117/54 75/112/52
f 45/116/55 77/119/55 76/117/54
f 46/118/18 78/121/57 77/119/55
f 46/118/18 47/123/20 79/120/56
f 48/122/22 80/125/58 79/120/56
f 49/124/24 81/127/59 80/125/58
f 50/126/3 82/128/60 81/127/59
f 50/126/3 35/99/45 68/98/45
f 99/163/62 92/256/74 83/164/63
f 85/166/65 94/257/76 95/167/66
f 95/167/66 96/258/77 87/169/68
f 87/169/68 96/258/77 97/170/69
f 97/170/69 98/259/165 89/172/71
f 89/172/71 98/259/165 99/163/62
f 83/164/63 92/256/74 93/173/72
f 93/173/72 94/257/76 85/166/65
f 116/184/81 109/260/93 100/185/82
f 102/187/84 111/261/95 112/188/85
f 112/188/85 113/262/96 104/190/87
f 104/190/87 113/262/96 114/191/88
f 114/191/88 115/263/166 106/193/90
f 106/193/90 115/263/166 116/184/81
f 100/185/82 109/260/93 110/194/91
f 110/194/91 111/261/95 102/187/84
f 123/205/100 131/264/167 125/206/101
f 119/208/103 127/265/116 128/209/104
f 128/209/104 129/266/117 121/211/106
f 121/211/106 129/266/117 130/212/107
f 130/212/109 131/264/167 123/205/100
f 117/207/111 125/206/114 126/214/112
f 126/214/112 127/265/116 119/208/103
f 141/224/121 142/267/139 135/225/122
f 135/225/124 142/267/168 143/227/125
f 143/227/127 144/268/169 137/229/128
f 137/229/128 144/268/169 139/230/130
f 132/231/132 139/230/137 140/232/133
f 140/232/133 141/224/121 134/226/135
f 149/241/143 155/249/163 151/242/144
f 152/244/146 153/269/159 147/245/147
f 147/245/149 153/269/161 154/247/150
f 148/248/151 154/247/150 155/249/152
f 145/243/154 151/242/157 152/244/155
