# Blender v3.4.1 OBJ File: 'restaurant.blend'
# www.blender.org
mtllib towelrail_Cube_167.mtl
o towelrail_Cube.167
v 0.800000 0.775000 1.175000
v 0.775000 0.800000 1.139645
v 0.739645 0.800000 1.175000
v 0.775000 0.775000 1.200000
v -0.800000 0.775000 1.175000
v -0.775000 0.775000 1.200000
v -0.739645 0.800000 1.175000
v -0.775000 0.800000 1.139645
v -0.800000 0.725000 1.175000
v -0.775000 0.700000 1.139645
v -0.739645 0.700000 1.175000
v -0.775000 0.725000 1.200000
v 0.800000 0.725000 1.175000
v 0.775000 0.725000 1.200000
v 0.739645 0.700000 1.175000
v 0.775000 0.700000 1.139645
v 0.689645 0.800000 1.125000
v 0.725000 0.800000 1.089645
v 0.687500 0.775000 1.087500
v -0.689645 0.800000 1.125000
v -0.687500 0.775000 1.087500
v -0.725000 0.800000 1.089645
v 0.707322 0.700000 1.107322
v 0.687500 0.725000 1.087500
v -0.707322 0.700000 1.107322
v -0.687500 0.725000 1.087500
v -0.725000 0.800000 0.800000
v -0.700000 0.775000 0.800000
v -0.800000 0.775000 0.800000
v -0.775000 0.800000 0.800000
v -0.700000 0.725000 0.800000
v -0.725000 0.700000 0.800000
v -0.775000 0.700000 0.800000
v -0.800000 0.725000 0.800000
v 0.800000 0.725000 0.800000
v 0.775000 0.700000 0.800000
v 0.775000 0.800000 0.800000
v 0.800000 0.775000 0.800000
v 0.700000 0.775000 0.800000
v 0.725000 0.800000 0.800000
v 0.725000 0.700000 0.800000
v 0.700000 0.725000 0.800000
v 0.092194 0.725000 1.200000
v 0.626450 0.725000 1.200000
v 0.626450 0.700000 1.175000
v 0.092194 0.700000 1.175000
v 0.626450 0.725000 1.100000
v 0.092194 0.725000 1.100000
v 0.092194 0.700000 1.125000
v 0.626450 0.700000 1.125000
v 0.092194 0.800000 1.175000
v 0.626450 0.800000 1.175000
v 0.626450 0.775000 1.200000
v 0.092194 0.775000 1.200000
v 0.626450 0.800000 1.125000
v 0.092194 0.800000 1.125000
v 0.092194 0.775000 1.100000
v 0.626450 0.775000 1.100000
v 0.092194 0.792521 1.242299
v 0.134482 0.801275 1.263433
v 0.584162 0.801275 1.263433
v 0.626450 0.792521 1.242299
v 0.092194 0.707479 1.242299
v 0.134482 0.698725 1.263433
v 0.626450 0.707479 1.242299
v 0.584162 0.698725 1.263433
v 0.134482 0.863433 1.201275
v 0.092194 0.842299 1.192521
v 0.584162 0.636567 1.098725
v 0.626450 0.657701 1.107479
v 0.626450 0.657701 1.192521
v 0.584162 0.636567 1.201275
v 0.584162 0.801275 1.036567
v 0.626450 0.792521 1.057701
v 0.626450 0.842299 1.107479
v 0.584162 0.863433 1.098725
v 0.134482 0.636567 1.098725
v 0.092194 0.657701 1.107479
v 0.092194 0.707479 1.057701
v 0.134482 0.698725 1.036567
v 0.626450 0.707479 1.057701
v 0.584162 0.698725 1.036567
v 0.626450 0.842299 1.192521
v 0.584162 0.863433 1.201275
v 0.134482 0.636567 1.201275
v 0.092194 0.657701 1.192521
v 0.134482 0.801275 1.036567
v 0.092194 0.792521 1.057701
v 0.092194 0.842299 1.107479
v 0.134482 0.863433 1.098725
v 0.538477 0.280553 1.263433
v 0.584162 0.331127 1.263433
v 0.584162 0.331127 1.201275
v 0.538477 0.280553 1.201275
v 0.180168 0.280553 1.201275
v 0.134482 0.331127 1.201275
v 0.134482 0.331127 1.263433
v 0.180168 0.280553 1.263433
vt 0.403110 0.938848
vt 0.397915 0.938848
vt 0.397915 0.938848
vt 0.458506 0.938848
vt 0.465070 0.938848
vt 0.458506 0.938848
vt 0.464847 0.889376
vt 0.466146 0.884182
vt 0.464847 0.884182
vt 0.473937 0.938848
vt 0.468743 0.938848
vt 0.473937 0.938848
vt 0.404946 0.850335
vt 0.397915 0.850335
vt 0.403110 0.850335
vt 0.395318 0.889376
vt 0.395318 0.884182
vt 0.395318 0.889376
vt 0.458506 0.884182
vt 0.458506 0.889376
vt 0.407005 0.884182
vt 0.405707 0.889376
vt 0.407005 0.889376
vt 0.397915 0.889376
vt 0.423675 0.884182
vt 0.423675 0.889376
vt 0.466907 0.850335
vt 0.473937 0.850335
vt 0.473937 0.850335
vt 0.458506 0.850335
vt 0.458506 0.850335
vt 0.476534 0.889376
vt 0.470264 0.923223
vt 0.473937 0.889376
vt 0.401588 0.923223
vt 0.397915 0.923223
vt 0.395318 0.852932
vt 0.401588 0.850335
vt 0.397915 0.852932
vt 0.476534 0.852932
vt 0.470264 0.850335
vt 0.465070 0.923223
vt 0.468743 0.923223
vt 0.406782 0.923223
vt 0.403110 0.923223
vt 0.473937 0.884182
vt 0.423675 0.923223
vt 0.423675 0.889376
vt 0.458506 0.889376
vt 0.458506 0.923223
vt 0.423675 0.850335
vt 0.407005 0.852932
vt 0.423675 0.852932
vt 0.458506 0.852932
vt 0.403110 0.923223
vt 0.476534 0.852932
vt 0.473937 0.923223
vt 0.476534 0.889376
vt 0.473937 0.923223
vt 0.464847 0.852932
vt 0.468743 0.850335
vt 0.468743 0.923223
vt 0.466146 0.889376
vt 0.395318 0.852932
vt 0.397915 0.850335
vt 0.397915 0.923223
vt 0.470264 0.938848
vt 0.401588 0.938848
vt 0.476534 0.884182
vt 0.476534 0.884182
vt 0.565550 0.856788
vt 0.565550 0.870156
vt 0.565550 0.866687
vt 0.565550 0.851838
vt 0.565550 0.853319
vt 0.565550 0.843464
vt 0.561157 0.854904
vt 0.535112 0.854904
vt 0.535112 0.854904
vt 0.530719 0.866687
vt 0.530719 0.880011
vt 0.530719 0.870156
vt 0.530719 0.851838
vt 0.530719 0.853319
vt 0.530719 0.856788
vt 0.423675 0.850335
vt 0.530719 0.856788
vt 0.530719 0.843464
vt 0.530719 0.851838
vt 0.561157 0.887514
vt 0.535112 0.867211
vt 0.535112 0.887514
vt 0.565550 0.843464
vt 0.565550 0.851838
vt 0.565550 0.853319
vt 0.565550 0.871636
vt 0.565550 0.880011
vt 0.565550 0.871636
vt 0.565550 0.870156
vt 0.565550 0.866687
vt 0.530719 0.870156
vt 0.530719 0.866687
vt 0.530719 0.871636
vt 0.530719 0.871636
vt 0.565550 0.880011
vt 0.535112 0.839279
vt 0.561157 0.851586
vt 0.561157 0.839279
vt 0.423675 0.938848
vt 0.406782 0.938848
vt 0.530719 0.843464
vt 0.423675 0.852932
vt 0.565550 0.856788
vt 0.535112 0.934389
vt 0.561157 0.914086
vt 0.561157 0.934389
vt 0.561157 0.946695
vt 0.535112 0.946695
vt 0.535112 0.946695
vt 0.535112 0.918764
vt 0.561157 0.931070
vt 0.561157 0.918764
vt 0.535112 0.870529
vt 0.535112 0.810058
vt 0.535112 0.882836
vt 0.530719 0.853319
vt 0.565550 0.868944
vt 0.565550 0.885781
vt 0.565550 0.874714
vt 0.561157 0.901779
vt 0.565550 0.874714
vt 0.530719 0.911261
vt 0.530719 0.901406
vt 0.565550 0.884569
vt 0.561157 0.901779
vt 0.530719 0.874714
vt 0.535112 0.914086
vt 0.535112 0.901779
vt 0.530719 0.895636
vt 0.530719 0.885781
vt 0.565550 0.911261
vt 0.565550 0.901406
vt 0.530719 0.884569
vt 0.535112 0.898461
vt 0.565550 0.911261
vt 0.535112 0.901779
vt 0.535112 0.914086
vt 0.530719 0.874714
vt 0.561157 0.914086
vt 0.530719 0.880011
vt 0.561157 0.841308
vt 0.539858 0.831295
vt 0.556411 0.831295
vt 0.561157 0.794433
vt 0.539858 0.784420
vt 0.535112 0.794433
vt 0.556411 0.800045
vt 0.539858 0.800045
vt 0.539858 0.800045
vt 0.561157 0.810058
vt 0.556411 0.800045
vt 0.535112 0.810058
vt 0.561157 0.870529
vt 0.561157 0.810058
vt 0.561157 0.854904
vt 0.403110 0.938848
vt 0.468743 0.938848
vt 0.395318 0.884182
vt 0.405707 0.884182
vt 0.397915 0.884182
vt 0.473937 0.852932
vt 0.405707 0.852932
vt 0.466146 0.852932
vt 0.423675 0.884182
vt 0.561157 0.867211
vt 0.458506 0.884182
vt 0.535112 0.851586
vt 0.423675 0.938848
vt 0.423675 0.923223
vt 0.458506 0.852932
vt 0.458506 0.923223
vt 0.561157 0.946695
vt 0.535112 0.931070
vt 0.561157 0.898461
vt 0.530719 0.884569
vt 0.530719 0.911261
vt 0.530719 0.868944
vt 0.565550 0.895636
vt 0.565550 0.884569
vt 0.535112 0.841308
vt 0.556411 0.784420
vt 0.561157 0.882836
vn 0.0000 1.0000 -0.0000
vn -0.9991 0.0000 -0.0434
vn -0.9216 -0.3862 -0.0401
vn -0.9184 -0.3929 -0.0461
vn -0.0000 -1.0000 -0.0000
vn -0.3827 -0.9239 -0.0000
vn -0.9239 0.3827 0.0000
vn -0.8218 -0.4349 0.3681
vn -0.8218 0.4349 0.3681
vn -0.2006 0.0000 -0.9797
vn -0.1843 -0.3943 -0.9003
vn 0.9184 -0.3929 -0.0461
vn 0.9991 0.0000 -0.0434
vn -0.3681 0.4349 0.8218
vn 0.0000 -0.3827 0.9239
vn 0.0000 0.3827 0.9239
vn 0.3827 -0.9239 -0.0000
vn 0.3812 -0.9202 0.0892
vn 0.0000 -0.9239 0.3827
vn 0.8218 0.4349 0.3681
vn 0.1392 0.7917 0.5949
vn 0.3681 0.4349 0.8218
vn -0.1392 0.7917 0.5949
vn -0.5949 0.7917 0.1392
vn -0.0892 -0.9202 0.3812
vn -0.3681 -0.4349 0.8218
vn 0.8218 -0.4349 0.3681
vn 0.0892 -0.9202 0.3812
vn -0.2352 0.7919 -0.5635
vn -0.5370 0.8219 -0.1901
vn -0.4048 0.8493 -0.3388
vn 0.1901 0.8219 -0.5370
vn 0.3567 0.8631 -0.3575
vn 0.5370 0.8219 -0.1901
vn 0.3681 -0.4349 0.8218
vn 0.0109 0.7121 -0.7019
vn 0.0113 0.7071 -0.7071
vn 0.0000 0.7071 0.7071
vn 0.0115 -0.7051 -0.7090
vn 0.0176 -0.3840 -0.9231
vn 0.0148 -0.3840 -0.9232
vn 0.7113 -0.7022 -0.0317
vn 0.7655 -0.6419 -0.0440
vn 0.6930 0.7204 -0.0277
vn 0.7068 0.7068 -0.0307
vn 0.9239 -0.3827 0.0000
vn 0.5949 0.7917 0.1392
vn 0.9239 0.3827 0.0000
vn 0.7071 0.7071 0.0000
vn -0.7113 -0.7022 -0.0317
vn -0.7655 -0.6419 -0.0440
vn -0.6930 0.7204 -0.0277
vn -0.7068 0.7068 -0.0307
vn -0.9239 -0.3827 0.0000
vn -0.3812 -0.9202 0.0892
vn -0.7071 0.7071 0.0000
vn 1.0000 -0.0000 0.0000
vn 0.2323 -0.8986 -0.3722
vn -0.3109 -0.9246 0.2200
vn -0.2323 -0.8986 -0.3722
vn -1.0000 -0.0000 0.0000
vn 0.0160 0.0000 -0.9999
vn 0.2323 0.3722 -0.8986
vn -0.2323 -0.3722 -0.8986
vn -0.2323 0.3722 -0.8986
vn 0.2323 -0.3722 -0.8986
vn -0.1473 -0.6954 -0.7034
vn -0.1868 -0.4151 -0.8904
vn -0.1553 -0.6864 -0.7104
vn -0.0435 0.7593 -0.6493
vn -0.2323 0.3722 0.8986
vn 0.2266 -0.1603 0.9607
vn 0.2323 0.3722 0.8986
vn 0.2323 0.8986 0.3722
vn -0.2323 0.8986 -0.3722
vn -0.2323 0.8986 0.3722
vn 0.2323 0.8986 -0.3722
vn -0.9333 -0.3591 0.0000
vn 0.4758 -0.3366 -0.8126
vn 0.4758 0.3366 -0.8126
vn 0.4758 -0.8126 0.3366
vn 0.4758 -0.8126 -0.3366
vn -0.4758 0.8126 0.3366
vn -0.4758 0.3366 0.8126
vn 0.4758 -0.3366 0.8126
vn 0.3109 -0.9246 0.2200
vn -0.4758 -0.8126 -0.3366
vn -0.4758 0.8126 -0.3366
vn -0.4758 0.3366 -0.8126
vn 0.4758 0.8126 0.3366
vn 0.4758 0.3366 0.8126
vn -0.4758 -0.3366 0.8126
vn 0.4758 0.8126 -0.3366
vn -0.2266 -0.1603 0.9607
vn -0.4758 -0.8126 0.3366
vn 0.0000 -0.0000 1.0000
vn 0.0000 0.0000 -1.0000
vn 0.7421 -0.6703 0.0000
vn 0.9333 -0.3591 0.0000
vn -0.7421 -0.6703 0.0000
vn 0.9216 -0.3862 -0.0401
vn 0.0172 -0.6295 -0.7768
vn 0.0000 0.7071 -0.7071
vn -0.4758 -0.3366 -0.8126
usemtl restaurant.112
s 1
f 22/1/1 30/2/1 8/3/1
f 52/4/1 17/5/1 55/6/1
f 19/7/2 42/8/3 24/9/4
f 37/10/1 18/11/1 2/12/1
f 25/13/5 33/14/6 32/15/5
f 29/16/7 9/17/8 5/18/9
f 19/7/10 47/19/11 58/20/10
f 26/21/12 28/22/13 21/23/13
f 6/24/14 43/25/15 54/26/16
f 23/27/5 36/28/17 16/29/18
f 23/27/5 45/30/19 50/31/5
f 1/32/20 3/33/21 4/34/22
f 5/18/9 7/35/23 8/36/24
f 9/37/8 11/38/25 12/39/26
f 13/40/27 15/41/28 16/29/18
f 17/42/29 18/43/30 19/7/31
f 20/44/32 21/23/33 22/45/34
f 14/46/35 1/32/20 4/34/22
f 9/17/8 6/24/14 5/18/9
f 21/23/33 56/47/36 57/48/37
f 53/49/16 3/33/21 52/50/38
f 49/51/39 26/52/40 48/53/41
f 15/41/28 44/54/15 45/30/19
f 32/15/42 26/52/12 25/13/43
f 27/55/44 21/23/33 28/22/45
f 16/29/18 35/56/46 13/40/27
f 2/57/47 38/58/48 37/59/49
f 24/60/4 41/61/50 23/27/51
f 19/7/31 40/62/52 39/63/53
f 34/64/54 10/65/55 9/37/8
f 29/16/7 8/36/24 30/66/56
f 3/67/1 18/11/1 17/5/1
f 7/68/1 22/1/1 8/3/1
f 25/13/5 11/38/25 10/65/55
f 23/27/5 16/29/18 15/41/28
f 35/69/46 1/32/20 13/70/27
f 47/71/57 74/72/57 58/73/57
f 45/74/57 65/75/57 71/76/57
f 69/77/58 85/78/59 77/79/60
f 57/80/61 89/81/61 88/82/61
f 57/48/62 26/21/40 21/23/62
f 46/83/61 63/84/61 43/85/61
f 25/13/5 46/86/19 11/38/25
f 48/87/61 78/88/61 49/89/61
f 73/90/63 80/91/64 87/92/65
f 45/74/57 70/93/57 50/94/57
f 47/71/57 70/93/57 81/95/57
f 55/96/57 83/97/57 52/98/57
f 52/98/57 62/99/57 53/100/57
f 43/85/61 59/101/61 54/102/61
f 51/103/61 89/81/61 56/104/61
f 58/73/57 75/105/57 55/96/57
f 53/49/16 14/46/35 4/34/22
f 77/106/60 82/107/66 69/108/58
f 51/109/1 20/110/1 7/68/1
f 49/89/61 86/111/61 46/83/61
f 54/26/16 7/35/23 6/24/14
f 50/31/67 24/60/68 23/27/69
f 11/38/25 43/112/15 12/39/26
f 58/20/70 17/42/29 19/7/31
f 53/100/57 65/75/57 44/113/57
f 60/114/71 66/115/72 61/116/73
f 84/117/74 90/118/75 67/119/76
f 87/120/65 76/121/77 73/122/63
f 85/123/61 97/124/78 64/125/61
f 57/80/61 79/126/61 48/87/61
f 61/116/73 67/119/76 60/114/71
f 81/127/79 73/122/63 74/128/80
f 71/129/81 69/130/58 70/131/82
f 60/114/71 68/132/83 59/133/84
f 65/134/85 72/135/86 71/129/81
f 78/136/87 80/137/64 77/138/60
f 89/139/88 87/120/65 88/140/89
f 83/141/90 61/116/73 62/142/91
f 63/143/92 60/114/71 59/133/84
f 90/118/75 68/132/83 67/119/76
f 80/144/64 88/140/89 87/120/65
f 75/145/93 84/117/74 83/141/90
f 85/146/59 78/136/87 77/138/60
f 76/121/77 74/128/80 73/122/63
f 66/115/72 62/142/91 61/116/73
f 64/147/94 86/148/95 85/146/59
f 82/149/66 70/131/82 69/130/58
f 51/103/61 59/101/61 68/150/61
f 92/151/96 98/152/96 91/153/96
f 64/147/94 92/151/96 66/115/72
f 93/154/97 95/155/97 96/156/97
f 94/157/5 98/158/5 95/159/5
f 94/157/98 92/160/99 91/161/98
f 98/158/100 96/162/78 95/159/100
f 72/163/57 92/160/99 93/164/99
f 72/165/97 96/156/97 85/78/97
f 22/1/1 27/166/1 30/2/1
f 52/4/1 3/67/1 17/5/1
f 19/7/2 39/63/2 42/8/3
f 37/10/1 40/167/1 18/11/1
f 25/13/5 10/65/55 33/14/6
f 29/16/7 34/168/54 9/17/8
f 19/7/10 24/9/68 47/19/11
f 26/21/12 31/169/101 28/22/13
f 6/24/14 12/170/26 43/25/15
f 23/27/5 41/61/5 36/28/17
f 23/27/5 15/41/28 45/30/19
f 1/32/20 2/57/47 3/33/21
f 5/18/9 6/24/14 7/35/23
f 9/37/8 10/65/55 11/38/25
f 13/40/27 14/171/35 15/41/28
f 14/46/35 13/70/27 1/32/20
f 9/17/8 12/170/26 6/24/14
f 21/23/33 20/44/32 56/47/36
f 53/49/16 4/34/22 3/33/21
f 49/51/39 25/13/102 26/52/40
f 15/41/28 14/171/35 44/54/15
f 32/15/42 31/172/101 26/52/12
f 27/55/44 22/45/34 21/23/33
f 16/29/18 36/28/17 35/56/46
f 2/57/47 1/32/20 38/58/48
f 24/60/4 42/173/3 41/61/50
f 19/7/31 18/43/30 40/62/52
f 34/64/54 33/14/6 10/65/55
f 29/16/7 5/18/9 8/36/24
f 3/67/1 2/12/1 18/11/1
f 7/68/1 20/110/1 22/1/1
f 35/69/46 38/58/48 1/32/20
f 47/71/57 81/95/57 74/72/57
f 45/74/57 44/113/57 65/75/57
f 69/77/58 72/165/86 85/78/59
f 57/80/61 56/104/61 89/81/61
f 57/48/62 48/174/41 26/21/40
f 46/83/61 86/111/61 63/84/61
f 25/13/5 49/51/5 46/86/19
f 48/87/61 79/126/61 78/88/61
f 73/90/63 82/175/66 80/91/64
f 45/74/57 71/76/57 70/93/57
f 47/71/57 50/94/57 70/93/57
f 55/96/57 75/105/57 83/97/57
f 52/98/57 83/97/57 62/99/57
f 43/85/61 63/84/61 59/101/61
f 51/103/61 68/150/61 89/81/61
f 58/73/57 74/72/57 75/105/57
f 53/49/16 44/176/15 14/46/35
f 77/106/60 80/177/64 82/107/66
f 51/109/1 56/178/1 20/110/1
f 49/89/61 78/88/61 86/111/61
f 54/26/16 51/179/38 7/35/23
f 50/31/67 47/180/11 24/60/68
f 11/38/25 46/86/19 43/112/15
f 58/20/70 55/181/103 17/42/29
f 53/100/57 62/99/57 65/75/57
f 60/114/71 64/147/94 66/115/72
f 84/117/74 76/182/77 90/118/75
f 87/120/65 90/183/75 76/121/77
f 85/123/61 96/162/78 97/124/78
f 57/80/61 88/82/61 79/126/61
f 61/116/73 84/117/74 67/119/76
f 81/127/79 82/184/66 73/122/63
f 71/129/81 72/135/86 69/130/58
f 60/114/71 67/119/76 68/132/83
f 65/134/85 66/115/72 72/135/86
f 78/136/87 79/185/104 80/137/64
f 89/139/88 90/183/75 87/120/65
f 83/141/90 84/117/74 61/116/73
f 63/143/92 64/147/94 60/114/71
f 90/118/75 89/186/88 68/132/83
f 80/144/64 79/187/104 88/140/89
f 75/145/93 76/182/77 84/117/74
f 85/146/59 86/148/95 78/136/87
f 76/121/77 75/188/93 74/128/80
f 66/115/72 65/134/85 62/142/91
f 64/147/94 63/143/92 86/148/95
f 82/149/66 81/189/79 70/131/82
f 51/103/61 54/102/61 59/101/61
f 92/151/96 97/190/96 98/152/96
f 64/147/94 97/190/96 92/151/96
f 93/154/97 94/191/97 95/155/97
f 94/157/5 91/161/5 98/158/5
f 94/157/98 93/164/99 92/160/99
f 98/158/100 97/124/78 96/162/78
f 72/163/57 66/192/57 92/160/99
f 72/165/97 93/154/97 96/156/97
