# Blender 3.4.1
# www.blender.org
o wall_window_closed_Cube.265
v -2.000000 2.000000 0.150000
v -2.000000 2.100000 0.250000
v -2.000000 1.900000 0.250000
v -1.000000 2.000000 -0.150000
v -1.000000 2.100000 -0.250000
v -1.000000 1.900000 -0.250000
v -1.000000 2.000000 0.150000
v -1.000000 1.900000 0.250000
v -1.000000 2.100000 0.250000
v -2.000000 2.000000 -0.150000
v -2.000000 1.900000 -0.250000
v -2.000000 2.100000 -0.250000
v 2.000000 2.000000 -0.150000
v 2.000000 2.100000 -0.250000
v 2.000000 1.900000 -0.249647
v 1.000000 2.000000 -0.150000
v 1.000000 2.100000 -0.250000
v 1.000000 1.900000 -0.250000
v 1.000000 2.000000 0.150000
v 1.000000 1.900000 0.250000
v 1.000000 2.100000 0.250000
v 2.000000 2.000000 0.150000
v 2.000000 2.100000 0.249682
v 2.000000 1.900000 0.249646
v -1.000000 1.000000 -0.250000
v -1.000000 1.000000 0.250000
v 1.000000 1.000000 -0.250000
v 1.000000 1.000000 0.250000
v 1.000000 1.000000 0.150000
v -1.000000 1.000000 0.150000
v 1.000000 3.000000 0.150000
v -1.000000 3.000000 0.150000
v 0.800000 1.200000 0.150000
v -0.800000 1.200000 0.150000
v 0.800000 2.800000 0.150000
v -0.800000 2.800000 0.150000
v 1.000000 1.000000 -0.150000
v -1.000000 1.000000 -0.150000
v 1.000000 3.000000 -0.150000
v -1.000000 3.000000 -0.150000
v 0.800000 1.200000 -0.150000
v -0.800000 1.200000 -0.150000
v 0.800000 2.800000 -0.150000
v -0.800000 2.800000 -0.150000
v -1.000000 3.000000 -0.250000
v -1.000000 3.000000 0.250000
v 1.000000 3.000000 -0.250000
v 1.000000 3.000000 0.250000
v -1.000000 0.000000 -0.250000
v -1.000000 -0.000000 0.250000
v 1.000000 -0.000000 0.250000
v 1.000000 0.000000 -0.250000
v -2.000000 3.900000 -0.250316
v -2.000000 4.000000 -0.249998
v -1.900000 0.000000 -0.250000
v -2.000000 0.000000 -0.250353
v 1.999999 4.000000 -0.249998
v 2.000000 3.900000 -0.250316
v 2.000000 0.000000 -0.250000
v 1.899999 0.000000 -0.250000
v 2.000000 3.900000 0.250002
v 2.000000 4.000000 0.250002
v 1.900000 -0.000000 0.250000
v 2.000000 -0.000000 0.250000
v -2.000000 4.000000 0.250002
v -2.000000 3.900000 0.250320
v -2.000000 -0.000000 0.250354
v -1.900000 -0.000000 0.250000
v -0.800000 1.200000 0.050000
v -0.800000 1.200000 -0.050000
v -0.800000 2.800000 -0.050000
v -0.800000 2.800000 0.050000
v 0.800000 2.800000 -0.050000
v 0.800000 2.800000 0.050000
v 0.800000 1.200000 -0.050000
v 0.800000 1.200000 0.050000
vn -0.0000 -0.0000 1.0000
vn -0.0000 -0.0000 -1.0000
vn -0.0000 -1.0000 -0.0000
vn -1.0000 -0.0000 -0.0000
vn 1.0000 -0.0000 -0.0000
vn -0.0000 1.0000 -0.0000
vn 0.0014 -0.3825 0.9239
vn 0.0015 0.0004 1.0000
vn 0.0001 -0.0001 1.0000
vn -0.0000 -0.7071 0.7071
vn -0.0000 0.7071 0.7071
vn -0.0000 -0.7071 -0.7071
vn -0.0000 0.7071 -0.7071
vn 0.0002 -0.7070 0.7072
vn -0.1209 -0.6889 0.7147
vn -0.0002 0.0001 1.0000
vn 0.0045 -0.0008 1.0000
vn 0.0055 -0.0013 1.0000
vn 0.0007 -0.0000 1.0000
vn 0.0026 0.0001 1.0000
vn -0.0003 -0.0001 1.0000
vn 0.0009 0.0001 -1.0000
vn 0.0023 0.0001 -1.0000
vn -0.0033 0.0010 -1.0000
vn 0.0011 -0.3827 -0.9239
vn -0.3827 -0.3542 -0.8533
vn 0.0002 0.7070 -0.7072
vn 0.0013 0.7061 -0.7081
vn 0.0002 0.7074 -0.7068
vn -0.0001 -0.0001 -1.0000
vn -0.0075 0.0031 -1.0000
vn 0.0002 0.7076 0.7066
vn 0.0015 0.7061 0.7081
vn -0.0001 0.7052 0.7090
vn 0.0046 0.0026 -1.0000
vn 0.0002 -0.0000 -1.0000
vn 0.0059 0.0022 1.0000
vn 0.0069 0.0026 1.0000
vn -0.0002 0.0001 -1.0000
vn 0.0053 -0.0013 -1.0000
vn 0.0039 -0.0010 -1.0000
vn 0.0010 0.0002 1.0000
vn 0.0012 -0.3827 0.9239
vn -0.0012 -0.3827 -0.9239
vn -0.0000 -0.7060 0.7082
vn -0.0003 -0.0000 1.0000
vn 0.0007 0.0002 1.0000
vn 0.0016 0.0002 1.0000
vn 0.0012 0.0001 -1.0000
vn -0.0003 -0.0002 -1.0000
vn -0.0001 0.7055 -0.7087
vn -0.0010 -0.3829 -0.9238
vn 0.0003 0.7077 0.7065
vn 0.0056 0.0035 -1.0000
vn 0.0010 -0.3829 0.9238
vn -0.0000 0.0002 -1.0000
vn -0.0003 -0.0000 -1.0000
vt 0.522846 0.554814
vt 0.272846 0.664189
vt 0.522846 0.556855
vt 0.522846 0.588105
vt 0.272846 0.662148
vt 0.272846 0.630898
vt 0.293260 0.664189
vt 0.543260 0.554814
vt 0.543260 0.556855
vt 0.543260 0.588105
vt 0.293260 0.662148
vt 0.293260 0.630898
vt 0.543260 0.554814
vt 0.293260 0.664189
vt 0.293260 0.662148
vt 0.293260 0.630898
vt 0.543260 0.556855
vt 0.543260 0.588105
vt 0.272846 0.664189
vt 0.522846 0.554814
vt 0.272846 0.662148
vt 0.272846 0.630898
vt 0.522846 0.556855
vt 0.522846 0.588105
vt 0.604502 0.554814
vt 0.354502 0.664189
vt 0.604502 0.556855
vt 0.604502 0.588105
vt 0.354502 0.630898
vt 0.354502 0.662148
vt 0.584088 0.554814
vt 0.334088 0.664189
vt 0.584088 0.556855
vt 0.584088 0.588105
vt 0.334088 0.662148
vt 0.334088 0.630898
vt 0.584088 0.554814
vt 0.334088 0.664189
vt 0.334088 0.630898
vt 0.334088 0.662148
vt 0.584088 0.556855
vt 0.584088 0.588105
vt 0.354502 0.664189
vt 0.604502 0.554814
vt 0.604502 0.556855
vt 0.604502 0.588105
vt 0.354502 0.630898
vt 0.354502 0.662148
vt 0.293260 0.643775
vt 0.293260 0.612525
vt 0.293260 0.643775
vt 0.293260 0.612525
vt 0.334088 0.643775
vt 0.334088 0.612525
vt 0.334088 0.643775
vt 0.334088 0.612525
vt 0.455514 0.896441
vt 0.419482 0.896441
vt 0.455514 0.982782
vt 0.419482 0.982782
vt 0.451911 0.927691
vt 0.451911 0.896441
vt 0.451911 0.865191
vt 0.423085 0.865191
vt 0.423085 0.896441
vt 0.423085 0.927691
vt 0.451911 0.945776
vt 0.451911 0.977026
vt 0.451911 0.914526
vt 0.423085 0.914526
vt 0.423085 0.977026
vt 0.423085 0.945776
vt 0.455514 0.896441
vt 0.419482 0.896441
vt 0.455514 0.982782
vt 0.419482 0.982782
vt 0.451911 0.896441
vt 0.451911 0.865191
vt 0.451911 0.912066
vt 0.423085 0.896441
vt 0.423085 0.865191
vt 0.423085 0.912066
vt 0.451911 0.977026
vt 0.451911 0.914526
vt 0.451911 0.945776
vt 0.423085 0.977026
vt 0.423085 0.914526
vt 0.423085 0.945776
vt 0.543260 0.575228
vt 0.543260 0.606478
vt 0.543260 0.575228
vt 0.543260 0.606478
vt 0.584088 0.575228
vt 0.584088 0.606478
vt 0.584088 0.575228
vt 0.584088 0.606478
vt 0.293260 0.592111
vt 0.293260 0.592111
vt 0.334088 0.592111
vt 0.334088 0.592111
vt 0.522846 0.656100
vt 0.522846 0.624850
vt 0.524888 0.626892
vt 0.524888 0.658142
vt 0.274888 0.592111
vt 0.272846 0.594153
vt 0.602460 0.626892
vt 0.602460 0.658142
vt 0.604502 0.656100
vt 0.604502 0.624850
vt 0.354502 0.594153
vt 0.352460 0.592111
vt 0.604502 0.656100
vt 0.604502 0.624850
vt 0.602460 0.658142
vt 0.602460 0.626892
vt 0.352460 0.592111
vt 0.354502 0.594153
vt 0.524888 0.658142
vt 0.524888 0.626892
vt 0.522846 0.656100
vt 0.522846 0.624850
vt 0.272846 0.594153
vt 0.274888 0.592111
vt 0.014438 0.014438
vt 0.235562 0.014438
vt 0.235562 0.235562
vt 0.014438 0.235562
vt 0.014438 0.235562
vt 0.235562 0.235562
vt 0.014438 0.014438
vt 0.235562 0.014438
s 0
f 35/68/1 29/57/1 31/59/1
f 30/58/1 36/71/1 32/60/1
f 36/71/1 31/59/1 32/60/1
f 30/58/1 33/62/1 34/65/1
f 37/73/2 43/83/2 39/75/2
f 44/86/2 38/74/2 40/76/2
f 39/75/2 44/86/2 40/76/2
f 41/77/2 38/74/2 42/80/2
f 44/87/3 35/69/3 36/70/3
f 43/85/4 33/63/4 35/67/4
f 42/81/5 36/72/5 34/64/5
f 41/79/6 34/66/6 33/61/6
f 69/125/1 74/130/1 72/128/1
f 75/131/2 71/127/2 73/129/2
f 35/68/1 33/62/1 29/57/1
f 30/58/1 34/65/1 36/71/1
f 36/71/1 35/68/1 31/59/1
f 30/58/1 29/57/1 33/62/1
f 37/73/2 41/77/2 43/83/2
f 44/86/2 42/80/2 38/74/2
f 39/75/2 43/83/2 44/86/2
f 41/77/2 37/73/2 38/74/2
f 44/87/3 43/84/3 35/69/3
f 43/85/4 41/78/4 33/63/4
f 42/81/5 44/88/5 36/72/5
f 41/79/6 42/82/6 34/66/6
f 69/125/1 76/132/1 74/130/1
f 75/131/2 70/126/2 71/127/2
s 1
f 23/46/7 61/114/8 48/96/9
f 9/17/10 1/1/10 7/13/10
f 7/14/11 3/5/11 8/15/11
f 17/33/12 13/25/12 16/31/12
f 1/1/4 12/23/4 10/20/4
f 3/5/4 10/19/4 11/21/4
f 4/8/5 9/17/5 7/13/5
f 6/11/5 7/14/5 8/15/5
f 6/11/13 10/19/13 4/7/13
f 22/43/5 15/30/5 13/26/5
f 14/27/5 22/44/5 13/25/5
f 19/37/4 17/33/4 16/31/4
f 20/40/4 16/32/4 18/35/4
f 19/37/14 23/45/7 21/41/15
f 26/52/5 6/12/5 8/16/5
f 23/46/5 58/110/5 61/114/5
f 8/16/16 67/123/17 68/124/18
f 18/36/4 28/56/4 20/39/4
f 63/117/19 24/47/20 20/39/21
f 25/49/6 28/55/6 27/53/6
f 9/18/5 45/90/5 46/92/5
f 48/95/3 45/89/3 47/93/3
f 60/112/22 18/36/2 15/29/23
f 48/96/9 65/120/1 46/92/1
f 47/94/4 21/42/4 48/96/4
f 28/56/1 68/124/1 50/98/1
f 45/90/2 57/107/24 47/94/2
f 49/97/2 25/50/2 60/112/2
f 11/22/4 67/123/4 3/6/4
f 58/109/5 62/115/5 61/113/5
f 59/111/5 24/47/5 64/118/5
f 53/101/4 65/119/4 54/104/4
f 4/8/12 12/23/25 5/9/26
f 1/1/4 2/3/4 12/23/4
f 3/5/4 1/2/4 10/19/4
f 4/8/5 5/9/5 9/17/5
f 6/11/5 4/7/5 7/14/5
f 16/32/27 15/30/28 18/35/29
f 22/43/5 24/48/5 15/30/5
f 14/27/5 23/45/5 22/44/5
f 19/37/4 21/41/4 17/33/4
f 20/40/4 19/38/4 16/32/4
f 17/34/30 57/107/24 58/110/31
f 19/38/32 24/48/33 22/43/34
f 26/52/5 25/50/5 6/12/5
f 18/36/4 27/54/4 28/56/4
f 25/49/6 26/51/6 28/55/6
f 2/4/4 53/102/4 12/24/4
f 9/18/5 5/10/5 45/90/5
f 48/95/3 46/91/3 45/89/3
f 12/24/25 53/102/35 45/90/36
f 47/94/4 17/34/4 21/42/4
f 57/108/6 65/119/6 62/115/6
f 58/109/5 57/108/5 62/115/5
f 53/101/4 66/121/4 65/119/4
f 9/18/9 65/120/37 66/122/38
f 6/12/39 55/105/40 56/106/41
f 48/96/9 21/42/15 23/46/7
f 61/114/8 62/116/42 48/96/9
f 9/17/10 2/3/43 1/1/10
f 7/14/11 1/2/11 3/5/11
f 17/33/12 14/27/44 13/25/12
f 6/11/13 11/21/13 10/19/13
f 19/37/14 22/44/45 23/45/7
f 23/46/5 14/28/5 58/110/5
f 68/124/18 26/52/46 8/16/16
f 8/16/16 3/6/47 67/123/17
f 20/39/21 28/56/1 63/117/19
f 63/117/19 64/118/48 24/47/20
f 15/29/23 59/111/49 60/112/22
f 60/112/22 27/54/50 18/36/2
f 48/96/9 62/116/42 65/120/1
f 51/99/1 63/117/19 28/56/1
f 28/56/1 26/52/1 68/124/1
f 50/98/1 51/99/1 28/56/1
f 45/90/2 54/103/2 57/107/24
f 60/112/2 52/100/1 49/97/2
f 49/97/2 55/105/2 25/50/2
f 25/50/2 27/54/2 60/112/2
f 11/22/4 56/106/4 67/123/4
f 59/111/5 15/29/5 24/47/5
f 4/8/12 10/20/12 12/23/25
f 16/32/27 13/26/51 15/30/28
f 58/110/31 14/28/52 17/34/30
f 17/34/30 47/94/2 57/107/24
f 19/38/32 20/40/53 24/48/33
f 2/4/4 66/122/4 53/102/4
f 45/90/36 5/10/26 12/24/25
f 53/102/35 54/103/54 45/90/36
f 57/108/6 54/104/6 65/119/6
f 66/122/38 2/4/55 9/18/9
f 9/18/9 46/92/1 65/120/37
f 56/106/41 11/22/56 6/12/39
f 6/12/39 25/50/57 55/105/40
