# Blender 3.4.1
# www.blender.org
o wall_Cube.148
v -2.000000 2.000000 -0.150000
v 2.000000 1.900000 0.249469
v -2.000000 1.900000 -0.249469
v -2.000000 1.900000 0.249469
v 2.000000 1.900000 -0.249469
v 2.000000 2.000000 -0.150000
v 2.000000 2.000000 0.150000
v -2.000000 2.100000 0.249469
v 2.000000 2.100000 0.249469
v 2.000000 2.100000 -0.250000
v -2.000000 2.100000 -0.249469
v -2.000000 2.000000 0.150000
v -2.000000 4.000000 -0.249998
v -1.900000 0.000000 -0.250000
v -2.000000 0.000000 -0.250000
v 2.000000 4.000000 -0.249998
v 2.000000 0.000000 -0.250000
v 1.899999 0.000000 -0.250000
v 2.000000 4.000000 0.250002
v 1.900000 -0.000000 0.250000
v 2.000000 -0.000000 0.250000
v -2.000000 4.000000 0.250002
v -2.000000 -0.000000 0.250000
v -1.900000 -0.000000 0.250000
vn -0.0000 1.0000 -0.0000
vn -1.0000 -0.0000 -0.0000
vn -0.0000 -0.7052 0.7090
vn 0.0035 -0.3827 0.9239
vn -0.0038 -0.3827 0.9239
vn -0.0000 -0.7080 -0.7062
vn -0.0040 -0.3822 -0.9241
vn -0.0000 -0.3833 -0.9236
vn -0.0001 -0.0002 -1.0000
vn -0.0000 -0.0000 -1.0000
vn -0.0000 0.0004 -1.0000
vn -0.0000 0.0005 -1.0000
vn 0.0040 0.3828 -0.9238
vn -0.0000 -0.0003 1.0000
vn -0.0000 0.7052 0.7090
vn -0.0038 0.3829 0.9238
vn 0.0034 0.3827 0.9238
vn -0.0000 0.0003 1.0000
vn -0.0037 0.3829 0.9238
vn 1.0000 -0.0000 -0.0000
vn -0.0036 0.3828 -0.9238
vn -0.0000 0.7052 -0.7090
vn 0.0001 -0.7044 -0.7098
vn -0.0000 0.0003 -1.0000
vn -0.0000 -0.0000 1.0000
vn 0.0034 0.3828 0.9238
vt 0.522846 0.554814
vt 0.272846 0.664189
vt 0.354502 0.662148
vt 0.354502 0.630898
vt 0.272846 0.630898
vt 0.272846 0.662148
vt 0.272846 0.662148
vt 0.272846 0.630898
vt 0.354502 0.662148
vt 0.354502 0.630898
vt 0.604502 0.554814
vt 0.354502 0.664189
vt 0.604502 0.554814
vt 0.354502 0.664189
vt 0.522846 0.556855
vt 0.522846 0.588105
vt 0.604502 0.556855
vt 0.604502 0.588105
vt 0.604502 0.556855
vt 0.604502 0.588105
vt 0.522846 0.556855
vt 0.522846 0.588105
vt 0.522846 0.554814
vt 0.272846 0.664189
vt 0.522846 0.656100
vt 0.522846 0.624850
vt 0.274888 0.592111
vt 0.272846 0.594153
vt 0.604502 0.656100
vt 0.604502 0.624850
vt 0.354502 0.594153
vt 0.352460 0.592111
vt 0.604502 0.656100
vt 0.604502 0.624850
vt 0.352460 0.592111
vt 0.354502 0.594153
vt 0.522846 0.624850
vt 0.522846 0.656100
vt 0.272846 0.594153
vt 0.274888 0.592111
s 1
f 13/25/1 19/33/1 16/29/1
f 15/28/2 4/8/2 3/5/2
f 12/23/3 9/17/4 8/15/5
f 6/11/6 11/21/7 10/19/8
f 10/20/8 13/26/9 16/30/10
f 18/32/11 15/28/12 5/10/13
f 8/16/5 19/34/14 22/37/14
f 7/14/15 4/7/16 2/3/17
f 21/36/18 4/8/19 24/40/18
f 6/12/20 2/3/20 5/9/20
f 16/30/20 9/18/20 10/20/20
f 1/1/2 8/15/2 11/21/2
f 10/19/20 7/13/20 6/11/20
f 5/10/20 21/36/20 17/31/20
f 3/6/2 12/24/2 1/2/2
f 11/22/2 22/37/2 13/26/2
f 15/28/2 23/39/2 4/8/2
f 6/12/20 7/14/20 2/3/20
f 16/30/20 19/34/20 9/18/20
f 1/1/2 12/23/2 8/15/2
f 10/19/20 9/17/20 7/13/20
f 5/10/20 2/4/20 21/36/20
f 3/6/2 4/7/2 12/24/2
f 11/22/2 8/16/2 22/37/2
f 3/6/21 6/12/22 5/9/13
f 13/25/1 22/38/1 19/33/1
f 12/23/3 7/13/3 9/17/4
f 6/11/6 1/1/23 11/21/7
f 10/20/8 11/22/7 13/26/9
f 18/32/11 14/27/1 15/28/12
f 15/28/12 3/5/21 5/10/13
f 5/10/13 17/31/24 18/32/11
f 8/16/5 9/18/4 19/34/14
f 7/14/15 12/24/15 4/7/16
f 24/40/18 20/35/25 21/36/18
f 21/36/18 2/4/26 4/8/19
f 4/8/19 23/39/18 24/40/18
f 3/6/21 1/2/22 6/12/22
