# Blender v3.4.1 OBJ File: 'restaurant.blend'
# www.blender.org
mtllib wall_half_Cube_151.mtl
o wall_half_Cube.151
v 0.100000 2.000000 -0.150000
v 0.000000 2.000000 -0.035131
v 1.900000 1.900000 0.250000
v 2.000000 1.900000 0.136193
v 0.100000 1.900000 -0.250000
v 0.000000 1.900000 -0.136193
v 0.000000 1.900000 0.136193
v 0.100000 1.900000 0.250000
v 1.899999 1.900000 -0.250000
v 2.000000 1.900000 -0.136192
v 2.000000 2.000000 -0.035130
v 1.899999 2.000000 -0.150000
v 2.000000 2.000000 0.035131
v 1.900000 2.000000 0.150000
v 0.100000 2.100000 0.250000
v 0.000000 2.100000 0.136193
v 1.900000 2.100000 0.250000
v 2.000000 2.100000 0.136193
v 1.899999 2.100000 -0.250000
v 2.000000 2.100000 -0.136192
v 0.100000 2.100000 -0.250000
v 0.000000 2.100000 -0.136193
v 0.000000 2.000000 0.035131
v 0.100000 2.000000 0.150000
v 0.000000 3.900000 -0.136723
v 0.100000 4.000000 -0.249999
v 0.100000 0.000000 -0.250000
v 0.000000 0.100000 -0.136724
v 1.899999 4.000000 -0.249999
v 2.000000 3.900000 -0.136722
v 2.000000 0.100000 -0.136723
v 1.899999 0.000000 -0.250000
v 2.000000 3.900000 0.136725
v 1.900000 4.000000 0.250001
v 1.900000 -0.000000 0.250000
v 2.000000 0.100000 0.136724
v 0.100000 4.000000 0.250001
v 0.000000 3.900000 0.136725
v 0.000000 0.100000 0.136724
v 0.100000 -0.000000 0.250000
vt 0.602460 0.658142
vt 0.565715 0.658142
vt 0.602460 0.658142
vt 0.604502 0.656100
vt 0.604502 0.656100
vt 0.352460 0.560861
vt 0.315715 0.560861
vt 0.315715 0.560861
vt 0.313674 0.562903
vt 0.313674 0.562903
vt 0.313674 0.594153
vt 0.313674 0.630898
vt 0.313674 0.630898
vt 0.565715 0.554814
vt 0.563674 0.556855
vt 0.563674 0.554814
vt 0.602460 0.588105
vt 0.604502 0.624850
vt 0.602460 0.626892
vt 0.602460 0.554814
vt 0.604502 0.556855
vt 0.604502 0.554814
vt 0.565715 0.588105
vt 0.563674 0.624850
vt 0.565715 0.626892
vt 0.565715 0.554814
vt 0.563674 0.556855
vt 0.565715 0.556855
vt 0.352460 0.664189
vt 0.354502 0.662148
vt 0.354502 0.664189
vt 0.315715 0.664189
vt 0.313674 0.662148
vt 0.313674 0.664189
vt 0.602460 0.588105
vt 0.604502 0.624850
vt 0.604502 0.588105
vt 0.352460 0.630898
vt 0.354502 0.594153
vt 0.352460 0.592111
vt 0.352460 0.664189
vt 0.354502 0.662148
vt 0.352460 0.662148
vt 0.602460 0.554814
vt 0.604502 0.556855
vt 0.602460 0.556855
vt 0.565715 0.588105
vt 0.563674 0.624850
vt 0.563674 0.588105
vt 0.315715 0.664189
vt 0.313674 0.662148
vt 0.315715 0.662148
vt 0.315715 0.630898
vt 0.315715 0.630898
vt 0.313674 0.594153
vt 0.315715 0.592111
vt 0.352460 0.630898
vt 0.354502 0.594153
vt 0.354502 0.630898
vt 0.354502 0.664189
vt 0.604502 0.588105
vt 0.563674 0.554814
vt 0.604502 0.554814
vt 0.354502 0.630898
vt 0.602460 0.556855
vt 0.565715 0.556855
vt 0.563674 0.656100
vt 0.565715 0.658142
vt 0.313674 0.664189
vt 0.354502 0.562903
vt 0.352460 0.560861
vt 0.565715 0.626892
vt 0.602460 0.626892
vt 0.563674 0.588105
vt 0.352460 0.662148
vt 0.315715 0.662148
vt 0.315715 0.592111
vt 0.352460 0.592111
vt 0.563674 0.656100
vt 0.354502 0.562903
vn 0.0000 1.0000 0.0000
vn 0.7071 0.7071 -0.0000
vn 0.0000 -1.0000 -0.0000
vn -0.7071 -0.7071 -0.0000
vn -1.0000 0.0000 0.0000
vn -0.6277 -0.5518 0.5491
vn -0.7095 -0.3318 0.6218
vn -0.6285 -0.5529 0.5471
vn 0.7319 -0.2248 0.6432
vn 0.7497 -0.0000 0.6617
vn 0.7497 -0.0000 0.6618
vn 0.6277 -0.5518 -0.5491
vn 0.7095 -0.3318 -0.6218
vn 0.6285 -0.5529 -0.5471
vn -0.7319 -0.2248 -0.6432
vn -0.7497 -0.0000 -0.6617
vn -0.7497 0.0000 -0.6618
vn -0.6277 -0.5518 -0.5491
vn -0.7095 -0.3318 -0.6218
vn 0.6277 0.5518 0.5491
vn 0.7095 0.3318 0.6218
vn 0.6285 0.5529 0.5471
vn -0.6277 0.5518 -0.5491
vn -0.7095 0.3318 -0.6218
vn -0.6285 0.5529 -0.5471
vn 0.7319 -0.2248 -0.6432
vn 0.7497 -0.0000 -0.6617
vn 0.7319 0.2248 -0.6432
vn 0.7497 0.0000 -0.6618
vn 0.6277 0.5518 -0.5491
vn 0.7095 0.3318 -0.6218
vn 0.6277 -0.5518 0.5491
vn 0.7095 -0.3318 0.6218
vn -0.7319 -0.2248 0.6432
vn -0.7497 -0.0000 0.6617
vn -0.6277 0.5518 0.5491
vn -0.7095 0.3318 0.6218
vn -0.7319 0.2248 0.6432
vn -0.7319 0.2248 -0.6432
vn -0.7497 -0.0000 0.6618
vn 0.7319 0.2248 0.6432
vn 1.0000 0.0000 0.0000
vn 0.0000 0.7071 0.7071
vn 0.0000 -0.7071 -0.7071
vn 0.0000 -0.7071 0.7071
vn -0.7071 0.7071 0.0000
vn 0.0000 0.0000 -1.0000
vn 0.0000 0.7071 -0.7071
vn 0.7071 -0.7071 -0.0000
vn 0.0000 -0.0000 1.0000
vn -0.6285 -0.5529 -0.5471
vn 0.6285 0.5529 -0.5471
vn 0.6285 -0.5529 0.5471
vn -0.6285 0.5529 0.5471
usemtl restaurant.138
s 1
f 29/1/1 37/2/1 34/3/1
f 30/4/2 34/3/2 33/5/2
f 32/6/3 40/7/3 27/8/3
f 27/8/4 39/9/4 28/10/4
f 28/11/5 7/12/5 6/13/5
f 24/14/6 16/15/7 23/16/8
f 17/17/9 33/18/10 34/19/11
f 12/20/12 20/21/13 11/22/14
f 21/23/15 25/24/16 26/25/17
f 1/26/18 22/27/19 21/28/15
f 14/29/20 4/30/21 13/31/22
f 1/32/23 6/33/24 2/34/25
f 19/35/26 30/36/27 20/37/13
f 9/38/28 31/39/27 32/40/29
f 12/41/30 10/42/31 9/43/28
f 14/44/32 18/45/33 17/46/9
f 15/47/34 38/48/35 16/49/7
f 24/50/36 7/51/37 8/52/38
f 5/53/39 28/11/16 6/13/24
f 8/54/38 39/55/35 40/56/40
f 3/57/41 36/58/10 4/59/21
f 11/60/42 4/30/42 10/42/42
f 30/36/42 18/61/42 20/37/42
f 8/52/43 14/29/43 24/50/43
f 2/62/5 16/15/5 22/27/5
f 20/21/42 13/63/42 11/22/42
f 10/64/42 36/58/42 31/39/42
f 12/20/44 21/28/44 19/65/44
f 24/14/45 17/46/45 15/66/45
f 25/67/46 37/2/46 26/68/46
f 32/40/47 5/53/47 9/38/47
f 9/43/48 1/32/48 12/41/48
f 6/33/5 23/69/5 2/34/5
f 31/70/49 35/71/49 32/6/49
f 40/56/50 3/57/50 8/54/50
f 15/47/50 34/19/50 37/72/50
f 19/35/47 26/25/47 29/73/47
f 22/74/5 38/48/5 25/24/5
f 29/1/1 26/68/1 37/2/1
f 30/4/2 29/1/2 34/3/2
f 32/6/3 35/71/3 40/7/3
f 27/8/4 40/7/4 39/9/4
f 28/11/5 39/55/5 7/12/5
f 24/14/6 15/66/34 16/15/7
f 17/17/9 18/61/33 33/18/10
f 12/20/12 19/65/26 20/21/13
f 21/23/15 22/74/19 25/24/16
f 1/26/18 2/62/51 22/27/19
f 14/29/20 3/75/41 4/30/21
f 1/32/23 5/76/39 6/33/24
f 19/35/26 29/73/29 30/36/27
f 9/38/28 10/64/31 31/39/27
f 12/41/30 11/60/52 10/42/31
f 14/44/32 13/63/53 18/45/33
f 15/47/34 37/72/40 38/48/35
f 24/50/36 23/69/54 7/51/37
f 5/53/39 27/77/17 28/11/16
f 8/54/38 7/12/37 39/55/35
f 3/57/41 35/78/11 36/58/10
f 11/60/42 13/31/42 4/30/42
f 30/36/42 33/18/42 18/61/42
f 8/52/43 3/75/43 14/29/43
f 2/62/5 23/16/5 16/15/5
f 20/21/42 18/45/42 13/63/42
f 10/64/42 4/59/42 36/58/42
f 12/20/44 1/26/44 21/28/44
f 24/14/45 14/44/45 17/46/45
f 25/67/46 38/79/46 37/2/46
f 32/40/47 27/77/47 5/53/47
f 9/43/48 5/76/48 1/32/48
f 6/33/5 7/51/5 23/69/5
f 31/70/49 36/80/49 35/71/49
f 40/56/50 35/78/50 3/57/50
f 15/47/50 17/17/50 34/19/50
f 19/35/47 21/23/47 26/25/47
f 22/74/5 16/49/5 38/48/5
